<?xml version="1.0" encoding="utf-8"?>
<!-- Generator: Adobe Illustrator 22.0.1, SVG Export Plug-In . SVG Version: 6.00 Build 0)  -->
<svg version="1.1" id="Layer_1" xmlns="http://www.w3.org/2000/svg" xmlns:xlink="http://www.w3.org/1999/xlink" x="0px" y="0px"
	 viewBox="0 0 57.5 57.2" style="enable-background:new 0 0 57.5 57.2;" xml:space="preserve">
<style type="text/css">
	.st0{fill:#8268D7;}
	.st1{fill:#FFFFFF;}
</style>
<g>
	<circle class="st0" cx="28.9" cy="28.6" r="28"/>
</g>
<path class="st1" d="M41.3,32.9c1.2,1.5,0.6,3.7-1.1,4.5c0.9,1.9-0.6,4.2-2.7,4.2l-10.3,0c-1.4-0.1-1.4-2,0-2.1h0l10.3,0
	c0.5,0,0.9-0.4,0.9-0.9c0-0.5-0.4-0.9-0.9-0.9h-1.8c-1.4-0.1-1.4-2,0-2.1H39c1.2,0,1.2-1.7,0-1.8h-3.2c-1.4-0.1-1.4-2,0-2.1h3.3
	c1.2,0,1.2-1.7,0-1.8h-3.3c-1.4-0.1-1.4-2,0-2.1h2.5c1.2,0,1.2-1.7,0-1.8l-6.8,0c-0.8,0-1.3-0.8-0.9-1.5c1.4-2.9,3.2-6.5,1.4-7.2
	c-0.3-0.1-0.6-0.1-0.8,0c-0.2,0.1-0.5,0.4-0.6,0.7c-0.7,2.4-1.6,4.2-3.7,6.4c-1.5,1.6-3.6,2.5-5.8,2.5h-1.5c-1,0-1.7,0.8-1.7,1.7
	v4.7c-0.1,1.4-2,1.4-2.1,0v-4.7c0-2.1,1.7-3.8,3.8-3.8h1.5c1.6,0,3.2-0.7,4.3-1.9c0.9-1,1.7-1.9,2.2-2.9c0.4-0.7,1.1-2.9,1.1-2.9
	c0.7-1.7,2.4-2.6,4.1-1.9c3.4,1.6,1.8,5.3,0.4,8.5l5.1,0c2.3,0,3.7,2.5,2.5,4.4C42.3,29.6,42.5,31.7,41.3,32.9L41.3,32.9z
	 M23.2,40.6C23.3,40.6,23.3,40.5,23.2,40.6l6.5-7.2c0.4-0.4,0.3-1.1-0.1-1.4c-0.4-0.4-1.1-0.3-1.4,0.1l-6.4,7.2
	c-0.5,0.5-1.5,0.5-2,0l-2.2-2.3c-0.4-0.4-1-0.4-1.4,0s-0.4,1,0,1.4l2.2,2.3c0.7,0.7,1.5,1,2.5,1S22.6,41.2,23.2,40.6L23.2,40.6z"/>
</svg>
