<?xml version="1.0" encoding="utf-8"?>
<!-- Generator: Adobe Illustrator 22.0.1, SVG Export Plug-In . SVG Version: 6.00 Build 0)  -->
<svg version="1.1" id="Layer_1" xmlns="http://www.w3.org/2000/svg" xmlns:xlink="http://www.w3.org/1999/xlink" x="0px" y="0px"
	 viewBox="0 0 57.5 57.2" style="enable-background:new 0 0 57.5 57.2;" xml:space="preserve">
<style type="text/css">
	.st0{fill:#9ACC72;}
	.st1{fill:#FFFFFF;}
</style>
<g>
	<circle class="st0" cx="29" cy="28.6" r="28"/>
</g>
<g>
	<path class="st1" d="M29,16.4c-6.7,0-12.2,5.5-12.2,12.2S22.3,40.8,29,40.8s12.2-5.5,12.2-12.2S35.7,16.4,29,16.4z M30.1,38.5v-1.8
		h-2.2v1.8c-4.6-0.5-8.3-4.2-8.8-8.8h1.8v-2.2h-1.8c0.5-4.6,4.2-8.3,8.8-8.8v1.8h2.2v-1.8c4.6,0.5,8.3,4.2,8.8,8.8h-1.8v2.2h1.8
		C38.4,34.3,34.7,38,30.1,38.5z"/>
	<path class="st1" d="M28.7,23.7h-2.2V30l3.5,3.5l1.6-1.6l-2.8-2.8V23.7z"/>
</g>
</svg>
