<?xml version="1.0" encoding="utf-8"?>
<!-- Generator: Adobe Illustrator 22.0.1, SVG Export Plug-In . SVG Version: 6.00 Build 0)  -->
<svg version="1.1" id="Layer_1" xmlns="http://www.w3.org/2000/svg" xmlns:xlink="http://www.w3.org/1999/xlink" x="0px" y="0px"
	 viewBox="0 0 57.5 57.2" style="enable-background:new 0 0 57.5 57.2;" xml:space="preserve">
<style type="text/css">
	.st0{fill:#F0B24E;}
	.st1{fill:#FFFFFF;}
</style>
<g>
	<circle class="st0" cx="29" cy="28.8" r="28"/>
</g>
<g>
	<path class="st1" d="M36.7,31.2c1.6-1.8,2.6-4.2,2.6-6.8C39.3,18.7,34.7,14,29,14s-10.3,4.6-10.3,10.3c0,2.6,1,5,2.6,6.8l-3.4,9.6
		l4.5,0l3.5,2.9L29,35l3.1,8.7l3.5-2.9l4.5,0L36.7,31.2z M32.9,40.7l-2.2-6.2c1.7-0.3,3.3-1,4.6-2l2.3,6.6L35,39L32.9,40.7z M23,39
		l-2.7,0l2.3-6.6c1.3,1,2.9,1.8,4.6,2l-2.2,6.2L23,39z M29,15.8c4.7,0,8.6,3.8,8.6,8.6c0,4.7-3.8,8.6-8.6,8.6s-8.6-3.8-8.6-8.6
		C20.4,19.6,24.3,15.8,29,15.8L29,15.8z"/>
	<path class="st1" d="M23.8,28.3h10.4v-7.4l-2.7,0.9L29,19.7l-2.5,2.1l-2.7-0.9V28.3z M25.5,23.3l1.3,0.4L29,22l2.1,1.8l1.3-0.4v3.2
		h-6.9V23.3z"/>
</g>
</svg>
