<svg width="68" height="68" viewBox="0 0 68 68" fill="none" xmlns="http://www.w3.org/2000/svg">
<g clip-path="url(#clip0_76_71)">
<path d="M34 0C52.1628 0 68 14.994 68 32.3C68 49.3136 52.5198 62.7028 34 62.7028C30.0389 62.7049 26.1026 62.0783 22.338 60.8464C20.7604 62.3764 20.2198 62.8966 16.8708 66.1266C14.4568 67.949 12.1856 68.5678 10.1558 67.4186C8.109 66.2626 7.4936 64.0118 7.9118 61.047L9.2718 53.1624C3.366 47.6068 0 40.2628 0 32.3C0 14.994 15.8338 0 34 0ZM34 4.76C18.4076 4.76 4.76 17.68 4.76 32.3C4.76 39.253 7.8608 45.6552 13.328 50.422L13.396 50.4798L14.4058 51.357L14.178 52.683L13.7088 55.4166L13.583 56.1442L12.614 61.7814C12.5569 62.1609 12.5228 62.5436 12.512 62.9272V63.2502C12.512 63.2672 12.5086 63.274 12.5052 63.2774C12.529 63.2434 12.9914 63.0972 13.7836 62.5192L21.1616 55.3588L22.5692 55.8892C26.2256 57.2535 30.0973 57.9502 34 57.9462C50.0344 57.9462 63.24 46.5222 63.24 32.3C63.24 17.6834 49.5924 4.76 34 4.76ZM17.7718 26.5642C18.4568 26.5392 19.1397 26.6525 19.7799 26.8973C20.4201 27.1422 21.0044 27.5136 21.4978 27.9893C21.9912 28.465 22.3837 29.0354 22.6518 29.6662C22.9198 30.297 23.058 30.9754 23.058 31.6608C23.058 32.3462 22.9198 33.0246 22.6518 33.6554C22.3837 34.2862 21.9912 34.8566 21.4978 35.3323C21.0044 35.808 20.4201 36.1794 19.7799 36.4243C19.1397 36.6691 18.4568 36.7824 17.7718 36.7574C16.4523 36.7092 15.2029 36.1511 14.2865 35.2006C13.3701 34.2501 12.858 32.9812 12.858 31.6608C12.858 30.3404 13.3701 29.0715 14.2865 28.121C15.2029 27.1705 16.4523 26.6124 17.7718 26.5642ZM34.765 26.5642C35.45 26.5392 36.1329 26.6525 36.7731 26.8973C37.4133 27.1422 37.9976 27.5136 38.491 27.9893C38.9844 28.465 39.3769 29.0354 39.645 29.6662C39.913 30.297 40.0512 30.9754 40.0512 31.6608C40.0512 32.3462 39.913 33.0246 39.645 33.6554C39.3769 34.2862 38.9844 34.8566 38.491 35.3323C37.9976 35.808 37.4133 36.1794 36.7731 36.4243C36.1329 36.6691 35.45 36.7824 34.765 36.7574C33.4455 36.7092 32.1961 36.1511 31.2797 35.2006C30.3633 34.2501 29.8512 32.9812 29.8512 31.6608C29.8512 30.3404 30.3633 29.0715 31.2797 28.121C32.1961 27.1705 33.4455 26.6124 34.765 26.5642ZM51.7548 26.5642C52.4398 26.5392 53.1227 26.6525 53.7629 26.8973C54.4031 27.1422 54.9874 27.5136 55.4808 27.9893C55.9742 28.465 56.3667 29.0354 56.6348 29.6662C56.9028 30.297 57.041 30.9754 57.041 31.6608C57.041 32.3462 56.9028 33.0246 56.6348 33.6554C56.3667 34.2862 55.9742 34.8566 55.4808 35.3323C54.9874 35.808 54.4031 36.1794 53.7629 36.4243C53.1227 36.6691 52.4398 36.7824 51.7548 36.7574C50.4353 36.7092 49.1859 36.1511 48.2695 35.2006C47.3531 34.2501 46.841 32.9812 46.841 31.6608C46.841 30.3404 47.3531 29.0715 48.2695 28.121C49.1859 27.1705 50.4353 26.6124 51.7548 26.5642Z" fill="white"/>
</g>
<defs>
<clipPath id="clip0_76_71">
<rect width="68" height="68" fill="white"/>
</clipPath>
</defs>
</svg>
