<?xml version="1.0" encoding="utf-8"?>
<!-- Generator: Adobe Illustrator 22.0.1, SVG Export Plug-In . SVG Version: 6.00 Build 0)  -->
<svg version="1.1" id="Layer_1" xmlns="http://www.w3.org/2000/svg" xmlns:xlink="http://www.w3.org/1999/xlink" x="0px" y="0px"
	 viewBox="0 0 298.4 89.8" style="enable-background:new 0 0 298.4 89.8;" xml:space="preserve">
<style type="text/css">
	.st0{display:none;fill:#4C4C4C;}
	.st1{fill:#4C4C4C;}
	.st2{opacity:0.5;clip-path:url(#SVGID_2_);fill:url(#SVGID_3_);}
	.st3{opacity:0.5;clip-path:url(#SVGID_5_);fill:url(#SVGID_6_);}
	.st4{fill:url(#SVGID_7_);}
	.st5{opacity:0.5;fill:url(#SVGID_8_);}
	.st6{fill:url(#SVGID_9_);}
	.st7{fill:url(#SVGID_10_);}
	.st8{fill:url(#SVGID_11_);}
	.st9{opacity:0.5;fill:url(#SVGID_12_);}
	.st10{opacity:0.5;fill:url(#SVGID_13_);}
	.st11{opacity:0.5;fill:url(#SVGID_14_);}
	.st12{fill:url(#SVGID_15_);}
	.st13{opacity:0.5;fill:url(#SVGID_16_);}
	.st14{fill:url(#SVGID_17_);}
	.st15{fill:url(#SVGID_18_);}
	.st16{fill:url(#SVGID_19_);}
	.st17{opacity:0.5;fill:url(#SVGID_20_);}
	.st18{opacity:0.5;fill:url(#SVGID_21_);}
	.st19{opacity:0.5;fill:url(#SVGID_22_);}
	.st20{fill:none;}
	.st21{fill:url(#SVGID_23_);}
	.st22{fill:url(#SVGID_24_);}
	.st23{filter:url(#Adobe_OpacityMaskFilter);}
	.st24{fill:url(#SVGID_26_);}
	.st25{opacity:0.5;mask:url(#SVGID_25_);}
	.st26{opacity:0.5;clip-path:url(#SVGID_28_);fill:url(#SVGID_29_);}
	.st27{opacity:0.5;clip-path:url(#SVGID_31_);fill:url(#SVGID_32_);}
	.st28{fill:url(#SVGID_33_);}
	.st29{opacity:0.5;fill:url(#SVGID_34_);}
	.st30{fill:url(#SVGID_35_);}
	.st31{fill:url(#SVGID_36_);}
	.st32{fill:url(#SVGID_37_);}
	.st33{opacity:0.5;fill:url(#SVGID_38_);}
	.st34{opacity:0.5;fill:url(#SVGID_39_);}
	.st35{opacity:0.5;fill:url(#SVGID_40_);}
	.st36{fill:url(#SVGID_41_);}
	.st37{opacity:0.5;fill:url(#SVGID_42_);}
	.st38{fill:url(#SVGID_43_);}
	.st39{fill:url(#SVGID_44_);}
	.st40{fill:url(#SVGID_45_);}
	.st41{opacity:0.5;fill:url(#SVGID_46_);}
	.st42{opacity:0.5;fill:url(#SVGID_47_);}
	.st43{opacity:0.5;fill:url(#SVGID_48_);}
	.st44{fill:url(#SVGID_49_);}
	.st45{fill:url(#SVGID_50_);}
	.st46{display:none;}
	.st47{display:inline;fill:#0028A7;}
	.st48{font-family:'ZeroesOne-Regular';}
	.st49{font-size:39.9761px;}
	.st50{display:inline;fill:#353535;}
	.st51{font-size:19.0458px;}
	.st52{letter-spacing:4;}
	.st53{display:inline;fill:none;}
	.st54{display:inline;fill:#F75900;}
	.st55{display:inline;fill:url(#SVGID_51_);}
	.st56{display:inline;fill:url(#SVGID_52_);}
	.st57{display:inline;fill:url(#SVGID_53_);}
	.st58{display:inline;fill:url(#SVGID_54_);}
	.st59{display:inline;}
	.st60{fill:#F75900;}
	.st61{fill:url(#SVGID_55_);}
	.st62{fill:url(#SVGID_56_);}
	.st63{fill:url(#SVGID_57_);}
	.st64{display:inline;fill:url(#SVGID_58_);}
	.st65{display:inline;fill:url(#SVGID_59_);}
	.st66{fill:url(#SVGID_60_);}
	.st67{fill:url(#SVGID_61_);}
	.st68{fill:url(#SVGID_62_);}
	.st69{fill:url(#SVGID_63_);}
	.st70{fill:url(#SVGID_64_);}
	.st71{fill:url(#SVGID_65_);}
	.st72{fill:url(#SVGID_66_);}
	.st73{fill:#353535;}
	.st74{fill:url(#SVGID_67_);}
	.st75{fill:url(#SVGID_68_);}
	.st76{fill:url(#SVGID_69_);}
	.st77{fill:url(#SVGID_70_);}
	.st78{fill:url(#SVGID_71_);}
	.st79{fill:url(#SVGID_72_);}
	.st80{fill:url(#SVGID_73_);}
	.st81{fill:url(#SVGID_74_);}
	.st82{fill:url(#SVGID_75_);}
	.st83{fill:url(#SVGID_76_);}
	.st84{fill:url(#SVGID_77_);}
	.st85{fill:url(#SVGID_78_);}
	.st86{fill:url(#SVGID_79_);}
	.st87{fill:url(#SVGID_80_);}
	.st88{fill:url(#SVGID_81_);}
	.st89{fill:url(#SVGID_82_);}
	.st90{fill:url(#SVGID_83_);}
	.st91{fill:url(#SVGID_84_);}
	.st92{fill:url(#SVGID_85_);}
	.st93{fill:url(#SVGID_86_);}
	.st94{opacity:0.4;fill:url(#SVGID_87_);}
	.st95{fill:url(#SVGID_88_);}
	.st96{opacity:0.4;fill:url(#SVGID_89_);}
	.st97{fill:url(#SVGID_90_);}
	.st98{opacity:0.4;fill:url(#SVGID_91_);}
	.st99{fill:url(#SVGID_92_);}
	.st100{opacity:0.4;fill:url(#SVGID_93_);}
	.st101{fill:url(#SVGID_94_);}
	.st102{opacity:0.4;fill:url(#SVGID_95_);}
	.st103{fill:url(#SVGID_96_);}
	.st104{opacity:0.4;fill:url(#SVGID_97_);}
	.st105{fill:url(#SVGID_98_);}
	.st106{opacity:0.4;fill:url(#SVGID_99_);}
	.st107{fill:url(#SVGID_100_);}
	.st108{opacity:0.4;fill:url(#SVGID_101_);}
	.st109{fill:url(#SVGID_102_);}
	.st110{opacity:0.4;fill:url(#SVGID_103_);}
</style>
<g>
	<g>
		<g>
			<g>
				<path class="st0" d="M63.4,58.6c-5.9,0.7-10.5,0.8-15.9,0.8c-4.1,0-7.8-0.1-9.5-0.1c-1.1,0-2.3-0.1-3.5-0.1
					c-4.4-0.2-8.8-0.6-13.2-0.8c-1,0-1.6-0.1-2.2-0.1c0,0-0.6,0-1.3-0.1c-2-0.1-4.4-0.3-5.1-0.4c0,0.6,0,1.2,0,1.8
					c-0.7,0-1.4,0-2.1,0c-0.1,0.4-0.6,4.2,2.2,6.9c1.9,1.9,4.3,2.1,5,2.1h47.6c4,0,7.2-3.4,7.2-7.6V57C70.1,57.6,67,58.2,63.4,58.6z
					"/>
				<g>
					<path class="st1" d="M78.6,9.2h0.8c-1-3.7-4-6.4-7.6-6.4H19.5c-0.6,0-3.3,0.1-5.4,2.5c-2.7,2.9-2.5,6.9-2.5,7.4
						c1.3-0.3,2.5-0.7,3.8-1c9.3-1.9,20.8-3.3,33.9-3c11.2,0.3,21,1.7,29.3,3.6V9.2z"/>
					<g>
						<defs>
							<path id="SVGID_1_" d="M71.9,2.2H19.5c-0.6,0-3.3,0.1-5.4,2.2c-2.7,2.6-2.5,6.1-2.5,6.5c1.3-0.3,2.5-0.6,3.8-0.9
								c9.3-1.6,20.8-2.9,33.9-2.6c11.7,0.3,22,1.7,30.5,3.4v-0.7C79.8,5.8,76.3,2.2,71.9,2.2z"/>
						</defs>
						<clipPath id="SVGID_2_">
							<use xlink:href="#SVGID_1_"  style="overflow:visible;"/>
						</clipPath>
						<linearGradient id="SVGID_3_" gradientUnits="userSpaceOnUse" x1="45.7071" y1="68.3608" x2="45.7071" y2="4.2471">
							<stop  offset="0.5405" style="stop-color:#FFFFFF;stop-opacity:0"/>
							<stop  offset="1" style="stop-color:#FFFFFF;stop-opacity:0.25"/>
						</linearGradient>
						<path class="st2" d="M71.8,4.2H19.6c-0.5,0-2.4,0.1-4.1,1.5c-2.2,1.9-2.2,4.5-2.2,4.9c1-0.2,1.8-0.3,2.3-0.3
							c0.3,0,0.5,0,2.3,0c0,0,0,0,0.6,0c5.8,0,12.5-1.2,12.5-1.2C38,8,45.5,8,49.9,8c6.5,0,11.5,0.5,15.5,1c5,0.5,9.3,1.2,12.6,1.7
							v-0.2C78.1,7,75.3,4.2,71.8,4.2z"/>
					</g>
				</g>
				<g>
					<path class="st1" d="M79.8,62.3c-3.4,0.7-7.7,1.4-12.7,2c-10.8,1.3-19.4,1.2-23.2,1.2c-4-0.1-12-0.4-22-2
						c-3.2-0.5-5.9-1-7.8-1.5c0,1.2-0.1,2.5-0.1,3.7h-1.9c1,3.7,4,6.4,7.6,6.4h52.4c0.6,0,3.3-0.1,5.4-2.5
						C80,66.8,79.8,62.8,79.8,62.3z"/>
					<g>
						<defs>
							<path id="SVGID_4_" d="M19.8,72.1h52.1c0.6,0,3.2,0,5.4-2c2.7-2.5,2.5-5.9,2.5-6.4c-1.5,0.3-3.6,0.7-6.1,1.2
								c-2.7,0.4-15.1,2.5-32.8,1.7c-6.9-0.3-15.8-1-26.1-2.9c-1,0.3-1.9,0.7-2.9,1C11.9,68.8,15.4,72.1,19.8,72.1z"/>
						</defs>
						<clipPath id="SVGID_5_">
							<use xlink:href="#SVGID_4_"  style="overflow:visible;"/>
						</clipPath>
						
							<linearGradient id="SVGID_6_" gradientUnits="userSpaceOnUse" x1="-21.5797" y1="-286.0519" x2="-21.5797" y2="-361.3402" gradientTransform="matrix(-1 0 0 -1 24.2669 -290.6667)">
							<stop  offset="0.5405" style="stop-color:#FFFFFF;stop-opacity:0"/>
							<stop  offset="1" style="stop-color:#FFFFFF;stop-opacity:0.25"/>
						</linearGradient>
						<path class="st3" d="M75.7,64.6c-0.3,0-0.5,0-2.3,0h-0.6c-5.8,0-12.4,1.1-12.4,1.1c-7.3,1-13.7,1.2-18.8,1.1
							c-2.6-0.1-8.1-0.3-15-1.3c-4.6-0.7-8.6-1.5-11.9-2.3v3.8h-1.2c0.3,0.6,1,1.7,2.3,2.6c0.1,0.1,0.2,0.1,0.2,0.2
							c1.1,0.7,2.4,1,3.7,1c17.3-0.1,34.6-0.3,52-0.4c0.5,0,2.4-0.1,4-1.4c2.1-1.7,2.2-4.2,2.2-4.6C77.1,64.5,76.3,64.5,75.7,64.6z"
							/>
					</g>
				</g>
			</g>
			<g>
				<g>
					<g>
						<linearGradient id="SVGID_7_" gradientUnits="userSpaceOnUse" x1="1.4652" y1="21.7553" x2="80.7198" y2="21.7553">
							<stop  offset="1.818196e-02" style="stop-color:#0028A7"/>
							<stop  offset="0.1406" style="stop-color:#0031AA"/>
							<stop  offset="0.343" style="stop-color:#004AB2"/>
							<stop  offset="0.6005" style="stop-color:#0073BF"/>
							<stop  offset="0.9" style="stop-color:#00ACD1"/>
							<stop  offset="1" style="stop-color:#00C0D8"/>
						</linearGradient>
						<path class="st4" d="M80.7,14.3c-0.7-0.1-1.5-0.3-2.4-0.4c-41-7.2-71.6-0.7-76,7C1.4,22.4,1.5,24,1.5,24
							c0.2,4.7,6.6,7.8,8.8,8.8c-0.5-0.9-1.2-2.4-0.9-4.1c0.6-3.3,4.4-5.1,7.5-6.4c9.8-4,19.6-5.2,28.4-6.1
							c4.5-0.5,8.1-0.8,12.1-1.1c0.9-0.1,3-0.2,5.3-0.3c4-0.2,9.6-0.4,16.7-0.1C79.9,14.5,80.3,14.4,80.7,14.3z"/>
						<linearGradient id="SVGID_8_" gradientUnits="userSpaceOnUse" x1="2.6135" y1="21.1661" x2="80.6651" y2="21.1661">
							<stop  offset="0" style="stop-color:#FFFFFF;stop-opacity:0.7"/>
							<stop  offset="0.7297" style="stop-color:#FFFFFF;stop-opacity:0"/>
						</linearGradient>
						<path class="st5" d="M80.7,14.4c-2.3-0.3-6.2-0.9-11-1.5C21.4,7.5,6.2,17.9,3.8,20.8c-0.3,0.3-1.1,1.3-1.2,2.6
							c-0.3,3.5,4.4,6.5,6.1,7.5c-0.7-2.1-0.3-3.4,0-4.1c0-0.1,0.1-0.2,0.2-0.3c1.5-2.2,4.5-3.8,5-4c2.7-1.4,4.6-2,4.6-2
							c6.1-2,11-2.9,11-2.9c13.2-2.3,23.8-3,27-3.2c1.7-0.1,3.6-0.2,6.1-0.3c7.1-0.2,13,0,17.1,0.3C80.1,14.4,80.4,14.4,80.7,14.4z"
							/>
						<linearGradient id="SVGID_9_" gradientUnits="userSpaceOnUse" x1="79.5047" y1="12.225" x2="84.3143" y2="12.225">
							<stop  offset="1.818196e-02" style="stop-color:#0028A7"/>
							<stop  offset="0.1406" style="stop-color:#0031AA"/>
							<stop  offset="0.343" style="stop-color:#004AB2"/>
							<stop  offset="0.6005" style="stop-color:#0073BF"/>
							<stop  offset="0.9" style="stop-color:#00ACD1"/>
							<stop  offset="1" style="stop-color:#00C0D8"/>
						</linearGradient>
						<rect x="79.5" y="9.8" class="st6" width="4.8" height="4.9"/>
						<linearGradient id="SVGID_10_" gradientUnits="userSpaceOnUse" x1="84.8487" y1="17.2408" x2="89.6584" y2="17.2408">
							<stop  offset="1.818196e-02" style="stop-color:#0028A7"/>
							<stop  offset="0.1406" style="stop-color:#0031AA"/>
							<stop  offset="0.343" style="stop-color:#004AB2"/>
							<stop  offset="0.6005" style="stop-color:#0073BF"/>
							<stop  offset="0.9" style="stop-color:#00ACD1"/>
							<stop  offset="1" style="stop-color:#00C0D8"/>
						</linearGradient>
						<rect x="84.8" y="14.8" class="st7" width="4.8" height="4.8"/>
						<linearGradient id="SVGID_11_" gradientUnits="userSpaceOnUse" x1="76.8937" y1="18.4623" x2="82.1156" y2="18.4623">
							<stop  offset="1.818196e-02" style="stop-color:#0028A7"/>
							<stop  offset="0.1406" style="stop-color:#0031AA"/>
							<stop  offset="0.343" style="stop-color:#004AB2"/>
							<stop  offset="0.6005" style="stop-color:#0073BF"/>
							<stop  offset="0.9" style="stop-color:#00ACD1"/>
							<stop  offset="1" style="stop-color:#00C0D8"/>
						</linearGradient>
						<rect x="76.9" y="15.9" class="st8" width="5.2" height="5.2"/>
					</g>
				</g>
				<linearGradient id="SVGID_12_" gradientUnits="userSpaceOnUse" x1="80.0849" y1="12.225" x2="83.5662" y2="12.225">
					<stop  offset="0" style="stop-color:#FFFFFF;stop-opacity:0.7"/>
					<stop  offset="0.7297" style="stop-color:#FFFFFF;stop-opacity:0"/>
				</linearGradient>
				<rect x="80.1" y="10.3" class="st9" width="3.5" height="3.8"/>
				<linearGradient id="SVGID_13_" gradientUnits="userSpaceOnUse" x1="85.3068" y1="17.2408" x2="89.2003" y2="17.2408">
					<stop  offset="0" style="stop-color:#FFFFFF;stop-opacity:0.7"/>
					<stop  offset="0.7297" style="stop-color:#FFFFFF;stop-opacity:0"/>
				</linearGradient>
				<rect x="85.3" y="15.3" class="st10" width="3.9" height="3.9"/>
				<linearGradient id="SVGID_14_" gradientUnits="userSpaceOnUse" x1="77.4739" y1="18.4623" x2="81.5354" y2="18.4623">
					<stop  offset="0" style="stop-color:#FFFFFF;stop-opacity:0.7"/>
					<stop  offset="0.7297" style="stop-color:#FFFFFF;stop-opacity:0"/>
				</linearGradient>
				<rect x="77.5" y="16.3" class="st11" width="4.1" height="4.4"/>
			</g>
			<g>
				<g>
					<g>
						<linearGradient id="SVGID_15_" gradientUnits="userSpaceOnUse" x1="11.8543" y1="52.4481" x2="91.1089" y2="52.4481">
							<stop  offset="0" style="stop-color:#00C0D8"/>
							<stop  offset="0.1" style="stop-color:#00ACD1"/>
							<stop  offset="0.3995" style="stop-color:#0073BF"/>
							<stop  offset="0.657" style="stop-color:#004AB2"/>
							<stop  offset="0.8594" style="stop-color:#0031AA"/>
							<stop  offset="0.9818" style="stop-color:#0028A7"/>
						</linearGradient>
						<path class="st12" d="M11.9,59.9c0.7,0.1,1.5,0.3,2.4,0.4c41,7.2,71.6,0.7,76-7c0.9-1.6,0.9-3.2,0.9-3.2
							c-0.2-4.7-6.6-7.8-8.8-8.8c0.5,0.9,1.2,2.4,0.9,4.1c-0.6,3.3-4.4,5.1-7.5,6.4c-9.8,4-19.6,5.2-28.4,6.1
							c-4.5,0.5-8.1,0.8-12.1,1.1c-0.9,0.1-3,0.2-5.3,0.3c-4,0.2-9.6,0.4-16.7,0.1C12.7,59.7,12.3,59.8,11.9,59.9z"/>
						
							<linearGradient id="SVGID_16_" gradientUnits="userSpaceOnUse" x1="-146.6293" y1="-298.204" x2="-68.5777" y2="-298.204" gradientTransform="matrix(-1 0 0 -1 -56.6686 -245.1667)">
							<stop  offset="0" style="stop-color:#FFFFFF;stop-opacity:0.7"/>
							<stop  offset="0.7297" style="stop-color:#FFFFFF;stop-opacity:0"/>
						</linearGradient>
						<path class="st13" d="M11.9,59.8c2.3,0.3,6.2,0.9,11,1.5c48.3,5.4,63.4-4.9,65.9-7.8c0.3-0.3,1.1-1.3,1.2-2.6
							c0.3-3.5-4.4-6.5-6.1-7.5c0.7,2.1,0.3,3.4,0,4.1c0,0.1-0.1,0.2-0.2,0.3c-1.5,2.2-4.5,3.8-5,4c-2.7,1.4-4.6,2-4.6,2
							c-6.1,2-11,2.9-11,2.9c-13.2,2.3-23.8,3-27,3.2c-1.7,0.1-3.6,0.2-6.1,0.3c-7.1,0.2-13,0-17.1-0.3
							C12.5,59.8,12.2,59.8,11.9,59.8z"/>
						<linearGradient id="SVGID_17_" gradientUnits="userSpaceOnUse" x1="8.2598" y1="61.9784" x2="13.0695" y2="61.9784">
							<stop  offset="0" style="stop-color:#00C0D8"/>
							<stop  offset="0.1" style="stop-color:#00ACD1"/>
							<stop  offset="0.3995" style="stop-color:#0073BF"/>
							<stop  offset="0.657" style="stop-color:#004AB2"/>
							<stop  offset="0.8594" style="stop-color:#0031AA"/>
							<stop  offset="0.9818" style="stop-color:#0028A7"/>
						</linearGradient>
						<rect x="8.3" y="59.5" class="st14" width="4.8" height="4.9"/>
						<linearGradient id="SVGID_18_" gradientUnits="userSpaceOnUse" x1="2.9158" y1="56.9626" x2="7.7254" y2="56.9626">
							<stop  offset="0" style="stop-color:#00C0D8"/>
							<stop  offset="0.1" style="stop-color:#00ACD1"/>
							<stop  offset="0.3995" style="stop-color:#0073BF"/>
							<stop  offset="0.657" style="stop-color:#004AB2"/>
							<stop  offset="0.8594" style="stop-color:#0031AA"/>
							<stop  offset="0.9818" style="stop-color:#0028A7"/>
						</linearGradient>
						<rect x="2.9" y="54.6" class="st15" width="4.8" height="4.8"/>
						<linearGradient id="SVGID_19_" gradientUnits="userSpaceOnUse" x1="10.4586" y1="56.0312" x2="15.6805" y2="56.0312">
							<stop  offset="0" style="stop-color:#00C0D8"/>
							<stop  offset="0.1" style="stop-color:#00ACD1"/>
							<stop  offset="0.3995" style="stop-color:#0073BF"/>
							<stop  offset="0.657" style="stop-color:#004AB2"/>
							<stop  offset="0.8594" style="stop-color:#0031AA"/>
							<stop  offset="0.9818" style="stop-color:#0028A7"/>
						</linearGradient>
						<rect x="10.5" y="53.4" class="st16" width="5.2" height="5.2"/>
					</g>
				</g>
				
					<linearGradient id="SVGID_20_" gradientUnits="userSpaceOnUse" x1="-69.1579" y1="-307.1451" x2="-65.6766" y2="-307.1451" gradientTransform="matrix(-1 0 0 -1 -56.6686 -245.1667)">
					<stop  offset="0" style="stop-color:#FFFFFF;stop-opacity:0.7"/>
					<stop  offset="0.7297" style="stop-color:#FFFFFF;stop-opacity:0"/>
				</linearGradient>
				<polygon class="st17" points="12.5,63.9 9,63.9 9,60.1 12.5,60.1 				"/>
				
					<linearGradient id="SVGID_21_" gradientUnits="userSpaceOnUse" x1="-63.936" y1="-302.1293" x2="-60.0424" y2="-302.1293" gradientTransform="matrix(-1 0 0 -1 -56.6686 -245.1667)">
					<stop  offset="0" style="stop-color:#FFFFFF;stop-opacity:0.7"/>
					<stop  offset="0.7297" style="stop-color:#FFFFFF;stop-opacity:0"/>
				</linearGradient>
				<polygon class="st18" points="7.3,58.9 3.4,58.9 3.4,55 7.3,55 				"/>
				
					<linearGradient id="SVGID_22_" gradientUnits="userSpaceOnUse" x1="-71.7689" y1="-301.1979" x2="-67.7074" y2="-301.1979" gradientTransform="matrix(-1 0 0 -1 -56.6686 -245.1667)">
					<stop  offset="0" style="stop-color:#FFFFFF;stop-opacity:0.7"/>
					<stop  offset="0.7297" style="stop-color:#FFFFFF;stop-opacity:0"/>
				</linearGradient>
				<polygon class="st19" points="15.1,58.2 11,58.2 11,53.9 15.1,53.9 				"/>
			</g>
		</g>
		<g>
			<path class="st20" d="M66.4,52.7c-1.3,0.4-2.6,0.7-3.8,1c-0.2,0.1-0.5,0.2-0.7,0.3c-1.7,0.7-3.4,1-5.3,0.9
				c-3,0.5-6.1,0.9-9.6,1.3c-7.4,0.8-17.3,1.6-29.3,1.9v-1.9v-3.6h-3.4h-1.7c0,4.5,0,9.1,0,13.6c0,4.4,3.5,8,7.9,8h52.4
				c0.6,0,3.1-0.1,5.3-2c2.6-2.3,2.6-5.5,2.6-6c0-6.2,0-12.4,0-18.6c0,0-0.1,0.1-0.1,0.1C77.2,49.2,72.4,51.1,66.4,52.7z"/>
			<path class="st1" d="M36.8,54.2c0.2-0.1,0.3-0.1,0.3-0.1c0.3-0.1,0.9-0.4,2.3-1.1c-0.9,0.3-3.8,1.3-7,0.1
				c-0.5-0.2-1.7-0.8-2.9-1.9c-2.6-2.3-3.3-5.3-3.3-8.6c0-6.4,0-12.8,0-19.1c0,0,0,0,0-0.1v-1.2h-1.6c-3.3,2-6.6,4.1-9.9,6.1V52h3.4
				v3.6c2.9,0,5.4,0,7.6-0.1c3.6-0.1,7-0.3,10.1-0.6C36.1,54.6,36.4,54.3,36.8,54.2z"/>
			<path class="st1" d="M33.9,23.1c0.1,11.3,1.3,12.6,0.1,16.5c-0.9,2.7-1.9,3.4-1.4,5c0.6,2.1,3.4,3.5,5.8,3.5c2.4,0,4-1.4,4.7-2
				c2.7-2.4,3.1-5.8,3.2-6.8c0-0.8,0-1.6,0-2.4c1.1,1.1,2.1,2.1,3.2,3c1.3,1,2.7,1.7,4.1,2.6c0.7,0.5,0.8,0.9,0.9,1.1
				c0.8,1.5,0,3.3-0.3,4.1c-0.6,1.6-1.2,4.1-0.9,7.8c0.9-0.1,1.7-0.2,2.6-0.3c0-2.5-0.1-4.9-0.1-7.4c0.9,0,1.8,0.1,2.6,0
				c1-0.1,1.8-0.6,2-1.6c0.2-0.9-0.3-1.6-1.1-2c-1.3-0.7-2.6-1.3-3.9-2c-1.9-1.1-3.9-2.1-5.7-3.4c-4.7-3.7-4.1-11.6,0.9-15.1
				c4.2-2.9,13.8-3.3,18.5,3.5c-1.6,1.7-3.2,3.5-4.7,5.1C64,31.7,60.2,28,57.5,28c-0.8,0-1.5,0.3-1.5,0.3c-0.2,0.1-1.8,0.8-2,2.2
				c-0.2,1.1,0.4,2.1,0.9,2.5c1.5,1,3.1,2,4.8,2.8c2.5,1.3,4.9,2.8,6.5,5.1c2.2,3.2,2,7.2-0.1,10.1c0,0,0,0,0.1,0
				c5.5-1.4,9.9-3,13.1-4.3V23.4c-1.4,0-2.7,0-4.1,0c0-1.9,0-3.9,0-5.8c-1.8,0-4.3,0.1-7.3,0.3c-1.4,0.1-2.8,0.2-4.1,0.3
				c-1.8,0.3-3.8,0.5-6.1,0.6c-2,0.2-4,0.5-6,0.8c-7.5,1.1-13.3,1.9-17.8,2.7C33.9,22.6,33.9,22.8,33.9,23.1z"/>
		</g>
		<g>
			<g>
				<g>
					<path class="st1" d="M53.5,54.8c-0.1,0-0.2,0-0.2,0V53c-0.4,0.1-0.9,0.1-1.3,0.2c0,0.1-0.1,0.3-0.1,0.5H49
						c-6.9,1-15.3,2.1-25.8,2.4c-0.5,0-1.1,0-1.7,0v1.8c9.4-0.4,17.3-1,23.5-1.7c3.1-0.3,5.8-0.7,8.5-1.1
						C53.5,55,53.5,54.9,53.5,54.8z"/>
				</g>
				<g>
					<path class="st1" d="M74.7,22v-4.2c-0.2-0.1-0.4-0.3-0.5-0.5c-0.1,0-0.3,0.1-0.5,0.1c-3.6,0.1-7.1,0.4-10.7,0.7
						c-0.3,0-0.7,0.1-1,0.1c1.1-0.1,2.3-0.2,3.5-0.3c3-0.2,5.5-0.3,7.3-0.3v5.8h5.8V22H74.7z"/>
				</g>
				<g>
					<path class="st1" d="M32.8,20.4c-0.4,0.1-0.8,0.2-1.2,0.3c0,0.2,0,1.5,0,1.7c0.4-0.1,0.8-0.1,1.2-0.2c0-0.2,0-0.5,0-0.7
						C32.7,21,32.7,20.7,32.8,20.4z"/>
				</g>
				<g>
					<path class="st1" d="M76.9,46.7c-3.1,1.3-7.6,2.9-13.1,4.3c0,0,0,0-0.1,0c-0.4,0.5-0.8,1-1.4,1.5c-0.8,0.7-1.6,1.3-2.3,1.7
						c1.1-0.3,2.1-0.6,3.2-0.9c5.6-1.6,10.7-3.5,15.3-5.6c0,0,0.1-0.1,0.1-0.1V23.4c-0.6,0-1.2,0-1.7,0V46.7z"/>
				</g>
				<g>
					<path class="st1" d="M44,53.7V52c0,0-0.1,0-0.1,0c-1.3,0.1-2.4,1.2-3.6,1.7c-1.2,0.5-2.5,0.7-3.9,1c-0.4,0.1-0.7,0-1-0.2
						c-3.1,0.3-6.2-0.6-8.6-2.7c-2.6-2.3-3.3-5.3-3.3-8.6c0-5.2,0-10.3,0-15.5c0,0,0,0,0,0c-0.6,0.6-1.4,0.8-2.1,0.4v28
						c0.6,0,1.2,0,1.7,0c10.5-0.3,18.9-1.4,25.8-2.4H44z"/>
				</g>
				<path class="st1" d="M45,53.9c0.1-1.5,0.2-2.9,0.3-4.4c-1.2,1.1-3.2,2.6-6.1,3.5c-1.4,0.4-8.1,2.3-12.2-1.2
					c-2.2-1.9-3.3-4.3-3.3-8.6c0-5.2,0-10.3,0-15.5c0,0,0,0,0,0c-0.6,0.6-1.4,0.8-2.1,0.4v28c0.6,0,1.2,0,1.7,0
					c10.5-0.3,18.9-1.4,25.8-2.4C47.6,53.7,46.3,53.8,45,53.9z"/>
				<g>
					<path class="st1" d="M72.8,23.4v-5.8c-1.8,0-4.3,0.1-7.3,0.3C64.3,18,63.2,18,62,18.1c-0.4,0-0.9,0.1-1.3,0.1
						c-0.2,0-0.5,0.1-0.7,0.1c-0.8,0.1-1.5,0.2-2.3,0.4c-1.6,0.4-3.1,0.8-4.8,0.8c-1.4,0.2-2.8,0.6-4.2,0.8c-1.5,0.2-3,0.4-4.5,0.7
						c-1.5,0.3-3,0.5-4.5,0.9c-0.6,0.2-1.2,0.4-1.9,0.6c-0.2,0.1-0.7,0.3-0.9,0.3c-0.1,0-0.2,0-0.2,0c-0.5,0.7-1.5,0.8-2.1,0.4
						c-0.2,0.1-0.4,0.2-0.7,0.2c-0.9,0-1.3-0.6-1.4-1.3c-0.4,0.1-0.8,0.1-1.2,0.2c0,0.3,0,0.5,0,0.8c0,5.5,0,11,0.1,16.5
						c0,1.4,0.2,2.8,0.6,4.2c0.9,3.4,5.3,4.5,8.4,2.2c2.2-1.7,3-4.1,3.2-6.8c0-0.8,0-1.6,0-2.4c1.1,1.1,2.1,2.1,3.2,3
						c1.3,1,2.7,1.7,4.1,2.6c0.4,0.2,0.9,0.7,0.9,1.1c0,3.2,0,6.5,0,9.7c0,0,0,0,0,0.1c0.4-0.1,0.9-0.1,1.3-0.2v-5.4
						c0.3,0,0.6,0,0.8,0c0-0.7,0.5-1.5,1.4-1.5c0.8,0,1.3,0.5,1.4,1.1c0.5-0.3,0.9-0.7,1-1.3c0.2-0.9-0.3-1.6-1.1-2
						c-1.3-0.7-2.6-1.3-3.9-2c-1.9-1.1-3.9-2.1-5.7-3.4c-4.7-3.7-4.1-11.6,0.9-15.1c4.2-2.9,13.8-3.3,18.5,3.5
						c-1.6,1.7-3.2,3.5-4.7,5.1c-1.5-1-2.8-2-4.3-2.8c-1.2-0.7-2.6-1-3.9-0.5c-0.5,0.2-1,0.5-1.4,0.9c0,0.1,0,0.3,0,0.5
						c-0.2,0.8-0.2,1.7-0.1,2.6c0.1,0.1,0.2,0.2,0.4,0.3c1.5,1,3.1,2,4.8,2.8c2.5,1.3,4.9,2.8,6.5,5.1c2.2,3.2,2,7.2-0.1,10.1
						c0,0,0,0,0.1,0c5.5-1.4,9.9-3,13.1-4.3V23.4H72.8z"/>
				</g>
				<path class="st1" d="M72.8,23.4v-5.8c-1.8,0-4.3,0.1-7.3,0.3C64.3,18,63.2,18,62,18.1c-0.4,0-0.9,0.1-1.3,0.1
					c-0.2,0-0.5,0.1-0.7,0.1c-0.8,0.1-1.5,0.2-2.3,0.4c-1.6,0.4-3.1,0.8-4.8,0.8c-1.4,0.2-2.8,0.6-4.2,0.8c-1.5,0.2-3,0.4-4.5,0.7
					c-1.5,0.3-3,0.5-4.5,0.9c-0.6,0.2-1.2,0.4-1.9,0.6c-0.2,0.1-0.7,0.3-0.9,0.3c-0.1,0-0.2,0-0.2,0c-0.5,0.7-1.5,0.8-2.1,0.4
					c-0.2,0.1-0.4,0.2-0.7,0.2c-0.9,0-1.3-0.6-1.4-1.3c-0.4,0.1-0.8,0.1-1.2,0.2c0,0.3,0,0.5,0,0.8c0,5.5,0,11,0.1,16.5
					c0,1.4,0.2,2.8,0.6,4.2c0.9,3.4,5.3,4.5,8.4,2.2c2.2-1.7,3-4.1,3.2-6.8c0-0.8,0-1.6,0-2.4c0.9,1.4,1.9,2.3,2.6,2.9
					c1.2,0.9,2.1,1.3,4.4,2.9c0.5,0.4,0.9,0.7,1.2,0.9c0.2,3.3,0.2,6.6,0,9.7c0,0,0,0,0,0.1c0.4-0.1,0.9-0.1,1.3-0.2v-5.4
					c0.3,0,0.6,0,0.8,0c0-0.7,0.5-1.5,1.4-1.5c0.8,0,1.3,0.5,1.4,1.1c0.5-0.3,0.9-0.7,1-1.3c0.2-0.9-0.3-1.6-1.1-2
					c-1.3-0.7-2.6-1.3-3.9-2c-1.9-1.1-3.9-2.1-5.7-3.4c-4.7-3.7-4.1-11.6,0.9-15.1c4.2-2.9,13.8-3.3,18.5,3.5
					c-1.1,1.3-2.3,2.5-3.4,3.8c-0.2-0.2-4.4-3.7-7.5-3.2C54.8,27.6,54,28,54,28c-0.6,0.3-2,1.2-2.3,2.5c-0.3,1.3-0.2,1.7,0.9,2.5
					c1.5,1,3.1,2,4.8,2.8c2.5,1.3,4.9,2.8,6.5,5.1c2.2,3.2,2,7.2-0.1,10.1c0,0,0,0,0.1,0c5.5-1.4,9.9-3,13.1-4.3V23.4H72.8z"/>
			</g>
		</g>
		<g>
			<path class="st20" d="M65.6,52.7c-1.3,0.4-2.6,0.7-3.8,1c-0.2,0.1-0.5,0.2-0.7,0.3c-1.7,0.7-3.4,1-5.3,0.9
				c-3,0.5-6.1,0.9-9.6,1.3c-7.4,0.8-17.3,1.6-29.3,1.9v-1.9v-3.6h-3.4h-1.7c0,4.5,0,9.1,0,13.6c0,4.4,3.5,8,7.9,8h52.4
				c0.6,0,3.1-0.1,5.3-2c2.6-2.3,2.6-5.5,2.6-6c0-6.2,0-12.4,0-18.6c0,0-0.1,0.1-0.1,0.1C76.3,49.2,71.5,51.1,65.6,52.7z"/>
			<path class="st1" d="M21.5,25.1c1-0.4,2.1-0.8,3.3-1.1c0-0.3,0-0.6,0-0.9c0-0.3,0-0.6,0-0.9c-0.3,0.1-0.7,0.2-1,0.3
				c-4.2,1.3-7.2,2.8-9.3,4c-1.2,0.7-2.2,1.4-2.9,1.8v1.5c0.5-0.3,1.1-0.6,1.7-1C15.4,27.8,18.2,26.4,21.5,25.1z"/>
			<path class="st1" d="M54.5,54.8C54.5,54.8,54.4,54.7,54.5,54.8L54.4,53c-0.4,0.1-0.9,0.1-1.3,0.2c0,0.1-0.1,0.3-0.1,0.5h-2.9
				c-6.9,1-15.3,2.1-25.8,2.4c-2.1,0.1-4.7,0.1-7.6,0.1v1.9c12-0.3,21.9-1.1,29.3-1.9c3-0.3,5.7-0.7,8.3-1.1
				C54.5,55,54.5,54.9,54.5,54.8z"/>
			<path class="st1" d="M75.9,22v-6.1c-2.4,0-5,0.1-8,0.3c-0.5,0-1,0.1-1.7,0.1c-7.2,0.5-13.9,1.3-15.2,1.4
				c-6.1,0.8-12.5,1.6-18.4,2.7v1.4h0c0,0.2,0,0.3,0,0.5c4.6-0.8,10.3-1.6,17.8-2.7c2-0.3,4-0.6,6-0.8c2-0.2,4-0.5,6.1-0.6
				c1.3-0.1,2.7-0.2,4.1-0.3c3-0.2,5.5-0.3,7.3-0.3v5.8h5.8V22H75.9z"/>
			<path class="st1" d="M56.5,18.8c2.4-0.1,4.3-0.4,6.1-0.6C60.5,18.4,58.5,18.6,56.5,18.8z"/>
			<path class="st1" d="M78.1,46.7c-3.1,1.3-7.6,2.9-13.1,4.3c0,0,0,0-0.1,0c-0.8,1.1-1.9,2-3.2,2.7c1.3-0.3,2.5-0.6,3.8-1
				c5.9-1.6,10.7-3.5,14.1-5c0,0,0.1-0.1,0.1-0.1V23.4c-0.6,0-1.2,0-1.7,0V46.7z"/>
			<path class="st1" d="M13.4,28.9c-0.7,0.4-1.2,0.7-1.7,1v22.7h1.7V28.9z"/>
			<path class="st1" d="M24.4,56.1c10.5-0.3,18.9-1.4,25.8-2.4c-1.6,0-3.2,0-4.9,0c0-1,0-2,0-3.2c-0.9,0.6-1.6,1.1-2.3,1.6
				c-4.9,3.4-10.8,3.2-14.8-0.4c-2.6-2.3-3.3-5.3-3.3-8.6c0-6.4,0-12.8,0-19.1c-1.2,0.3-2.3,0.7-3.3,1.1c-3.3,1.3-6.1,2.7-8.1,3.8
				v23.7h3.4v3.6C19.7,56.2,22.2,56.2,24.4,56.1z"/>
			<linearGradient id="SVGID_23_" gradientUnits="userSpaceOnUse" x1="31.7508" y1="69.3476" x2="31.7508" y2="6.6597">
				<stop  offset="0" style="stop-color:#FFFFFF;stop-opacity:0"/>
				<stop  offset="1" style="stop-color:#FFFFFF;stop-opacity:0.25"/>
			</linearGradient>
			<path class="st21" d="M24.4,56.1c10.5-0.3,18.9-1.4,25.8-2.4c-1.6,0-3.2,0-4.9,0c0-1,0-2,0-3.2c-0.9,0.6-1.6,1.1-2.3,1.6
				c-4.9,3.4-10.8,3.2-14.8-0.4c-2.6-2.3-3.3-5.3-3.3-8.6c0-6.4,0-12.8,0-19.1c-1.2,0.3-2.3,0.7-3.3,1.1c-3.3,1.3-6.1,2.7-8.1,3.8
				v23.7h3.4v3.6C19.7,56.2,22.2,56.2,24.4,56.1z"/>
			<path class="st1" d="M32.7,23.1c0,5.5,0,11,0.1,16.5c0,1.4,0.2,2.8,0.6,4.2c0.9,3.4,5.3,4.5,8.4,2.2c2.2-1.7,3-4.1,3.2-6.8
				c0-0.8,0-1.6,0-2.4c1.1,1.1,2.1,2.1,3.2,3c1.3,1,2.7,1.7,4.1,2.6c0.4,0.2,0.9,0.7,0.9,1.1c0,3.2,0,6.5,0,9.7c0,0,0,0,0,0.1
				c0.4-0.1,0.9-0.1,1.3-0.2c0-1.9,0-3.7,0-5.4c0.9,0,1.8,0.1,2.6,0c1-0.1,1.8-0.6,2-1.6c0.2-0.9-0.3-1.6-1.1-2
				c-1.3-0.7-2.6-1.3-3.9-2c-1.9-1.1-3.9-2.1-5.7-3.4c-4.7-3.7-4.1-11.6,0.9-15.1c4.2-2.9,13.8-3.3,18.5,3.5
				c-1.6,1.7-3.2,3.5-4.7,5.1c-1.5-1-2.8-2-4.3-2.8c-1.2-0.7-2.6-1-3.9-0.5c-0.8,0.4-1.7,1-2.1,1.8c-0.5,0.9,0.1,1.9,0.9,2.5
				c1.5,1,3.1,2,4.8,2.8c2.5,1.3,4.9,2.8,6.5,5.1c2.2,3.2,2,7.2-0.1,10.1c0,0,0,0,0.1,0c5.5-1.4,9.9-3,13.1-4.3V23.4
				c-1.4,0-2.7,0-4.1,0c0-1.9,0-3.9,0-5.8c-1.8,0-4.3,0.1-7.3,0.3c-1.4,0.1-2.8,0.2-4.1,0.3c-1.8,0.3-3.8,0.5-6.1,0.6
				c-2,0.2-4,0.5-6,0.8c-7.5,1.1-13.3,1.9-17.8,2.7C32.7,22.6,32.7,22.8,32.7,23.1z"/>
			<linearGradient id="SVGID_24_" gradientUnits="userSpaceOnUse" x1="55.3729" y1="69.3476" x2="55.3729" y2="6.6597">
				<stop  offset="0" style="stop-color:#FFFFFF;stop-opacity:0"/>
				<stop  offset="1" style="stop-color:#FFFFFF;stop-opacity:0.25"/>
			</linearGradient>
			<path class="st22" d="M32.7,23.1c0,5.5,0,11,0.1,16.5c0,1.4,0.2,2.8,0.6,4.2c0.9,3.4,5.3,4.5,8.4,2.2c2.2-1.7,3-4.1,3.2-6.8
				c0-0.8,0-1.6,0-2.4c1.1,1.1,2.1,2.1,3.2,3c1.3,1,2.7,1.7,4.1,2.6c0.4,0.2,0.9,0.7,0.9,1.1c0,3.2,0,6.5,0,9.7c0,0,0,0,0,0.1
				c0.4-0.1,0.9-0.1,1.3-0.2c0-1.9,0-3.7,0-5.4c0.9,0,1.8,0.1,2.6,0c1-0.1,1.8-0.6,2-1.6c0.2-0.9-0.3-1.6-1.1-2
				c-1.3-0.7-2.6-1.3-3.9-2c-1.9-1.1-3.9-2.1-5.7-3.4c-4.7-3.7-4.1-11.6,0.9-15.1c4.2-2.9,13.8-3.3,18.5,3.5
				c-1.6,1.7-3.2,3.5-4.7,5.1c-1.5-1-2.8-2-4.3-2.8c-1.2-0.7-2.6-1-3.9-0.5c-0.8,0.4-1.7,1-2.1,1.8c-0.5,0.9,0.1,1.9,0.9,2.5
				c1.5,1,3.1,2,4.8,2.8c2.5,1.3,4.9,2.8,6.5,5.1c2.2,3.2,2,7.2-0.1,10.1c0,0,0,0,0.1,0c5.5-1.4,9.9-3,13.1-4.3V23.4
				c-1.4,0-2.7,0-4.1,0c0-1.9,0-3.9,0-5.8c-1.8,0-4.3,0.1-7.3,0.3c-1.4,0.1-2.8,0.2-4.1,0.3c-1.8,0.3-3.8,0.5-6.1,0.6
				c-2,0.2-4,0.5-6,0.8c-7.5,1.1-13.3,1.9-17.8,2.7C32.7,22.6,32.7,22.8,32.7,23.1z"/>
		</g>
	</g>
	<defs>
		<filter id="Adobe_OpacityMaskFilter" filterUnits="userSpaceOnUse" x="1.5" y="63" width="89.7" height="79.6">
			<feColorMatrix  type="matrix" values="1 0 0 0 0  0 1 0 0 0  0 0 1 0 0  0 0 0 1 0"/>
		</filter>
	</defs>
	<mask maskUnits="userSpaceOnUse" x="1.5" y="63" width="89.7" height="79.6" id="SVGID_25_">
		<g class="st23">
			<linearGradient id="SVGID_26_" gradientUnits="userSpaceOnUse" x1="48.9304" y1="156.3441" x2="48.9304" y2="72.4726">
				<stop  offset="0.8757" style="stop-color:#FFFFFF;stop-opacity:0"/>
				<stop  offset="1" style="stop-color:#FFFFFF;stop-opacity:0.2"/>
			</linearGradient>
			<rect x="-0.1" y="72.5" class="st24" width="98.1" height="83.9"/>
		</g>
	</mask>
	<g class="st25">
		<g>
			<g>
				<path class="st0" d="M69.8,64.8c-6.5,0.8-11.5,0.9-17.5,0.9c-4.5,0-8.6-0.1-10.5-0.1c-1.2,0-2.5-0.1-3.9-0.2
					c-4.8-0.2-9.7-0.6-14.5-0.9c-1.1,0-1.8-0.1-2.4-0.1c0,0-0.7,0-1.4-0.1c-2.2-0.1-4.9-0.4-5.6-0.4c0,0.7,0,1.4,0,2
					c-0.8,0-1.5,0-2.3,0c-0.1,0.4-0.6,4.6,2.4,7.5c2.1,2.1,4.8,2.3,5.5,2.3H72c4.4,0,7.9-3.7,7.9-8.3V63
					C77.2,63.6,73.7,64.3,69.8,64.8z"/>
				<g>
					<path class="st1" d="M78.8,135.5h0.8c-1,3.7-4,6.4-7.6,6.4H19.6c-0.6,0-3.3-0.1-5.5-2.5c-2.7-2.9-2.5-6.9-2.5-7.4
						c1.3,0.3,2.5,0.7,3.8,1c9.3,1.9,20.8,3.3,34,3c11.2-0.3,21.1-1.7,29.3-3.6V135.5z"/>
					<g>
						<defs>
							<path id="SVGID_27_" d="M72,142.6H19.6c-0.6,0-3.3-0.1-5.5-2.2c-2.7-2.6-2.5-6.1-2.5-6.5c1.3,0.3,2.5,0.6,3.8,0.9
								c9.3,1.6,20.8,2.9,34,2.6c11.7-0.3,22-1.7,30.5-3.4v0.7C79.9,139,76.4,142.6,72,142.6z"/>
						</defs>
						<clipPath id="SVGID_28_">
							<use xlink:href="#SVGID_27_"  style="overflow:visible;"/>
						</clipPath>
						
							<linearGradient id="SVGID_29_" gradientUnits="userSpaceOnUse" x1="45.8233" y1="-147.2205" x2="45.8233" y2="-211.3928" gradientTransform="matrix(1 0 0 -1 0 -70.8539)">
							<stop  offset="0.5405" style="stop-color:#FFFFFF;stop-opacity:0"/>
							<stop  offset="1" style="stop-color:#FFFFFF;stop-opacity:0.25"/>
						</linearGradient>
						<path class="st26" d="M71.9,140.5H19.7c-0.5,0-2.4-0.1-4.1-1.5c-2.2-1.9-2.2-4.5-2.2-4.9c1,0.2,1.8,0.3,2.3,0.3
							c0.3,0,0.5,0,2.3,0c0,0,0,0,0.6,0c5.8,0,12.5,1.2,12.5,1.2c6.9,1.2,14.5,1.2,18.9,1.2c6.5,0,11.5-0.5,15.6-1
							c5-0.5,9.3-1.2,12.6-1.7v0.2C78.2,137.7,75.4,140.5,71.9,140.5z"/>
					</g>
				</g>
				<g>
					<path class="st1" d="M79.9,82.5c-3.4-0.7-7.7-1.4-12.8-2c-10.8-1.3-19.4-1.2-23.2-1.2c-4,0.1-12,0.4-22.1,2
						c-3.2,0.5-5.9,1-7.8,1.5c0-1.2-0.1-2.5-0.1-3.7H12c1-3.7,4-6.4,7.6-6.4H72c0.6,0,3.3,0.1,5.5,2.5C80.2,78,80,81.9,79.9,82.5z"
						/>
					<g>
						<defs>
							<path id="SVGID_30_" d="M19.9,72.6H72c0.6,0,3.2,0,5.4,2c2.7,2.5,2.5,5.9,2.5,6.4c-1.5-0.3-3.6-0.7-6.1-1.2
								c-2.7-0.4-15.1-2.5-32.8-1.7c-7,0.3-15.9,1-26.1,2.9c-1-0.3-1.9-0.7-2.9-1C12,75.9,15.5,72.6,19.9,72.6z"/>
						</defs>
						<clipPath id="SVGID_31_">
							<use xlink:href="#SVGID_30_"  style="overflow:visible;"/>
						</clipPath>
						
							<linearGradient id="SVGID_32_" gradientUnits="userSpaceOnUse" x1="-21.696" y1="-70.4039" x2="-21.696" y2="-145.7611" gradientTransform="matrix(-1 0 0 1 24.2669 219.8128)">
							<stop  offset="0.5405" style="stop-color:#FFFFFF;stop-opacity:0"/>
							<stop  offset="1" style="stop-color:#FFFFFF;stop-opacity:0.25"/>
						</linearGradient>
						<path class="st27" d="M75.9,80.2c-0.3,0-0.5,0-2.3,0H73c-5.8,0-12.4-1.1-12.4-1.1c-7.3-1-13.7-1.2-18.8-1.1
							c-2.6,0.1-8.1,0.3-15,1.3c-4.6,0.7-8.7,1.5-11.9,2.3v-3.8h-1.2c0.3-0.6,1-1.7,2.3-2.6c0.1-0.1,0.2-0.1,0.2-0.2
							c1.1-0.7,2.4-1,3.7-1c17.3,0.1,34.7,0.3,52,0.4c0.5,0,2.4,0.1,4,1.4c2.1,1.7,2.2,4.2,2.2,4.6C77.2,80.2,76.4,80.2,75.9,80.2z"
							/>
					</g>
				</g>
			</g>
			<g>
				<g>
					<g>
						<linearGradient id="SVGID_33_" gradientUnits="userSpaceOnUse" x1="1.5409" y1="123.0146" x2="80.868" y2="123.0146">
							<stop  offset="0" style="stop-color:#00C0D8"/>
							<stop  offset="0.1" style="stop-color:#00ACD1"/>
							<stop  offset="0.3995" style="stop-color:#0073BF"/>
							<stop  offset="0.657" style="stop-color:#004AB2"/>
							<stop  offset="0.8594" style="stop-color:#0031AA"/>
							<stop  offset="0.9818" style="stop-color:#0028A7"/>
						</linearGradient>
						<path class="st28" d="M80.9,130.5c-0.7,0.1-1.5,0.3-2.4,0.4c-41,7.2-71.7,0.7-76.1-7c-0.9-1.6-0.9-3.2-0.9-3.2
							c0.2-4.7,6.6-7.8,8.9-8.9c-0.5,0.9-1.2,2.4-0.9,4.1c0.6,3.3,4.4,5.1,7.5,6.4c9.8,4,19.6,5.2,28.5,6.1
							c4.5,0.5,8.1,0.8,12.1,1.1c0.9,0.1,3,0.2,5.3,0.3c4,0.2,9.7,0.4,16.7,0.1C80.1,130.2,80.5,130.4,80.9,130.5z"/>
						
							<linearGradient id="SVGID_34_" gradientUnits="userSpaceOnUse" x1="2.6903" y1="-194.4583" x2="80.8132" y2="-194.4583" gradientTransform="matrix(1 0 0 -1 0 -70.8539)">
							<stop  offset="0" style="stop-color:#FFFFFF;stop-opacity:0.7"/>
							<stop  offset="0.7297" style="stop-color:#FFFFFF;stop-opacity:0"/>
						</linearGradient>
						<path class="st29" d="M80.8,130.4c-2.3,0.3-6.2,0.9-11,1.5c-48.3,5.4-63.5-4.9-65.9-7.8c-0.3-0.3-1.1-1.3-1.2-2.6
							c-0.3-3.5,4.4-6.5,6.1-7.5c-0.7,2.1-0.3,3.4,0,4.1c0,0.1,0.1,0.2,0.2,0.3c1.5,2.2,4.5,3.8,5,4c2.7,1.4,4.6,2,4.6,2
							c6.2,2,11,2.9,11,2.9c13.2,2.3,23.8,3,27,3.2c1.7,0.1,3.6,0.2,6.1,0.3c7.1,0.2,13,0,17.1-0.3
							C80.2,130.4,80.5,130.4,80.8,130.4z"/>
						<linearGradient id="SVGID_35_" gradientUnits="userSpaceOnUse" x1="79.6517" y1="132.5537" x2="84.4658" y2="132.5537">
							<stop  offset="0" style="stop-color:#00C0D8"/>
							<stop  offset="0.1" style="stop-color:#00ACD1"/>
							<stop  offset="0.3995" style="stop-color:#0073BF"/>
							<stop  offset="0.657" style="stop-color:#004AB2"/>
							<stop  offset="0.8594" style="stop-color:#0031AA"/>
							<stop  offset="0.9818" style="stop-color:#0028A7"/>
						</linearGradient>
						<rect x="79.7" y="130.1" class="st30" width="4.8" height="4.9"/>
						<linearGradient id="SVGID_36_" gradientUnits="userSpaceOnUse" x1="85.0006" y1="127.5333" x2="89.8147" y2="127.5333">
							<stop  offset="0" style="stop-color:#00C0D8"/>
							<stop  offset="0.1" style="stop-color:#00ACD1"/>
							<stop  offset="0.3995" style="stop-color:#0073BF"/>
							<stop  offset="0.657" style="stop-color:#004AB2"/>
							<stop  offset="0.8594" style="stop-color:#0031AA"/>
							<stop  offset="0.9818" style="stop-color:#0028A7"/>
						</linearGradient>
						<rect x="85" y="125.1" class="st31" width="4.8" height="4.8"/>
						<linearGradient id="SVGID_37_" gradientUnits="userSpaceOnUse" x1="77.0383" y1="126.3107" x2="82.265" y2="126.3107">
							<stop  offset="0" style="stop-color:#00C0D8"/>
							<stop  offset="0.1" style="stop-color:#00ACD1"/>
							<stop  offset="0.3995" style="stop-color:#0073BF"/>
							<stop  offset="0.657" style="stop-color:#004AB2"/>
							<stop  offset="0.8594" style="stop-color:#0031AA"/>
							<stop  offset="0.9818" style="stop-color:#0028A7"/>
						</linearGradient>
						<rect x="77" y="123.7" class="st32" width="5.2" height="5.2"/>
					</g>
				</g>
				
					<linearGradient id="SVGID_38_" gradientUnits="userSpaceOnUse" x1="80.2324" y1="-203.4075" x2="83.7169" y2="-203.4075" gradientTransform="matrix(1 0 0 -1 0 -70.8539)">
					<stop  offset="0" style="stop-color:#FFFFFF;stop-opacity:0.7"/>
					<stop  offset="0.7297" style="stop-color:#FFFFFF;stop-opacity:0"/>
				</linearGradient>
				<rect x="80.2" y="130.7" class="st33" width="3.5" height="3.8"/>
				
					<linearGradient id="SVGID_39_" gradientUnits="userSpaceOnUse" x1="85.4591" y1="-198.3871" x2="89.3562" y2="-198.3871" gradientTransform="matrix(1 0 0 -1 0 -70.8539)">
					<stop  offset="0" style="stop-color:#FFFFFF;stop-opacity:0.7"/>
					<stop  offset="0.7297" style="stop-color:#FFFFFF;stop-opacity:0"/>
				</linearGradient>
				<rect x="85.5" y="125.6" class="st34" width="3.9" height="3.9"/>
				
					<linearGradient id="SVGID_40_" gradientUnits="userSpaceOnUse" x1="77.6191" y1="-197.1645" x2="81.6843" y2="-197.1645" gradientTransform="matrix(1 0 0 -1 0 -70.8539)">
					<stop  offset="0" style="stop-color:#FFFFFF;stop-opacity:0.7"/>
					<stop  offset="0.7297" style="stop-color:#FFFFFF;stop-opacity:0"/>
				</linearGradient>
				<rect x="77.6" y="124.1" class="st35" width="4.1" height="4.4"/>
			</g>
			<g>
				<g>
					<g>
						<linearGradient id="SVGID_41_" gradientUnits="userSpaceOnUse" x1="11.9395" y1="92.2938" x2="91.2666" y2="92.2938">
							<stop  offset="0" style="stop-color:#00C0D8"/>
							<stop  offset="0.1" style="stop-color:#00ACD1"/>
							<stop  offset="0.3995" style="stop-color:#0073BF"/>
							<stop  offset="0.657" style="stop-color:#004AB2"/>
							<stop  offset="0.8594" style="stop-color:#0031AA"/>
							<stop  offset="0.9818" style="stop-color:#0028A7"/>
						</linearGradient>
						<path class="st36" d="M11.9,84.8c0.7-0.1,1.5-0.3,2.4-0.4c41-7.2,71.7-0.7,76.1,7c0.9,1.6,0.9,3.2,0.9,3.2
							c-0.2,4.7-6.6,7.8-8.9,8.9c0.5-0.9,1.2-2.4,0.9-4.1c-0.6-3.3-4.4-5.1-7.5-6.4c-9.8-4-19.6-5.2-28.5-6.1
							c-4.5-0.5-8.1-0.8-12.1-1.1c-0.9-0.1-3-0.2-5.3-0.3c-4-0.2-9.7-0.4-16.7-0.1C12.8,85.1,12.3,84.9,11.9,84.8z"/>
						
							<linearGradient id="SVGID_42_" gradientUnits="userSpaceOnUse" x1="-146.7858" y1="-82.6088" x2="-68.6629" y2="-82.6088" gradientTransform="matrix(-1 0 0 1 -56.6686 174.3128)">
							<stop  offset="0" style="stop-color:#FFFFFF;stop-opacity:0.7"/>
							<stop  offset="0.7297" style="stop-color:#FFFFFF;stop-opacity:0"/>
						</linearGradient>
						<path class="st37" d="M12,84.9c2.3-0.3,6.2-0.9,11-1.5c48.3-5.4,63.5,4.9,65.9,7.8c0.3,0.3,1.1,1.3,1.2,2.6
							c0.3,3.5-4.4,6.5-6.1,7.5c0.7-2.1,0.3-3.4,0-4.1c0-0.1-0.1-0.2-0.2-0.3c-1.5-2.2-4.5-3.8-5-4c-2.7-1.4-4.6-2-4.6-2
							c-6.2-2-11-2.9-11-2.9c-13.2-2.3-23.8-3-27-3.2c-1.7-0.1-3.6-0.2-6.1-0.3c-7.1-0.2-13,0-17.1,0.3C12.6,84.9,12.3,84.9,12,84.9
							z"/>
						<linearGradient id="SVGID_43_" gradientUnits="userSpaceOnUse" x1="8.3417" y1="82.7548" x2="13.1558" y2="82.7548">
							<stop  offset="0" style="stop-color:#00C0D8"/>
							<stop  offset="0.1" style="stop-color:#00ACD1"/>
							<stop  offset="0.3995" style="stop-color:#0073BF"/>
							<stop  offset="0.657" style="stop-color:#004AB2"/>
							<stop  offset="0.8594" style="stop-color:#0031AA"/>
							<stop  offset="0.9818" style="stop-color:#0028A7"/>
						</linearGradient>
						<rect x="8.3" y="80.3" class="st38" width="4.8" height="4.9"/>
						<linearGradient id="SVGID_44_" gradientUnits="userSpaceOnUse" x1="2.9928" y1="87.7752" x2="7.8068" y2="87.7752">
							<stop  offset="0" style="stop-color:#00C0D8"/>
							<stop  offset="0.1" style="stop-color:#00ACD1"/>
							<stop  offset="0.3995" style="stop-color:#0073BF"/>
							<stop  offset="0.657" style="stop-color:#004AB2"/>
							<stop  offset="0.8594" style="stop-color:#0031AA"/>
							<stop  offset="0.9818" style="stop-color:#0028A7"/>
						</linearGradient>
						<rect x="3" y="85.4" class="st39" width="4.8" height="4.8"/>
						<linearGradient id="SVGID_45_" gradientUnits="userSpaceOnUse" x1="10.5425" y1="88.7074" x2="15.7692" y2="88.7074">
							<stop  offset="0" style="stop-color:#00C0D8"/>
							<stop  offset="0.1" style="stop-color:#00ACD1"/>
							<stop  offset="0.3995" style="stop-color:#0073BF"/>
							<stop  offset="0.657" style="stop-color:#004AB2"/>
							<stop  offset="0.8594" style="stop-color:#0031AA"/>
							<stop  offset="0.9818" style="stop-color:#0028A7"/>
						</linearGradient>
						<rect x="10.5" y="86.1" class="st40" width="5.2" height="5.2"/>
					</g>
				</g>
				
					<linearGradient id="SVGID_46_" gradientUnits="userSpaceOnUse" x1="-69.2437" y1="-91.558" x2="-65.7592" y2="-91.558" gradientTransform="matrix(-1 0 0 1 -56.6686 174.3128)">
					<stop  offset="0" style="stop-color:#FFFFFF;stop-opacity:0.7"/>
					<stop  offset="0.7297" style="stop-color:#FFFFFF;stop-opacity:0"/>
				</linearGradient>
				<polygon class="st41" points="12.6,80.9 9.1,80.9 9.1,84.6 12.6,84.6 				"/>
				
					<linearGradient id="SVGID_47_" gradientUnits="userSpaceOnUse" x1="-64.017" y1="-86.5376" x2="-60.1199" y2="-86.5376" gradientTransform="matrix(-1 0 0 1 -56.6686 174.3128)">
					<stop  offset="0" style="stop-color:#FFFFFF;stop-opacity:0.7"/>
					<stop  offset="0.7297" style="stop-color:#FFFFFF;stop-opacity:0"/>
				</linearGradient>
				<polygon class="st42" points="7.3,85.8 3.5,85.8 3.5,89.7 7.3,89.7 				"/>
				
					<linearGradient id="SVGID_48_" gradientUnits="userSpaceOnUse" x1="-71.857" y1="-85.6054" x2="-67.7918" y2="-85.6054" gradientTransform="matrix(-1 0 0 1 -56.6686 174.3128)">
					<stop  offset="0" style="stop-color:#FFFFFF;stop-opacity:0.7"/>
					<stop  offset="0.7297" style="stop-color:#FFFFFF;stop-opacity:0"/>
				</linearGradient>
				<polygon class="st43" points="15.2,86.5 11.1,86.5 11.1,90.9 15.2,90.9 				"/>
			</g>
		</g>
		<g>
			<path class="st20" d="M66.6,92c-1.3-0.4-2.6-0.7-3.9-1c-0.2-0.1-0.5-0.2-0.7-0.3c-1.7-0.7-3.4-1-5.3-0.9c-3-0.5-6.1-0.9-9.6-1.3
				c-7.4-0.8-17.3-1.6-29.4-1.9v1.9v3.6h-3.4h-1.7c0-4.5,0-9.1,0-13.6c0-4.4,3.5-8,7.9-8h52.4c0.6,0,3.1,0.1,5.3,2
				c2.6,2.3,2.6,5.5,2.6,6c0,6.2,0,12.4,0,18.6c0,0-0.1-0.1-0.1-0.1C77.3,95.6,72.5,93.7,66.6,92z"/>
			<path class="st1" d="M36.9,90.5c0.2,0.1,0.3,0.1,0.3,0.1c0.3,0.1,1,0.4,2.3,1.1c-0.9-0.3-3.8-1.3-7-0.1c-0.5,0.2-1.7,0.8-3,1.9
				c-2.6,2.3-3.3,5.3-3.3,8.6c0,6.4,0,12.8,0,19.1c0,0,0,0,0,0.1v1.2h-1.6c-3.3-2-6.6-4.1-9.9-6.1V92.7h3.4v-3.6
				c2.9,0,5.4,0,7.6,0.1c3.6,0.1,7,0.3,10.1,0.6C36.2,90.1,36.5,90.4,36.9,90.5z"/>
			<path class="st1" d="M34,121.7c0.1-11.3,1.3-12.7,0.1-16.5c-0.9-2.7-1.9-3.4-1.4-5c0.6-2.1,3.4-3.5,5.8-3.5c2.4,0,4,1.4,4.7,2
				c2.7,2.4,3.1,5.8,3.2,6.8c0,0.8,0,1.6,0,2.4c1.1-1.1,2.1-2.1,3.2-3c1.3-1,2.7-1.7,4.1-2.6c0.7-0.5,0.8-0.9,0.9-1.1
				c0.8-1.5,0-3.3-0.3-4.1c-0.6-1.6-1.2-4.1-0.9-7.8c0.9,0.1,1.7,0.2,2.6,0.3c0,2.5-0.1,5-0.1,7.4c0.9,0,1.8-0.1,2.6,0
				c1,0.1,1.8,0.6,2,1.6c0.2,0.9-0.3,1.6-1.1,2c-1.3,0.7-2.6,1.3-3.9,2.1c-1.9,1.1-3.9,2.1-5.7,3.4c-4.7,3.7-4.1,11.6,0.9,15.1
				c4.2,2.9,13.8,3.3,18.5-3.5c-1.6-1.7-3.2-3.5-4.7-5.1c-0.3,0.3-4.1,3.9-6.8,3.9c-0.8,0-1.5-0.3-1.5-0.3c-0.2-0.1-1.8-0.8-2-2.2
				c-0.2-1.1,0.4-2.1,0.9-2.5c1.5-1,3.1-2,4.8-2.8c2.5-1.3,4.9-2.8,6.6-5.1c2.2-3.2,2-7.2-0.1-10.1c0,0,0,0,0.1,0
				c5.5,1.4,9.9,3,13.1,4.3v23.3c-1.4,0-2.7,0-4.1,0c0,1.9,0,3.9,0,5.8c-1.8,0-4.3-0.1-7.3-0.3c-1.4-0.1-2.8-0.2-4.1-0.3
				c-1.8-0.3-3.8-0.5-6.1-0.6c-2-0.2-4-0.5-6-0.8c-7.5-1.1-13.3-1.9-17.8-2.7C34,122.2,34,121.9,34,121.7z"/>
		</g>
		<g>
			<g>
				<g>
					<path class="st1" d="M53.6,90c-0.1,0-0.2,0-0.2,0v1.7c-0.4-0.1-0.9-0.1-1.3-0.2c0-0.1-0.1-0.3-0.1-0.5h-2.9
						c-6.9-1.1-15.3-2.1-25.8-2.4c-0.5,0-1.1,0-1.7,0v-1.8c9.4,0.4,17.3,1,23.5,1.7c3.1,0.3,5.8,0.7,8.5,1.1
						C53.6,89.8,53.6,89.9,53.6,90z"/>
				</g>
				<g>
					<path class="st1" d="M74.9,122.8v4.2c-0.2,0.1-0.4,0.3-0.5,0.5c-0.1,0-0.3-0.1-0.5-0.1c-3.6-0.1-7.1-0.4-10.7-0.7
						c-0.3,0-0.7-0.1-1-0.1c1.1,0.1,2.3,0.2,3.5,0.3c3,0.2,5.5,0.3,7.3,0.3v-5.8h5.8v1.4H74.9z"/>
				</g>
				<g>
					<path class="st1" d="M32.9,124.4c-0.4-0.1-0.8-0.2-1.2-0.3c0-0.2,0-1.5,0-1.7c0.4,0.1,0.8,0.1,1.2,0.2c0,0.2,0,0.5,0,0.7
						C32.8,123.8,32.8,124.1,32.9,124.4z"/>
				</g>
				<g>
					<path class="st1" d="M77,98.1c-3.1-1.3-7.6-2.9-13.1-4.3c0,0,0,0-0.1,0c-0.4-0.5-0.8-1-1.4-1.5c-0.8-0.7-1.6-1.3-2.3-1.7
						c1.1,0.3,2.1,0.6,3.2,0.9c5.6,1.6,10.7,3.5,15.3,5.6c0,0,0.1,0.1,0.1,0.1v24.2c-0.6,0-1.2,0-1.7,0V98.1z"/>
				</g>
				<g>
					<path class="st1" d="M44.2,91.1v1.7c0,0-0.1,0-0.1,0c-1.3-0.1-2.4-1.2-3.6-1.7c-1.2-0.5-2.5-0.7-3.9-1c-0.4-0.1-0.7,0-1,0.2
						C32.5,90,29.4,90.9,27,93c-2.6,2.3-3.3,5.3-3.3,8.6c0,5.2,0,10.4,0,15.5c0,0,0,0,0,0c-0.6-0.6-1.4-0.8-2.1-0.5v-28
						c0.6,0,1.2,0,1.7,0c10.5,0.3,18.9,1.4,25.8,2.4H44.2z"/>
				</g>
				<path class="st1" d="M45.1,90.9c0.1,1.5,0.2,2.9,0.3,4.4c-1.2-1.1-3.2-2.6-6.1-3.5c-1.4-0.4-8.1-2.3-12.3,1.3
					c-2.2,1.9-3.3,4.3-3.3,8.6c0,5.2,0,10.4,0,15.5c0,0,0,0,0,0c-0.6-0.6-1.4-0.8-2.1-0.5v-28c0.6,0,1.2,0,1.7,0
					c10.5,0.3,18.9,1.4,25.8,2.4C47.8,91,46.4,90.9,45.1,90.9z"/>
				<g>
					<path class="st1" d="M73,121.4v5.8c-1.8,0-4.3-0.1-7.3-0.3c-1.2-0.1-2.4-0.2-3.5-0.3c-0.4,0-0.9-0.1-1.3-0.1
						c-0.2,0-0.5-0.1-0.7-0.1c-0.8-0.1-1.5-0.2-2.3-0.4c-1.6-0.4-3.1-0.8-4.8-0.8c-1.4-0.2-2.8-0.6-4.2-0.8c-1.5-0.2-3-0.4-4.5-0.7
						c-1.5-0.3-3-0.5-4.5-0.9c-0.6-0.2-1.3-0.4-1.9-0.6c-0.2-0.1-0.7-0.3-0.9-0.3c-0.1,0-0.2,0-0.2,0c-0.5-0.7-1.5-0.8-2.1-0.4
						c-0.2-0.1-0.4-0.2-0.7-0.2c-0.9,0-1.3,0.6-1.4,1.3c-0.4-0.1-0.8-0.1-1.2-0.2c0-0.3,0-0.5,0-0.8c0-5.5,0-11,0.1-16.5
						c0-1.4,0.3-2.8,0.6-4.2c0.9-3.4,5.3-4.5,8.4-2.2c2.2,1.7,3,4.1,3.2,6.8c0,0.8,0,1.6,0,2.4c1.1-1.1,2.1-2.1,3.2-3
						c1.3-1,2.7-1.7,4.1-2.6c0.4-0.2,0.9-0.7,0.9-1.1c0-3.2,0-6.5,0-9.7c0,0,0,0,0-0.1c0.4,0.1,0.9,0.1,1.3,0.2v5.4
						c0.3,0,0.6,0,0.8,0c0,0.7,0.5,1.5,1.4,1.5c0.8,0,1.3-0.5,1.4-1.1c0.5,0.3,0.9,0.7,1,1.3c0.2,0.9-0.3,1.6-1.1,2
						c-1.3,0.7-2.6,1.3-3.9,2.1c-1.9,1.1-3.9,2.1-5.7,3.4c-4.7,3.7-4.1,11.6,0.9,15.1c4.2,2.9,13.8,3.3,18.5-3.5
						c-1.6-1.7-3.2-3.5-4.7-5.1c-1.5,1-2.8,2-4.3,2.8c-1.2,0.7-2.6,1-3.9,0.5c-0.5-0.2-1-0.5-1.4-0.9c0-0.1,0-0.3,0-0.5
						c-0.2-0.8-0.2-1.7-0.2-2.6c0.1-0.1,0.2-0.2,0.4-0.3c1.5-1,3.1-2,4.8-2.8c2.5-1.3,4.9-2.8,6.6-5.1c2.2-3.2,2-7.2-0.1-10.1
						c0,0,0,0,0.1,0c5.5,1.4,9.9,3,13.1,4.3v23.3H73z"/>
				</g>
				<path class="st1" d="M73,121.4v5.8c-1.8,0-4.3-0.1-7.3-0.3c-1.2-0.1-2.4-0.2-3.5-0.3c-0.4,0-0.9-0.1-1.3-0.1
					c-0.2,0-0.5-0.1-0.7-0.1c-0.8-0.1-1.5-0.2-2.3-0.4c-1.6-0.4-3.1-0.8-4.8-0.8c-1.4-0.2-2.8-0.6-4.2-0.8c-1.5-0.2-3-0.4-4.5-0.7
					c-1.5-0.3-3-0.5-4.5-0.9c-0.6-0.2-1.3-0.4-1.9-0.6c-0.2-0.1-0.7-0.3-0.9-0.3c-0.1,0-0.2,0-0.2,0c-0.5-0.7-1.5-0.8-2.1-0.4
					c-0.2-0.1-0.4-0.2-0.7-0.2c-0.9,0-1.3,0.6-1.4,1.3c-0.4-0.1-0.8-0.1-1.2-0.2c0-0.3,0-0.5,0-0.8c0-5.5,0-11,0.1-16.5
					c0-1.4,0.3-2.8,0.6-4.2c0.9-3.4,5.3-4.5,8.4-2.2c2.2,1.7,3,4.1,3.2,6.8c0,0.8,0,1.6,0,2.4c0.9-1.4,1.9-2.3,2.6-2.9
					c1.2-0.9,2.1-1.3,4.4-2.9c0.5-0.4,0.9-0.7,1.2-0.9c0.2-3.3,0.2-6.6,0-9.7c0,0,0,0,0-0.1c0.4,0.1,0.9,0.1,1.3,0.2v5.4
					c0.3,0,0.6,0,0.8,0c0,0.7,0.5,1.5,1.4,1.5c0.8,0,1.3-0.5,1.4-1.1c0.5,0.3,0.9,0.7,1,1.3c0.2,0.9-0.3,1.6-1.1,2
					c-1.3,0.7-2.6,1.3-3.9,2.1c-1.9,1.1-3.9,2.1-5.7,3.4c-4.7,3.7-4.1,11.6,0.9,15.1c4.2,2.9,13.8,3.3,18.5-3.5
					c-1.1-1.3-2.3-2.5-3.4-3.8c-0.2,0.2-4.4,3.7-7.5,3.2c-0.9-0.1-1.7-0.6-1.7-0.6c-0.6-0.3-2-1.2-2.3-2.5c-0.3-1.3-0.2-1.7,0.9-2.5
					c1.5-1,3.1-2,4.8-2.8c2.5-1.3,4.9-2.8,6.6-5.1c2.2-3.2,2-7.2-0.1-10.1c0,0,0,0,0.1,0c5.5,1.4,9.9,3,13.1,4.3v23.3H73z"/>
			</g>
		</g>
		<g>
			<path class="st20" d="M65.7,92c-1.3-0.4-2.6-0.7-3.9-1c-0.2-0.1-0.5-0.2-0.7-0.3c-1.7-0.7-3.4-1-5.3-0.9c-3-0.5-6.1-0.9-9.6-1.3
				c-7.4-0.8-17.3-1.6-29.4-1.9v1.9v3.6h-3.4h-1.7c0-4.5,0-9.1,0-13.6c0-4.4,3.5-8,7.9-8H72c0.6,0,3.1,0.1,5.3,2
				c2.6,2.3,2.6,5.5,2.6,6c0,6.2,0,12.4,0,18.6c0,0-0.1-0.1-0.1-0.1C76.4,95.6,71.6,93.7,65.7,92z"/>
			<path class="st1" d="M21.6,119.6c1,0.4,2.1,0.8,3.3,1.1c0,0.3,0,0.6,0,0.9c0,0.3,0,0.6,0,0.9c-0.3-0.1-0.7-0.2-1-0.3
				c-4.2-1.3-7.3-2.8-9.3-4c-1.2-0.7-2.2-1.4-2.9-1.8v-1.5c0.5,0.3,1.1,0.6,1.7,1C15.5,117,18.2,118.3,21.6,119.6z"/>
			<path class="st1" d="M54.6,90C54.6,90,54.6,90,54.6,90l-0.1,1.7c-0.4-0.1-0.9-0.1-1.3-0.2c0-0.1-0.1-0.3-0.1-0.5h-2.9
				C43.3,90,35,88.9,24.5,88.6c-2.1-0.1-4.7-0.1-7.6-0.1v-1.9c12.1,0.3,22,1.1,29.4,1.9c3,0.3,5.7,0.7,8.3,1.1
				C54.6,89.8,54.6,89.9,54.6,90z"/>
			<path class="st1" d="M76,122.8v6.1c-2.4,0-5.1-0.1-8-0.3c-0.5,0-1-0.1-1.7-0.1c-7.2-0.5-13.9-1.3-15.2-1.4
				c-6.1-0.8-12.5-1.6-18.4-2.7V123h0c0-0.2,0-0.3,0-0.5c4.6,0.8,10.3,1.6,17.8,2.7c2,0.3,4,0.6,6,0.8c2,0.2,4,0.5,6.1,0.6
				c1.3,0.1,2.7,0.2,4.1,0.3c3,0.2,5.5,0.3,7.3,0.3v-5.8h5.8v1.4H76z"/>
			<path class="st1" d="M56.6,125.9c2.4,0.1,4.3,0.4,6.1,0.6C60.6,126.4,58.6,126.2,56.6,125.9z"/>
			<path class="st1" d="M78.2,98.1c-3.1-1.3-7.6-2.9-13.1-4.3c0,0,0,0-0.1,0c-0.8-1.1-1.9-2-3.2-2.7c1.3,0.3,2.5,0.6,3.9,1
				c5.9,1.6,10.7,3.5,14.1,5c0,0,0.1,0.1,0.1,0.1v24.2c-0.6,0-1.2,0-1.7,0V98.1z"/>
			<path class="st1" d="M13.4,115.9c-0.7-0.4-1.2-0.7-1.7-1V92.1h1.7V115.9z"/>
			<path class="st1" d="M24.5,88.6C35,88.9,43.3,90,50.3,91.1c-1.6,0-3.2,0-4.9,0c0,1,0,2,0,3.2c-0.9-0.6-1.6-1.1-2.3-1.6
				c-4.9-3.4-10.8-3.2-14.8,0.4c-2.6,2.3-3.3,5.3-3.3,8.6c0,6.4,0,12.8,0,19.1c-1.2-0.3-2.3-0.7-3.3-1.1c-3.3-1.3-6.1-2.7-8.1-3.8
				V92.1h3.4v-3.6C19.8,88.5,22.3,88.6,24.5,88.6z"/>
			
				<linearGradient id="SVGID_49_" gradientUnits="userSpaceOnUse" x1="31.8542" y1="-146.2327" x2="31.8542" y2="-208.9779" gradientTransform="matrix(1 0 0 -1 0 -70.8539)">
				<stop  offset="0" style="stop-color:#FFFFFF;stop-opacity:0"/>
				<stop  offset="1" style="stop-color:#FFFFFF;stop-opacity:0.25"/>
			</linearGradient>
			<path class="st44" d="M24.5,88.6C35,88.9,43.3,90,50.3,91.1c-1.6,0-3.2,0-4.9,0c0,1,0,2,0,3.2c-0.9-0.6-1.6-1.1-2.3-1.6
				c-4.9-3.4-10.8-3.2-14.8,0.4c-2.6,2.3-3.3,5.3-3.3,8.6c0,6.4,0,12.8,0,19.1c-1.2-0.3-2.3-0.7-3.3-1.1c-3.3-1.3-6.1-2.7-8.1-3.8
				V92.1h3.4v-3.6C19.8,88.5,22.3,88.6,24.5,88.6z"/>
			<path class="st1" d="M32.8,121.7c0-5.5,0-11,0.1-16.5c0-1.4,0.3-2.8,0.6-4.2c0.9-3.4,5.3-4.5,8.4-2.2c2.2,1.7,3,4.1,3.2,6.8
				c0,0.8,0,1.6,0,2.4c1.1-1.1,2.1-2.1,3.2-3c1.3-1,2.7-1.7,4.1-2.6c0.4-0.2,0.9-0.7,0.9-1.1c0-3.2,0-6.5,0-9.7c0,0,0,0,0-0.1
				c0.4,0.1,0.9,0.1,1.3,0.2c0,1.9,0,3.7,0,5.4c0.9,0,1.8-0.1,2.6,0c1,0.1,1.8,0.6,2,1.6c0.2,0.9-0.3,1.6-1.1,2
				c-1.3,0.7-2.6,1.3-3.9,2.1c-1.9,1.1-3.9,2.1-5.7,3.4c-4.7,3.7-4.1,11.6,0.9,15.1c4.2,2.9,13.8,3.3,18.5-3.5
				c-1.6-1.7-3.2-3.5-4.7-5.1c-1.5,1-2.8,2-4.3,2.8c-1.2,0.7-2.6,1-3.9,0.5c-0.8-0.4-1.7-1-2.1-1.8c-0.5-0.9,0.1-1.9,0.9-2.5
				c1.5-1,3.1-2,4.8-2.8c2.5-1.3,4.9-2.8,6.6-5.1c2.2-3.2,2-7.2-0.1-10.1c0,0,0,0,0.1,0c5.5,1.4,9.9,3,13.1,4.3v23.3
				c-1.4,0-2.7,0-4.1,0c0,1.9,0,3.9,0,5.8c-1.8,0-4.3-0.1-7.3-0.3c-1.4-0.1-2.8-0.2-4.1-0.3c-1.8-0.3-3.8-0.5-6.1-0.6
				c-2-0.2-4-0.5-6-0.8c-7.5-1.1-13.3-1.9-17.8-2.7C32.8,122.2,32.8,121.9,32.8,121.7z"/>
			
				<linearGradient id="SVGID_50_" gradientUnits="userSpaceOnUse" x1="55.4979" y1="-146.2327" x2="55.4979" y2="-208.9779" gradientTransform="matrix(1 0 0 -1 0 -70.8539)">
				<stop  offset="0" style="stop-color:#FFFFFF;stop-opacity:0"/>
				<stop  offset="1" style="stop-color:#FFFFFF;stop-opacity:0.25"/>
			</linearGradient>
			<path class="st45" d="M32.8,121.7c0-5.5,0-11,0.1-16.5c0-1.4,0.3-2.8,0.6-4.2c0.9-3.4,5.3-4.5,8.4-2.2c2.2,1.7,3,4.1,3.2,6.8
				c0,0.8,0,1.6,0,2.4c1.1-1.1,2.1-2.1,3.2-3c1.3-1,2.7-1.7,4.1-2.6c0.4-0.2,0.9-0.7,0.9-1.1c0-3.2,0-6.5,0-9.7c0,0,0,0,0-0.1
				c0.4,0.1,0.9,0.1,1.3,0.2c0,1.9,0,3.7,0,5.4c0.9,0,1.8-0.1,2.6,0c1,0.1,1.8,0.6,2,1.6c0.2,0.9-0.3,1.6-1.1,2
				c-1.3,0.7-2.6,1.3-3.9,2.1c-1.9,1.1-3.9,2.1-5.7,3.4c-4.7,3.7-4.1,11.6,0.9,15.1c4.2,2.9,13.8,3.3,18.5-3.5
				c-1.6-1.7-3.2-3.5-4.7-5.1c-1.5,1-2.8,2-4.3,2.8c-1.2,0.7-2.6,1-3.9,0.5c-0.8-0.4-1.7-1-2.1-1.8c-0.5-0.9,0.1-1.9,0.9-2.5
				c1.5-1,3.1-2,4.8-2.8c2.5-1.3,4.9-2.8,6.6-5.1c2.2-3.2,2-7.2-0.1-10.1c0,0,0,0,0.1,0c5.5,1.4,9.9,3,13.1,4.3v23.3
				c-1.4,0-2.7,0-4.1,0c0,1.9,0,3.9,0,5.8c-1.8,0-4.3-0.1-7.3-0.3c-1.4-0.1-2.8-0.2-4.1-0.3c-1.8-0.3-3.8-0.5-6.1-0.6
				c-2-0.2-4-0.5-6-0.8c-7.5-1.1-13.3-1.9-17.8-2.7C32.8,122.2,32.8,121.9,32.8,121.7z"/>
		</g>
	</g>
	<g>
		<g class="st46">
			<text transform="matrix(1 0 0 1 100.5957 39.9848)" class="st47 st48 st49">USQUARE</text>
			<text transform="matrix(1 0 0 1 148.0771 64.4496)" class="st50 st48 st51 st52">SOLUTIONS</text>
		</g>
		<g class="st46">
			<rect x="221.7" y="27.1" class="st53" width="15.1" height="7.9"/>
			<rect x="107.6" y="27.1" class="st53" width="15.1" height="7.9"/>
			<path class="st53" d="M163.8,30.6c0.4,1,1,1.8,1.7,2.5c0.7,0.7,1.6,1.3,2.5,1.7c1,0.4,2,0.6,3.1,0.6c1.1,0,2.1-0.2,3-0.6
				c1-0.4,1.8-1,2.5-1.7c0.7-0.7,1.3-1.6,1.7-2.5c0.4-1,0.6-2,0.6-3c0-0.1,0-0.3,0-0.4h-15.9c0,0.1,0,0.3,0,0.4
				C163.1,28.6,163.3,29.6,163.8,30.6z"/>
			<path class="st54" d="M122.7,35h-15.1v-7.9h-5V35c0,0.7,0.1,1.4,0.4,2c0.2,0.6,0.6,1.1,1,1.6c0.4,0.4,1,0.8,1.6,1
				c0.6,0.3,1.3,0.4,2,0.4h15.1c1.5,0,2.7-0.5,3.6-1.4c0.9-0.9,1.4-2.1,1.4-3.6v-7.9h-5V35z"/>
			<path class="st54" d="M132.8,28.7c0.9,0.8,2.1,1.3,3.6,1.3h13.3v5h-17.9v5h17.9c1.6,0,2.9-0.4,3.8-1.3c0.9-0.9,1.3-2.1,1.3-3.7
				v-5c0-1.1-0.3-2.1-0.8-2.9h-22.3C132,27.7,132.4,28.3,132.8,28.7z"/>
			<path class="st54" d="M179,27.5c0,1.1-0.2,2.1-0.6,3c-0.4,1-1,1.8-1.7,2.5c-0.7,0.7-1.6,1.3-2.5,1.7c-1,0.4-2,0.6-3,0.6
				c-1.1,0-2.1-0.2-3.1-0.6c-1-0.4-1.8-1-2.5-1.7c-0.7-0.7-1.3-1.6-1.7-2.5c-0.4-1-0.6-2-0.6-3.1c0-0.1,0-0.3,0-0.4h-5
				c0,0.1,0,0.3,0,0.4c0,1.5,0.3,3,0.8,4.4c0.5,1.4,1.2,2.7,2.2,3.8c0.9,1.1,2,2.1,3.3,2.9c1.3,0.8,2.7,1.3,4.2,1.7V45h5v-4.8
				c1.5-0.3,2.9-0.9,4.2-1.7c1.3-0.8,2.4-1.7,3.3-2.9c0.9-1.1,1.7-2.4,2.2-3.8c0.5-1.4,0.8-2.9,0.8-4.4c0-0.1,0-0.3,0-0.4h-5
				C179,27.2,179,27.3,179,27.5z"/>
			<path class="st54" d="M246,40h5V30h0.8l11.8,10h7.6l-12-10h6.1c2.6,0,4.1-1,4.8-2.9h-24V40z"/>
			<polygon class="st54" points="293.8,30 293.8,27.1 273.8,27.1 273.8,40 293.9,40 293.9,35 278.8,35 278.8,30 			"/>
			<rect x="102.6" y="14.9" class="st54" width="5" height="12.2"/>
			<linearGradient id="SVGID_51_" gradientUnits="userSpaceOnUse" x1="105.1125" y1="27.0909" x2="105.1125" y2="10.625">
				<stop  offset="0.2703" style="stop-color:#FFFFFF;stop-opacity:0"/>
				<stop  offset="1" style="stop-color:#FFFFFF;stop-opacity:0.7"/>
			</linearGradient>
			<rect x="102.6" y="14.9" class="st55" width="5" height="12.2"/>
			<rect x="122.7" y="14.9" class="st54" width="5" height="12.2"/>
			<linearGradient id="SVGID_52_" gradientUnits="userSpaceOnUse" x1="125.1604" y1="27.0909" x2="125.1604" y2="10.625">
				<stop  offset="0.2703" style="stop-color:#FFFFFF;stop-opacity:0"/>
				<stop  offset="1" style="stop-color:#FFFFFF;stop-opacity:0.7"/>
			</linearGradient>
			<rect x="122.7" y="14.9" class="st56" width="5" height="12.2"/>
			<path class="st54" d="M149.8,25h-13.3v-5h17.1v-5h-17.1c-1.5,0-2.7,0.4-3.6,1.3c-0.9,0.9-1.4,2.1-1.4,3.7v5
				c0,0.8,0.1,1.5,0.3,2.1h22.3c-0.2-0.3-0.4-0.5-0.6-0.8C152.5,25.4,151.3,25,149.8,25z"/>
			<linearGradient id="SVGID_53_" gradientUnits="userSpaceOnUse" x1="142.7735" y1="27.0909" x2="142.7735" y2="10.625">
				<stop  offset="0.2703" style="stop-color:#FFFFFF;stop-opacity:0"/>
				<stop  offset="1" style="stop-color:#FFFFFF;stop-opacity:0.7"/>
			</linearGradient>
			<path class="st57" d="M149.8,25h-13.3v-5h17.1v-5h-17.1c-1.5,0-2.7,0.4-3.6,1.3c-0.9,0.9-1.4,2.1-1.4,3.7v5
				c0,0.8,0.1,1.5,0.3,2.1h22.3c-0.2-0.3-0.4-0.5-0.6-0.8C152.5,25.4,151.3,25,149.8,25z"/>
			<path class="st54" d="M180.2,18.3c-1.2-1.2-2.5-2.1-4.1-2.8c-1.6-0.7-3.2-1-5-1c-1.8,0-3.5,0.3-5,1c-1.6,0.7-3,1.6-4.1,2.8
				c-1.2,1.2-2.1,2.5-2.8,4.1c-0.6,1.5-1,3-1,4.7h5c0-1,0.2-1.9,0.6-2.7c0.4-1,1-1.8,1.7-2.5c0.7-0.7,1.6-1.3,2.5-1.7
				c1-0.4,2-0.6,3.1-0.6c1.1,0,2.1,0.2,3.1,0.6c1,0.4,1.8,1,2.5,1.7c0.7,0.7,1.3,1.6,1.7,2.6c0.4,0.9,0.6,1.7,0.6,2.7h5
				c0-1.6-0.4-3.2-1-4.6C182.3,20.9,181.4,19.5,180.2,18.3z"/>
			<linearGradient id="SVGID_54_" gradientUnits="userSpaceOnUse" x1="171.0923" y1="27.0909" x2="171.0923" y2="10.625">
				<stop  offset="0.2703" style="stop-color:#FFFFFF;stop-opacity:0"/>
				<stop  offset="1" style="stop-color:#FFFFFF;stop-opacity:0.7"/>
			</linearGradient>
			<path class="st58" d="M180.2,18.3c-1.2-1.2-2.5-2.1-4.1-2.8c-1.6-0.7-3.2-1-5-1c-1.8,0-3.5,0.3-5,1c-1.6,0.7-3,1.6-4.1,2.8
				c-1.2,1.2-2.1,2.5-2.8,4.1c-0.6,1.5-1,3-1,4.7h5c0-1,0.2-1.9,0.6-2.7c0.4-1,1-1.8,1.7-2.5c0.7-0.7,1.6-1.3,2.5-1.7
				c1-0.4,2-0.6,3.1-0.6c1.1,0,2.1,0.2,3.1,0.6c1,0.4,1.8,1,2.5,1.7c0.7,0.7,1.3,1.6,1.7,2.6c0.4,0.9,0.6,1.7,0.6,2.7h5
				c0-1.6-0.4-3.2-1-4.6C182.3,20.9,181.4,19.5,180.2,18.3z"/>
			<g class="st59">
				<polygon class="st60" points="216.7,40 221.7,40 221.7,30 236.7,30 236.7,40 241.7,40 241.7,27.1 216.7,27.1 				"/>
				<path class="st60" d="M241.4,17.9c-0.3-0.6-0.6-1.1-1-1.6c-0.4-0.5-1-0.8-1.6-1.1c-0.6-0.3-1.3-0.4-2-0.4h-15
					c-1.5,0-2.7,0.4-3.6,1.3c-0.9,0.9-1.4,2.1-1.4,3.7v7.2h25.1v-7.2C241.7,19.2,241.6,18.5,241.4,17.9z M236.7,25h-15v-5h15V25z"/>
				<linearGradient id="SVGID_55_" gradientUnits="userSpaceOnUse" x1="229.2033" y1="27.0909" x2="229.2033" y2="10.625">
					<stop  offset="0.2703" style="stop-color:#FFFFFF;stop-opacity:0"/>
					<stop  offset="1" style="stop-color:#FFFFFF;stop-opacity:0.7"/>
				</linearGradient>
				<path class="st61" d="M241.4,17.9c-0.3-0.6-0.6-1.1-1-1.6c-0.4-0.5-1-0.8-1.6-1.1c-0.6-0.3-1.3-0.4-2-0.4h-15
					c-1.5,0-2.7,0.4-3.6,1.3c-0.9,0.9-1.4,2.1-1.4,3.7v7.2h25.1v-7.2C241.7,19.2,241.6,18.5,241.4,17.9z M236.7,25h-15v-5h15V25z"/>
			</g>
			<g class="st59">
				<path class="st60" d="M207.7,35h-15.1v-7.9h-5V35c0,0.7,0.1,1.4,0.4,2c0.2,0.6,0.6,1.1,1,1.6c0.4,0.4,1,0.8,1.6,1
					c0.6,0.3,1.3,0.4,2,0.4h15.1c1.5,0,2.7-0.5,3.6-1.4c0.9-0.9,1.4-2.1,1.4-3.6v-7.9h-5V35z"/>
				<rect x="207.7" y="14.9" class="st60" width="5" height="12.2"/>
				<linearGradient id="SVGID_56_" gradientUnits="userSpaceOnUse" x1="210.1628" y1="27.0909" x2="210.1628" y2="10.625">
					<stop  offset="0.2703" style="stop-color:#FFFFFF;stop-opacity:0"/>
					<stop  offset="1" style="stop-color:#FFFFFF;stop-opacity:0.7"/>
				</linearGradient>
				<rect x="207.7" y="14.9" class="st62" width="5" height="12.2"/>
				<rect x="187.6" y="14.9" class="st60" width="5" height="12.2"/>
				<linearGradient id="SVGID_57_" gradientUnits="userSpaceOnUse" x1="190.115" y1="27.0909" x2="190.115" y2="10.625">
					<stop  offset="0.2703" style="stop-color:#FFFFFF;stop-opacity:0"/>
					<stop  offset="1" style="stop-color:#FFFFFF;stop-opacity:0.7"/>
				</linearGradient>
				<rect x="187.6" y="14.9" class="st63" width="5" height="12.2"/>
			</g>
			<path class="st54" d="M270.3,19.9c0-0.7-0.1-1.3-0.4-2c-0.3-0.6-0.6-1.1-1.1-1.6c-0.5-0.5-1-0.8-1.6-1.1c-0.6-0.3-1.3-0.4-2-0.4
				H246v12.2h24c0.2-0.6,0.3-1.3,0.3-2.1V19.9z M265.2,25.2H251v-5.2h14.2V25.2z"/>
			<linearGradient id="SVGID_58_" gradientUnits="userSpaceOnUse" x1="258.1198" y1="27.0909" x2="258.1198" y2="10.625">
				<stop  offset="0.2703" style="stop-color:#FFFFFF;stop-opacity:0"/>
				<stop  offset="1" style="stop-color:#FFFFFF;stop-opacity:0.7"/>
			</linearGradient>
			<path class="st64" d="M270.3,19.9c0-0.7-0.1-1.3-0.4-2c-0.3-0.6-0.6-1.1-1.1-1.6c-0.5-0.5-1-0.8-1.6-1.1c-0.6-0.3-1.3-0.4-2-0.4
				H246v12.2h24c0.2-0.6,0.3-1.3,0.3-2.1V19.9z M265.2,25.2H251v-5.2h14.2V25.2z"/>
			<polygon class="st54" points="293.8,25 278.8,25 278.8,19.9 293.9,19.9 293.9,14.9 273.8,14.9 273.8,27.1 293.8,27.1 			"/>
			<linearGradient id="SVGID_59_" gradientUnits="userSpaceOnUse" x1="283.864" y1="27.0909" x2="283.864" y2="10.625">
				<stop  offset="0.2703" style="stop-color:#FFFFFF;stop-opacity:0"/>
				<stop  offset="1" style="stop-color:#FFFFFF;stop-opacity:0.7"/>
			</linearGradient>
			<polygon class="st65" points="293.8,25 278.8,25 278.8,19.9 293.9,19.9 293.9,14.9 273.8,14.9 273.8,27.1 293.8,27.1 			"/>
		</g>
		<g>
			<linearGradient id="SVGID_60_" gradientUnits="userSpaceOnUse" x1="117.1471" y1="39.986" x2="117.1471" y2="14.881">
				<stop  offset="1.818196e-02" style="stop-color:#0028A7"/>
				<stop  offset="0.1406" style="stop-color:#0031AA"/>
				<stop  offset="0.343" style="stop-color:#004AB2"/>
				<stop  offset="0.6005" style="stop-color:#0073BF"/>
				<stop  offset="0.9" style="stop-color:#00ACD1"/>
				<stop  offset="1" style="stop-color:#00C0D8"/>
			</linearGradient>
			<path class="st66" d="M129.7,35c0,1.5-0.5,2.7-1.4,3.6c-0.9,0.9-2.1,1.4-3.6,1.4h-15.1c-0.7,0-1.4-0.1-2-0.4
				c-0.6-0.3-1.1-0.6-1.6-1c-0.4-0.4-0.8-1-1-1.6c-0.2-0.6-0.4-1.3-0.4-2V14.9h5V35h15.1V14.9h5V35z"/>
			<linearGradient id="SVGID_61_" gradientUnits="userSpaceOnUse" x1="145.1504" y1="39.986" x2="145.1504" y2="14.881">
				<stop  offset="1.818196e-02" style="stop-color:#0028A7"/>
				<stop  offset="0.1406" style="stop-color:#0031AA"/>
				<stop  offset="0.343" style="stop-color:#004AB2"/>
				<stop  offset="0.6005" style="stop-color:#0073BF"/>
				<stop  offset="0.9" style="stop-color:#00ACD1"/>
				<stop  offset="1" style="stop-color:#00C0D8"/>
			</linearGradient>
			<path class="st67" d="M156.8,35c0,1.6-0.4,2.9-1.3,3.7c-0.9,0.9-2.1,1.3-3.8,1.3h-17.9v-5h17.9v-5h-13.3c-1.5,0-2.7-0.4-3.6-1.3
				c-0.9-0.8-1.4-2.1-1.4-3.7v-5c0-1.6,0.5-2.8,1.4-3.7c0.9-0.9,2.1-1.3,3.6-1.3h17.2v5h-17.2v5h13.3c1.5,0,2.8,0.5,3.7,1.4
				s1.4,2.1,1.4,3.6V35z"/>
			<linearGradient id="SVGID_62_" gradientUnits="userSpaceOnUse" x1="173.0932" y1="44.9826" x2="173.0932" y2="14.481">
				<stop  offset="1.818196e-02" style="stop-color:#0028A7"/>
				<stop  offset="0.1406" style="stop-color:#0031AA"/>
				<stop  offset="0.343" style="stop-color:#004AB2"/>
				<stop  offset="0.6005" style="stop-color:#0073BF"/>
				<stop  offset="0.9" style="stop-color:#00ACD1"/>
				<stop  offset="1" style="stop-color:#00C0D8"/>
			</linearGradient>
			<path class="st68" d="M186.1,27.5c0,1.5-0.3,3-0.8,4.4c-0.5,1.4-1.2,2.7-2.2,3.8c-0.9,1.1-2,2.1-3.3,2.9
				c-1.3,0.8-2.7,1.3-4.2,1.7V45h-5v-4.8c-1.5-0.3-2.9-0.9-4.2-1.7c-1.3-0.8-2.4-1.7-3.3-2.9c-0.9-1.1-1.7-2.4-2.2-3.8
				c-0.5-1.4-0.8-2.9-0.8-4.4c0-1.8,0.3-3.5,1-5c0.7-1.6,1.6-2.9,2.8-4.1c1.2-1.2,2.6-2.1,4.1-2.8c1.6-0.7,3.3-1,5-1
				c1.8,0,3.4,0.3,5,1c1.6,0.7,2.9,1.6,4.1,2.8c1.2,1.2,2.1,2.6,2.8,4.1C185.7,24,186.1,25.7,186.1,27.5z M181,27.5
				c0-1.1-0.2-2.1-0.6-3.1c-0.4-1-1-1.8-1.7-2.6c-0.7-0.7-1.6-1.3-2.5-1.7c-1-0.4-2-0.6-3.1-0.6c-1.1,0-2.1,0.2-3.1,0.6
				c-1,0.4-1.8,1-2.5,1.7c-0.7,0.7-1.3,1.6-1.7,2.5c-0.4,1-0.6,2-0.6,3.1c0,1.1,0.2,2.1,0.6,3.1c0.4,1,1,1.8,1.7,2.5
				c0.7,0.7,1.6,1.3,2.5,1.7c1,0.4,2,0.6,3.1,0.6c1.1,0,2.1-0.2,3-0.6c1-0.4,1.8-1,2.5-1.7c0.7-0.7,1.3-1.6,1.7-2.5
				C180.8,29.6,181,28.5,181,27.5z"/>
			<linearGradient id="SVGID_63_" gradientUnits="userSpaceOnUse" x1="202.0958" y1="39.986" x2="202.0958" y2="14.881">
				<stop  offset="1.818196e-02" style="stop-color:#0028A7"/>
				<stop  offset="0.1406" style="stop-color:#0031AA"/>
				<stop  offset="0.343" style="stop-color:#004AB2"/>
				<stop  offset="0.6005" style="stop-color:#0073BF"/>
				<stop  offset="0.9" style="stop-color:#00ACD1"/>
				<stop  offset="1" style="stop-color:#00C0D8"/>
			</linearGradient>
			<path class="st69" d="M214.6,35c0,1.5-0.5,2.7-1.4,3.6c-0.9,0.9-2.1,1.4-3.6,1.4h-15.1c-0.7,0-1.4-0.1-2-0.4
				c-0.6-0.3-1.1-0.6-1.6-1c-0.4-0.4-0.8-1-1-1.6c-0.2-0.6-0.4-1.3-0.4-2V14.9h5V35h15.1V14.9h5V35z"/>
			<linearGradient id="SVGID_64_" gradientUnits="userSpaceOnUse" x1="231.2184" y1="39.986" x2="231.2184" y2="14.881">
				<stop  offset="1.818196e-02" style="stop-color:#0028A7"/>
				<stop  offset="0.1406" style="stop-color:#0031AA"/>
				<stop  offset="0.343" style="stop-color:#004AB2"/>
				<stop  offset="0.6005" style="stop-color:#0073BF"/>
				<stop  offset="0.9" style="stop-color:#00ACD1"/>
				<stop  offset="1" style="stop-color:#00C0D8"/>
			</linearGradient>
			<path class="st70" d="M243.8,40h-5V30h-15v10h-5V19.9c0-1.6,0.5-2.8,1.4-3.7c0.9-0.9,2.1-1.3,3.6-1.3h15c0.7,0,1.4,0.1,2,0.4
				c0.6,0.3,1.2,0.6,1.6,1.1c0.4,0.5,0.8,1,1,1.6c0.3,0.6,0.4,1.3,0.4,2V40z M238.7,25v-5h-15v5H238.7z"/>
			<linearGradient id="SVGID_65_" gradientUnits="userSpaceOnUse" x1="260.5403" y1="39.986" x2="260.5403" y2="14.881">
				<stop  offset="1.818196e-02" style="stop-color:#0028A7"/>
				<stop  offset="0.1406" style="stop-color:#0031AA"/>
				<stop  offset="0.343" style="stop-color:#004AB2"/>
				<stop  offset="0.6005" style="stop-color:#0073BF"/>
				<stop  offset="0.9" style="stop-color:#00ACD1"/>
				<stop  offset="1" style="stop-color:#00C0D8"/>
			</linearGradient>
			<path class="st71" d="M273.1,40h-7.6l-11.8-10H253v10h-5V14.9h19.2c0.7,0,1.3,0.1,2,0.4c0.6,0.3,1.2,0.6,1.6,1.1
				c0.5,0.5,0.8,1,1.1,1.6c0.3,0.6,0.4,1.3,0.4,2v5c0,3.3-1.7,5-5.1,5h-6.1L273.1,40z M267.2,25.2v-5.2H253v5.2H267.2z"/>
			<linearGradient id="SVGID_66_" gradientUnits="userSpaceOnUse" x1="285.8845" y1="39.986" x2="285.8845" y2="14.881">
				<stop  offset="1.818196e-02" style="stop-color:#0028A7"/>
				<stop  offset="0.1406" style="stop-color:#0031AA"/>
				<stop  offset="0.343" style="stop-color:#004AB2"/>
				<stop  offset="0.6005" style="stop-color:#0073BF"/>
				<stop  offset="0.9" style="stop-color:#00ACD1"/>
				<stop  offset="1" style="stop-color:#00C0D8"/>
			</linearGradient>
			<path class="st72" d="M295.9,40h-20.1V14.9h20v5h-15v5h15v5h-15v5h15.1V40z"/>
		</g>
		<g>
			<rect x="205.2" y="55.1" class="st20" width="7.2" height="3.9"/>
			<polygon class="st20" points="276.3,55.1 274.3,55.1 276.3,57.2 			"/>
			<path class="st20" d="M250.6,56.8c0.2,0.5,0.5,0.9,0.8,1.2c0.3,0.3,0.7,0.6,1.2,0.8c0.5,0.2,1,0.3,1.5,0.3c0.5,0,1-0.1,1.4-0.3
				c0.5-0.2,0.9-0.5,1.2-0.8c0.3-0.3,0.6-0.8,0.8-1.2c0.2-0.5,0.3-0.9,0.3-1.4c0-0.1,0-0.2,0-0.3h-7.5c0,0.1,0,0.2,0,0.3
				C250.3,55.9,250.4,56.4,250.6,56.8z"/>
			<path class="st20" d="M171.1,56.8c0.2,0.5,0.5,0.9,0.8,1.2c0.3,0.3,0.7,0.6,1.2,0.8c0.5,0.2,1,0.3,1.5,0.3c0.5,0,1-0.1,1.4-0.3
				c0.5-0.2,0.9-0.5,1.2-0.8c0.3-0.3,0.6-0.8,0.8-1.2c0.2-0.5,0.3-0.9,0.3-1.4c0-0.1,0-0.2,0-0.3h-7.5c0,0.1,0,0.2,0,0.3
				C170.8,55.9,170.9,56.4,171.1,56.8z"/>
			<path class="st73" d="M151.6,56c0.4,0.4,1,0.6,1.7,0.6h6.3V59h-8.6v2.4h8.6c0.8,0,1.4-0.2,1.8-0.6c0.4-0.4,0.6-1,0.6-1.8v-2.4
				c0-0.6-0.1-1.1-0.4-1.5h-10.6C151.2,55.4,151.3,55.7,151.6,56z"/>
			<path class="st73" d="M178.3,55.4c0,0.5-0.1,1-0.3,1.4c-0.2,0.5-0.5,0.9-0.8,1.2c-0.3,0.3-0.7,0.6-1.2,0.8
				c-0.5,0.2-0.9,0.3-1.4,0.3c-0.5,0-1-0.1-1.5-0.3c-0.5-0.2-0.9-0.5-1.2-0.8c-0.3-0.3-0.6-0.7-0.8-1.2c-0.2-0.5-0.3-0.9-0.3-1.5
				c0-0.1,0-0.2,0-0.3h-2.4c0,0.1,0,0.2,0,0.3c0,0.9,0.2,1.7,0.5,2.4c0.3,0.7,0.8,1.4,1.3,2c0.6,0.6,1.2,1,2,1.3
				c0.7,0.3,1.5,0.5,2.4,0.5c0.8,0,1.6-0.2,2.4-0.5c0.7-0.3,1.4-0.8,2-1.3c0.6-0.6,1-1.2,1.3-2c0.3-0.7,0.5-1.5,0.5-2.4
				c0-0.1,0-0.2,0-0.3h-2.4C178.3,55.2,178.3,55.3,178.3,55.4z"/>
			<polygon class="st73" points="187.3,61.3 196.8,61.3 196.8,59 189.7,59 189.7,55.1 187.3,55.1 			"/>
			<path class="st73" d="M212.4,59h-7.2v-3.9h-2.4V59c0,0.3,0.1,0.7,0.2,1c0.1,0.3,0.3,0.5,0.5,0.8c0.2,0.2,0.5,0.4,0.8,0.5
				c0.3,0.1,0.6,0.2,1,0.2h7.2c0.7,0,1.3-0.2,1.7-0.7c0.4-0.4,0.7-1,0.7-1.7v-3.9h-2.4V59z"/>
			<rect x="225.7" y="55.1" class="st73" width="2.4" height="6.2"/>
			<rect x="239" y="55.1" class="st73" width="2.4" height="6.2"/>
			<path class="st73" d="M257.8,55.4c0,0.5-0.1,1-0.3,1.4c-0.2,0.5-0.5,0.9-0.8,1.2c-0.3,0.3-0.7,0.6-1.2,0.8
				c-0.5,0.2-0.9,0.3-1.4,0.3c-0.5,0-1-0.1-1.5-0.3c-0.5-0.2-0.9-0.5-1.2-0.8c-0.3-0.3-0.6-0.7-0.8-1.2c-0.2-0.5-0.3-0.9-0.3-1.5
				c0-0.1,0-0.2,0-0.3h-2.4c0,0.1,0,0.2,0,0.3c0,0.9,0.2,1.7,0.5,2.4c0.3,0.7,0.8,1.4,1.3,2c0.6,0.6,1.2,1,2,1.3
				c0.7,0.3,1.5,0.5,2.4,0.5c0.8,0,1.6-0.2,2.4-0.5c0.7-0.3,1.4-0.8,2-1.3c0.6-0.6,1-1.2,1.3-2c0.3-0.7,0.5-1.5,0.5-2.4
				c0-0.1,0-0.2,0-0.3h-2.4C257.8,55.2,257.8,55.3,257.8,55.4z"/>
			<rect x="266.8" y="55.1" class="st73" width="2.4" height="6.2"/>
			<polygon class="st73" points="276.3,57.2 274.3,55.1 271,55.1 277.2,61.3 278.7,61.3 278.7,55.1 276.3,55.1 			"/>
			<path class="st73" d="M286,56c0.4,0.4,1,0.6,1.7,0.6h6.3V59h-8.6v2.4h8.6c0.8,0,1.4-0.2,1.8-0.6c0.4-0.4,0.6-1,0.6-1.8v-2.4
				c0-0.6-0.1-1.1-0.4-1.5h-10.6C285.6,55.4,285.8,55.7,286,56z"/>
			<linearGradient id="SVGID_67_" gradientUnits="userSpaceOnUse" x1="270.1012" y1="55.0993" x2="270.1012" y2="47.3194">
				<stop  offset="0.2703" style="stop-color:#FFFFFF;stop-opacity:0"/>
				<stop  offset="1" style="stop-color:#FFFFFF;stop-opacity:0.7"/>
			</linearGradient>
			<polygon class="st74" points="269.2,55.1 271,55.1 269.2,53.2 			"/>
			<path class="st73" d="M159.6,54.2h-6.3v-2.4h8.2v-2.4h-8.2c-0.7,0-1.3,0.2-1.7,0.6c-0.4,0.4-0.6,1-0.6,1.8v2.4
				c0,0.3,0,0.7,0.1,0.9h10.6c-0.1-0.1-0.1-0.2-0.2-0.3C161,54.4,160.4,54.2,159.6,54.2z"/>
			<linearGradient id="SVGID_68_" gradientUnits="userSpaceOnUse" x1="156.271" y1="55.0993" x2="156.271" y2="47.3194">
				<stop  offset="0.2703" style="stop-color:#FFFFFF;stop-opacity:0"/>
				<stop  offset="1" style="stop-color:#FFFFFF;stop-opacity:0.7"/>
			</linearGradient>
			<path class="st75" d="M159.6,54.2h-6.3v-2.4h8.2v-2.4h-8.2c-0.7,0-1.3,0.2-1.7,0.6c-0.4,0.4-0.6,1-0.6,1.8v2.4
				c0,0.3,0,0.7,0.1,0.9h10.6c-0.1-0.1-0.1-0.2-0.2-0.3C161,54.4,160.4,54.2,159.6,54.2z"/>
			<path class="st73" d="M178.9,51c-0.6-0.6-1.2-1-2-1.3c-0.7-0.3-1.5-0.5-2.4-0.5c-0.9,0-1.7,0.2-2.4,0.5c-0.7,0.3-1.4,0.8-2,1.3
				c-0.6,0.6-1,1.2-1.3,2c-0.3,0.7-0.4,1.4-0.5,2.1h2.4c0-0.4,0.1-0.8,0.3-1.2c0.2-0.5,0.5-0.9,0.8-1.2c0.3-0.3,0.7-0.6,1.2-0.8
				c0.5-0.2,1-0.3,1.5-0.3c0.5,0,1,0.1,1.5,0.3c0.5,0.2,0.9,0.5,1.2,0.8c0.3,0.3,0.6,0.8,0.8,1.2c0.2,0.4,0.2,0.8,0.3,1.2h2.4
				c0-0.7-0.2-1.4-0.5-2.1C179.9,52.2,179.5,51.6,178.9,51z"/>
			<linearGradient id="SVGID_69_" gradientUnits="userSpaceOnUse" x1="174.5609" y1="55.0993" x2="174.5609" y2="47.3194">
				<stop  offset="0.2703" style="stop-color:#FFFFFF;stop-opacity:0"/>
				<stop  offset="1" style="stop-color:#FFFFFF;stop-opacity:0.7"/>
			</linearGradient>
			<path class="st76" d="M178.9,51c-0.6-0.6-1.2-1-2-1.3c-0.7-0.3-1.5-0.5-2.4-0.5c-0.9,0-1.7,0.2-2.4,0.5c-0.7,0.3-1.4,0.8-2,1.3
				c-0.6,0.6-1,1.2-1.3,2c-0.3,0.7-0.4,1.4-0.5,2.1h2.4c0-0.4,0.1-0.8,0.3-1.2c0.2-0.5,0.5-0.9,0.8-1.2c0.3-0.3,0.7-0.6,1.2-0.8
				c0.5-0.2,1-0.3,1.5-0.3c0.5,0,1,0.1,1.5,0.3c0.5,0.2,0.9,0.5,1.2,0.8c0.3,0.3,0.6,0.8,0.8,1.2c0.2,0.4,0.2,0.8,0.3,1.2h2.4
				c0-0.7-0.2-1.4-0.5-2.1C179.9,52.2,179.5,51.6,178.9,51z"/>
			<rect x="187.3" y="49.4" class="st73" width="2.4" height="5.7"/>
			<linearGradient id="SVGID_70_" gradientUnits="userSpaceOnUse" x1="188.4547" y1="55.0993" x2="188.4547" y2="47.3194">
				<stop  offset="0.2703" style="stop-color:#FFFFFF;stop-opacity:0"/>
				<stop  offset="1" style="stop-color:#FFFFFF;stop-opacity:0.7"/>
			</linearGradient>
			<rect x="187.3" y="49.4" class="st77" width="2.4" height="5.7"/>
			<rect x="202.9" y="49.4" class="st73" width="2.4" height="5.7"/>
			<linearGradient id="SVGID_71_" gradientUnits="userSpaceOnUse" x1="204.034" y1="55.0993" x2="204.034" y2="47.3194">
				<stop  offset="0.2703" style="stop-color:#FFFFFF;stop-opacity:0"/>
				<stop  offset="1" style="stop-color:#FFFFFF;stop-opacity:0.7"/>
			</linearGradient>
			<rect x="202.9" y="49.4" class="st78" width="2.4" height="5.7"/>
			<rect x="212.4" y="49.4" class="st73" width="2.4" height="5.7"/>
			<linearGradient id="SVGID_72_" gradientUnits="userSpaceOnUse" x1="213.5854" y1="55.0993" x2="213.5854" y2="47.3194">
				<stop  offset="0.2703" style="stop-color:#FFFFFF;stop-opacity:0"/>
				<stop  offset="1" style="stop-color:#FFFFFF;stop-opacity:0.7"/>
			</linearGradient>
			<rect x="212.4" y="49.4" class="st79" width="2.4" height="5.7"/>
			<polygon class="st73" points="232.8,51.8 232.8,49.4 220.9,49.4 220.9,51.8 225.7,51.8 225.7,55.1 228,55.1 228,51.8 			"/>
			<linearGradient id="SVGID_73_" gradientUnits="userSpaceOnUse" x1="226.832" y1="55.0993" x2="226.832" y2="47.3194">
				<stop  offset="0.2703" style="stop-color:#FFFFFF;stop-opacity:0"/>
				<stop  offset="1" style="stop-color:#FFFFFF;stop-opacity:0.7"/>
			</linearGradient>
			<polygon class="st80" points="232.8,51.8 232.8,49.4 220.9,49.4 220.9,51.8 225.7,51.8 225.7,55.1 228,55.1 228,51.8 			"/>
			<rect x="239" y="49.4" class="st73" width="2.4" height="5.7"/>
			<linearGradient id="SVGID_74_" gradientUnits="userSpaceOnUse" x1="240.1736" y1="55.0993" x2="240.1736" y2="47.3194">
				<stop  offset="0.2703" style="stop-color:#FFFFFF;stop-opacity:0"/>
				<stop  offset="1" style="stop-color:#FFFFFF;stop-opacity:0.7"/>
			</linearGradient>
			<rect x="239" y="49.4" class="st81" width="2.4" height="5.7"/>
			<path class="st73" d="M258.4,51c-0.6-0.6-1.2-1-2-1.3c-0.7-0.3-1.5-0.5-2.4-0.5c-0.9,0-1.7,0.2-2.4,0.5c-0.7,0.3-1.4,0.8-2,1.3
				c-0.6,0.6-1,1.2-1.3,2c-0.3,0.7-0.4,1.4-0.5,2.1h2.4c0-0.4,0.1-0.8,0.3-1.2c0.2-0.5,0.5-0.9,0.8-1.2c0.3-0.3,0.7-0.6,1.2-0.8
				c0.5-0.2,1-0.3,1.5-0.3c0.5,0,1,0.1,1.5,0.3c0.5,0.2,0.9,0.5,1.2,0.8c0.3,0.3,0.6,0.8,0.8,1.2c0.2,0.4,0.2,0.8,0.3,1.2h2.4
				c0-0.7-0.2-1.4-0.5-2.1C259.4,52.2,259,51.6,258.4,51z"/>
			<linearGradient id="SVGID_75_" gradientUnits="userSpaceOnUse" x1="254.0575" y1="55.0993" x2="254.0575" y2="47.3194">
				<stop  offset="0.2703" style="stop-color:#FFFFFF;stop-opacity:0"/>
				<stop  offset="1" style="stop-color:#FFFFFF;stop-opacity:0.7"/>
			</linearGradient>
			<path class="st82" d="M258.4,51c-0.6-0.6-1.2-1-2-1.3c-0.7-0.3-1.5-0.5-2.4-0.5c-0.9,0-1.7,0.2-2.4,0.5c-0.7,0.3-1.4,0.8-2,1.3
				c-0.6,0.6-1,1.2-1.3,2c-0.3,0.7-0.4,1.4-0.5,2.1h2.4c0-0.4,0.1-0.8,0.3-1.2c0.2-0.5,0.5-0.9,0.8-1.2c0.3-0.3,0.7-0.6,1.2-0.8
				c0.5-0.2,1-0.3,1.5-0.3c0.5,0,1,0.1,1.5,0.3c0.5,0.2,0.9,0.5,1.2,0.8c0.3,0.3,0.6,0.8,0.8,1.2c0.2,0.4,0.2,0.8,0.3,1.2h2.4
				c0-0.7-0.2-1.4-0.5-2.1C259.4,52.2,259,51.6,258.4,51z"/>
			<rect x="276.3" y="49.4" class="st73" width="2.4" height="5.7"/>
			<linearGradient id="SVGID_76_" gradientUnits="userSpaceOnUse" x1="277.5119" y1="55.0993" x2="277.5119" y2="47.3194">
				<stop  offset="0.2703" style="stop-color:#FFFFFF;stop-opacity:0"/>
				<stop  offset="1" style="stop-color:#FFFFFF;stop-opacity:0.7"/>
			</linearGradient>
			<rect x="276.3" y="49.4" class="st83" width="2.4" height="5.7"/>
			<polygon class="st73" points="268.8,49.4 266.8,49.4 266.8,55.1 269.2,55.1 269.2,53.2 271,55.1 274.3,55.1 			"/>
			<linearGradient id="SVGID_77_" gradientUnits="userSpaceOnUse" x1="270.5381" y1="55.0993" x2="270.5381" y2="47.3194">
				<stop  offset="0.2703" style="stop-color:#FFFFFF;stop-opacity:0"/>
				<stop  offset="1" style="stop-color:#FFFFFF;stop-opacity:0.7"/>
			</linearGradient>
			<polygon class="st84" points="268.8,49.4 266.8,49.4 266.8,55.1 269.2,55.1 269.2,53.2 271,55.1 274.3,55.1 			"/>
			<path class="st73" d="M294.1,54.2h-6.3v-2.4h8.2v-2.4h-8.2c-0.7,0-1.3,0.2-1.7,0.6c-0.4,0.4-0.6,1-0.6,1.8v2.4
				c0,0.3,0.1,0.7,0.1,0.9h10.6c-0.1-0.1-0.1-0.2-0.2-0.3C295.4,54.4,294.8,54.2,294.1,54.2z"/>
			<linearGradient id="SVGID_78_" gradientUnits="userSpaceOnUse" x1="290.695" y1="55.0993" x2="290.695" y2="47.3194">
				<stop  offset="0.2703" style="stop-color:#FFFFFF;stop-opacity:0"/>
				<stop  offset="1" style="stop-color:#FFFFFF;stop-opacity:0.7"/>
			</linearGradient>
			<path class="st85" d="M294.1,54.2h-6.3v-2.4h8.2v-2.4h-8.2c-0.7,0-1.3,0.2-1.7,0.6c-0.4,0.4-0.6,1-0.6,1.8v2.4
				c0,0.3,0.1,0.7,0.1,0.9h10.6c-0.1-0.1-0.1-0.2-0.2-0.3C295.4,54.4,294.8,54.2,294.1,54.2z"/>
		</g>
		<g>
			<rect x="194.5" y="26.9" class="st20" width="15.1" height="8.1"/>
			<path class="st20" d="M165.8,30.6c0.4,1,1,1.8,1.7,2.5c0.7,0.7,1.6,1.3,2.5,1.7c1,0.4,2,0.6,3.1,0.6c1.1,0,2.1-0.2,3-0.6
				c1-0.4,1.8-1,2.5-1.7c0.7-0.7,1.3-1.6,1.7-2.5c0.4-1,0.6-2,0.6-3c0-0.2,0-0.4,0-0.6h-15.9c0,0.2,0,0.4,0,0.6
				C165.1,28.6,165.3,29.6,165.8,30.6z"/>
			<rect x="109.6" y="26.9" class="st20" width="15.1" height="8.1"/>
			<linearGradient id="SVGID_79_" gradientUnits="userSpaceOnUse" x1="117.1471" y1="39.986" x2="117.1471" y2="14.881">
				<stop  offset="1.818196e-02" style="stop-color:#0028A7"/>
				<stop  offset="0.1406" style="stop-color:#0031AA"/>
				<stop  offset="0.343" style="stop-color:#004AB2"/>
				<stop  offset="0.6005" style="stop-color:#0073BF"/>
				<stop  offset="0.9" style="stop-color:#00ACD1"/>
				<stop  offset="1" style="stop-color:#00C0D8"/>
			</linearGradient>
			<path class="st86" d="M124.7,35h-15.1v-8.1h-5V35c0,0.7,0.1,1.4,0.4,2c0.2,0.6,0.6,1.1,1,1.6c0.4,0.4,1,0.8,1.6,1
				c0.6,0.3,1.3,0.4,2,0.4h15.1c1.5,0,2.7-0.5,3.6-1.4c0.9-0.9,1.4-2.1,1.4-3.6v-8.1h-5V35z"/>
			<linearGradient id="SVGID_80_" gradientUnits="userSpaceOnUse" x1="145.2942" y1="39.986" x2="145.2942" y2="14.881">
				<stop  offset="1.818196e-02" style="stop-color:#0028A7"/>
				<stop  offset="0.1406" style="stop-color:#0031AA"/>
				<stop  offset="0.343" style="stop-color:#004AB2"/>
				<stop  offset="0.6005" style="stop-color:#0073BF"/>
				<stop  offset="0.9" style="stop-color:#00ACD1"/>
				<stop  offset="1" style="stop-color:#00C0D8"/>
			</linearGradient>
			<path class="st87" d="M134.8,28.7c0.9,0.8,2.1,1.3,3.6,1.3h13.3v5h-17.9v5h17.9c1.6,0,2.9-0.4,3.8-1.3c0.9-0.9,1.3-2.1,1.3-3.7
				v-5c0-1.2-0.3-2.2-0.9-3h-22.2C134,27.6,134.3,28.2,134.8,28.7z"/>
			<linearGradient id="SVGID_81_" gradientUnits="userSpaceOnUse" x1="173.0932" y1="44.9826" x2="173.0932" y2="14.481">
				<stop  offset="1.818196e-02" style="stop-color:#0028A7"/>
				<stop  offset="0.1406" style="stop-color:#0031AA"/>
				<stop  offset="0.343" style="stop-color:#004AB2"/>
				<stop  offset="0.6005" style="stop-color:#0073BF"/>
				<stop  offset="0.9" style="stop-color:#00ACD1"/>
				<stop  offset="1" style="stop-color:#00C0D8"/>
			</linearGradient>
			<path class="st88" d="M181,27.5c0,1.1-0.2,2.1-0.6,3c-0.4,1-1,1.8-1.7,2.5c-0.7,0.7-1.6,1.3-2.5,1.7c-1,0.4-2,0.6-3,0.6
				c-1.1,0-2.1-0.2-3.1-0.6c-1-0.4-1.8-1-2.5-1.7c-0.7-0.7-1.3-1.6-1.7-2.5c-0.4-1-0.6-2-0.6-3.1c0-0.2,0-0.4,0-0.6h-5
				c0,0.2,0,0.4,0,0.6c0,1.5,0.3,3,0.8,4.4c0.5,1.4,1.2,2.7,2.2,3.8c0.9,1.1,2,2.1,3.3,2.9c1.3,0.8,2.7,1.3,4.2,1.7V45h5v-4.8
				c1.5-0.3,2.9-0.9,4.2-1.7c1.3-0.8,2.4-1.7,3.3-2.9c0.9-1.1,1.7-2.4,2.2-3.8c0.5-1.4,0.8-2.9,0.8-4.4c0-0.2,0-0.4,0-0.6h-5
				C181,27.1,181,27.3,181,27.5z"/>
			<linearGradient id="SVGID_82_" gradientUnits="userSpaceOnUse" x1="202.0958" y1="39.986" x2="202.0958" y2="14.881">
				<stop  offset="1.818196e-02" style="stop-color:#0028A7"/>
				<stop  offset="0.1406" style="stop-color:#0031AA"/>
				<stop  offset="0.343" style="stop-color:#004AB2"/>
				<stop  offset="0.6005" style="stop-color:#0073BF"/>
				<stop  offset="0.9" style="stop-color:#00ACD1"/>
				<stop  offset="1" style="stop-color:#00C0D8"/>
			</linearGradient>
			<path class="st89" d="M209.6,35h-15.1v-8.1h-5V35c0,0.7,0.1,1.4,0.4,2c0.2,0.6,0.6,1.1,1,1.6c0.4,0.4,1,0.8,1.6,1
				c0.6,0.3,1.3,0.4,2,0.4h15.1c1.5,0,2.7-0.5,3.6-1.4c0.9-0.9,1.4-2.1,1.4-3.6v-8.1h-5V35z"/>
			<linearGradient id="SVGID_83_" gradientUnits="userSpaceOnUse" x1="231.2184" y1="39.986" x2="231.2184" y2="14.881">
				<stop  offset="1.818196e-02" style="stop-color:#0028A7"/>
				<stop  offset="0.1406" style="stop-color:#0031AA"/>
				<stop  offset="0.343" style="stop-color:#004AB2"/>
				<stop  offset="0.6005" style="stop-color:#0073BF"/>
				<stop  offset="0.9" style="stop-color:#00ACD1"/>
				<stop  offset="1" style="stop-color:#00C0D8"/>
			</linearGradient>
			<polygon class="st90" points="218.7,40 223.7,40 223.7,30 238.7,30 238.7,40 243.8,40 243.8,26.9 218.7,26.9 			"/>
			<linearGradient id="SVGID_84_" gradientUnits="userSpaceOnUse" x1="260.5403" y1="39.986" x2="260.5403" y2="14.881">
				<stop  offset="1.818196e-02" style="stop-color:#0028A7"/>
				<stop  offset="0.1406" style="stop-color:#0031AA"/>
				<stop  offset="0.343" style="stop-color:#004AB2"/>
				<stop  offset="0.6005" style="stop-color:#0073BF"/>
				<stop  offset="0.9" style="stop-color:#00ACD1"/>
				<stop  offset="1" style="stop-color:#00C0D8"/>
			</linearGradient>
			<path class="st91" d="M248,40h5V30h0.8l11.8,10h7.6l-12-10h6.1c2.6,0,4.2-1,4.8-3h-24V40z"/>
			<linearGradient id="SVGID_85_" gradientUnits="userSpaceOnUse" x1="285.8845" y1="39.986" x2="285.8845" y2="14.881">
				<stop  offset="1.818196e-02" style="stop-color:#0028A7"/>
				<stop  offset="0.1406" style="stop-color:#0031AA"/>
				<stop  offset="0.343" style="stop-color:#004AB2"/>
				<stop  offset="0.6005" style="stop-color:#0073BF"/>
				<stop  offset="0.9" style="stop-color:#00ACD1"/>
				<stop  offset="1" style="stop-color:#00C0D8"/>
			</linearGradient>
			<polygon class="st92" points="295.8,30 295.8,26.9 275.9,26.9 275.9,40 295.9,40 295.9,35 280.8,35 280.8,30 			"/>
			<linearGradient id="SVGID_86_" gradientUnits="userSpaceOnUse" x1="127.1612" y1="39.986" x2="127.1612" y2="14.881">
				<stop  offset="1.818196e-02" style="stop-color:#0028A7"/>
				<stop  offset="0.1406" style="stop-color:#0031AA"/>
				<stop  offset="0.343" style="stop-color:#004AB2"/>
				<stop  offset="0.6005" style="stop-color:#0073BF"/>
				<stop  offset="0.9" style="stop-color:#00ACD1"/>
				<stop  offset="1" style="stop-color:#00C0D8"/>
			</linearGradient>
			<rect x="124.7" y="14.9" class="st93" width="5" height="12"/>
			<linearGradient id="SVGID_87_" gradientUnits="userSpaceOnUse" x1="127.1612" y1="26.9048" x2="127.1612" y2="14.4607">
				<stop  offset="0.2703" style="stop-color:#FFFFFF;stop-opacity:0"/>
				<stop  offset="1" style="stop-color:#FFFFFF;stop-opacity:0.7"/>
			</linearGradient>
			<rect x="124.7" y="14.9" class="st94" width="5" height="12"/>
			<linearGradient id="SVGID_88_" gradientUnits="userSpaceOnUse" x1="107.113" y1="39.986" x2="107.113" y2="14.881">
				<stop  offset="1.818196e-02" style="stop-color:#0028A7"/>
				<stop  offset="0.1406" style="stop-color:#0031AA"/>
				<stop  offset="0.343" style="stop-color:#004AB2"/>
				<stop  offset="0.6005" style="stop-color:#0073BF"/>
				<stop  offset="0.9" style="stop-color:#00ACD1"/>
				<stop  offset="1" style="stop-color:#00C0D8"/>
			</linearGradient>
			<rect x="104.6" y="14.9" class="st95" width="5" height="12"/>
			<linearGradient id="SVGID_89_" gradientUnits="userSpaceOnUse" x1="107.113" y1="26.9048" x2="107.113" y2="14.4607">
				<stop  offset="0.2703" style="stop-color:#FFFFFF;stop-opacity:0"/>
				<stop  offset="1" style="stop-color:#FFFFFF;stop-opacity:0.7"/>
			</linearGradient>
			<rect x="104.6" y="14.9" class="st96" width="5" height="12"/>
			<linearGradient id="SVGID_90_" gradientUnits="userSpaceOnUse" x1="144.7024" y1="39.986" x2="144.7024" y2="14.881">
				<stop  offset="1.818196e-02" style="stop-color:#0028A7"/>
				<stop  offset="0.1406" style="stop-color:#0031AA"/>
				<stop  offset="0.343" style="stop-color:#004AB2"/>
				<stop  offset="0.6005" style="stop-color:#0073BF"/>
				<stop  offset="0.9" style="stop-color:#00ACD1"/>
				<stop  offset="1" style="stop-color:#00C0D8"/>
			</linearGradient>
			<path class="st97" d="M151.8,25h-13.3v-5h17.2v-5h-17.2c-1.5,0-2.7,0.4-3.6,1.3c-0.9,0.9-1.4,2.1-1.4,3.7v5
				c0,0.7,0.1,1.4,0.3,1.9h22.2c-0.1-0.2-0.3-0.4-0.5-0.6C154.5,25.4,153.3,25,151.8,25z"/>
			<linearGradient id="SVGID_91_" gradientUnits="userSpaceOnUse" x1="144.7024" y1="26.9048" x2="144.7024" y2="14.4607">
				<stop  offset="0.2703" style="stop-color:#FFFFFF;stop-opacity:0"/>
				<stop  offset="1" style="stop-color:#FFFFFF;stop-opacity:0.7"/>
			</linearGradient>
			<path class="st98" d="M151.8,25h-13.3v-5h17.2v-5h-17.2c-1.5,0-2.7,0.4-3.6,1.3c-0.9,0.9-1.4,2.1-1.4,3.7v5
				c0,0.7,0.1,1.4,0.3,1.9h22.2c-0.1-0.2-0.3-0.4-0.5-0.6C154.5,25.4,153.3,25,151.8,25z"/>
			<linearGradient id="SVGID_92_" gradientUnits="userSpaceOnUse" x1="173.0928" y1="44.9826" x2="173.0928" y2="14.481">
				<stop  offset="1.818196e-02" style="stop-color:#0028A7"/>
				<stop  offset="0.1406" style="stop-color:#0031AA"/>
				<stop  offset="0.343" style="stop-color:#004AB2"/>
				<stop  offset="0.6005" style="stop-color:#0073BF"/>
				<stop  offset="0.9" style="stop-color:#00ACD1"/>
				<stop  offset="1" style="stop-color:#00C0D8"/>
			</linearGradient>
			<path class="st99" d="M182.2,18.3c-1.2-1.2-2.5-2.1-4.1-2.8c-1.6-0.7-3.2-1-5-1c-1.8,0-3.5,0.3-5,1c-1.6,0.7-3,1.6-4.1,2.8
				c-1.2,1.2-2.1,2.5-2.8,4.1c-0.6,1.4-0.9,2.9-1,4.5h5c0.1-0.9,0.3-1.7,0.6-2.5c0.4-1,1-1.8,1.7-2.5c0.7-0.7,1.6-1.3,2.5-1.7
				c1-0.4,2-0.6,3.1-0.6c1.1,0,2.1,0.2,3.1,0.6c1,0.4,1.8,1,2.5,1.7c0.7,0.7,1.3,1.6,1.7,2.6c0.3,0.8,0.5,1.6,0.6,2.5h5
				c-0.1-1.5-0.4-3-1-4.4C184.3,20.9,183.4,19.5,182.2,18.3z"/>
			<linearGradient id="SVGID_93_" gradientUnits="userSpaceOnUse" x1="173.0928" y1="26.9048" x2="173.0928" y2="14.4607">
				<stop  offset="0.2703" style="stop-color:#FFFFFF;stop-opacity:0"/>
				<stop  offset="1" style="stop-color:#FFFFFF;stop-opacity:0.7"/>
			</linearGradient>
			<path class="st100" d="M182.2,18.3c-1.2-1.2-2.5-2.1-4.1-2.8c-1.6-0.7-3.2-1-5-1c-1.8,0-3.5,0.3-5,1c-1.6,0.7-3,1.6-4.1,2.8
				c-1.2,1.2-2.1,2.5-2.8,4.1c-0.6,1.4-0.9,2.9-1,4.5h5c0.1-0.9,0.3-1.7,0.6-2.5c0.4-1,1-1.8,1.7-2.5c0.7-0.7,1.6-1.3,2.5-1.7
				c1-0.4,2-0.6,3.1-0.6c1.1,0,2.1,0.2,3.1,0.6c1,0.4,1.8,1,2.5,1.7c0.7,0.7,1.3,1.6,1.7,2.6c0.3,0.8,0.5,1.6,0.6,2.5h5
				c-0.1-1.5-0.4-3-1-4.4C184.3,20.9,183.4,19.5,182.2,18.3z"/>
			<linearGradient id="SVGID_94_" gradientUnits="userSpaceOnUse" x1="192.0617" y1="39.986" x2="192.0617" y2="14.881">
				<stop  offset="1.818196e-02" style="stop-color:#0028A7"/>
				<stop  offset="0.1406" style="stop-color:#0031AA"/>
				<stop  offset="0.343" style="stop-color:#004AB2"/>
				<stop  offset="0.6005" style="stop-color:#0073BF"/>
				<stop  offset="0.9" style="stop-color:#00ACD1"/>
				<stop  offset="1" style="stop-color:#00C0D8"/>
			</linearGradient>
			<rect x="189.6" y="14.9" class="st101" width="5" height="12"/>
			<linearGradient id="SVGID_95_" gradientUnits="userSpaceOnUse" x1="192.0617" y1="26.9048" x2="192.0617" y2="14.4607">
				<stop  offset="0.2703" style="stop-color:#FFFFFF;stop-opacity:0"/>
				<stop  offset="1" style="stop-color:#FFFFFF;stop-opacity:0.7"/>
			</linearGradient>
			<rect x="189.6" y="14.9" class="st102" width="5" height="12"/>
			<linearGradient id="SVGID_96_" gradientUnits="userSpaceOnUse" x1="212.11" y1="39.986" x2="212.11" y2="14.881">
				<stop  offset="1.818196e-02" style="stop-color:#0028A7"/>
				<stop  offset="0.1406" style="stop-color:#0031AA"/>
				<stop  offset="0.343" style="stop-color:#004AB2"/>
				<stop  offset="0.6005" style="stop-color:#0073BF"/>
				<stop  offset="0.9" style="stop-color:#00ACD1"/>
				<stop  offset="1" style="stop-color:#00C0D8"/>
			</linearGradient>
			<rect x="209.6" y="14.9" class="st103" width="5" height="12"/>
			<linearGradient id="SVGID_97_" gradientUnits="userSpaceOnUse" x1="212.11" y1="26.9048" x2="212.11" y2="14.4607">
				<stop  offset="0.2703" style="stop-color:#FFFFFF;stop-opacity:0"/>
				<stop  offset="1" style="stop-color:#FFFFFF;stop-opacity:0.7"/>
			</linearGradient>
			<rect x="209.6" y="14.9" class="st104" width="5" height="12"/>
			<linearGradient id="SVGID_98_" gradientUnits="userSpaceOnUse" x1="231.2184" y1="39.986" x2="231.2184" y2="14.881">
				<stop  offset="1.818196e-02" style="stop-color:#0028A7"/>
				<stop  offset="0.1406" style="stop-color:#0031AA"/>
				<stop  offset="0.343" style="stop-color:#004AB2"/>
				<stop  offset="0.6005" style="stop-color:#0073BF"/>
				<stop  offset="0.9" style="stop-color:#00ACD1"/>
				<stop  offset="1" style="stop-color:#00C0D8"/>
			</linearGradient>
			<path class="st105" d="M243.4,17.9c-0.3-0.6-0.6-1.1-1-1.6c-0.4-0.5-1-0.8-1.6-1.1c-0.6-0.3-1.3-0.4-2-0.4h-15
				c-1.5,0-2.7,0.4-3.6,1.3c-0.9,0.9-1.4,2.1-1.4,3.7v7h25.1v-7C243.8,19.2,243.6,18.5,243.4,17.9z M238.7,25h-15v-5h15V25z"/>
			<linearGradient id="SVGID_99_" gradientUnits="userSpaceOnUse" x1="231.2184" y1="26.9048" x2="231.2184" y2="14.4607">
				<stop  offset="0.2703" style="stop-color:#FFFFFF;stop-opacity:0"/>
				<stop  offset="1" style="stop-color:#FFFFFF;stop-opacity:0.7"/>
			</linearGradient>
			<path class="st106" d="M243.4,17.9c-0.3-0.6-0.6-1.1-1-1.6c-0.4-0.5-1-0.8-1.6-1.1c-0.6-0.3-1.3-0.4-2-0.4h-15
				c-1.5,0-2.7,0.4-3.6,1.3c-0.9,0.9-1.4,2.1-1.4,3.7v7h25.1v-7C243.8,19.2,243.6,18.5,243.4,17.9z M238.7,25h-15v-5h15V25z"/>
			<linearGradient id="SVGID_100_" gradientUnits="userSpaceOnUse" x1="260.1205" y1="39.986" x2="260.1205" y2="14.881">
				<stop  offset="1.818196e-02" style="stop-color:#0028A7"/>
				<stop  offset="0.1406" style="stop-color:#0031AA"/>
				<stop  offset="0.343" style="stop-color:#004AB2"/>
				<stop  offset="0.6005" style="stop-color:#0073BF"/>
				<stop  offset="0.9" style="stop-color:#00ACD1"/>
				<stop  offset="1" style="stop-color:#00C0D8"/>
			</linearGradient>
			<path class="st107" d="M272.3,19.9c0-0.7-0.1-1.3-0.4-2c-0.3-0.6-0.6-1.1-1.1-1.6c-0.5-0.5-1-0.8-1.6-1.1c-0.6-0.3-1.3-0.4-2-0.4
				H248v12h24c0.2-0.6,0.3-1.2,0.3-1.9V19.9z M267.2,25.2H253v-5.2h14.2V25.2z"/>
			<linearGradient id="SVGID_101_" gradientUnits="userSpaceOnUse" x1="260.1205" y1="26.9048" x2="260.1205" y2="14.4607">
				<stop  offset="0.2703" style="stop-color:#FFFFFF;stop-opacity:0"/>
				<stop  offset="1" style="stop-color:#FFFFFF;stop-opacity:0.7"/>
			</linearGradient>
			<path class="st108" d="M272.3,19.9c0-0.7-0.1-1.3-0.4-2c-0.3-0.6-0.6-1.1-1.1-1.6c-0.5-0.5-1-0.8-1.6-1.1c-0.6-0.3-1.3-0.4-2-0.4
				H248v12h24c0.2-0.6,0.3-1.2,0.3-1.9V19.9z M267.2,25.2H253v-5.2h14.2V25.2z"/>
			<linearGradient id="SVGID_102_" gradientUnits="userSpaceOnUse" x1="285.8645" y1="39.986" x2="285.8645" y2="14.881">
				<stop  offset="1.818196e-02" style="stop-color:#0028A7"/>
				<stop  offset="0.1406" style="stop-color:#0031AA"/>
				<stop  offset="0.343" style="stop-color:#004AB2"/>
				<stop  offset="0.6005" style="stop-color:#0073BF"/>
				<stop  offset="0.9" style="stop-color:#00ACD1"/>
				<stop  offset="1" style="stop-color:#00C0D8"/>
			</linearGradient>
			<polygon class="st109" points="295.8,25 280.8,25 280.8,19.9 295.9,19.9 295.9,14.9 275.9,14.9 275.9,26.9 295.8,26.9 			"/>
			<linearGradient id="SVGID_103_" gradientUnits="userSpaceOnUse" x1="285.8645" y1="26.9048" x2="285.8645" y2="14.4607">
				<stop  offset="0.2703" style="stop-color:#FFFFFF;stop-opacity:0"/>
				<stop  offset="1" style="stop-color:#FFFFFF;stop-opacity:0.7"/>
			</linearGradient>
			<polygon class="st110" points="295.8,25 280.8,25 280.8,19.9 295.9,19.9 295.9,14.9 275.9,14.9 275.9,26.9 295.8,26.9 			"/>
		</g>
	</g>
</g>
</svg>
