<?xml version="1.0" encoding="utf-8"?>
<!-- Generator: Adobe Illustrator 22.0.1, SVG Export Plug-In . SVG Version: 6.00 Build 0)  -->
<svg version="1.1" id="Layer_1" xmlns="http://www.w3.org/2000/svg" xmlns:xlink="http://www.w3.org/1999/xlink" x="0px" y="0px"
	 viewBox="0 0 125.1 129.5" style="enable-background:new 0 0 125.1 129.5;" xml:space="preserve">
<style type="text/css">
	.st0{fill:#FFFFFF;}
</style>
<g>
	<g>
		<g>
			<rect x="59.6" y="34.8" class="st0" width="32.9" height="3.9"/>
		</g>
	</g>
	<g>
		<g>
			<rect x="59.6" y="42.5" class="st0" width="32.9" height="3.9"/>
		</g>
	</g>
	<g>
		<g>
			<rect x="72.2" y="27.7" class="st0" width="36.8" height="3.9"/>
		</g>
	</g>
	<g>
		<g>
			<rect x="64.5" y="27.7" class="st0" width="3.9" height="3.9"/>
		</g>
	</g>
	<g>
		<g>
			<rect x="60.5" y="86.4" class="st0" width="4.2" height="4.2"/>
		</g>
	</g>
	<g>
		<g>
			<g>
				<path class="st0" d="M71.4,14.9l-2.5-2.5L65.3,16c-0.7,0.7-0.7,1.8,0,2.5l3.6,3.6l2.5-2.5l-2.3-2.3L71.4,14.9z"/>
			</g>
		</g>
		<g>
			<g>
				<path class="st0" d="M85.7,16l-3.6-3.6l-2.5,2.5l2.3,2.3l-2.3,2.3l2.5,2.5l3.6-3.6C86.4,17.8,86.4,16.7,85.7,16z"/>
			</g>
		</g>
		<g>
			<g>
				
					<rect x="69.9" y="15.5" transform="matrix(0.3165 -0.9486 0.9486 0.3165 35.259 83.4284)" class="st0" width="11.3" height="3.6"/>
			</g>
		</g>
		<g>
			<g>
				<path class="st0" d="M42.5,14.9l-2.5-2.5L36.4,16c-0.7,0.7-0.7,1.8,0,2.5l3.6,3.6l2.5-2.5l-2.3-2.3L42.5,14.9z"/>
			</g>
		</g>
		<g>
			<g>
				<path class="st0" d="M56.8,16l-3.6-3.6l-2.5,2.5l2.3,2.3l-2.3,2.3l2.5,2.5l3.6-3.6C57.5,17.8,57.5,16.7,56.8,16z"/>
			</g>
		</g>
		<g>
			<g>
				
					<rect x="40.9" y="15.5" transform="matrix(0.3165 -0.9486 0.9486 0.3165 15.4723 55.9715)" class="st0" width="11.3" height="3.6"/>
			</g>
		</g>
	</g>
	<g>
		<g>
			<polygon class="st0" points="106.5,70.6 106.5,54.8 102.5,54.8 102.5,70.6 98.6,70.6 98.6,50.9 94.6,50.9 94.6,70.6 90.7,70.6 
				90.7,60.8 86.7,60.8 86.7,70.6 82.8,70.6 82.8,58.8 78.8,58.8 78.8,70.6 74.9,70.6 74.9,62.7 70.9,62.7 70.9,70.6 67,70.6 
				67,74.6 110.4,74.6 110.4,70.6 			"/>
		</g>
	</g>
	<g>
		<g>
			<path class="st0" d="M111.5,1.4H13.7C6.7,1.4,1,7.1,1,14.1v41.7v0V80v6.4c0,7,5.7,12.7,12.7,12.7h26.3l-8.5,17H20.1
				c-3.5,0-6.4,2.9-6.4,6.4c0,3.5,2.9,6.4,6.4,6.4h85c3.5,0,6.4-2.9,6.4-6.4c0-3.5-2.9-6.4-6.4-6.4H93.7l-8.5-17h26.3
				c7,0,12.7-5.7,12.7-12.7V14.1C124.2,7.1,118.5,1.4,111.5,1.4z M5.2,31.3l4.8,5.8c0.4,0.5,1,0.8,1.6,0.8h6.5
				c0.6,0,1.2-0.3,1.6-0.8l4.8-5.8l4.8,1.5l0.5,7.5c0,0.6,0.4,1.2,0.9,1.6l5.3,3.8c0.5,0.4,1.2,0.5,1.8,0.3l7.3-1.8l2.9,4.1l-4,6.4
				c-0.3,0.5-0.4,1.2-0.2,1.8l2,6.2c0.2,0.6,0.6,1.1,1.2,1.3l7,2.8v5l-7,2.8c-0.6,0.2-1,0.7-1.2,1.3l-0.6,1.9H33.1
				c4.8-10,0.5-21.9-9.4-26.7c-5.9-2.8-12.7-2.6-18.4,0.6V31.3z M5.2,56.8c6.9-5.4,16.8-4.1,22.2,2.7c4.1,5.3,4.5,12.7,0.8,18.3H5.2
				V56.8z M105.1,120.4c1.2,0,2.1,1,2.1,2.1c0,1.2-1,2.1-2.1,2.1h-85c-1.2,0-2.1-1-2.1-2.1c0-1.2,1-2.1,2.1-2.1H105.1z M88.9,116.1
				H36.3l8.5-17h35.6L88.9,116.1z M120,86.4c0,4.7-3.8,8.5-8.5,8.5H13.7c-4.7,0-8.5-3.8-8.5-8.5v-4.2h24.1h0H120V86.4z M120,77.9
				H50.4l6.6-2.7c0.8-0.3,1.3-1.1,1.3-2v-7.9c0-0.9-0.5-1.6-1.3-2l-7.4-3l-1.4-4.3l4.2-6.8c0.5-0.7,0.4-1.7-0.1-2.4l-4.6-6.4
				c-0.5-0.7-1.4-1-2.2-0.8l-7.7,1.9L34.1,39l-0.6-7.9c-0.1-0.9-0.6-1.6-1.5-1.9l-7.5-2.4c-0.8-0.3-1.7,0-2.3,0.7l-5.1,6.1h-4.5
				l-5.1-6.1c-0.6-0.7-1.5-0.9-2.3-0.7l-0.1,0V14.1c0-4.7,3.8-8.5,8.5-8.5h97.7c4.7,0,8.5,3.8,8.5,8.5V77.9z"/>
		</g>
	</g>
</g>
</svg>
