<?xml version="1.0" encoding="utf-8"?>
<!-- Generator: Adobe Illustrator 22.0.1, SVG Export Plug-In . SVG Version: 6.00 Build 0)  -->
<svg version="1.1" id="Layer_1" xmlns="http://www.w3.org/2000/svg" xmlns:xlink="http://www.w3.org/1999/xlink" x="0px" y="0px"
	 viewBox="0 0 130.7 130.1" style="enable-background:new 0 0 130.7 130.1;" xml:space="preserve">
<style type="text/css">
	.st0{fill:#FFFFFF;}
</style>
<g>
	<g>
		<path class="st0" d="M100.8,16.9c0-1.4-1.1-2.5-2.5-2.5h0c-1.4,0-2.5,1.1-2.5,2.5c0,1.4,1.1,2.5,2.5,2.5S100.8,18.3,100.8,16.9z"
			/>
		<path class="st0" d="M114.3,16.9c0-1.4-1.1-2.5-2.5-2.5h0c-1.4,0-2.5,1.1-2.5,2.5c0,1.4,1.1,2.5,2.5,2.5
			C113.2,19.4,114.3,18.3,114.3,16.9L114.3,16.9z"/>
		<path class="st0" d="M87.3,16.9c0-1.4-1.1-2.5-2.5-2.5h0c-1.4,0-2.5,1.1-2.5,2.5c0,1.4,1.1,2.5,2.5,2.5
			C86.1,19.4,87.3,18.3,87.3,16.9L87.3,16.9z"/>
		<path class="st0" d="M16.3,16.9c0,1.4,1.1,2.5,2.5,2.5h37.6c1.4,0,2.5-1.1,2.5-2.5c0-1.4-1.1-2.5-2.5-2.5H18.8
			C17.4,14.4,16.3,15.5,16.3,16.9z"/>
		<path class="st0" d="M129,1.2l-85.9,0c-1.4,0-2.6,1-2.7,2.4c-0.1,1.4,1.1,2.6,2.5,2.6h81.4v21.4H6.2V6.3l14.1,0
			c1.4,0,2.6-1,2.7-2.4c0.1-1.4-1.1-2.6-2.5-2.6h-19c-0.2,0-0.3,0.2-0.3,0.3v127.6c0,0.2,0.2,0.3,0.3,0.3H129c0.2,0,0.4-0.2,0.4-0.4
			V1.6C129.4,1.4,129.2,1.2,129,1.2z M124.4,124.5H6.2V32.6h118.2V124.5z"/>
		<path class="st0" d="M24.6,97.1c-5.8,0-10.4,4.7-10.4,10.4c0,5.8,4.7,10.4,10.4,10.4c5.8,0,10.4-4.7,10.4-10.4
			C35,101.8,30.4,97.1,24.6,97.1z M24.6,113c-3,0-5.4-2.4-5.4-5.4c0-3,2.4-5.4,5.4-5.4c3,0,5.4,2.4,5.4,5.4
			C30,110.5,27.6,113,24.6,113z"/>
		<path class="st0" d="M51.7,97.1c-5.8,0-10.4,4.7-10.4,10.4c0,5.8,4.7,10.4,10.4,10.4s10.4-4.7,10.4-10.4
			C62.2,101.8,57.5,97.1,51.7,97.1z M51.7,113c-3,0-5.4-2.4-5.4-5.4c0-3,2.4-5.4,5.4-5.4c3,0,5.4,2.4,5.4,5.4
			C57.1,110.5,54.7,113,51.7,113z"/>
		<path class="st0" d="M78.8,97.1c-5.8,0-10.4,4.7-10.4,10.4c0,5.8,4.7,10.4,10.4,10.4c5.8,0,10.4-4.7,10.4-10.4
			C89.3,101.8,84.6,97.1,78.8,97.1z M78.8,113c-3,0-5.4-2.4-5.4-5.4c0-3,2.4-5.4,5.4-5.4c3,0,5.4,2.4,5.4,5.4
			C84.3,110.5,81.8,113,78.8,113z"/>
		<path class="st0" d="M106,97.1c-5.8,0-10.4,4.7-10.4,10.4c0,5.8,4.7,10.4,10.4,10.4c5.8,0,10.4-4.7,10.4-10.4
			C116.4,101.8,111.7,97.1,106,97.1z M106,113c-3,0-5.4-2.4-5.4-5.4c0-3,2.4-5.4,5.4-5.4c3,0,5.4,2.4,5.4,5.4
			C111.4,110.5,109,113,106,113z"/>
		<path class="st0" d="M14.2,84.9c0.1,1.3,1.2,2.3,2.5,2.3h56.1c1.4,0,2.5-1.1,2.5-2.5V42.3c0-1.4-1.1-2.5-2.5-2.5H16.7
			c-1.4,0-2.5,1.1-2.5,2.5v42.4C14.2,84.8,14.2,84.8,14.2,84.9L14.2,84.9z M55.7,82.2l-4.7-7.4l6.2-9.8l10.9,17.2H55.7z M49.8,82.2
			H21.2l14.3-22.5L49.8,82.2z M70.3,44.8v31.3L59.4,59c-0.5-0.7-1.3-1.2-2.1-1.2c-0.9,0-1.7,0.4-2.1,1.2l-7.1,11.2L37.6,53.7
			c-0.5-0.7-1.3-1.2-2.1-1.2c0,0,0,0,0,0c-0.9,0-1.7,0.4-2.1,1.2L19.2,76.1V44.8L70.3,44.8z"/>
		<path class="st0" d="M85.8,44.8h27.9c1.4,0,2.5-1.1,2.5-2.5c0-1.4-1.1-2.5-2.5-2.5H85.8c-1.4,0-2.5,1.1-2.5,2.5
			C83.3,43.7,84.5,44.8,85.8,44.8z"/>
		<path class="st0" d="M85.8,58.7h27.9c1.4,0,2.5-1.1,2.5-2.5c0-1.4-1.1-2.5-2.5-2.5H85.8c-1.4,0-2.5,1.1-2.5,2.5
			C83.3,57.6,84.5,58.7,85.8,58.7z"/>
		<path class="st0" d="M85.8,72.6h27.9c1.4,0,2.5-1.1,2.5-2.5c0-1.4-1.1-2.5-2.5-2.5H85.8c-1.4,0-2.5,1.1-2.5,2.5
			C83.3,71.5,84.5,72.6,85.8,72.6z"/>
		<path class="st0" d="M85.8,86.5h27.9c1.4,0,2.5-1.1,2.5-2.5c0-1.4-1.1-2.5-2.5-2.5H85.8c-1.4,0-2.5,1.1-2.5,2.5
			C83.3,85.3,84.5,86.5,85.8,86.5z"/>
		<path class="st0" d="M31.8,6.3L31.8,6.3c1.4,0,2.5-1.1,2.5-2.5s-1.1-2.5-2.5-2.5s-2.5,1.1-2.5,2.5S30.4,6.3,31.8,6.3z"/>
	</g>
</g>
</svg>
