<?xml version="1.0" encoding="utf-8"?>
<!-- Generator: Adobe Illustrator 22.0.1, SVG Export Plug-In . SVG Version: 6.00 Build 0)  -->
<svg version="1.1" id="Layer_1" xmlns="http://www.w3.org/2000/svg" xmlns:xlink="http://www.w3.org/1999/xlink" x="0px" y="0px"
	 viewBox="0 0 139.7 141.1" style="enable-background:new 0 0 139.7 141.1;" xml:space="preserve">
<style type="text/css">
	.st0{fill:#FFFFFF;}
</style>
<g>
	<path class="st0" d="M102,42.7L102,42.7c0.1,0.2,0.2,0.4,0.4,0.5l4.7,5c0.4,0.4,0.9,0.6,1.5,0.6c0.5,0,1-0.2,1.4-0.6
		c0.8-0.8,0.9-2.1,0.1-2.9l-1.5-1.6h5c0.3,0,0.5,0.2,0.5,0.5v25.3c0,1.1,0.9,2,2,2c1.1,0,2-0.9,2-2V44.4c0-2.5-2.1-4.6-4.6-4.6h-5
		l1.5-1.6c0.8-0.8,0.7-2.1-0.1-2.9c-0.8-0.8-2.1-0.7-2.9,0.1l-4.7,5c-0.2,0.2-0.3,0.3-0.4,0.5c-0.1,0.3-0.2,0.6-0.2,0.9
		C101.8,42.1,101.8,42.4,102,42.7C102,42.7,102,42.7,102,42.7z"/>
	<path class="st0" d="M40.5,78.1l-4.4-4.7c-0.8-0.8-2.1-0.9-2.9-0.1c-0.8,0.8-0.9,2.1-0.1,2.9l1.2,1.3h-4.4c-0.2,0-0.4-0.2-0.4-0.4
		V53.2c0-1.1-0.9-2-2-2c-1.1,0-2,0.9-2,2v23.8c0,2.5,2,4.5,4.5,4.5h4.4l-1.2,1.3c-0.8,0.8-0.7,2.1,0.1,2.9c0.4,0.4,0.9,0.6,1.4,0.6
		c0.5,0,1.1-0.2,1.5-0.6l4.4-4.7c0.2-0.2,0.3-0.3,0.4-0.5c0.1-0.3,0.2-0.6,0.2-0.9c0-0.3-0.1-0.6-0.2-0.9
		C40.8,78.4,40.7,78.2,40.5,78.1z"/>
	<path class="st0" d="M128.9,16.1H94.6V5.9c0-2.5-2-4.5-4.5-4.5H50.5c-2.5,0-4.5,2-4.5,4.5v10.2H11.6c-4.9,0-9,4.2-9,9.3V109
		c0,5.2,4,9.3,9,9.3h30.1l-1.7,4.8h-3.4c-4.7,0-8.4,3.8-8.4,8.4v4.7c0,2.1,1.7,3.7,3.7,3.7h74.5c2.1,0,3.7-1.7,3.7-3.7v-4.7
		c0-4.7-3.8-8.4-8.4-8.4h-4.1l-1.7-4.8h32.9c4.9,0,9-4.2,9-9.3V25.4C137.8,20.3,133.8,16.1,128.9,16.1z M50.2,66.2h40.3v3
		c0,0.2-0.2,0.4-0.4,0.4H50.5c-0.2,0-0.4-0.2-0.4-0.4V66.2z M50.5,5.5h39.6c0.2,0,0.4,0.2,0.4,0.4v3H50.2v-3
		C50.2,5.6,50.3,5.5,50.5,5.5z M11.6,20.2h34.4V25H14.8c-2,0-3.7,1.7-3.7,3.9v67.7c0,2.1,1.7,3.8,3.8,3.8h50c1.1,0,2-0.9,2-2
		c0-1.1-0.9-2-2-2H15.2V29.1h30.8V42c0,1.1,0.9,2,2,2c1.1,0,2-0.9,2-2V13h40.3v49.1H50.2V50.7c0-1.1-0.9-2-2-2c-1.1,0-2,0.9-2,2
		v18.5c0,2.5,2,4.5,4.5,4.5h39.6c2.5,0,4.5-2,4.5-4.5V29.1l30.7,0v67.2l-50.6,0.1c-1.1,0-2,0.9-2,2.1c0,1.1,0.9,2,2,2h0l50.9-0.1
		c2.1,0,3.8-1.7,3.8-3.8V28.9c0-2.1-1.7-3.8-3.8-3.8l-31,0v-4.8h34.3c2.7,0,4.9,2.4,4.9,5.3v79.4H6.8V25.4
		C6.8,22.5,9,20.2,11.6,20.2z M106.1,131.6v4.4H32.3v-4.4c0-2.4,2-4.3,4.3-4.3h4.8h0h0h54.7h0h0h5.5
		C104.1,127.3,106.1,129.2,106.1,131.6z M93.3,123.2H44.4l1.7-4.8h45.5L93.3,123.2z M128.9,114.3H11.6c-2.7,0-4.9-2.4-4.9-5.3v-0.1
		h127v0.1C133.7,111.9,131.6,114.3,128.9,114.3z"/>
</g>
</svg>
