<?xml version="1.0" encoding="utf-8"?>
<!-- Generator: Adobe Illustrator 22.0.1, SVG Export Plug-In . SVG Version: 6.00 Build 0)  -->
<svg version="1.1" id="Layer_1" xmlns="http://www.w3.org/2000/svg" xmlns:xlink="http://www.w3.org/1999/xlink" x="0px" y="0px"
	 viewBox="0 0 144.4 144.1" style="enable-background:new 0 0 144.4 144.1;" xml:space="preserve">
<style type="text/css">
	.st0{fill:#FFFFFF;}
</style>
<g>
	<g>
		<g>
			<path class="st0" d="M141.6,112.2l-3.3-1.4c-0.1-0.5-0.3-0.9-0.4-1.3l1.8-3.1c0.4-0.7,0.4-1.6,0-2.3c-1-1.7-2.1-3.3-3.4-4.7
				c-0.6-0.6-1.4-0.9-2.3-0.7l-3.4,0.8c-0.3-0.3-0.7-0.5-1-0.8l-0.3-3.6c-0.1-0.8-0.6-1.6-1.4-1.9c-1.7-0.8-3.6-1.4-5.5-1.8
				c-0.8-0.2-1.7,0.1-2.3,0.8l-2.4,2.8h-1.2l-2.4-2.8c-0.6-0.7-1.4-1-2.3-0.8c-1.9,0.4-3.7,1-5.5,1.8c-0.8,0.4-1.3,1.1-1.4,1.9
				l-0.3,3.6c-0.4,0.2-0.7,0.5-1,0.8l-3.4-0.8c-0.8-0.2-1.7,0.1-2.3,0.7c-1.3,1.5-2.4,3-3.4,4.7c-0.4,0.7-0.4,1.6,0,2.3l1.8,3.1
				c-0.1,0.4-0.3,0.9-0.4,1.3l-3.3,1.4c-0.9,0.4-1.4,1.2-1.4,2.2v5.3c0,0.9,0.6,1.8,1.4,2.2l3.3,1.4c0.1,0.5,0.3,0.9,0.4,1.3
				l-1.8,3.1c-0.4,0.7-0.4,1.6,0,2.3c1,1.7,2.1,3.3,3.4,4.7c0.6,0.6,1.4,0.9,2.3,0.7l3.4-0.8c0.3,0.3,0.7,0.5,1,0.8l0.3,3.6
				c0.1,0.8,0.6,1.6,1.4,1.9c1.7,0.8,3.6,1.4,5.5,1.8c0.8,0.2,1.7-0.1,2.3-0.8l2.4-2.8h1.2l2.4,2.8c0.4,0.5,1.1,0.8,1.8,0.8
				c0.2,0,0.3,0,0.5-0.1c1.9-0.4,3.7-1,5.5-1.8c0.8-0.4,1.3-1.1,1.4-1.9l0.3-3.6c0.4-0.2,0.7-0.5,1-0.8l3.4,0.8
				c0.8,0.2,1.7-0.1,2.3-0.7c1.3-1.5,2.4-3,3.4-4.7c0.4-0.7,0.4-1.6,0-2.3l-1.8-3.1c0.1-0.4,0.3-0.9,0.4-1.3l3.3-1.4
				c0.9-0.4,1.4-1.2,1.4-2.2v-5.3C143,113.4,142.4,112.5,141.6,112.2z M135.4,119.4c-0.7,0.3-1.2,0.9-1.3,1.6
				c-0.2,1-0.5,1.9-0.9,2.8c-0.3,0.7-0.2,1.5,0.1,2.1l1.7,2.9c-0.4,0.6-0.8,1.2-1.2,1.7l-3.2-0.7c-0.7-0.2-1.5,0-2.1,0.5
				c-0.7,0.6-1.5,1.2-2.4,1.7c-0.6,0.4-1,1.1-1.1,1.8l-0.3,3.4c-0.6,0.2-1.3,0.5-1.9,0.6l-2.2-2.5c-0.4-0.5-1.1-0.8-1.8-0.8h-3.3
				c-0.7,0-1.3,0.3-1.8,0.8l-2.2,2.5c-0.6-0.2-1.3-0.4-1.9-0.6l-0.3-3.4c-0.1-0.7-0.5-1.4-1.1-1.8c-0.8-0.5-1.6-1.1-2.4-1.7
				c-0.6-0.5-1.3-0.7-2.1-0.5l-3.2,0.7c-0.4-0.6-0.8-1.1-1.2-1.7l1.7-2.9c0.4-0.6,0.4-1.4,0.1-2.1c-0.4-0.9-0.7-1.9-0.9-2.8
				c-0.2-0.7-0.7-1.3-1.3-1.6l-2.9-1.3v-2.3l2.9-1.3c0.7-0.3,1.2-0.9,1.3-1.6c0.2-1,0.5-1.9,0.9-2.8c0.3-0.7,0.2-1.5-0.1-2.1
				l-1.7-2.9c0.4-0.6,0.8-1.2,1.2-1.7l3.2,0.7c0.7,0.2,1.5,0,2.1-0.5c0.7-0.6,1.5-1.2,2.4-1.7c0.6-0.4,1-1.1,1.1-1.8l0.3-3.4
				c0.6-0.2,1.3-0.5,1.9-0.6l2.2,2.5c0.4,0.5,1.1,0.8,1.8,0.8h3.3c0.7,0,1.3-0.3,1.8-0.8l2.2-2.5c0.6,0.2,1.3,0.4,1.9,0.6l0.3,3.4
				c0.1,0.7,0.5,1.4,1.1,1.8c0.8,0.5,1.6,1.1,2.4,1.7c0.6,0.5,1.3,0.7,2.1,0.5l3.2-0.7c0.4,0.6,0.8,1.1,1.2,1.7l-1.7,2.9
				c-0.4,0.6-0.4,1.4-0.1,2.1c0.4,0.9,0.7,1.9,0.9,2.8c0.2,0.7,0.7,1.3,1.3,1.6l2.9,1.3v2.3L135.4,119.4z"/>
		</g>
	</g>
	<g>
		<g>
			<path class="st0" d="M117.2,105.2c-6.5,0-11.8,5.3-11.8,11.8s5.3,11.8,11.8,11.8S129,123.5,129,117
				C129,110.5,123.7,105.2,117.2,105.2z M117.2,124.1c-3.9,0-7.1-3.2-7.1-7.1s3.2-7.1,7.1-7.1s7.1,3.2,7.1,7.1
				C124.3,120.9,121.1,124,117.2,124.1z"/>
		</g>
	</g>
	<g>
		<g>
			<path class="st0" d="M67.7,10.9c-19.5,0-35.4,15.8-35.4,35.4c0,19.5,15.8,35.3,35.4,35.4c19.5,0,35.4-15.8,35.4-35.4
				S87.2,10.9,67.7,10.9z M38.3,55C33.5,38.8,42.7,21.7,59,16.9c2.8-0.8,5.8-1.3,8.7-1.3c3,0,5.9,0.4,8.7,1.3
				c-0.6,0.4-1.2,0.7-1.7,1.1c-0.8,0.6-1.1,1.7-0.8,2.6l1.1,3.3c-0.4,0.4-0.9,0.9-1.3,1.3l-3.3-1.1c-1-0.3-2,0-2.6,0.8
				c-1.7,2.3-3.2,4.8-4.3,7.4c-0.4,0.9-0.2,2,0.6,2.7l2.6,2.3c-0.2,0.6-0.3,1.2-0.5,1.8l-3.4,0.7c-1.1,0.2-1.9,1.2-1.9,2.3v8
				c0,1.1,0.8,2.1,1.9,2.3l3.4,0.7c0.1,0.6,0.3,1.2,0.5,1.8L64,57.4c-0.8,0.7-1,1.8-0.6,2.7c1.1,2.6,2.6,5.1,4.3,7.4
				c0.6,0.8,1.7,1.1,2.6,0.8l3.3-1.1c0.4,0.4,0.9,0.9,1.3,1.3l-1.1,3.3c-0.3,1,0,2,0.8,2.6c0.5,0.4,1.1,0.8,1.7,1.2
				C60.2,80.4,43.2,71.2,38.3,55z M81.9,73.4c-1-0.5-2-1.1-3-1.7l1-3.1c0.3-0.9,0-1.9-0.7-2.5c-1.1-0.9-2.1-1.9-3-3
				c-0.6-0.7-1.6-1-2.5-0.7l-3.1,1c-0.8-1.1-1.5-2.3-2.1-3.6l2.5-2.2c0.7-0.6,1-1.7,0.6-2.6c-0.5-1.3-0.9-2.7-1.1-4.1
				c-0.2-0.9-0.9-1.7-1.8-1.9l-3.1-0.6v-4.2l3.1-0.6c0.9-0.2,1.7-0.9,1.8-1.9c0.3-1.4,0.6-2.8,1.1-4.1c0.3-0.9,0.1-1.9-0.6-2.6
				l-2.5-2.2c0.6-1.2,1.3-2.4,2.1-3.6l3.1,1c0.9,0.3,1.9,0,2.5-0.7c0.9-1.1,1.9-2.1,3-3c0.7-0.6,1-1.6,0.7-2.5l-1-3.1
				c1-0.6,2-1.2,3-1.7c3.2,1.7,6.1,4,8.6,6.7c-11.3,3-18,14.7-15,26c2,7.3,7.7,13,15,15C88,69.4,85.1,71.7,81.9,73.4z M79.7,43.9
				c1-7.2,6.7-12.9,14-14c6.3,9.9,6.3,22.7,0,32.6C84.6,61.3,78.4,52.9,79.7,43.9z"/>
		</g>
	</g>
	<g>
		<g>
			<path class="st0" d="M129.8,41.7l-2.8-1.2c-0.1-0.3-0.2-0.7-0.3-1l1.6-2.7c0.4-0.7,0.4-1.6,0-2.3c-0.9-1.5-1.9-3-3.1-4.3
				c-0.6-0.6-1.4-0.9-2.3-0.7l-3,0.7c-0.3-0.2-0.5-0.4-0.8-0.6l-0.3-3.2c-0.1-0.8-0.6-1.6-1.4-1.9c-1.6-0.7-3.3-1.3-5-1.7
				c-0.8-0.2-1.7,0.1-2.2,0.7l-2.6,2.8c-11-22.1-37.8-31.2-60-20.2S16.6,43.9,27.6,66c0.7,1.3,1.4,2.6,2.2,3.9l-6.3,7.9
				c-0.4,0.5-0.6,1.1-0.5,1.8c0.1,0.6,0.4,1.2,1,1.6l5.1,3.7l-26.8,33c-0.8,1-0.7,2.5,0.3,3.3c0,0,0,0,0,0l11.8,9.4
				c1,0.8,2.5,0.6,3.3-0.4L45,96.6l4.8,3.5c1,0.7,2.4,0.6,3.2-0.4l7.4-9.2c19.4,3.4,38.7-6.5,47.3-24.2l2.6,2.8
				c0.4,0.5,1.1,0.8,1.7,0.8c0.2,0,0.3,0,0.5-0.1c1.7-0.4,3.4-0.9,5-1.7c0.8-0.4,1.3-1.1,1.4-1.9l0.3-3.2c0.3-0.2,0.5-0.4,0.8-0.6
				l3,0.7c0.8,0.2,1.7-0.1,2.3-0.7c1.2-1.3,2.2-2.8,3.1-4.3c0.4-0.7,0.4-1.6,0-2.3l-1.6-2.7c0.1-0.3,0.2-0.7,0.3-1l2.8-1.2
				c0.9-0.4,1.4-1.2,1.4-2.2v-4.8C131.2,42.9,130.7,42.1,129.8,41.7z M15.5,125.5L7.4,119l25.4-31.3l8.4,6.1L15.5,125.5z M50.8,94.9
				L46,91.4l-0.3-0.2L28.6,78.8l3.9-4.9c5.8,7.4,13.7,12.7,22.7,15.3L50.8,94.9z M67.7,86.3c-22.1,0-40.1-17.9-40.1-40.1
				c0-22.1,18-40.1,40.1-40.1c22.1,0,40.1,17.9,40.1,40.1S89.8,86.3,67.7,86.3z M126.5,47.1l-2.5,1.1c-0.7,0.3-1.2,0.9-1.3,1.6
				c-0.2,0.9-0.5,1.7-0.8,2.5c-0.3,0.7-0.2,1.4,0.1,2.1l1.4,2.5c-0.3,0.4-0.6,0.9-0.9,1.3l-2.7-0.6c-0.7-0.2-1.5,0-2.1,0.5
				c-0.7,0.6-1.4,1.1-2.1,1.5c-0.6,0.4-1,1.1-1.1,1.8l-0.3,2.9c-0.5,0.2-1,0.4-1.4,0.5l-3.1-3.4c3.6-9.8,3.6-20.6,0-30.4l3.1-3.4
				c0.5,0.1,1,0.3,1.5,0.5l0.3,2.9c0.1,0.7,0.5,1.4,1.1,1.8c0.7,0.5,1.4,1,2.1,1.5c0.6,0.5,1.3,0.7,2.1,0.5l2.7-0.6
				c0.3,0.4,0.6,0.9,0.9,1.3L122,38c-0.4,0.6-0.4,1.4-0.1,2.1c0.3,0.8,0.6,1.7,0.8,2.5c0.2,0.7,0.7,1.3,1.3,1.6l2.5,1.1L126.5,47.1
				L126.5,47.1z"/>
		</g>
	</g>
</g>
</svg>
