<?xml version="1.0" encoding="utf-8"?>
<!-- Generator: Adobe Illustrator 22.0.1, SVG Export Plug-In . SVG Version: 6.00 Build 0)  -->
<svg version="1.1" id="Layer_1" xmlns="http://www.w3.org/2000/svg" xmlns:xlink="http://www.w3.org/1999/xlink" x="0px" y="0px"
	 viewBox="0 0 154.4 147.1" style="enable-background:new 0 0 154.4 147.1;" xml:space="preserve">
<style type="text/css">
	.st0{fill:#FFFFFF;}
</style>
<g>
	<path class="st0" d="M87,48c-26.7,0-48.5,21.8-48.5,48.5S60.2,145,87,145s48.5-21.8,48.5-48.5S113.7,48,87,48z M91.8,139.2v-7.6
		h-9.7v7.6c-19.8-2.2-35.6-18-37.9-37.9h7.6v-9.7h-7.6c2.2-19.8,18-35.6,37.9-37.9v7.6h9.7v-7.6c19.8,2.2,35.6,18,37.9,37.9h-7.6
		v9.7h7.6C127.4,121.2,111.6,136.9,91.8,139.2z"/>
	<path class="st0" d="M85.7,75.2c-2.1,0-4.1,0-6.2,0c-0.1,8.5-0.2,16.9-0.3,25.4c4.8,4.9,9.6,9.8,14.4,14.6c1.4-1.4,2.9-2.9,4.3-4.3
		L85.7,98.7V75.2z"/>
	<path class="st0" d="M48.6,69.8H34.1c-1.9,0-3.5-1.6-3.5-3.5v-1c0-1.9,1.6-3.5,3.5-3.5h14.5c1.9,0,3.5,1.6,3.5,3.5v1
		C52.1,68.2,50.5,69.8,48.6,69.8z"/>
	<path class="st0" d="M40.7,89H23.4c-2,0-3.6-1.6-3.6-3.6v-0.8c0-2,1.6-3.6,3.6-3.6h17.3c2,0,3.6,1.6,3.6,3.6v0.8
		C44.3,87.4,42.7,89,40.7,89z"/>
	<path class="st0" d="M40.7,110.6H15.8c-2,0-3.6-1.6-3.6-3.6v-0.8c0-2,1.6-3.6,3.6-3.6h24.8c2,0,3.6,1.6,3.6,3.6v0.8
		C44.3,109,42.7,110.6,40.7,110.6z"/>
	<path class="st0" d="M49.8,130.4H5.6c-2.2,0-4-1.8-4-4v0c0-2.2,1.8-4,4-4h44.2c2.2,0,4,1.8,4,4v0C53.8,128.6,52,130.4,49.8,130.4z"
		/>
</g>
<g>
	<path class="st0" d="M129.7,1.5c-12.8,0-23.2,10.4-23.2,23.2S116.8,48,129.7,48s23.2-10.4,23.2-23.2S142.5,1.5,129.7,1.5z
		 M131.9,44.4v-3.5h-4.4v3.5c-9.1-1-16.4-8.3-17.4-17.4h3.5v-4.4h-3.5c1-9.1,8.3-16.4,17.4-17.4v3.5h4.4V5.2
		c9.1,1,16.4,8.3,17.4,17.4h-3.5V27h3.5C148.2,36.1,141,43.3,131.9,44.4z"/>
	<path class="st0" d="M129.1,15h-4.4v12.6l6.9,6.9l3.1-3.1l-5.6-5.6V15z"/>
</g>
</svg>
