<?xml version="1.0" encoding="utf-8"?>
<!-- Generator: Adobe Illustrator 22.0.1, SVG Export Plug-In . SVG Version: 6.00 Build 0)  -->
<svg version="1.1" id="Layer_1" xmlns="http://www.w3.org/2000/svg" xmlns:xlink="http://www.w3.org/1999/xlink" x="0px" y="0px"
	 viewBox="0 0 135.1 133.8" style="enable-background:new 0 0 135.1 133.8;" xml:space="preserve">
<style type="text/css">
	.st0{fill:#F0B24E;}
	.st1{fill:#005A97;}
</style>
<g>
	<path class="st0" d="M122.3,2.4H13.1C7.5,2.4,3,7,3,12.6v79.4C3,97.5,7.5,102,13.1,102h39.7v12.7c-7.4,0.7-13.2,7-13.2,14.6
		c0,1.4,1.1,2.5,2.5,2.5h51.2c1.4,0,2.5-1.1,2.5-2.5c0-7.8-6.1-14.1-13.7-14.6V102h11.8c1.4,0,2.5-1.1,2.5-2.5
		c0-1.4-1.1-2.5-2.5-2.5H13.1c-2.8,0-5.1-2.3-5.1-5.1V12.6c0-2.8,2.3-5.1,5.1-5.1h109.2c2.8,0,5.1,2.3,5.1,5.1v79.4
		c0,2.8-2.3,5.1-5.1,5.1h-9.4c-1.4,0-2.5,1.1-2.5,2.5c0,1.4,1.1,2.5,2.5,2.5h9.4c5.6,0,10.1-4.5,10.1-10.1V12.6
		C132.4,7,127.8,2.4,122.3,2.4z M90.4,126.8H44.9c1.1-4.1,4.8-7.1,9.3-7.1h27C85.6,119.7,89.3,122.7,90.4,126.8z M77,114.6H57.8V102
		H77V114.6z"/>
	<path class="st1" d="M52.3,32.8c-1-1-2.6-1-3.6,0L34.6,47c-1,1-1,2.6,0,3.6l14.2,14.2c0.5,0.5,1.1,0.7,1.8,0.7s1.3-0.2,1.8-0.7
		c1-1,1-2.6,0-3.6L39.9,48.8l12.4-12.4C53.3,35.4,53.3,33.8,52.3,32.8z"/>
	<path class="st1" d="M83,64.7c0.5,0.5,1.1,0.7,1.8,0.7c0.6,0,1.3-0.2,1.8-0.7l14.2-14.2c1-1,1-2.6,0-3.6L86.6,32.8
		c-1-1-2.6-1-3.6,0c-1,1-1,2.6,0,3.6l12.4,12.4L83,61.1C82.1,62.1,82.1,63.7,83,64.7z"/>
	<path class="st1" d="M63.2,66.3c0.2,0.1,0.4,0.1,0.7,0.1c1.1,0,2.1-0.7,2.4-1.9l7.6-28.2c0.4-1.3-0.4-2.7-1.8-3.1
		c-1.3-0.4-2.7,0.4-3.1,1.8l-7.6,28.2C61.1,64.5,61.9,65.9,63.2,66.3z"/>
	<path class="st0" d="M122.3,83.3V15.1c0-1.4-1.1-2.5-2.5-2.5H79.6c-1.4,0-2.5,1.1-2.5,2.5s1.1,2.5,2.5,2.5h37.6v63.2h-99V17.6h38.8
		c1.4,0,2.5-1.1,2.5-2.5s-1.1-2.5-2.5-2.5H15.6c-1.4,0-2.5,1.1-2.5,2.5v68.2c0,1.4,1.1,2.5,2.5,2.5h104.1
		C121.1,85.8,122.3,84.7,122.3,83.3z"/>
	<path class="st1" d="M70,16.9c0.5-0.5,0.7-1.1,0.7-1.8c0-0.7-0.3-1.3-0.7-1.8s-1.1-0.7-1.8-0.7s-1.3,0.3-1.8,0.7
		c-0.5,0.5-0.7,1.1-0.7,1.8s0.3,1.3,0.7,1.8c0.5,0.5,1.1,0.7,1.8,0.7S69.5,17.4,70,16.9z"/>
</g>
</svg>
