<?xml version="1.0" encoding="utf-8"?>
<!-- Generator: Adobe Illustrator 22.0.1, SVG Export Plug-In . SVG Version: 6.00 Build 0)  -->
<svg version="1.1" id="Layer_1" xmlns="http://www.w3.org/2000/svg" xmlns:xlink="http://www.w3.org/1999/xlink" x="0px" y="0px"
	 viewBox="0 0 50.3 70.6" style="enable-background:new 0 0 50.3 70.6;" xml:space="preserve">
<style type="text/css">
	.st0{fill:#FFFFFF;}
	.st1{fill:#4286FF;}
	.st2{fill:#9CCE72;}
	.st3{fill:#005A99;}
</style>
<g>
	<path class="st0" d="M3.9,12.7v18.6H1.7V12.7H3.9z"/>
	<path class="st1" d="M2.8,18.3c0.6,0,1.1-0.5,1.1-1.1v-4.5H1.7v4.5C1.7,17.8,2.2,18.3,2.8,18.3z"/>
	<path class="st1" d="M1.7,31.3h2.2v-5.1c0-0.6-0.5-1.1-1.1-1.1c-0.6,0-1.1,0.5-1.1,1.1V31.3z"/>
	<path class="st1" d="M3.9,21.7c0-0.3-0.1-0.6-0.3-0.8l-0.2-0.1c-0.1,0-0.1-0.1-0.2-0.1c-0.1,0-0.1-0.1-0.2-0.1c-0.1,0-0.1,0-0.2,0
		c-0.3,0-0.6,0.1-0.8,0.3c-0.3,0.3-0.4,0.6-0.3,1c0.1,0.4,0.3,0.7,0.7,0.8c0.1,0.1,0.3,0.1,0.4,0.1c0.3,0,0.6-0.1,0.8-0.3
		C3.8,22.3,4,22,3.9,21.7z"/>
	<path class="st0" d="M3.9,12.7v18.6H1.7V12.7H3.9z"/>
	<g>
		<path class="st2" d="M2.8,18.3c0.6,0,1.1-0.5,1.1-1.1v-4.5H1.7v4.5C1.7,17.8,2.2,18.3,2.8,18.3z"/>
		<path class="st2" d="M1.7,31.3h2.2v-5.1c0-0.6-0.5-1.1-1.1-1.1c-0.6,0-1.1,0.5-1.1,1.1V31.3z"/>
		<path class="st2" d="M3.9,21.7c0-0.3-0.1-0.6-0.3-0.8l-0.2-0.1c-0.1,0-0.1-0.1-0.2-0.1c-0.1,0-0.1-0.1-0.2-0.1c-0.1,0-0.1,0-0.2,0
			c-0.3,0-0.6,0.1-0.8,0.3c-0.3,0.3-0.4,0.6-0.3,1c0.1,0.4,0.3,0.7,0.7,0.8c0.1,0.1,0.3,0.1,0.4,0.1c0.3,0,0.6-0.1,0.8-0.3
			C3.8,22.3,4,22,3.9,21.7z"/>
		<path class="st2" d="M47.7,32.4c-0.6,0-1.1-0.5-1.1-1.1V9.3c0-3.1-2.5-5.6-5.6-5.6H9.6C6.5,3.7,4,6.2,3.9,9.3v3.4
			c0,0.6-0.5,1.1-1.1,1.1c-0.6,0-1.1-0.5-1.1-1.1V9.3c0-4.3,3.5-7.8,7.8-7.8h31.4c4.3,0,7.8,3.5,7.8,7.8v21.9
			C48.8,31.9,48.3,32.4,47.7,32.4z"/>
		<path class="st2" d="M40.9,68.7H9.6c-4.3,0-7.8-3.5-7.8-7.8V39c0-0.6,0.5-1.1,1.1-1.1c0.6,0,1.1,0.5,1.1,1.1v21.9
			c0,3.1,2.5,5.6,5.6,5.6h31.4c3.1,0,5.6-2.5,5.6-5.6V39c0-0.6,0.5-1.1,1.1-1.1c0.6,0,1.1,0.5,1.1,1.1v21.9
			C48.8,65.2,45.3,68.7,40.9,68.7z"/>
		<path class="st2" d="M47.7,32.4c-0.6,0-1.1-0.5-1.1-1.1V13.8H2.8c-0.6,0-1.1-0.5-1.1-1.1s0.5-1.1,1.1-1.1h44.8
			c0.6,0,1.1,0.5,1.1,1.1v18.6C48.8,31.9,48.3,32.4,47.7,32.4z"/>
		<path class="st2" d="M47.7,58.7H2.8c-0.6,0-1.1-0.5-1.1-1.1V39c0-0.6,0.5-1.1,1.1-1.1c0.6,0,1.1,0.5,1.1,1.1v17.5h42.6V39
			c0-0.6,0.5-1.1,1.1-1.1c0.6,0,1.1,0.5,1.1,1.1v18.6C48.8,58.2,48.3,58.7,47.7,58.7z"/>
		<path class="st2" d="M16.3,9.3c-0.1,0-0.2,0-0.2,0c-0.1,0-0.1,0-0.2-0.1c-0.1,0-0.1-0.1-0.2-0.1c-0.1,0-0.1-0.1-0.2-0.1
			c-0.2-0.2-0.3-0.5-0.3-0.8c0-0.1,0-0.3,0.1-0.4c0.1-0.1,0.1-0.3,0.2-0.4c0.3-0.3,0.8-0.4,1.2-0.2c0.4,0.2,0.7,0.6,0.7,1
			c0,0.3-0.1,0.6-0.3,0.8C16.9,9.2,16.6,9.3,16.3,9.3z"/>
		<path class="st2" d="M34.2,9.3H21.9c-0.6,0-1.1-0.5-1.1-1.1s0.5-1.1,1.1-1.1h12.3c0.6,0,1.1,0.5,1.1,1.1S34.8,9.3,34.2,9.3z"/>
		<path class="st2" d="M26.4,64.3h-2.2c-0.6,0-1.1-0.5-1.1-1.1s0.5-1.1,1.1-1.1h2.2c0.6,0,1.1,0.5,1.1,1.1S27,64.3,26.4,64.3z"/>
		<path class="st3" d="M17.3,45.6c-0.4,0-0.7-0.1-1-0.4l-9.1-9.1c-0.5-0.5-0.5-1.4,0-1.9l9.1-9.1c0.5-0.5,1.4-0.5,1.9,0l1.4,1.4
			c0.5,0.5,0.5,1.4,0,1.9L13,35.1l6.7,6.7c0.5,0.5,0.5,1.4,0,1.9l-1.4,1.4C18,45.5,17.7,45.6,17.3,45.6z M17.3,26l-9.1,9.1l9.1,9.1
			l1.4-1.5l-7.2-7.2c-0.3-0.3-0.3-0.7,0-1l7.2-7.2L17.3,26z"/>
		<path class="st3" d="M31.7,45.6c-0.4,0-0.7-0.1-1-0.4l-1.4-1.4c-0.5-0.5-0.5-1.4,0-1.9l6.7-6.7l-6.7-6.7c-0.5-0.5-0.5-1.4,0-1.9
			l1.4-1.4c0.5-0.5,1.4-0.5,1.9,0l9.1,9.1c0.5,0.5,0.5,1.4,0,1.9l-9.1,9.1C32.4,45.5,32,45.6,31.7,45.6z M31.7,26l-1.4,1.4l7.2,7.2
			c0.3,0.3,0.3,0.7,0,1l-7.2,7.2l1.4,1.4l9.1-9.1L31.7,26z"/>
	</g>
</g>
</svg>
