<?xml version="1.0" encoding="utf-8"?>
<!-- Generator: Adobe Illustrator 22.0.1, SVG Export Plug-In . SVG Version: 6.00 Build 0)  -->
<svg version="1.1" id="Layer_1" xmlns="http://www.w3.org/2000/svg" xmlns:xlink="http://www.w3.org/1999/xlink" x="0px" y="0px"
	 viewBox="0 0 69.1 70" style="enable-background:new 0 0 69.1 70;" xml:space="preserve">
<style type="text/css">
	.st0{fill:#F2B44E;}
	.st1{fill:#005A99;}
</style>
<g>
	<path class="st0" d="M63.1,1H6C3,1,0.7,3.4,0.7,6.3v41.5c0,2.9,2.4,5.3,5.3,5.3h20.8v6.6c-3.9,0.4-6.9,3.7-6.9,7.6
		c0,0.7,0.6,1.3,1.3,1.3h26.8c0.7,0,1.3-0.6,1.3-1.3c0-4.1-3.2-7.4-7.2-7.6v-6.6h6.2c0.7,0,1.3-0.6,1.3-1.3s-0.6-1.3-1.3-1.3H6
		c-1.5,0-2.6-1.2-2.6-2.6V6.3c0-1.5,1.2-2.6,2.6-2.6h57.1c1.5,0,2.6,1.2,2.6,2.6v41.5c0,1.5-1.2,2.6-2.6,2.6h-4.9
		c-0.7,0-1.3,0.6-1.3,1.3s0.6,1.3,1.3,1.3h4.9c2.9,0,5.3-2.4,5.3-5.3V6.3C68.3,3.4,66,1,63.1,1z M46.4,66.1H22.6
		c0.6-2.1,2.5-3.7,4.8-3.7h14.1C43.9,62.4,45.8,64,46.4,66.1z M39.4,59.7h-10v-6.6h10V59.7z"/>
	<path class="st1" d="M26.5,16.9c-0.5-0.5-1.4-0.5-1.9,0l-7.4,7.4c-0.5,0.5-0.5,1.4,0,1.9l7.4,7.4c0.3,0.3,0.6,0.4,0.9,0.4
		c0.3,0,0.7-0.1,0.9-0.4c0.5-0.5,0.5-1.4,0-1.9L20,25.3l6.5-6.5C27,18.3,27,17.4,26.5,16.9z"/>
	<path class="st1" d="M42.5,33.6c0.3,0.3,0.6,0.4,0.9,0.4c0.3,0,0.7-0.1,0.9-0.4l7.4-7.4c0.5-0.5,0.5-1.4,0-1.9l-7.4-7.4
		c-0.5-0.5-1.4-0.5-1.9,0c-0.5,0.5-0.5,1.4,0,1.9l6.5,6.5l-6.5,6.5C42,32.3,42,33.1,42.5,33.6z"/>
	<path class="st1" d="M32.2,34.4c0.1,0,0.2,0,0.3,0c0.6,0,1.1-0.4,1.3-1l4-14.8c0.2-0.7-0.2-1.4-0.9-1.6c-0.7-0.2-1.4,0.2-1.6,0.9
		l-4,14.8C31.1,33.5,31.5,34.2,32.2,34.4z"/>
	<path class="st0" d="M63.1,43.4V7.7c0-0.7-0.6-1.3-1.3-1.3h-21c-0.7,0-1.3,0.6-1.3,1.3C39.4,8.4,40,9,40.7,9h19.7v33H8.6V9h20.3
		c0.7,0,1.3-0.6,1.3-1.3c0-0.7-0.6-1.3-1.3-1.3H7.3C6.5,6.3,6,6.9,6,7.7v35.7c0,0.7,0.6,1.3,1.3,1.3h54.5
		C62.5,44.7,63.1,44.1,63.1,43.4z"/>
	<path class="st1" d="M35.7,8.6c0.2-0.2,0.4-0.6,0.4-0.9c0-0.3-0.1-0.7-0.4-0.9c-0.2-0.2-0.6-0.4-0.9-0.4c-0.3,0-0.7,0.1-0.9,0.4
		c-0.2,0.2-0.4,0.6-0.4,0.9s0.1,0.7,0.4,0.9C34.1,8.8,34.4,9,34.8,9C35.1,9,35.5,8.8,35.7,8.6z"/>
</g>
</svg>
