<?xml version="1.0" encoding="utf-8"?>
<!-- Generator: Adobe Illustrator 22.0.1, SVG Export Plug-In . SVG Version: 6.00 Build 0)  -->
<svg version="1.1" id="Layer_1" xmlns="http://www.w3.org/2000/svg" xmlns:xlink="http://www.w3.org/1999/xlink" x="0px" y="0px"
	 viewBox="0 0 65.8 76.1" style="enable-background:new 0 0 65.8 76.1;" xml:space="preserve">
<style type="text/css">
	.st0{fill:#E26D6F;}
	.st1{fill:#005A99;}
</style>
<g id="Page-1_2_">
	<g id="_x30_23---AR-Card_2_">
		<path id="Shape_23_" class="st0" d="M50.3,49.7L58.1,30c0.2-0.4,0.1-0.9-0.2-1.2c-0.3-0.3-0.7-0.5-1.2-0.5c-0.4,0.1-0.8,0.4-1,0.8
			l-7.1,18.1l-2.6-4c-0.9-1.5-2.5-2.5-4.3-2.5H23.6c-1.7,0-3.4,0.9-4.3,2.4l-2.6,4L9.6,29.1c-0.2-0.4-0.5-0.7-1-0.8
			s-0.9,0.1-1.2,0.5c-0.3,0.3-0.3,0.8-0.2,1.2L15,49.7L1.8,69.9C1,71,1,72.5,1.6,73.7c0.7,1.2,1.9,2,3.3,2h55.5c1.4,0,2.6-0.8,3.3-2
			c0.7-1.2,0.6-2.7-0.2-3.8L50.3,49.7z M61.6,72.5c-0.2,0.4-0.6,0.7-1.1,0.7H4.9c-0.5,0-0.9-0.3-1.1-0.7c-0.2-0.4-0.2-0.9,0.1-1.3
			l12.3-18.6l0.4,1.1c0.3,0.6,1,1,1.6,0.7c0.6-0.3,1-1,0.7-1.6L17.8,50l3.6-5.5c0.4-0.8,1.3-1.2,2.1-1.2h18.1c0.9,0,1.7,0.5,2.2,1.3
			l3.6,5.5l-1.1,2.7c-0.2,0.4-0.1,0.9,0.2,1.2c0.3,0.3,0.7,0.5,1.2,0.5c0.4-0.1,0.8-0.4,1-0.8l0.4-1.1l12.3,18.6
			C61.8,71.6,61.8,72.1,61.6,72.5L61.6,72.5z"/>
		<path id="Shape_21_" class="st1" d="M31.4,23.3c0,0.7,0.6,1.2,1.2,1.2c0.7,0,1.2-0.6,1.2-1.2v-3l4.3-2.3c0.6-0.3,0.8-1.1,0.5-1.7
			s-1.1-0.8-1.7-0.5l-4.4,2.4l-4.4-2.4c-0.6-0.3-1.4-0.1-1.7,0.5c-0.3,0.6-0.1,1.4,0.5,1.7l4.3,2.3V23.3z"/>
		<path id="Shape_19_" class="st1" d="M15.2,10.9v17.4c0,0.5,0.3,0.9,0.7,1.1l16.2,8.7c0.4,0.2,0.8,0.2,1.2,0l16.2-8.7
			c0.4-0.2,0.7-0.6,0.7-1.1V10.9c0-0.4-0.2-0.8-0.6-1.1c0,0,0,0-0.1,0L33.3,1.1c-0.4-0.2-0.8-0.2-1.2,0L15.9,9.8c0,0,0,0-0.1,0
			C15.5,10,15.2,10.4,15.2,10.9z M17.7,13l3.1,1.7c0.6,0.3,1.4,0.1,1.7-0.5c0.3-0.6,0.1-1.4-0.5-1.7l-2.9-1.6l13.6-7.3l13.6,7.3
			l-2.9,1.6c-0.6,0.3-0.8,1.1-0.5,1.7c0.3,0.6,1.1,0.8,1.7,0.5l3.1-1.7v14.6l-13.7,7.4v-4.1c0-0.7-0.6-1.2-1.2-1.2
			c-0.7,0-1.2,0.6-1.2,1.2v4.1l-13.7-7.4V13z"/>
		<path id="Shape_18_" class="st0" d="M42.5,48.9c-0.2-0.4-0.6-0.6-1.1-0.6H24c-0.4,0-0.9,0.2-1.1,0.6l-8.7,14.9
			c-0.2,0.4-0.2,0.9,0,1.2s0.6,0.6,1.1,0.6h34.9c0.4,0,0.9-0.2,1.1-0.6c0.2-0.4,0.2-0.9,0-1.2L42.5,48.9z M31.2,50.7h3l0.6,2.5h-4.3
			L31.2,50.7z M29.9,55.7h5.5l0.6,2.5h-6.8L29.9,55.7z M25.5,63.2h-8.1l1.5-2.5h7.2L25.5,63.2z M26.7,58.2h-6.4l1.5-2.5h5.6
			L26.7,58.2z M23.2,53.2l1.5-2.5h3.9L28,53.2H23.2z M28.1,63.2l0.6-2.5h8l0.6,2.5H28.1z M36.8,50.7h3.9l1.5,2.5h-4.7L36.8,50.7z
			 M38,55.7h5.6l1.5,2.5h-6.4L38,55.7z M39.9,63.2l-0.6-2.5h7.2l1.5,2.5H39.9z"/>
		<path id="Shape_17_" class="st0" d="M3.6,17.2c-0.3,0.1-0.6,0.4-0.7,0.7c-0.1,0.3-0.1,0.6,0,1l2,5c0.2,0.4,0.5,0.7,1,0.8
			s0.9-0.1,1.2-0.5c0.3-0.4,0.3-0.8,0.2-1.3l-2-5c-0.1-0.3-0.4-0.6-0.7-0.7C4.2,17.1,3.9,17.1,3.6,17.2L3.6,17.2z"/>
		<path id="Shape_16_" class="st0" d="M60.2,17.9l-2,5c-0.2,0.4-0.1,0.9,0.2,1.3c0.3,0.4,0.7,0.5,1.2,0.5c0.4-0.1,0.8-0.4,1-0.8l2-5
			c0.2-0.4,0.1-0.9-0.2-1.2s-0.7-0.5-1.2-0.5C60.7,17.2,60.3,17.5,60.2,17.9L60.2,17.9z"/>
	</g>
</g>
</svg>
