<?xml version="1.0" encoding="utf-8"?>
<!-- Generator: Adobe Illustrator 22.0.1, SVG Export Plug-In . SVG Version: 6.00 Build 0)  -->
<svg version="1.1" id="Layer_1" xmlns="http://www.w3.org/2000/svg" xmlns:xlink="http://www.w3.org/1999/xlink" x="0px" y="0px"
	 viewBox="0 0 75.2 71" style="enable-background:new 0 0 75.2 71;" xml:space="preserve">
<style type="text/css">
	.st0{fill:#005A99;}
	.st1{fill:#8468D9;}
</style>
<g>
	<path class="st0" d="M14.4,8.6c0-2-1.6-3.6-3.6-3.6S7.2,6.6,7.2,8.6s1.6,3.6,3.6,3.6C12.8,12.1,14.4,10.5,14.4,8.6z M9.4,8.6
		c0-0.8,0.6-1.4,1.4-1.4c0.8,0,1.4,0.6,1.4,1.4S11.6,10,10.8,10C10,10,9.4,9.4,9.4,8.6z"/>
	<path class="st0" d="M19.3,12.1c2,0,3.6-1.6,3.6-3.6S21.3,5,19.3,5s-3.6,1.6-3.6,3.6S17.4,12.1,19.3,12.1z M19.3,7.1
		c0.8,0,1.4,0.6,1.4,1.4S20.1,10,19.3,10c-0.8,0-1.4-0.6-1.4-1.4S18.5,7.1,19.3,7.1z"/>
	<path class="st0" d="M27.8,12.1c2,0,3.6-1.6,3.6-3.6S29.8,5,27.8,5c-2,0-3.6,1.6-3.6,3.6S25.9,12.1,27.8,12.1z M27.8,7.1
		c0.8,0,1.4,0.6,1.4,1.4S28.6,10,27.8,10c-0.8,0-1.4-0.6-1.4-1.4S27,7.1,27.8,7.1z"/>
	<path class="st0" d="M39.6,9.6h26c0.6,0,1.1-0.5,1.1-1.1s-0.5-1.1-1.1-1.1h-26c-0.6,0-1.1,0.5-1.1,1.1S39,9.6,39.6,9.6z"/>
	<path class="st1" d="M69.7,1.1H5.7c-2.5,0-4.5,2-4.5,4.5v59.4c0,2.5,2,4.5,4.5,4.5h63.9c2.5,0,4.5-2,4.5-4.5V5.6
		C74.1,3.1,72.1,1.1,69.7,1.1z M69.7,67.3H5.7c-1.3,0-2.3-1-2.3-2.3V16h5.9c0.6,0,1.1-0.5,1.1-1.1c0-0.6-0.5-1.1-1.1-1.1H3.4V5.6
		c0-1.3,1-2.3,2.3-2.3h63.9c1.3,0,2.3,1,2.3,2.3v8.3H13.3c-0.6,0-1.1,0.5-1.1,1.1c0,0.6,0.5,1.1,1.1,1.1H72v49
		C72,66.2,70.9,67.3,69.7,67.3z"/>
	<path class="st1" d="M61.6,18.7h-9.3c-1.9,0-3.4,1.5-3.4,3.4v1.3c-1.1,0.3-2,1.2-2.3,2.3L30,25.7c-0.3-1.1-1.2-2-2.3-2.3v-1.3
		c0-1.9-1.5-3.4-3.4-3.4H15c-1.9,0-3.4,1.5-3.4,3.4v9.3c0,1.9,1.5,3.4,3.4,3.4h1.3c0.3,1.1,1.2,2,2.3,2.3v4.4c0,2.2,1.8,4.1,4.1,4.1
		h10.1c0.3,1.1,1.2,2,2.3,2.3v1.4c0,1.8,1.5,3.3,3.3,3.3h1.4c0.3,1.1,1.1,1.9,2.1,2.3c-0.3,0.6-0.9,1-1.7,1H28.8
		c-0.3-1.2-1.2-2.2-2.4-2.6V52c0-1.9-1.5-3.4-3.4-3.4h-9.3c-1.9,0-3.4,1.5-3.4,3.4v9.3c0,1.9,1.5,3.4,3.4,3.4h9.3
		c1.9,0,3.4-1.5,3.4-3.4V60c1-0.3,1.8-1.1,2.2-2h11.6c1.9,0,3.5-1.3,3.9-3.1c1.2-0.3,2.1-1.3,2.4-2.4h1.2c1.8,0,3.3-1.5,3.3-3.3
		v-2.8c0-0.6-0.5-1.1-1.1-1.1c-0.6,0-1.1,0.5-1.1,1.1v2.8c0,0.6-0.5,1.2-1.2,1.2h-1.3c-1.1-3.2-5.6-3.2-6.7,0h-1.5
		c-0.6,0-1.2-0.5-1.2-1.2v-1.4c0.2-0.1,0.4-0.2,0.7-0.3c0,0,1.8-0.9,1.8-3.1c0-1.5-1-2.9-2.5-3.4v-1.4c0-0.6,0.5-1.2,1.2-1.2h9.5
		c0.6,0,1.2,0.5,1.2,1.2v2.8c0,0.6,0.5,1.1,1.1,1.1c0.6,0,1.1-0.5,1.1-1.1v-2.8c0-1.8-1.5-3.3-3.3-3.3h-9.5c-1.8,0-3.3,1.5-3.3,3.3
		v1.4c-1.1,0.3-2,1.2-2.3,2.3H22.6c-1.1,0-1.9-0.9-1.9-1.9v-4.4c1.1-0.3,2-1.2,2.3-2.3h1.3c1.9,0,3.4-1.5,3.4-3.4v-1.3
		c1.1-0.3,2-1.2,2.3-2.3l16.7-0.1c0.3,1.1,1.2,2,2.3,2.3v1.3c0,1.9,1.5,3.4,3.4,3.4h9.3c1.9,0,3.4-1.5,3.4-3.4V22
		C65,20.2,63.5,18.7,61.6,18.7z M25.4,58.1c-0.8,0-1.4-0.6-1.4-1.4c0-0.8,0.6-1.4,1.4-1.4s1.4,0.6,1.4,1.4
		C26.8,57.4,26.1,58.1,25.4,58.1z M24.3,61.3c0,0.7-0.6,1.2-1.2,1.2h-9.3c-0.7,0-1.2-0.6-1.2-1.2V52c0-0.7,0.6-1.2,1.2-1.2h9.3
		c0.7,0,1.2,0.6,1.2,1.2v1.3C21,54.3,21,59,24.3,60V61.3z M44.5,51.6c0,0.8-0.6,1.4-1.4,1.4c-0.8,0-1.4-0.6-1.4-1.4
		C41.9,49.6,44.4,49.7,44.5,51.6z M36.3,43.1c0.7,0.1,1.2,0.7,1.2,1.4c0,0.8-0.6,1.4-1.4,1.4c-0.8,0-1.4-0.6-1.4-1.4
		C34.7,43.6,35.4,43,36.3,43.1z M26.6,28.2c-0.8,0-1.4-0.6-1.4-1.4s0.6-1.4,1.4-1.4c0.8,0,1.4,0.6,1.4,1.4S27.4,28.2,26.6,28.2z
		 M19.6,35.1c-0.9,0-1.5-0.8-1.4-1.6c0.1-0.7,0.7-1.2,1.4-1.2c0.8,0,1.4,0.6,1.4,1.4C21,34.5,20.4,35.1,19.6,35.1z M25.5,31.4
		c0,0.7-0.6,1.2-1.2,1.2H23c-0.6-1.7-2.3-2.8-4.1-2.4c0,0-2,0.3-2.7,2.4H15c-0.7,0-1.2-0.6-1.2-1.2v-9.3c0-0.7,0.6-1.2,1.2-1.2h9.3
		c0.7,0,1.2,0.6,1.2,1.2v1.3c-1.5,0.5-2.5,1.9-2.5,3.6c0,0,0,2.4,2.5,3.2V31.4z M50,25.3c0.8,0,1.4,0.6,1.4,1.4
		c0,0.8-0.6,1.4-1.4,1.4c-0.8,0-1.4-0.6-1.4-1.4S49.2,25.3,50,25.3z M62.9,31.4c0,0.7-0.6,1.2-1.2,1.2h-9.3c-0.7,0-1.2-0.6-1.2-1.2
		v-1.3c1.5-0.5,2.5-1.9,2.5-3.6v0c-0.1-1.5-1.1-2.7-2.5-3.2V22c0-0.7,0.6-1.2,1.2-1.2h9.3c0.7,0,1.2,0.6,1.2,1.2V31.4z"/>
</g>
</svg>
