<?xml version="1.0" encoding="utf-8"?>
<!-- Generator: Adobe Illustrator 22.0.1, SVG Export Plug-In . SVG Version: 6.00 Build 0)  -->
<svg version="1.1" id="Layer_1" xmlns="http://www.w3.org/2000/svg" xmlns:xlink="http://www.w3.org/1999/xlink" x="0px" y="0px"
	 viewBox="0 0 94.6 93.6" style="enable-background:new 0 0 94.6 93.6;" xml:space="preserve">
<style type="text/css">
	.st0{fill:#78DCCA;}
	.st1{fill:#005A99;}
</style>
<g>
	<g>
		<g>
			<path class="st0" d="M33.6,65.5l0.9-0.4c1-0.4,2-0.7,3.1-1.1c2.9-0.9,5.5-1.5,8-1.9c0,0,0,0,0,0c0-0.1,2.1-0.3,2.2-0.3
				c0.5-0.1,1.3-0.1,2.2-0.2l22.8-1.3c0.2,0,0.4-0.1,0.6-0.1c1-0.4,1.5-1.5,1.1-2.6l-3.6-9.1c4-1.6,6-6.2,4.4-10.2L72.2,31
				c-1.6-4-6.2-6-10.2-4.4l-3.6-9.1c-0.4-1-1.5-1.5-2.6-1.1c-0.2,0.1-0.4,0.2-0.5,0.3L37.8,31.5c-4,3.4-8.6,6.2-13.5,8.1
				c-4.8,1.9-9.6,3.8-14.4,5.8c-7,2.9-10.3,11-7.4,18c2.6,6.3,9.5,9.7,16.1,8l10.1,19.4c0.8,2,3.1,3,5.1,2.2l10.7-4.3
				c1.1-0.4,1.9-1.3,2.3-2.4c0.4-1.2,0.2-2.4-0.4-3.4L33.6,65.5z M63.4,30.3c2-0.8,4.3,0.2,5.1,2.2l2.9,7.3c0.8,2-0.2,4.3-2.2,5.1
				L63.4,30.3z M16.9,67.7c-5.3,1-10.5-2.6-11.4-7.9c-0.7-3.9,1-7.8,4.3-10L16.9,67.7z M50.9,25.5l4.8-4l14,35.1L63.5,57L50.9,25.5z
				 M20.7,45.3l5.1-2c5.3-2.1,10.2-5.1,14.6-8.8l7.4-6.3l11.6,29l-9.7,0.6C44,58.1,38.3,59.4,33,61.5l-5.1,2L20.7,45.3z M13.4,48.2
				l3.7-1.5L24.3,65l-3.7,1.5L13.4,48.2z M32.2,89.2L22.3,70l7.5-3l13.1,18.1L32.2,89.2z"/>
		</g>
	</g>
	<g>
		<g>
			<rect x="29.1" y="53.2" transform="matrix(0.9286 -0.371 0.371 0.9286 -18.092 16.2056)" class="st1" width="7.9" height="3.9"/>
		</g>
	</g>
	<g>
		<g>
			<g>
				
					<rect x="26.2" y="45.9" transform="matrix(0.9286 -0.371 0.371 0.9286 -15.5889 14.6008)" class="st1" width="7.9" height="3.9"/>
			</g>
		</g>
	</g>
	<g>
		<g>
			<g>
				<path class="st1" d="M42.8,9.5c-0.1-0.1-0.1-0.1-0.2-0.2l-4.3-2.9c-0.3-0.2-0.8-0.1-1,0.2c-0.1,0.1-0.1,0.3-0.1,0.4v5.8
					c0,0.3,0.1,0.5,0.4,0.6c0.2,0.1,0.5,0.1,0.7,0l4.3-2.9C42.9,10.3,43,9.9,42.8,9.5z M38.6,11.5V8.4l2.3,1.5L38.6,11.5z"/>
			</g>
		</g>
	</g>
	<g>
		<g>
			<path class="st0" d="M40,1.6c-4.6,0-8.3,3.7-8.3,8.3c0,4.6,3.7,8.3,8.3,8.3c4.6,0,8.3-3.7,8.3-8.3S44.6,1.6,40,1.6z M40,16.4
				c-3.6,0-6.5-2.9-6.5-6.5c0-3.6,2.9-6.5,6.5-6.5c3.6,0,6.5,2.9,6.5,6.5S43.6,16.4,40,16.4z"/>
		</g>
	</g>
	<g>
		<g>
			<path class="st1" d="M19.9,20.3h-1.2c-0.7,0-1.2-0.5-1.2-1.2v-3.6c0-2-1.6-3.6-3.6-3.6s-3.6,1.6-3.6,3.6v3.6
				c0,0.7-0.5,1.2-1.2,1.2c0-0.7-0.5-1.2-1.2-1.2H3c-0.7,0-1.2,0.5-1.2,1.2v13.3c0,0.7,0.5,1.2,1.2,1.2h4.8c0.7,0,1.2-0.5,1.2-1.2
				h10.9c2,0,3.6-1.6,3.6-3.6v-6C23.5,21.9,21.9,20.3,19.9,20.3z M6.6,32.4H4.2V21.5h2.4V32.4z M21.1,30c0,0.7-0.5,1.2-1.2,1.2H9
				v-8.5c2,0,3.6-1.6,3.6-3.6v-3.6c0-0.7,0.5-1.2,1.2-1.2s1.2,0.5,1.2,1.2v3.6c0,2,1.6,3.6,3.6,3.6h1.2c0.7,0,1.2,0.5,1.2,1.2V30z"
				/>
		</g>
	</g>
	<g>
		<g>
			<g>
				<path class="st1" d="M90.6,21.9l-0.7-0.3c-1.7-0.7-3.6-0.1-4.6,1.3l-0.9,1.3l-1.6-0.3c-1.8-0.4-3.5,0.6-4.2,2.2l-0.3,0.7
					c-0.8,1.9,0.1,4.1,2,5l7.5,3.2c0.6,0.3,1.4,0,1.7-0.7l3.2-7.5C93.4,24.9,92.5,22.7,90.6,21.9z M90.2,25.9
					C90.2,25.9,90.2,25.9,90.2,25.9l-2.7,6.3l-6.3-2.7c-0.6-0.3-0.9-1-0.7-1.7l0.3-0.7c0.2-0.6,0.8-0.9,1.4-0.7l2.4,0.5
					c0.5,0.1,1-0.1,1.3-0.5l1.4-2c0.3-0.5,1-0.7,1.5-0.4l0,0l0.7,0.3C90.2,24.5,90.5,25.2,90.2,25.9z"/>
			</g>
		</g>
	</g>
	<g>
		<g>
			<g>
				
					<rect x="64.6" y="10.2" transform="matrix(0.9909 -0.1344 0.1344 0.9909 -1.3081 9.0722)" class="st1" width="3.9" height="8.1"/>
			</g>
		</g>
	</g>
	<g>
		<g>
			
				<rect x="70.7" y="15.2" transform="matrix(0.6647 -0.7471 0.7471 0.6647 12.3729 61.8662)" class="st1" width="8.8" height="3.9"/>
		</g>
	</g>
	<g>
		<g>
			<g>
				
					<rect x="81.3" y="52.2" transform="matrix(0.8109 -0.5851 0.5851 0.8109 -17.1629 59.3787)" class="st1" width="3.9" height="8.1"/>
			</g>
		</g>
	</g>
	<g>
		<g>
			
				<rect x="85.5" y="43.8" transform="matrix(8.347469e-02 -0.9965 0.9965 8.347469e-02 32.1698 131.3976)" class="st1" width="3.9" height="8.8"/>
		</g>
	</g>
</g>
</svg>
