<?xml version="1.0" encoding="utf-8"?>
<!-- Generator: Adobe Illustrator 22.0.1, SVG Export Plug-In . SVG Version: 6.00 Build 0)  -->
<svg version="1.1" id="Layer_1" xmlns="http://www.w3.org/2000/svg" xmlns:xlink="http://www.w3.org/1999/xlink" x="0px" y="0px"
	 viewBox="0 0 250.4 96.5" style="enable-background:new 0 0 250.4 96.5;" xml:space="preserve">
<style type="text/css">
	.st0{fill:#201C1D;}
	.st1{fill:#F3A40D;}
</style>
<g>
	<path class="st0" d="M81.3,35.9c-4.9,0-10.3,1.9-11.4,8c-0.1,0.7,0.3,1,0.7,1.1l5,0.6c0.5,0,0.8-0.5,0.9-1c0.4-2.1,2.2-3.1,4.1-3.1
		c1.1,0,2.2,0.4,2.9,1.3c0.7,1.1,0.7,2.5,0.7,3.8v0.7c-3,0.3-6.9,0.5-9.6,1.8c-3.2,1.4-5.5,4.3-5.5,8.6c0,5.5,3.3,8.2,7.6,8.2
		c3.6,0,5.6-0.9,8.4-3.8c0.9,1.4,1.2,2,2.9,3.5c0.4,0.2,0.9,0.2,1.2-0.1v0.1c1-0.9,2.9-2.6,3.9-3.5c0.4-0.3,0.3-0.9,0-1.4
		c-0.9-1.3-1.9-2.4-1.9-4.9v-8.2c0-3.5,0.3-6.7-2.2-9C87.1,36.5,83.8,35.9,81.3,35.9L81.3,35.9z M148.3,35.9c-4.9,0-10.3,1.9-11.4,8
		c-0.1,0.7,0.3,1,0.7,1.1l5,0.6c0.5,0,0.8-0.5,0.9-1c0.4-2.1,2.2-3.1,4.1-3.1c1.1,0,2.2,0.4,2.9,1.3c0.7,1.1,0.6,2.5,0.6,3.8v0.7
		c-3,0.3-6.8,0.5-9.6,1.8c-3.2,1.4-5.5,4.3-5.5,8.6c0,5.5,3.3,8.2,7.6,8.2c3.6,0,5.6-0.9,8.4-3.8c0.9,1.4,1.2,2,2.9,3.5
		c0.4,0.2,0.9,0.2,1.2-0.1v0.1c1-0.9,2.9-2.6,3.9-3.5c0.4-0.3,0.3-0.9,0-1.4c-0.9-1.3-1.9-2.4-1.9-4.9v-8.2c0-3.5,0.2-6.7-2.3-9
		C154,36.5,150.8,35.9,148.3,35.9L148.3,35.9z M110.6,36.1c-3.1,0-5.5,1.6-6.7,5h-0.1v-3.5c0-0.5-0.4-0.9-0.9-0.9h-4.8
		c-0.5,0-1,0.5-1,1v26.9c0,0.5,0.4,0.9,0.9,0.9h5.1c0.5,0,1-0.4,1-1V50.2c0-3.1-0.2-7.4,3.5-7.4c3.6,0,3.1,4.4,3.1,7.4v14.3
		c0,0.5,0.4,1,0.9,1h5.1c0.5,0,1-0.4,1-1V50.2c0-1.5-0.1-3.8,0.5-5.1c0.5-1.4,1.8-2.3,3.1-2.3c1.5,0,2.6,0.5,3,2.3
		c0.2,1.1,0.1,3.9,0.1,5.1v14.3c0,0.5,0.4,1,0.9,1h5.1c0.5,0,1-0.4,1-1v-17c0-2.9,0.3-6.2-1.3-8.4c-1.4-2-3.8-2.9-5.9-2.9
		c-3,0-5.8,1.6-7,5C115.8,37.7,113.8,36.1,110.6,36.1L110.6,36.1z M197.7,36.1c-7.4,0-11.5,6.5-11.5,14.9c0,8.3,4.1,15,11.5,15
		c7.2,0,11.7-6.5,11.7-14.8C209.4,42.8,205.3,36.1,197.7,36.1L197.7,36.1z M226.9,36.1c-3.5,0-5.6,1.8-7,5.5h-0.1v-4.1
		c-0.1-0.4-0.5-0.7-0.9-0.7h-4.7c-0.5,0-0.9,0.4-1,0.9v26.9c0,0.5,0.4,1,0.9,1h5.1c0.5,0,1-0.5,1-1V50c0-1.8,0.2-3.5,0.9-5.1
		c0.6-1.3,1.7-2.1,2.9-2.1c3.5,0,3.2,4.3,3.2,7.2v14.6c0.1,0.5,0.5,0.8,0.9,0.9h5.1c0.5,0,0.9-0.4,1-0.9v-17c0-2.6,0-6.2-1.3-8.4
		C231.4,37,229.2,36.1,226.9,36.1L226.9,36.1z M165.4,36.6c-0.5,0-0.9,0.4-0.9,1v3.9c0,0.6,0.4,1,0.9,1h8.8l-10,14.8
		c-0.6,1-0.7,2-0.7,2.7v3.9c0,0.6,0.6,1.2,1.2,0.9c5.7-3.1,12.6-2.8,17.8-0.1c0.6,0.3,1.3-0.3,1.3-0.9v-4.1c0-0.6-0.4-1.2-0.9-1.5
		c-2.9-1.7-6.3-2.2-9.6-2.1l8.7-12.8c0.8-1.1,1.3-1.8,1.3-2.4v-3.3c0-0.6-0.4-1-0.9-1H165.4z M197.7,41.7c1.6,0,2.8,0.7,3.4,2.6
		c0.7,2.2,0.7,4.8,0.7,7.1c0,3.5-0.2,9.2-4.1,9.2c-4,0-4-7.1-4-10.4C193.7,46.9,193.9,41.7,197.7,41.7z M84,51.5v1.1
		c0,2,0.1,3.8-0.9,5.6c-0.8,1.5-2.1,2.4-3.5,2.4c-2,0-3.1-1.6-3.1-3.9C76.4,52.3,80.3,51.5,84,51.5z M151.1,51.5v1.1
		c0,2,0.1,3.8-0.9,5.6c-0.8,1.5-2.1,2.4-3.5,2.4c-2,0-3.1-1.6-3.1-3.9C143.5,52.3,147.4,51.5,151.1,51.5z"/>
	<path d="M184.2,66.4v3.9h2.6v-3.9H184.2z M109,67.1v27.5h2.4v-2.5c0.5,1,1.1,1.7,1.8,2.2c0.7,0.5,1.5,0.7,2.4,0.7
		c1.8,0,3.3-0.9,4.6-2.7c1.3-1.8,2-4.5,2-7.8c0-2.2-0.3-4-0.9-5.6c-0.6-1.5-1.4-2.7-2.3-3.5c-1-0.8-2.1-1.2-3.3-1.2
		c-0.8,0-1.6,0.2-2.3,0.7c-0.7,0.4-1.3,1.2-1.8,2.1v-9.8L109,67.1L109,67.1z M133.6,73.5c-1.8,0-3.2,0.5-4.3,1.6
		c-1,1.1-1.5,2.4-1.5,4.1c0,1,0.2,1.8,0.6,2.6c0.4,0.8,0.9,1.4,1.6,1.9c0.7,0.5,2,1.1,4.1,1.7c1.4,0.4,2.2,0.8,2.6,1.1
		c0.5,0.4,0.8,1,0.8,1.8c0,0.9-0.3,1.7-0.9,2.3c-0.6,0.6-1.5,0.9-2.6,0.9s-2-0.3-2.7-1c-0.7-0.7-1-1.7-1.2-3.1l-2.6,0.5
		c0.6,4.3,2.7,6.4,6.4,6.4c2,0,3.5-0.6,4.6-1.7c1.1-1.2,1.7-2.8,1.7-4.7c0-1-0.2-1.9-0.5-2.7c-0.4-0.7-0.8-1.3-1.5-1.7
		c-0.6-0.4-2-1-4.2-1.7c-1.6-0.5-2.5-0.9-2.8-1.2c-0.5-0.4-0.8-1-0.8-1.7c0-0.7,0.2-1.4,0.8-1.9c0.6-0.5,1.4-0.7,2.5-0.7
		c2,0,3.1,1.1,3.3,3.3l2.5-0.4c-0.2-1.4-0.5-2.5-0.9-3.2c-0.5-0.7-1.1-1.4-2-1.8C135.8,73.7,134.8,73.5,133.6,73.5L133.6,73.5z
		 M149.5,73.5c-2.1,0-3.8,0.9-5.2,2.7c-1.4,1.8-2,4.4-2,7.8c0,3.3,0.7,5.9,2,7.6c1.3,1.8,3.1,2.6,5.3,2.6c1.7,0,3.2-0.5,4.3-1.6
		c1.2-1.1,2-2.7,2.5-4.8l-2.7-0.5c-0.8,2.7-2.2,4.1-4.1,4.1c-1.2,0-2.3-0.5-3.1-1.7c-0.9-1.1-1.4-2.8-1.5-5.1h11.4v-0.9
		c0-3.4-0.7-5.9-2-7.6C153.1,74.4,151.5,73.5,149.5,73.5L149.5,73.5z M165.3,73.5c-0.6,0-1.2,0.2-1.7,0.7s-1.1,1.4-1.7,2.8v-3.1
		h-2.3v19.9h2.6V83.4c0-1.4,0.1-2.8,0.5-4.1c0.2-0.7,0.5-1.3,1-1.7c0.5-0.4,1-0.6,1.5-0.6c0.6,0,1.2,0.2,1.9,0.7l0.9-3.1
		C167,73.9,166.2,73.5,165.3,73.5L165.3,73.5z M197.1,73.5c-2.1,0-3.7,0.9-5.1,2.6c-1.3,1.7-2,4.3-2,7.8c0,3.4,0.7,6,2,7.8
		c1.3,1.8,2.9,2.6,4.9,2.6c1.7,0,3.1-0.6,4.3-1.9c1.2-1.2,1.9-3.1,2.2-5.5l-2.5-0.4c-0.2,1.7-0.6,2.9-1.3,3.7
		c-0.7,0.8-1.5,1.2-2.5,1.2c-1.3,0-2.3-0.6-3.1-1.8s-1.2-3.1-1.2-5.9c0-2.6,0.4-4.5,1.3-5.7s1.9-1.9,3.2-1.9c0.9,0,1.6,0.3,2.2,1
		c0.6,0.7,1,1.7,1.3,3.1l2.5-0.5c-0.3-2.1-1-3.7-2.1-4.7C200,74,198.7,73.5,197.1,73.5L197.1,73.5z M211.9,73.5
		c-2.1,0-3.8,0.9-5.2,2.7s-2,4.4-2,7.8c0,3.3,0.7,5.9,2,7.6c1.3,1.8,3.1,2.6,5.3,2.6c1.7,0,3.2-0.5,4.3-1.6c1.2-1.1,2-2.7,2.5-4.8
		l-2.7-0.5c-0.8,2.7-2.1,4.1-4.1,4.1c-1.2,0-2.3-0.5-3.2-1.7c-0.9-1.1-1.4-2.8-1.5-5.1h11.4v-0.9c0-3.4-0.7-5.9-2-7.6
		C215.5,74.4,213.9,73.5,211.9,73.5L211.9,73.5z M227.3,73.5c-1.8,0-3.2,0.5-4.3,1.6c-1,1.1-1.5,2.4-1.5,4.1c0,1,0.2,1.8,0.5,2.6
		c0.4,0.8,0.9,1.4,1.6,1.9c0.7,0.5,2,1.1,4.1,1.7c1.4,0.4,2.3,0.8,2.7,1.1c0.5,0.4,0.8,1,0.8,1.8c0,0.9-0.3,1.7-0.9,2.3
		c-0.6,0.6-1.5,0.9-2.6,0.9c-1.1,0-2-0.3-2.7-1c-0.7-0.7-1.1-1.7-1.3-3.1l-2.6,0.5c0.6,4.3,2.7,6.4,6.4,6.4c2,0,3.5-0.6,4.7-1.7
		c1.1-1.2,1.7-2.8,1.7-4.7c0-1-0.2-1.9-0.5-2.7c-0.4-0.7-0.9-1.3-1.5-1.7c-0.6-0.4-2-1-4.1-1.7c-1.6-0.5-2.5-0.9-2.9-1.2
		c-0.5-0.4-0.8-1-0.8-1.7c0-0.7,0.3-1.4,0.9-1.9c0.6-0.5,1.4-0.7,2.5-0.7c2,0,3.1,1.1,3.3,3.3l2.5-0.4c-0.2-1.4-0.5-2.5-0.9-3.2
		c-0.5-0.8-1.2-1.4-2-1.8C229.4,73.7,228.4,73.5,227.3,73.5L227.3,73.5z M168,73.9l5.8,19.9h2.5l5.8-19.9h-2.7l-3.4,12.2
		c-0.4,1.5-0.8,2.7-1,3.8c-0.3-1.3-0.6-2.7-0.9-4.1l-3.3-11.9L168,73.9L168,73.9z M184.2,73.9v19.9h2.6V73.9L184.2,73.9L184.2,73.9z
		 M99,74.2c-2.1,0-3.7,0.9-5.1,2.7c-1.3,1.8-2.1,4.4-2.1,7.8c0,3.3,0.7,5.8,2,7.6c1.3,1.8,3.1,2.7,5.3,2.7c1.7,0,3.1-0.6,4.3-1.7
		c1.2-1.1,2-2.7,2.4-4.8l-2.6-0.4c-0.8,2.7-2.1,4.1-4.1,4.1c-1.2,0-2.3-0.5-3.1-1.7c-0.9-1.1-1.4-2.8-1.5-5.1h11.3l0.1-0.9
		c0-3.4-0.7-5.9-2-7.7C102.6,75.1,101,74.2,99,74.2L99,74.2z M69.8,74.7l4.7,19.9h2.7l3.1-15.3l0.5,3.4l2.5,11.9h2.7l4.7-19.9h-2.5
		l-2.6,11.5L84.7,90l-0.8-3.9l-2.3-11.5H79l-2.4,11.6l-0.8,4.1l-0.9-4.3l-2.4-11.5L69.8,74.7L69.8,74.7z M235.3,74.9v0.9h2.5v6.7h1
		v-6.7h2.5v-0.9H235.3L235.3,74.9z M242.4,74.9v7.6h0.9V76l2.2,6.5h0.9l2.2-6.3v6.3h1v-7.6h-1.4l-1.8,5.3c-0.2,0.5-0.3,0.9-0.4,1.2
		l-0.4-1.1l-1.8-5.4L242.4,74.9L242.4,74.9z M149.5,76.2c1.3,0,2.4,0.6,3.2,1.9c0.6,0.8,0.9,2.1,1.1,3.9h-8.6
		c0.1-1.7,0.6-3.1,1.4-4.1C147.4,76.8,148.3,76.2,149.5,76.2z M211.8,76.2c1.3,0,2.4,0.6,3.2,1.9c0.6,0.8,0.9,2.1,1.1,3.9h-8.6
		c0.1-1.7,0.6-3.1,1.4-4.1C209.7,76.8,210.7,76.2,211.8,76.2z M99,77c1.3,0,2.3,0.6,3.1,1.9c0.6,0.8,0.9,2.1,1.1,3.9h-8.4
		c0.1-1.7,0.5-3.2,1.3-4.2C96.9,77.5,97.8,77,99,77z M115.5,77c1.2,0,2.1,0.6,2.9,1.9c0.8,1.2,1.1,3.1,1.1,5.7
		c0,2.5-0.4,4.4-1.2,5.7c-0.8,1.3-1.8,1.9-2.9,1.9c-0.8,0-1.5-0.3-2.1-0.8c-0.6-0.5-1.1-1.3-1.5-2.3s-0.5-2.6-0.5-4.7
		c0-2.4,0.4-4.2,1.3-5.5S114.4,77,115.5,77L115.5,77z"/>
	<path class="st1" d="M32.5,55.9l-9.9,4.3l9.2,3.9l10.6-3.9L32.5,55.9z M17.6,61.2l-0.3,19.2l14.5,6.4V66.9L17.6,61.2L17.6,61.2z
		 M47.4,61.2l-13.1,5V85l13.1-5.3V61.2L47.4,61.2z M63,1.6l-10,4.3l9.2,3.9L73,5.9L63,1.6L63,1.6z M49.2,7.3v19.2L61.6,30L62,12.6
		L49.2,7.3z M76.9,8.4l-11.7,5v18.8l11.7-5.3V8.4z M16.2,28.6l-9.9,4.3l9.2,3.9l10.6-3.9L16.2,28.6L16.2,28.6z M1.3,33.9L1,53.1
		l14.5,6.4V39.6L1.3,33.9z M31.1,33.9l-13.1,5v18.8l13.1-5.3V33.9z M48.1,27.9l-9.9,4.3l9.2,3.9L58,32.1L48.1,27.9L48.1,27.9z
		 M33.2,33.2l-0.3,19.2l14.5,6.4V38.9L33.2,33.2z M63,33.2l-13.1,5v18.8L63,51.6V33.2z M94.2,1.6l-9.9,4.3l9.2,3.9l10.6-3.9
		C104.1,5.9,94.2,1.6,94.2,1.6z M79.3,7L79,26.1l14.5,6.4V12.6L79.3,7L79.3,7z M109.1,7l-13.1,5v18.8l13.1-5.3V7L109.1,7z"/>
</g>
</svg>
