<?xml version="1.0" encoding="utf-8"?>
<!-- Generator: Adobe Illustrator 22.0.1, SVG Export Plug-In . SVG Version: 6.00 Build 0)  -->
<svg version="1.1" id="Layer_1" xmlns="http://www.w3.org/2000/svg" xmlns:xlink="http://www.w3.org/1999/xlink" x="0px" y="0px"
	 viewBox="0 0 122.2 143.5" style="enable-background:new 0 0 122.2 143.5;" xml:space="preserve">
<style type="text/css">
	.st0{fill:#FBA919;}
	.st1{fill:#E78724;}
	.st2{fill:#FDC168;}
	.st3{fill:#FFFFFF;}
	.st4{fill:#C9C9C9;}
	.st5{fill:#463014;}
</style>
<g id="Layer_1_2_">
	<path class="st0" d="M24,28c0,0,1.9,7.4,2.2,9.8c0.3,2.5-4.9,7.9-4.9,10.7s1.1,7.6,7.1,10.1s6.8,8.7,6.8,12.6
		c0,3.8-2.2,11.2-2.2,11.2s-1.4,18.3,6,21.6c7.4,3.3,5.7,3.3,7.4,3.3s13.7,4.9,20.8,3c7.1-1.9,9-4.1,9-4.1s7.1,0.5,9.3-5.7
		C87.6,94.1,89,81,88.1,75c-0.8-6-1.9-13.9,3-16.7c4.9-2.7,10.1-6,9.3-8.7c-0.8-2.7-5.2-6.6-5.2-6.6s-1.1-6.8-0.3-8.5
		c0.8-1.6,5.7-5.7,3-8.7c-2.7-3-7.6-3-7.6-3l-6.3,0.5c0,0-10.7-9.6-24.6-9c-13.9,0.5-22.7,9-22.7,9s-4.6-1.6-8.7,0
		C24,25,23.1,23.4,24,28L24,28z"/>
	<path class="st1" d="M48.9,68.7c0,0-5.4,8.3-9.4,14.1c-0.6,0.9,4,1,4,1L48.9,68.7L48.9,68.7z M51.5,51.5c0,0-1.6,4.1-2.5,6.2
		c-1,2.3-4.7,3.5-4.7,3.5s1.9-2,1.9-7.1c0-2.1,2.8-3,2.8-3L51.5,51.5z"/>
	<path class="st1" d="M49.9,53.8c0,0-3.3,4-9.5,1.7s-6.8-10.2-6.8-12.4s11.8,2.2,13.4,3.2C48.5,47.3,51.4,51.1,49.9,53.8z
		 M26.4,11.3c0,0,5.7-1.1,9.5,1.9c3.8,3,4.9,5.4,4.9,5.4l-6.4,5.1c0,0-3.1-1.4-4.1-5.6C29.4,14,30.1,12.1,26.4,11.3L26.4,11.3z"/>
	<path class="st1" d="M48.2,42.3c-2.5-3.5-6.5-5-9.8-5.3c-5.5-0.4-8.2,1.5-8.2,1.5s9.1,0.4,11.7,3.8c4.9,6.4,12,6.9,13.1,5.5
		c-1.3,0.1-2.8-0.6-4.3-2C49.7,44.9,49,43.5,48.2,42.3z M32.9,54.7c0,0-10.1-3.5-8.1-7c1.9-3.5,0.4-5.4,0.4-5.4S19.5,46.5,21,51
		c0.9,2.7,2.4,4.7,10.5,8.5c3.9,7.2,0.8,20.2,1,20.3c0.3,0.1,5.5-2.5,5.1-14.7C37.4,61.3,37.1,56.3,32.9,54.7L32.9,54.7z M46.1,17.6
		c-4.2,2.1-10,5.1-10,5.1l2.3,1.1c-0.2,0.4-0.3,0.6-0.3,0.6l2.3,1.1c0,0,5.7,4.1,9.2,6.8c-1.2-3.6-4.6-9.2-4.6-9.2
		S44,20.4,46.1,17.6L46.1,17.6z M60.1,104.8c-13,0-17.3-6.6-17.3-6.6l2,4.9c0.8,2.1,8.9,8.8,15.3,8.8"/>
	<path class="st1" d="M44.1,93.8c0,0,1.2,7.3,6,7.3c4.1,0,5.3-6.2,5.3-7.4L44.1,93.8z M36.2,82.8c0.4-1.2,1.9-5.9,2.4-10.2
		C39.2,67.5,39,60,39,60s-1.3,4.9-2.4,5.7c-1.1,0.8-3.2,6.2-3.2,6.2s-1.1,8.1-1.6,10.8C33.2,83,34.4,82.1,36.2,82.8z M24.7,50.9
		c0,0,2.7-1,3.5-6.8c0.8-5.9-1-11-1-11s0.2,8.1-0.8,9.7c-1,1.6-1.7,2.1-2.9,4.1C22.4,49,24,50.3,24.7,50.9L24.7,50.9z"/>
	<path class="st2" d="M27.9,12.7l-0.6-0.3C25.7,12.4,27.9,12.7,27.9,12.7z"/>
	<path class="st0" d="M48.3,15.8c0,0-2.5-0.4-3.8-2.3c-1.3-1.9-4.9-5.7-10.6-5.8c-5.7,0-11.4,1.5-11.4,1.5l5,3.1c0.5,0,1.4,0,3,0
		c6.2,0.2,7.2,6.4,7.2,6.4l22-3"/>
	<path class="st3" d="M50.4,49.8c0,0-3,3-7.5,2c-4.6-1-7.3-3-7.5-6.5c-0.2-3.5,1-4.9,1-4.9s5.1,1.6,7.5,3.7
		C46.2,46.3,48,49.7,50.4,49.8z"/>
	<path class="st4" d="M46.8,48.8c0,0-2.6,1.2-5.5,0.2c-3.8-1.3-4-5.2-4-5.2S35,50.7,41.5,52c5.2,1,8.3-2,8.3-2L46.8,48.8z"/>
	<path class="st5" d="M48.6,14.4c-0.3-5.8,4.5-10.5,6.1-10.7c0.1,1-0.1,4.8,1.6,6c0.5-3.1,2.1-6.6,8.5-8.9c-1.4,3.6-0.2,6.7,0.4,8.1
		c4.4-4,7.3-3.3,7.3-3.3s-3,5.3-1.9,8.7C61.9,13.7,48.7,15.3,48.6,14.4L48.6,14.4z M30,23.2c-2.1-1.7-0.5-3.4-0.7-5.3
		c-0.1-1.1-0.2-2-0.5-2.6c-1.9-3.1-6.5-4-6.5-4l-2.1-0.4l1.4-1.7c0.2-0.2,6-5.8,15-2.9c6.3,2,11,8.9,11.1,9.2L44.5,17
		c0-0.1-3.7-6.5-9.1-8.3C31,7.4,26.9,8.7,25.2,9.6c1.8,0.7,4.2,2.1,5.7,4.3c0.7,1.1,0.8,2.4,0.9,3.7c0.1,1.7,0.3,3.4,1.6,4.4
		L30,23.2L30,23.2z M24.3,48.7c0,0,2.6-3.3,3.4-9.7c0.3-2.5-0.2-7.5-1.1-9.4c0.2,4.7-1,9.4-1,9.4S24.8,47.7,24.3,48.7z"/>
	<path class="st5" d="M38.3,19.9c0,0-0.8-3.7-3.2-5.6c-3.3-2.6-7.4-1.2-7.4-1.2l-0.6-1.8c0.2-0.1,4.8-1.5,9.1,1.5
		c4.3,3,4.8,5.7,4.9,6.1L38.3,19.9z M32.7,46.3c0,0-1.4-2-1.1-4.2c0.1-1.1,0.6-2.2,1.5-2.6c1.7-0.7,2.4,1.2,2.4,1.2
		S33.1,41.3,32.7,46.3L32.7,46.3z"/>
	<path class="st5" d="M47.9,49.4c0.1,0.1,0.1,0.2,0.1,0.2s-4.3,3.3-8.8,0c-2.4-1.8-2.2-6.1-1.4-8c1.9,0.4,3.5,1.2,4.8,2.1
		c-1.7-1.5-3.2-2.6-3.2-2.7l-1.9-0.5l-3.7-1.3c0,0.3-1.4,6.7,2.5,11.1c1.7,1.9,9.9,6.3,13.8-1.1L47.9,49.4z"/>
	<path class="st5" d="M47.5,49.8c2.4,3.7,8.6,1.6,8.5-2.3c0,0-4.1,2.3-7.7-1.9c-2.1-2.4-8.9-9.2-18.1-6.9
		C36.5,40.1,44.9,45.9,47.5,49.8z"/>
	<path class="st5" d="M29.2,60.3c0.6,0.3,2.7,2.5,2.7,5.7c0,1.6-0.2,9.7-1,14.6c1.2,0.8,2,0.9,3.2,1.7c0.6-5.7,1-14,0.8-17.3
		c-0.2-3.8-2.3-6.4-4.2-7.5c-0.6-0.3-1.2-0.7-1.8-1c-3.2-1.8-6.6-3.6-6.6-6.7c0-2.4,0.9-3.2,1.9-4l0.1-0.1c0.7-0.5,1.4-1.1,1.9-2.1
		c1.2-2.7,1.4-9.6,0-11.4c-0.7-0.9-2.6-3.8-2-5.8c0.2-0.8,0.7-1.3,1.5-1.7c0.8-0.4,1.9-0.6,3.3-0.6c2.7,0,5.6,0.8,7.2,1.3
		c5.5,1.8,12.1,6.8,14,8.2c0.1,0,0.1,0.1,0.1,0.1l1.2,0.8l-0.8-1.3c0-0.1-4.8-8-13.4-10.9c-1.7-0.6-4.9-1.5-8.2-1.5
		c-1.9,0-3.5,0.3-4.8,1c-1.6,0.8-2.6,2.1-3.1,3.7c-1.1,4,2.4,8.4,2.6,8.5c0.4,0.7,0.6,6.1-0.4,8.2c-0.1,0.3-0.5,0.6-0.9,1
		c-0.1,0.1-0.3,0.2-0.5,0.4c-1.3,1-3.4,2.5-3.4,6.1c0,4.8,4.9,7.4,8.8,9.5C28.1,59.7,28.7,60,29.2,60.3L29.2,60.3z"/>
	<path class="st5" d="M30,23.2c-2.1-1.7-0.5-3.4-0.7-5.3c-0.1-1.1-0.2-2-0.5-2.6c-1.9-3.1-6.5-4-6.5-4l-2.1-0.4l1.4-1.7
		c0.2-0.2,6-5.8,15-2.9c6.3,2,11,8.9,11.1,9.2L44.5,17c0-0.1-3.7-6.5-9.1-8.3C31,7.4,26.9,8.7,25.2,9.6c1.8,0.7,4.2,2.1,5.7,4.3
		c0.7,1.1,0.8,2.4,0.9,3.7c0.1,1.7,0.3,3.4,1.6,4.4L30,23.2L30,23.2z"/>
	<path class="st5" d="M29.9,23.6l-0.1-0.1c-1.6-1.3-1.3-2.6-1-3.8c0.1-0.6,0.3-1.2,0.2-1.8c-0.1-1-0.2-2-0.5-2.5
		c-1.8-2.9-6.3-3.8-6.3-3.8l-2.7-0.5L21.3,9c0,0,3.7-3.8,10.1-3.8c1.7,0,3.5,0.3,5.3,0.9c6.6,2.1,11.3,9.3,11.3,9.3l0.2,0.3
		l-3.8,1.7l-0.1-0.2c-0.4-0.7-3.9-6.5-9-8.1c-1.2-0.4-2.5-0.6-3.9-0.6C29,8.5,27,9.2,26,9.6c1.7,0.8,3.8,2.1,5.2,4.2
		c0.7,1.1,0.8,2.5,1,3.9c0.1,1.7,0.3,3.3,1.4,4.2l0.4,0.4L29.9,23.6L29.9,23.6z"/>
	<path class="st5" d="M38.3,19.9c0,0-0.8-3.7-3.2-5.6c-3.3-2.6-7.4-1.2-7.4-1.2l-0.6-1.8c0.2-0.1,4.8-1.5,9.1,1.5
		c4.3,3,4.8,5.7,4.9,6.1L38.3,19.9z"/>
	<path class="st5" d="M38.1,20.4L38,20c0,0-0.8-3.6-3.1-5.4c-1.3-1-2.8-1.5-4.6-1.5c-1.4,0-2.4,0.3-2.5,0.4l-0.3,0.1l-0.8-2.4L27,11
		c0.1,0,1.4-0.4,3.1-0.4c2.3,0,4.5,0.7,6.3,1.9c4.4,3.1,4.9,5.9,5,6.3l0,0.2L38.1,20.4L38.1,20.4z M30.3,12.4c1.9,0,3.6,0.6,5,1.7
		c2,1.6,2.9,4.4,3.2,5.4l2.2-0.9c-0.2-0.8-1.1-3.1-4.7-5.6c-1.7-1.2-3.7-1.8-5.9-1.8c-1.2,0-2.1,0.2-2.6,0.3l0.4,1.2
		C28.4,12.6,29.2,12.4,30.3,12.4L30.3,12.4z M49.9,99.4c-0.9,0-1.9-0.3-2.6-0.9c-0.5-0.4-2.2-2-3-4c-0.3-0.7-0.2-1.3,0.2-1.7
		c0.3-0.3,0.9-0.6,2.1-0.6H53c0.9,0,1.6,0.2,1.9,0.6c0.5,0.5,0.3,1.1,0.2,1.5c-0.2,0.6-1.2,2.5-2.8,4.2C51.7,99,50.9,99.4,49.9,99.4
		L49.9,99.4z M50.9,50.1l-3.4-0.2c0,0,0.9,1.5,1.4,3.5c0.6,2.2-0.6,5.5-0.6,5.5S52.9,53.7,50.9,50.1L50.9,50.1z M46.7,108.3
		C34.6,107.4,30.3,96,30.3,93.6h3.2h-1.6h1.6c0,1,3.2,10.8,13.4,11.6L46.7,108.3z"/>
	<path class="st3" d="M43.3,87.9c-0.2-1.1-0.2-2.1,0-3.1c-0.9-0.7-2.6-0.9-3.8-1.3c-1-0.6-6.2,0.7-9.9-3.9c-4.7-5.7-3.7-9.1-3.7-9.1
		c-1.2,1.3-2.4,0.8-4.2,7.1c-1.8,6.2,0.9,10.6,5.9,15c2.4,2.1,5.7,2.9,8.6,3.2c-1-1,1.7-1.1,3.5-1.7c-0.1-1.5,0.1-2.9,1.2-4
		c0.7-0.7,1.5-1.1,2.4-1.4c0-0.1,0.1-0.2,0.1-0.3C43.3,88.1,43.3,88,43.3,87.9L43.3,87.9z"/>
	<path class="st4" d="M39.6,93.9c-0.1-0.3-0.2-0.6-0.3-0.9c-0.1-0.3-0.5-1.3,0-0.2c-0.1-0.3-0.2-0.6-0.3-0.9
		c-8.2,0-15.3-5.6-13.9-17.4c-1.1-1.4-2.6,2.9-2.6,2.9s-4.1,11.9,6.5,16.5c3.5,1.5,6.6,2.6,7.4,2.2c1.5,0.3,2.9-0.8,3.4-1.5
		C39.8,94.3,39.7,94.1,39.6,93.9L39.6,93.9z"/>
	<path class="st5" d="M43.1,86.2c0-1,0.2-2,0.7-2.9l0.1-0.2c-3.1,0-6.8-0.3-9.8-1.6c-3.4-1.4-7.6-6-8.3-11.4c0,0-6.4,4.9-4.5,15.4
		c1.8,9.9,10,13.1,19.5,13.7c0-0.1-1.1-2.3-0.7-3.6c-5.4,0.4-11.3-1.7-14.2-6.4c-2.6-4.4-1.9-11.8-0.8-12.9
		C27.6,84.6,37.1,86.3,43.1,86.2L43.1,86.2z"/>
	<path class="st5" d="M44.1,80.2c-1.7,5-5.2,9-5.2,9s4.8-0.2,5-1.1c0.2-0.6,4.3-10.3,5.9-21.5C48.4,69,44.2,79.7,44.1,80.2
		L44.1,80.2z"/>
	<path class="st1" d="M71.1,68.7c0,0,5.4,8.3,9.4,14.1c0.6,0.9-4,1-4,1L71.1,68.7L71.1,68.7z M68.6,51.5c0,0,1.6,4.1,2.5,6.2
		c1,2.3,4.7,3.5,4.7,3.5s-1.9-2-1.9-7.1c0-2.1-2.8-3-2.8-3L68.6,51.5z"/>
	<path class="st1" d="M70.2,53.8c0,0,3.3,4,9.5,1.7c6.2-2.2,6.8-10.2,6.8-12.4s-11.8,2.2-13.4,3.2C71.6,47.3,68.6,51.1,70.2,53.8z
		 M93.6,11.3c0,0-5.7-1.1-9.5,1.9c-3.8,3-4.9,5.4-4.9,5.4l6.4,5.1c0,0,3.1-1.4,4.1-5.6C90.6,14,90,12.1,93.6,11.3L93.6,11.3z"/>
	<path class="st1" d="M71.9,42.3c2.5-3.5,6.5-5,9.8-5.3c5.5-0.4,8.2,1.5,8.2,1.5s-9.1,0.4-11.7,3.8c-4.9,6.4-12,6.9-13.1,5.5
		c1.3,0.1,2.8-0.6,4.3-2C70.3,44.9,71.1,43.5,71.9,42.3L71.9,42.3z M87.2,54.7c0,0,10.1-3.5,8.1-7c-1.9-3.5-0.4-5.4-0.4-5.4
		s5.6,4.2,4.2,8.6c-0.9,2.7-2.4,4.7-10.5,8.5c-3.9,7.2-0.8,20.2-1,20.3c-0.3,0.1-5.5-2.5-5.1-14.7C82.7,61.3,83,56.3,87.2,54.7z
		 M74,17.6c4.2,2.1,10,5.1,10,5.1l-2.3,1.1c0.2,0.4,0.3,0.6,0.3,0.6l-2.3,1.1c0,0-5.7,4.1-9.2,6.8c1.2-3.6,4.6-9.2,4.6-9.2
		S76.1,20.4,74,17.6L74,17.6z M60,104.8c13,0,17.3-6.6,17.3-6.6l-2,4.9c-0.8,2.1-8.9,8.8-15.3,8.8"/>
	<path class="st1" d="M75.9,93.8c0,0-1.2,7.3-6,7.3c-4.1,0-5.3-6.2-5.3-7.4L75.9,93.8z M83.9,82.8c-0.4-1.2-1.9-5.9-2.4-10.2
		C80.9,67.5,81.1,60,81.1,60s1.3,4.9,2.4,5.7c1.1,0.8,3.2,6.2,3.2,6.2s1.1,8.1,1.6,10.8C86.9,83,85.6,82.1,83.9,82.8L83.9,82.8z
		 M95.4,50.9c0,0-2.7-1-3.5-6.8c-0.8-5.9,1-11,1-11s-0.2,8.1,0.8,9.7c1,1.6,1.7,2.1,2.9,4.1C97.6,49,96,50.3,95.4,50.9L95.4,50.9z"
		/>
	<path class="st2" d="M92.2,12.7l0.6-0.3C94.3,12.4,92.2,12.7,92.2,12.7z"/>
	<path class="st0" d="M71.8,15.8c0,0,2.5-0.4,3.8-2.3c1.3-1.9,4.9-5.7,10.6-5.8c5.7,0,11.4,1.5,11.4,1.5l-5,3.1c-0.5,0-1.4,0-3,0
		c-6.2,0.2-7.2,6.4-7.2,6.4l-22-3"/>
	<path class="st3" d="M69.7,49.8c0,0,3,3,7.5,2c4.6-1,7.3-3,7.5-6.5c0.2-3.5-1-4.9-1-4.9s-5.1,1.6-7.5,3.7
		C73.8,46.3,72,49.7,69.7,49.8L69.7,49.8z"/>
	<path class="st4" d="M73.3,48.8c0,0,2.6,1.2,5.5,0.2c3.8-1.3,4-5.2,4-5.2s2.3,6.8-4.2,8.1c-5.2,1-8.3-2-8.3-2L73.3,48.8z"/>
	<path class="st5" d="M90.1,23.2c2.1-1.7,0.5-3.4,0.7-5.3c0.1-1.1,0.2-2,0.5-2.6c1.9-3.1,6.5-4,6.5-4l2.1-0.4l-1.4-1.7
		c-0.2-0.2-6-5.8-15-2.9c-6.3,2-11,8.9-11.1,9.2l3.2,1.5c0-0.1,3.7-6.5,9.1-8.3c4.4-1.4,8.4-0.1,10.1,0.8c-1.8,0.7-4.2,2.1-5.7,4.3
		c-0.7,1.1-0.8,2.4-0.9,3.7c-0.1,1.7-0.3,3.4-1.6,4.4L90.1,23.2z M95.7,48.7c0,0-2.6-3.3-3.4-9.7c-0.3-2.5,0.2-7.5,1.1-9.4
		c-0.2,4.7,1,9.4,1,9.4S95.2,47.7,95.7,48.7z"/>
	<path class="st5" d="M81.8,19.9c0,0,0.8-3.7,3.2-5.6c3.3-2.6,7.4-1.2,7.4-1.2l0.6-1.8c-0.2-0.1-4.8-1.5-9.1,1.5
		c-4.3,3-4.8,5.7-4.9,6.1L81.8,19.9L81.8,19.9z M87.4,46.3c0,0,1.4-2,1.1-4.2c-0.1-1.1-0.6-2.2-1.5-2.6c-1.7-0.7-2.4,1.2-2.4,1.2
		S87,41.3,87.4,46.3z"/>
	<path class="st5" d="M72.2,49.4c-0.1,0.1-0.1,0.2-0.1,0.2s4.3,3.3,8.8,0c2.4-1.8,2.2-6.1,1.4-8c-1.9,0.4-3.5,1.2-4.8,2.1
		c1.7-1.5,3.2-2.6,3.2-2.7l1.9-0.5l3.7-1.3c0,0.3,1.4,6.7-2.5,11.1c-1.7,1.9-9.9,6.3-13.8-1.1L72.2,49.4z"/>
	<path class="st5" d="M72.6,49.8c-2.4,3.7-8.6,1.6-8.5-2.3c0,0,4.1,2.3,7.7-1.9c2.1-2.4,8.9-9.2,18.1-6.9
		C83.6,40.1,75.2,45.9,72.6,49.8L72.6,49.8z"/>
	<path class="st5" d="M90.8,60.3c-0.6,0.3-2.7,2.5-2.7,5.7c0,1.6,0.2,9.7,1,14.6c-1.2,0.8-2,0.9-3.2,1.7c-0.6-5.7-1-14-0.8-17.3
		c0.2-3.8,2.3-6.4,4.2-7.5c0.6-0.3,1.2-0.7,1.8-1c3.2-1.8,6.6-3.6,6.6-6.7c0-2.4-0.9-3.2-1.9-4l-0.1-0.1c-0.7-0.5-1.4-1.1-1.9-2.1
		c-1.2-2.7-1.4-9.6,0-11.4c0.7-0.9,2.6-3.8,2-5.8c-0.2-0.8-0.7-1.3-1.5-1.7c-0.8-0.4-1.9-0.6-3.3-0.6c-2.7,0-5.6,0.8-7.2,1.3
		c-5.4,1.8-12,6.8-13.9,8.2c-0.1,0-0.1,0.1-0.1,0.1l-1.2,0.8l0.8-1.3c0-0.1,4.8-8,13.4-10.9c1.7-0.6,4.9-1.5,8.2-1.5
		c1.9,0,3.5,0.3,4.8,1c1.6,0.8,2.6,2.1,3.1,3.7c1.1,4-2.4,8.4-2.6,8.5c-0.4,0.7-0.6,6.1,0.4,8.2c0.1,0.3,0.5,0.6,0.9,1
		c0.1,0.1,0.3,0.2,0.5,0.4c1.3,1,3.4,2.5,3.4,6.1c0,4.8-4.9,7.4-8.8,9.5C92,59.7,91.4,60,90.8,60.3L90.8,60.3z"/>
	<path class="st5" d="M85,22.7c-0.8-1.3-2.8-3.9-7.3-6.1c-5.1-2.5-11-3.8-17.6-3.8s-12.5,1.3-17.6,3.8c-4.6,2.2-6.6,4.8-7.3,6.1
		l-0.3,0.4l3.9,0.9l0.1-0.2l0.1-0.1c0.1-0.3,0.6-1.7,5-3.8c4.7-2.3,10.1-3.4,16.2-3.4s11.5,1.2,16.2,3.4c4.4,2.1,4.9,3.5,5,3.8
		l0.1,0.1l0.1,0.2l3.9-0.9L85,22.7L85,22.7z"/>
	<path class="st5" d="M90.1,23.2c2.1-1.7,0.5-3.4,0.7-5.3c0.1-1.1,0.2-2,0.5-2.6c1.9-3.1,6.5-4,6.5-4l2.1-0.4l-1.4-1.7
		c-0.2-0.2-6-5.8-15-2.9c-6.3,2-11,8.9-11.1,9.2l3.2,1.5c0-0.1,3.7-6.5,9.1-8.3c4.4-1.4,8.4-0.1,10.1,0.8c-1.8,0.7-4.2,2.1-5.7,4.3
		c-0.7,1.1-0.8,2.4-0.9,3.7c-0.1,1.7-0.3,3.4-1.6,4.4L90.1,23.2z"/>
	<path class="st5" d="M86.1,22.2l0.4-0.4c1.2-1,1.3-2.6,1.5-4.2c0.1-1.3,0.2-2.7,1-3.9c1.3-2.1,3.4-3.4,5.2-4.2
		c-1-0.4-3-1.1-5.4-1.1c-1.3,0-2.6,0.2-3.9,0.6c-5,1.6-8.6,7.5-9,8.1l-0.2,0.2L72,15.7l0.2-0.3c0-0.1,4.7-7.2,11.3-9.3
		c1.8-0.6,3.5-0.9,5.3-0.9C95.1,5.2,98.8,9,98.9,9l1.8,2.1L98,11.6c0,0-4.5,0.9-6.3,3.8c-0.3,0.5-0.4,1.4-0.5,2.5
		c-0.1,0.6,0.1,1.2,0.2,1.8c0.3,1.2,0.5,2.5-1,3.8l-0.1,0.1L86.1,22.2L86.1,22.2z"/>
	<path class="st5" d="M81.8,19.9c0,0,0.8-3.7,3.2-5.6c3.3-2.6,7.4-1.2,7.4-1.2l0.6-1.8c-0.2-0.1-4.8-1.5-9.1,1.5
		c-4.3,3-4.8,5.7-4.9,6.1L81.8,19.9L81.8,19.9z"/>
	<path class="st5" d="M78.7,19l0-0.2c0-0.3,0.6-3.2,5-6.3c1.8-1.3,4-1.9,6.3-1.9c1.7,0,3,0.4,3.1,0.4l0.3,0.1l-0.8,2.4l-0.3-0.1
		c-0.1,0-1.1-0.4-2.5-0.4c-1.8,0-3.3,0.5-4.6,1.5C82.9,16.4,82.1,20,82,20L82,20.4L78.7,19L78.7,19z M92.2,12.7l0.4-1.2
		c-0.5-0.1-1.4-0.3-2.6-0.3c-2.2,0-4.2,0.6-5.9,1.8c-3.6,2.5-4.5,4.8-4.7,5.6l2.2,0.9c0.3-1,1.2-3.8,3.2-5.4c1.4-1.1,3.1-1.7,5-1.7
		C90.8,12.4,91.7,12.6,92.2,12.7L92.2,12.7z M67.7,98.4c-1.6-1.8-2.6-3.6-2.8-4.2c-0.1-0.3-0.3-1,0.2-1.5c0.4-0.4,1-0.6,1.9-0.6h6.4
		c1.2,0,1.8,0.3,2.1,0.6c0.4,0.4,0.5,1,0.2,1.7c-0.8,1.9-2.5,3.5-3,4c-0.7,0.6-1.6,0.9-2.6,0.9C69.2,99.4,68.3,99,67.7,98.4
		L67.7,98.4z M69.2,50.1l3.4-0.2c0,0-0.9,1.5-1.4,3.5c-0.6,2.2,0.6,5.5,0.6,5.5S67.2,53.7,69.2,50.1L69.2,50.1z"/>
	<path class="st1" d="M60,37.9c-2.2,0-5-0.1-7.1-1.6c0,0,2.8,4.9,7.1,4.9v-0.6v0.6c4.3,0,7.1-4.9,7.1-4.9C65,37.9,62.2,37.9,60,37.9
		z"/>
	<path class="st5" d="M66,37.9c-2.2,1.3-4.1,1.8-6,1.8c-1.8,0-3.8-0.5-6-1.8c0,0,3.2,3.9,5.9,3.9C62.8,41.8,66,37.9,66,37.9L66,37.9
		z M73.4,108.3l-0.2-3.1c10.2-0.8,13.4-10.5,13.4-11.6h3.2C89.7,96,85.5,107.4,73.4,108.3L73.4,108.3z"/>
	<path class="st3" d="M76.8,87.9c0.2-1.1,0.2-2.1,0-3.1c0.9-0.7,2.6-0.9,3.8-1.3c1-0.6,6.2,0.7,9.9-3.9c4.7-5.7,3.7-9.1,3.7-9.1
		c1.2,1.3,2.4,0.8,4.2,7.1c1.8,6.2-0.9,10.6-5.9,15c-2.4,2.1-5.7,2.9-8.6,3.2c1-1-1.7-1.1-3.5-1.7c0.1-1.5-0.1-2.9-1.2-4
		c-0.7-0.7-1.5-1.1-2.4-1.4c0-0.1-0.1-0.2-0.1-0.3C76.8,88.1,76.8,88,76.8,87.9L76.8,87.9z"/>
	<path class="st4" d="M80.4,93.9c0.1-0.3,0.2-0.6,0.3-0.9c0.1-0.3,0.5-1.3,0-0.2c0.1-0.3,0.2-0.6,0.3-0.9c8.2,0,15.3-5.6,13.9-17.4
		c1.1-1.4,2.6,2.9,2.6,2.9s4.1,11.9-6.5,16.5c-3.5,1.5-6.6,2.6-7.4,2.2c-1.5,0.3-2.9-0.8-3.4-1.5C80.3,94.3,80.4,94.1,80.4,93.9
		L80.4,93.9z"/>
	<path class="st5" d="M76.9,86.2c0-1-0.2-2-0.7-2.9L76.1,83c3.1,0,6.8-0.3,9.8-1.6c3.4-1.4,7.6-6,8.3-11.4c0,0,6.4,4.9,4.5,15.4
		c-1.8,9.9-10,13.1-19.5,13.7c0-0.1,1.1-2.3,0.7-3.6c5.4,0.4,11.3-1.7,14.2-6.4c2.6-4.4,1.9-11.8,0.8-12.9
		C92.5,84.6,82.9,86.3,76.9,86.2L76.9,86.2z"/>
	<path class="st5" d="M80.8,88.6c-1.1-1.2-3.2-2.7-8-2.7H47.3c-4.8,0-6.9,1.5-8,2.7c-1.6,1.8-1.9,4.2-0.8,7.3
		c3,8.2,7.3,16.5,21.5,16.6c14.2,0,18.5-8.4,21.5-16.6C82.7,92.9,82.4,90.4,80.8,88.6z M78.5,95.4c-1.4,4.1-5.3,14.1-18.5,14.1
		c-13.2,0-17.1-10-18.5-14.1c-0.8-2.3-0.7-4,0.2-5c0.6-0.7,2.1-1.6,5.4-1.6H73c3.3,0,4.7,0.9,5.4,1.6C79.3,91.4,79.3,93.1,78.5,95.4
		z"/>
	<path class="st5" d="M76,80.2c1.7,5,5.2,9,5.2,9s-4.8-0.2-5-1.1c-0.2-0.6-4.3-10.3-5.9-21.5C71.7,69,75.8,79.7,76,80.2L76,80.2z
		 M22.1,120.1c-0.6-0.4-1.3-0.7-2.1-1s-1.6-0.5-2.5-0.7c-0.9-0.2-1.9-0.2-2.9-0.2c-2,0-3.8,0.3-5.4,0.9c-1.6,0.6-3,1.4-4.2,2.5
		c-1.1,1.1-2,2.3-2.7,3.8c-0.6,1.5-0.9,3.1-0.9,4.8c0,1.7,0.3,3.3,1,4.8c0.6,1.5,1.5,2.7,2.7,3.8s2.5,1.9,4,2.5
		c1.5,0.6,3.2,0.9,5,0.9c1,0,1.9,0,2.8-0.1c0.9-0.1,1.7-0.2,2.5-0.4c0.8-0.2,1.5-0.5,2.2-0.8s1.4-0.7,2-1.1c0.1-0.1,0.2-0.2,0.2-0.3
		v-9.6c0-0.2-0.2-0.4-0.4-0.4h-8.6c-0.2,0-0.4,0.2-0.4,0.4v3.8c0,0.2,0.2,0.4,0.4,0.4h3.1v2.7c-0.4,0.2-0.9,0.3-1.4,0.4
		c-0.6,0.1-1.2,0.2-2,0.2c-1,0-1.8-0.2-2.6-0.5c-0.8-0.3-1.5-0.8-2.1-1.4c-0.6-0.6-1-1.3-1.4-2.2s-0.5-1.9-0.5-3.1
		c0-1,0.2-2,0.5-2.8s0.7-1.5,1.3-2.1c0.5-0.6,1.2-1,2-1.4c0.8-0.3,1.7-0.5,2.7-0.5c0.5,0,1,0,1.5,0.1c0.4,0,0.8,0.1,1.2,0.2
		c0.4,0.1,0.8,0.2,1.1,0.4c0.4,0.2,2.2,1.2,2.6,1.4c0.3,0.2,0.5,0.2,0.7-0.1l2.4-3.5c0.1-0.2,0.1-0.4-0.1-0.6
		C23.3,120.9,22.7,120.5,22.1,120.1L22.1,120.1z M43.3,133.4c-0.3-0.4-0.6-0.8-0.9-1c-0.1-0.1-0.2-0.2-0.4-0.3
		c0.5-0.2,0.9-0.5,1.4-0.8c0.6-0.5,1.2-1,1.6-1.6c0.4-0.6,0.8-1.2,1-1.9c0.2-0.7,0.3-1.4,0.3-2.2c0-1-0.2-2-0.6-2.8
		c-0.4-0.9-1-1.7-1.8-2.3c-0.8-0.6-1.9-1.1-3.2-1.5c-1.3-0.3-2.8-0.5-4.6-0.5h-7.8c-0.2,0-0.4,0.2-0.4,0.4v22.6
		c0,0.2,0.2,0.4,0.4,0.4H34c0.2,0,0.4-0.2,0.4-0.4v-8h1c0.4,0,0.7,0.1,0.8,0.1c0.2,0.1,0.3,0.2,0.5,0.5l4,6.6
		c0.5,0.8,1.3,1.2,2.4,1.2h5.1c0.2,0,0.4-0.2,0.4-0.4c0-0.1-0.1-0.2-0.1-0.3L43.3,133.4z M39.8,127.2c-0.1,0.4-0.3,0.7-0.6,1
		c-0.3,0.3-0.7,0.5-1.2,0.7c-0.5,0.2-1.1,0.2-1.8,0.2h-1.8v-5.9h1.8c1.3,0,2.3,0.3,2.9,0.7c0.6,0.5,0.9,1.1,0.9,2
		C40,126.4,40,126.9,39.8,127.2z M71.4,118.5h-5.6c-0.2,0-0.4,0.2-0.4,0.4v13.4c0,0.7-0.1,1.4-0.3,2c-0.2,0.6-0.5,1.1-0.8,1.4
		c-0.4,0.4-0.8,0.7-1.3,0.9c-1.1,0.4-2.6,0.4-3.7,0c-0.5-0.2-1-0.5-1.3-0.9c-0.4-0.4-0.6-0.9-0.8-1.5c-0.2-0.6-0.3-1.3-0.3-2v-13.4
		c0-0.2-0.2-0.4-0.4-0.4h-5.6c-0.2,0-0.4,0.2-0.4,0.4v13.4c0,1.4,0.3,2.8,0.7,4c0.5,1.2,1.2,2.3,2.2,3.1c0.9,0.9,2.1,1.6,3.4,2
		c1.3,0.5,2.8,0.7,4.5,0.7c1.6,0,3.1-0.2,4.5-0.7c1.3-0.5,2.5-1.2,3.4-2s1.7-1.9,2.2-3.1s0.8-2.5,0.8-4v-13.4
		C71.8,118.7,71.7,118.5,71.4,118.5L71.4,118.5z M97.7,118.5h-4.9c-0.2,0-0.4,0.2-0.4,0.4v12c0,0.4,0,0.7,0,1.1l-10.6-12.6
		c-0.2-0.2-0.3-0.3-0.5-0.5c-0.2-0.1-0.3-0.2-0.5-0.3c-0.2-0.1-0.4-0.1-0.6-0.1c-0.2,0-0.4,0-0.7,0h-2.9c-0.2,0-0.4,0.2-0.4,0.4
		v22.6c0,0.2,0.2,0.4,0.4,0.4h4.9c0.2,0,0.4-0.2,0.4-0.4v-12.1c0-0.3,0-0.6,0-1l10.5,12.5c0.3,0.4,0.7,0.7,1,0.8
		c0.3,0.1,0.8,0.2,1.3,0.2h2.9c0.2,0,0.4-0.2,0.4-0.4v-22.6C98.2,118.7,98,118.5,97.7,118.5L97.7,118.5z M120.8,118.5h-19.1
		c-0.2,0-0.4,0.2-0.4,0.4v4.2c0,0.2,0.2,0.4,0.4,0.4h6.4v18c0,0.2,0.2,0.4,0.4,0.4h5.6c0.2,0,0.4-0.2,0.4-0.4v-18h6.4
		c0.2,0,0.4-0.2,0.4-0.4v-4.2C121.3,118.7,121.1,118.5,120.8,118.5L120.8,118.5z"/>
</g>
</svg>
