<?xml version="1.0" encoding="utf-8"?>
<!-- Generator: Adobe Illustrator 22.0.1, SVG Export Plug-In . SVG Version: 6.00 Build 0)  -->
<svg version="1.1" id="Layer_1" xmlns="http://www.w3.org/2000/svg" xmlns:xlink="http://www.w3.org/1999/xlink" x="0px" y="0px"
	 viewBox="0 0 166 98.1" style="enable-background:new 0 0 166 98.1;" xml:space="preserve">
<style type="text/css">
	.st0{fill:#C1CD25;}
	.st1{fill:#3F8034;}
</style>
<g>
	<path class="st0" d="M96,41c-6.8-3.4-6.6-16.9,3.2-23.1c4-2.5,8.4-3.5,13-3c12.3,1.1,23.3-1.2,31.8-12.2
		c2.7,11.5,4.8,22.1,0.7,32.8c-3.1,8.2-9.5,12-18,12c-8.1,0-16.2-0.6-24.3-1c1.9-0.5,3.8-1.2,5.7-1.4c11.5-1.7,20.7-7.2,27.4-16.7
		c0.6-0.8,1.9-1.7,0.7-3.1c-1.6,0.6-2.5,2-3.6,3.1c-6.9,6.6-15,10.3-24.5,11.1C104,39.7,99.9,39.8,96,41z"/>
	<path class="st1" d="M155.8,83.8c-10.4,5.4-17.7,4.5-22.5-2.4c-5-7.1-3.9-18.2,2.2-23.8c5.8-5.3,13-5,20.2,1
		c0.7-2.5,1.5-5.1,4.8-4.5c3.1,0.5,3.2,3.1,3.2,5.6c-0.1,7.1,0,14.1,0,21.2c-0.1,9.5-4.5,14.5-13.9,15.8c-5.4,0.8-10.6-0.3-15.6-2.4
		c-2-0.9-3.1-2.2-2.3-4.4c1-2.5,3-2.4,5-1.5c3.4,1.7,7,2.6,10.8,2.2C151.3,90.1,154,88.5,155.8,83.8z M138,70.7
		c-0.1,5.8,3.7,10.2,8.7,10.3c5.2,0.1,9.4-4.4,9.4-10.2c0-5.8-4.2-10.5-9.3-10.4C141.8,60.5,138.1,64.8,138,70.7z"/>
	<path class="st1" d="M37.3,58.7c7.7-6.2,15.2-6.2,20.9-0.6c5.7,5.7,6.3,17.6,1.2,24c-5.5,6.7-12.9,7.2-22.4,1.2c0,3.3,0,6.3,0,9.3
		c0,2.7-0.9,4.5-3.8,4.5c-2.9,0-3.7-2-3.7-4.6c0-10.9,0-21.8,0-32.7c0-2.5,0-5.1,3.1-5.6C35.5,53.6,36.7,55.7,37.3,58.7z M55.2,70.8
		c0-5.8-3.8-10-9-10.1c-5.4-0.1-9.4,4.3-9.4,10.1c0,5.7,4.2,10.3,9.4,10.2C51.4,80.9,55.2,76.5,55.2,70.8z"/>
	<path class="st1" d="M106.5,58.1c4.2-4.1,8.9-5.2,13.9-3.4c5.1,1.8,7,6,7.1,11c0.2,5.7,0.1,11.5,0,17.2c0,2.5-0.7,4.6-3.7,4.6
		c-3.1,0-4-2-4-4.8c0.1-4.7,0.1-9.3,0-14c-0.1-4.8-2.3-7.5-6.3-7.6c-4.3-0.2-7,2.2-7.3,7.1c-0.3,4.9-0.2,9.9-0.2,14.8
		c0,2.6-0.8,4.6-3.7,4.6c-2.9,0-3.8-1.8-3.8-4.5c0-7.9,0.1-15.7,0-23.6c0-2.5,0.3-4.7,3.1-5.3C104.3,53.5,105.5,55.5,106.5,58.1z"/>
	<path class="st1" d="M14.4,87.5c-4.1,0-7.9-1.2-11.3-3.3c-1.7-1.1-2.8-2.6-1.6-4.6c1.2-2,3-2,4.8-0.8c2.5,1.6,5.3,2.6,8.2,2.8
		c2.2,0.1,4.6-0.2,5.1-2.8c0.6-2.6-1.8-3.3-3.6-4c-2.5-0.9-5.1-1.6-7.5-2.6c-3.7-1.5-6.1-4.2-6-8.5c0.1-4.2,2.7-7.6,6.8-8.9
		c5.1-1.7,10-0.6,14.6,1.8c1.6,0.8,2.8,2.1,1.9,4.2c-1,2.2-2.8,2.3-4.7,1.5c-2.3-1-4.6-2.1-7.2-2.1c-1.8,0-3.6,0.4-4.2,2.4
		c-0.7,2.2,1.2,3.1,2.8,3.7c2.2,0.9,4.5,1.5,6.8,2.4c5.9,2.3,8.1,5.3,7.4,10.3c-0.7,5.1-4.4,8.2-10.4,8.6
		C15.7,87.5,15,87.5,14.4,87.5z"/>
	<path class="st1" d="M73.2,57.8c2.3-2.1,4.4-3.4,7-3.8c2-0.3,3.8,0.3,4.4,2.5c0.6,2.1,0,4.1-2.4,4.7c-7.6,1.9-9.3,7.5-9.3,14.3
		c0,2.8,0,5.6,0,8.4c0,2.2-1.2,3.5-3.4,3.6c-2.4,0.1-3.9-1.1-4-3.5c-0.1-8.8,0-17.6,0-26.3c0-2.1,1.3-3.3,3.1-3.6
		C71.2,53.7,72.6,55.2,73.2,57.8z"/>
	<path class="st1" d="M95.1,70.7c0,4.1,0,8.3,0,12.4c0,2.7-1.1,4.4-4,4.4c-2.7,0-3.8-1.8-3.8-4.2c0-8.3,0-16.5,0-24.8
		c0-2.6,1.2-4.6,4-4.5c2.6,0.1,3.8,2,3.8,4.7C95,62.7,95.1,66.7,95.1,70.7z"/>
	<path class="st1" d="M96,41c4-1.1,8-1.2,12.1-1.6c9.5-0.8,17.6-4.5,24.5-11.1c1.1-1.1,2-2.5,3.6-3.1c1.2,1.4-0.1,2.2-0.7,3.1
		c-6.8,9.4-15.9,15-27.4,16.7c-1.9,0.3-3.8,1-5.7,1.4c-1.4,0.3-2.8,0.7-4.5,1.1C97.8,45.1,97.9,42.7,96,41z"/>
	<path class="st1" d="M91,49c-2.3-0.1-3.6-1.6-3.6-3.8c0-2.5,1.7-3.9,4.1-3.8c2.3,0.1,3.7,1.7,3.5,4C94.9,47.7,93.5,49,91,49z"/>
</g>
</svg>
