<?xml version="1.0" encoding="utf-8"?>
<!-- Generator: Adobe Illustrator 22.0.1, SVG Export Plug-In . SVG Version: 6.00 Build 0)  -->
<svg version="1.1" id="Layer_1" xmlns="http://www.w3.org/2000/svg" xmlns:xlink="http://www.w3.org/1999/xlink" x="0px" y="0px"
	 viewBox="0 0 134.4 129.7" style="enable-background:new 0 0 134.4 129.7;" xml:space="preserve">
<style type="text/css">
	.st0{fill:url(#SVGID_1_);}
	.st1{fill:url(#SVGID_2_);}
	.st2{fill:#145598;}
	.st3{fill:url(#SVGID_3_);}
	.st4{fill:#3090C2;}
	.st5{fill:#1969BA;}
	.st6{fill:url(#SVGID_4_);}
	.st7{fill:url(#SVGID_5_);}
	.st8{fill:url(#SVGID_6_);}
	.st9{fill:#2B74AF;}
	.st10{fill:#125A9C;}
	.st11{fill:url(#SVGID_7_);}
	.st12{fill:url(#SVGID_8_);}
	.st13{fill:#0D80C8;}
	.st14{fill:url(#SVGID_9_);}
	.st15{fill:#127BC8;}
	.st16{fill:url(#SVGID_10_);}
	.st17{fill:url(#SVGID_11_);}
	.st18{fill:#059FE4;}
	.st19{fill:url(#SVGID_12_);}
	.st20{fill:url(#SVGID_13_);}
	.st21{fill:url(#SVGID_14_);}
	.st22{fill:#0798DF;}
	.st23{fill:#1E5CB1;}
	.st24{fill:#1D60B3;}
	.st25{fill:#175FA9;}
	.st26{fill:url(#SVGID_15_);}
	.st27{fill:#7DC9EA;}
	.st28{fill:#5EC3EB;}
	.st29{fill:url(#SVGID_16_);}
	.st30{fill:url(#SVGID_17_);}
	.st31{fill:url(#SVGID_18_);}
</style>
<g>
	<path d="M31.4,79.2h-1.9V68.3c0-0.9,0.1-1.9,0.2-3.1h0c-0.2,0.7-0.3,1.2-0.5,1.6l-5.5,12.4h-0.9l-5.5-12.3
		c-0.2-0.3-0.3-0.9-0.5-1.6h0c0.1,0.6,0.1,1.7,0.1,3.1v10.8H15V63.1h2.5l4.9,11.2c0.4,0.8,0.6,1.5,0.7,1.9h0.1
		c0.3-0.9,0.6-1.5,0.8-2l5.1-11.2h2.4L31.4,79.2L31.4,79.2z M37.3,79.2h-1.8V67.7h1.8V79.2z M37.6,63.5c0,0.3-0.1,0.6-0.4,0.9
		c-0.2,0.2-0.5,0.3-0.9,0.3c-0.3,0-0.6-0.1-0.8-0.3c-0.2-0.2-0.3-0.5-0.3-0.9c0-0.3,0.1-0.6,0.3-0.8c0.2-0.2,0.5-0.3,0.8-0.3
		c0.3,0,0.6,0.1,0.9,0.3C37.5,62.9,37.6,63.2,37.6,63.5 M48.7,78.6c-0.9,0.5-1.9,0.8-3.2,0.8c-1.7,0-3-0.5-4-1.6
		c-1-1.1-1.5-2.4-1.5-4.1c0-1.9,0.5-3.4,1.6-4.6c1.1-1.2,2.5-1.7,4.4-1.7c1,0,1.9,0.2,2.7,0.6v1.9C47.9,69.3,47,69,46,69
		c-1.2,0-2.1,0.4-2.9,1.2c-0.8,0.8-1.2,2-1.2,3.3c0,1.3,0.4,2.4,1.1,3.2c0.7,0.8,1.7,1.2,2.8,1.2c1,0,1.9-0.3,2.8-1L48.7,78.6
		C48.7,78.6,48.7,78.6,48.7,78.6z M57.5,69.5c-0.3-0.2-0.8-0.4-1.4-0.4c-0.7,0-1.4,0.3-1.9,1c-0.6,0.8-0.9,1.8-0.9,3.1v5.9h-1.8
		V67.7h1.8V70h0c0.3-0.8,0.7-1.5,1.2-1.9c0.5-0.4,1.1-0.6,1.8-0.6c0.5,0,0.9,0.1,1.1,0.2L57.5,69.5C57.5,69.5,57.5,69.5,57.5,69.5z
		 M67.8,73.4c0-1.5-0.3-2.6-1-3.4c-0.6-0.7-1.5-1.1-2.7-1.1c-1.1,0-2.1,0.4-2.8,1.1c-0.7,0.8-1.1,1.9-1.1,3.4c0,1.4,0.3,2.5,1,3.2
		c0.7,0.8,1.6,1.2,2.8,1.2c1.2,0,2.1-0.4,2.8-1.2C67.5,75.9,67.8,74.8,67.8,73.4 M69.7,73.4c0,1.8-0.5,3.3-1.5,4.4
		c-1,1.1-2.4,1.7-4.2,1.7c-1.7,0-3.1-0.6-4.1-1.7c-1-1.1-1.5-2.5-1.5-4.2c0-2,0.6-3.5,1.7-4.6c1-1,2.4-1.5,4.2-1.5
		c1.7,0,3.1,0.5,4,1.6C69.2,70,69.7,71.5,69.7,73.4 M78.8,76.1c0,0.9-0.4,1.7-1.1,2.3c-0.8,0.7-1.8,1-3.2,1c-1.1,0-2-0.2-2.9-0.7v-2
		c0.9,0.7,1.9,1.1,3,1.1c1.5,0,2.2-0.5,2.2-1.6c0-0.4-0.2-0.8-0.5-1.1c-0.3-0.3-1-0.6-1.9-1.1c-1-0.4-1.7-0.9-2.1-1.3
		c-0.5-0.5-0.7-1.2-0.7-2.1c0-1,0.4-1.7,1.1-2.4c0.8-0.6,1.7-1,2.9-1c0.9,0,1.7,0.2,2.5,0.5v1.9c-0.8-0.5-1.6-0.8-2.6-0.8
		c-0.6,0-1.1,0.2-1.5,0.4c-0.4,0.3-0.6,0.7-0.6,1.2c0,0.5,0.2,0.9,0.5,1.2c0.3,0.3,0.9,0.6,1.7,1c1,0.4,1.7,0.8,2.1,1.3
		C78.5,74.5,78.8,75.2,78.8,76.1 M90.1,73.4c0-1.5-0.3-2.6-1-3.4c-0.6-0.7-1.5-1.1-2.7-1.1c-1.1,0-2.1,0.4-2.8,1.1
		c-0.7,0.8-1.1,1.9-1.1,3.4c0,1.4,0.3,2.5,1,3.2c0.7,0.8,1.6,1.2,2.8,1.2c1.2,0,2.1-0.4,2.8-1.2C89.8,75.9,90.1,74.8,90.1,73.4
		 M92,73.4c0,1.8-0.5,3.3-1.6,4.4c-1,1.1-2.4,1.7-4.2,1.7c-1.7,0-3.1-0.6-4.1-1.7c-1-1.1-1.5-2.5-1.5-4.2c0-2,0.6-3.5,1.7-4.6
		c1-1,2.4-1.5,4.2-1.5c1.7,0,3.1,0.5,4,1.6C91.5,70,92,71.5,92,73.4 M100.1,63.8c-0.4-0.2-0.8-0.3-1.2-0.3c-1.3,0-1.9,0.8-1.9,2.4
		v1.8h2.7v1.6h-2.7v9.9h-1.8v-9.9h-2v-1.6h2v-1.9c0-1.3,0.4-2.3,1.2-3c0.7-0.6,1.5-0.9,2.5-0.9c0.6,0,1,0.1,1.3,0.2V63.8z
		 M107.3,79.1c-0.4,0.2-1,0.4-1.7,0.4c-2,0-3-1.1-3-3.4v-6.8h-2v-1.6h2v-2.8c0.6-0.2,1.2-0.4,1.8-0.6v3.4h2.9v1.6h-2.9v6.5
		c0,0.8,0.1,1.3,0.4,1.6c0.3,0.3,0.7,0.5,1.3,0.5c0.5,0,0.9-0.1,1.2-0.4C107.3,77.5,107.3,79.1,107.3,79.1z M7.8,124.1
		c0,0.9-0.3,1.7-1,2.3c-0.6,0.7-1.4,1-2.4,1c-0.9,0-1.7-0.3-2.3-1c-0.6-0.7-0.9-1.4-0.9-2.3c0-0.9,0.3-1.7,0.9-2.4
		c0.6-0.7,1.4-1,2.3-1c0.9,0,1.7,0.3,2.4,1C7.5,122.4,7.8,123.2,7.8,124.1 M49,126.7h-6L21.2,93.1c-0.5-0.8-0.9-1.7-1.3-2.7h-0.2
		c0.2,0.9,0.2,2.8,0.2,5.8v30.5h-5V84.5h6.4l21.2,33.1c0.8,1.3,1.4,2.3,1.7,2.8h0.1c-0.2-1.2-0.3-3.3-0.3-6.2V84.5H49L49,126.7
		C49,126.7,49,126.7,49,126.7z M80.8,126.7H58.4V84.5h21.4V89H63.3V103h15.3v4.5H63.3v14.8h17.4C80.8,122.2,80.8,126.7,80.8,126.7z
		 M114.7,89h-12.2v37.8h-4.9V89H85.4v-4.5h29.3C114.7,84.5,114.7,89,114.7,89z"/>
	<g>
		
			<linearGradient id="SVGID_1_" gradientUnits="userSpaceOnUse" x1="64.5084" y1="346.3217" x2="64.9298" y2="346.3217" gradientTransform="matrix(0 149.735 -149.735 0 51915.6992 -9657.4912)">
			<stop  offset="0" style="stop-color:#0992DA"/>
			<stop  offset="0.35" style="stop-color:#66CCF3"/>
			<stop  offset="0.35" style="stop-color:#66CCF3"/>
			<stop  offset="0.846" style="stop-color:#127BC8"/>
			<stop  offset="0.846" style="stop-color:#127BC8"/>
			<stop  offset="1" style="stop-color:#127BC8"/>
		</linearGradient>
		<path class="st0" d="M47.3,11.5c4.8,14.6,6.6,40.7,20.6,40.7c1.1,0,2.1-0.1,3.2-0.3c-12.7-3-14.2-28.7-22-42.1
			C48.6,10.3,47.9,10.9,47.3,11.5"/>
		
			<linearGradient id="SVGID_2_" gradientUnits="userSpaceOnUse" x1="64.5563" y1="346.3274" x2="64.9787" y2="346.3274" gradientTransform="matrix(0 153.551 -153.551 0 53240.5508 -9912.8662)">
			<stop  offset="0" style="stop-color:#0E76BA"/>
			<stop  offset="0.36" style="stop-color:#36ACE6"/>
			<stop  offset="0.36" style="stop-color:#36ACE6"/>
			<stop  offset="0.846" style="stop-color:#00ABED"/>
			<stop  offset="0.846" style="stop-color:#00ABED"/>
			<stop  offset="1" style="stop-color:#00ABED"/>
		</linearGradient>
		<path class="st1" d="M49.2,9.8c7.7,13.3,9.3,39.1,22,42.1c1-0.2,2-0.5,3-0.8C62.7,45.5,59.6,20.4,50.8,8.4
			C50.2,8.8,49.7,9.3,49.2,9.8"/>
		<path class="st2" d="M60.3,1.8c-1.1,0-2.1,0.1-3.2,0.3c-2.8,0.5-5.7,1.7-8.6,3.6c0.8,0.8,1.5,1.7,2.3,2.6c2.9-2.4,5.9-4.2,8.8-5.3
			c1.1-0.4,2.2-0.7,3.3-0.9C62,1.9,61.2,1.8,60.3,1.8"/>
		
			<linearGradient id="SVGID_3_" gradientUnits="userSpaceOnUse" x1="68.2584" y1="344.707" x2="68.6798" y2="344.707" gradientTransform="matrix(0 -122.178 122.178 0 -42040.9492 8390.2852)">
			<stop  offset="0" style="stop-color:#1C63B5"/>
			<stop  offset="0.5" style="stop-color:#33BBF0"/>
			<stop  offset="1" style="stop-color:#33BBF0;stop-opacity:0.42"/>
		</linearGradient>
		<path class="st3" d="M83,45.9c1.2-0.9,2.3-2,3.5-3.1c-4.9-14.5-6.6-41-20.7-41c-1,0-2,0.1-3,0.3C75.6,5.3,77.3,33.2,83,45.9"/>
		<path class="st4" d="M62.8,2.1c-0.8-0.2-1.6-0.3-2.5-0.3l5.5,0C64.8,1.9,63.8,2,62.8,2.1"/>
		<path class="st5" d="M82.8,49c-0.5-0.5-1.1-1.1-1.6-1.7c-2.4,1.7-4.7,2.9-7.1,3.8c0.8,0.4,1.7,0.7,2.6,0.9
			c0.7,0.1,1.5,0.2,2.2,0.2c2.6,0,4.7-0.3,6.5-1.2C84.5,50.5,83.6,49.8,82.8,49"/>
		
			<linearGradient id="SVGID_4_" gradientUnits="userSpaceOnUse" x1="64.6679" y1="346.3809" x2="65.0904" y2="346.3809" gradientTransform="matrix(0 159.425 -159.425 0 55293.0547 -10316.4346)">
			<stop  offset="0" style="stop-color:#166AB6"/>
			<stop  offset="0.4" style="stop-color:#36ACE6"/>
			<stop  offset="0.4" style="stop-color:#36ACE6"/>
			<stop  offset="0.846" style="stop-color:#0796DB"/>
			<stop  offset="0.846" style="stop-color:#0796DB"/>
			<stop  offset="1" style="stop-color:#0796DB"/>
		</linearGradient>
		<path class="st6" d="M59.5,3.1C71,9.1,72,36.2,81.2,47.3c0.6-0.4,1.2-0.9,1.8-1.4C77.3,33.2,75.6,5.3,62.8,2.1
			C61.7,2.4,60.6,2.7,59.5,3.1"/>
		
			<linearGradient id="SVGID_5_" gradientUnits="userSpaceOnUse" x1="64.7389" y1="346.2993" x2="65.1613" y2="346.2993" gradientTransform="matrix(0 169.528 -169.528 0 58773.4023 -10981.3359)">
			<stop  offset="0" style="stop-color:#124379"/>
			<stop  offset="0.39" style="stop-color:#1485C9"/>
			<stop  offset="0.39" style="stop-color:#1485C9"/>
			<stop  offset="0.78" style="stop-color:#165195"/>
			<stop  offset="0.78" style="stop-color:#165195"/>
			<stop  offset="1" style="stop-color:#165195"/>
		</linearGradient>
		<path class="st7" d="M50.8,8.4c8.8,12.1,11.9,37.1,23.3,42.7c2.3-0.8,4.7-2.1,7.1-3.8C72,36.2,71,9.1,59.5,3.1
			C56.6,4.1,53.7,6,50.8,8.4"/>
		
			<linearGradient id="SVGID_6_" gradientUnits="userSpaceOnUse" x1="1008.2256" y1="2356.7644" x2="1010.7321" y2="2356.7644" gradientTransform="matrix(4.038 0 0 4.038 -4034.5403 -9500.9463)">
			<stop  offset="0" style="stop-color:#33BBF0;stop-opacity:0.698"/>
			<stop  offset="1" style="stop-color:#1DAAD6"/>
		</linearGradient>
		<path class="st8" d="M41.7,11.2c-1.4,3.1-2.8,7.2-4.5,12.6c3.4-4.8,6.8-8.9,10.1-12.2c-0.5-1.4-1-2.7-1.5-3.9
			C44.5,8.7,43.1,9.8,41.7,11.2"/>
		<path class="st9" d="M47.1,6.7c-0.4,0.3-0.8,0.6-1.2,0.9c0.5,1.2,1,2.5,1.5,3.9c0.6-0.6,1.2-1.2,1.8-1.7
			C48.5,8.7,47.8,7.6,47.1,6.7"/>
		<path class="st10" d="M48.5,5.7c-0.5,0.3-1,0.6-1.4,1c0.8,0.9,1.4,2,2.1,3.1c0.5-0.5,1.1-1,1.6-1.4C50.1,7.4,49.3,6.5,48.5,5.7"/>
		
			<linearGradient id="SVGID_7_" gradientUnits="userSpaceOnUse" x1="68.3059" y1="344.2366" x2="68.7283" y2="344.2366" gradientTransform="matrix(0 -119.018 119.018 0 -40857.125 8178.9302)">
			<stop  offset="0" style="stop-color:#136AB2"/>
			<stop  offset="0.6" style="stop-color:#59C8F3;stop-opacity:0.549"/>
			<stop  offset="1" style="stop-color:#59C8F3;stop-opacity:0.235"/>
		</linearGradient>
		<path class="st11" d="M126.8,0.7c-6.5,25-20,45.1-31.4,50.2h0l-0.6,0.3l-0.1,0l-0.2,0.1l-0.1,0l-0.3,0.1l-0.1,0l-0.1,0l-0.1,0
			l-0.1,0l-0.2,0.1l-0.1,0l-0.2,0l-0.1,0l-0.2,0l-0.2,0c0.5,0.2,1,0.3,1.6,0.3c10.8,0,21.6-19.3,39.6-51.4L126.8,0.7
			C126.8,0.7,126.8,0.7,126.8,0.7z"/>
		
			<linearGradient id="SVGID_8_" gradientUnits="userSpaceOnUse" x1="999.3329" y1="2359.738" x2="1008.6299" y2="2359.738" gradientTransform="matrix(4.038 0 0 4.038 -4034.5403 -9500.9463)">
			<stop  offset="0" style="stop-color:#059FE4;stop-opacity:0.247"/>
			<stop  offset="1" style="stop-color:#059FE4"/>
		</linearGradient>
		<path class="st12" d="M34.9,2.9L34.9,2.9L34.9,2.9L34.9,2.9l0.2-0.1l0,0l0,0l0.2-0.1h0l0.4-0.1l0.1,0L36,2.4l0.1,0l0.2-0.1l0.1,0
			L37,2.2l0.1,0l0.2,0l0.1,0l0.2,0h0L37.9,2h0.1l0.2,0l0.1,0l0.2,0l0.1,0l0.4,0c-0.4,0-0.8-0.1-1.1-0.1C25.6,1.8,8.8,24.4,1.3,53.5
			h1.5c2.4-4.3,4.6-8.4,6.6-12.2C14.6,20.7,25.3,6.6,34.9,2.9"/>
		<path class="st13" d="M41.7,11.2c1.4-1.3,2.8-2.5,4.1-3.5c-0.3-0.7-0.6-1.3-1-1.9C43.8,7.1,42.7,8.8,41.7,11.2 M42.7,3
			c0.8,0.7,1.5,1.6,2.2,2.7c0.2-0.3,0.4-0.5,0.6-0.7c-0.9-0.8-1.9-1.5-2.9-2.1L42.7,3L42.7,3"/>
		
			<linearGradient id="SVGID_9_" gradientUnits="userSpaceOnUse" x1="68.2598" y1="345.2993" x2="68.6811" y2="345.2993" gradientTransform="matrix(0 -121.865 121.865 0 -42057.7969 8369.1221)">
			<stop  offset="0" style="stop-color:#318CD3"/>
			<stop  offset="1" style="stop-color:#38A5E2"/>
		</linearGradient>
		<path class="st14" d="M9.3,41.3C20.4,20,25.6,6.5,34.9,2.9C25.3,6.6,14.6,20.7,9.3,41.3"/>
		<path class="st15" d="M45.5,5c-0.2,0.2-0.4,0.5-0.6,0.7c0.3,0.6,0.7,1.2,1,1.9c0.4-0.3,0.8-0.6,1.2-0.9C46.6,6.1,46,5.5,45.5,5"/>
		
			<linearGradient id="SVGID_10_" gradientUnits="userSpaceOnUse" x1="68.3288" y1="345.2527" x2="68.7512" y2="345.2527" gradientTransform="matrix(0 -118.46 118.46 0 -40873.3047 8145.0303)">
			<stop  offset="0" style="stop-color:#059FE4"/>
			<stop  offset="1" style="stop-color:#059FE4;stop-opacity:0.549"/>
		</linearGradient>
		<path class="st16" d="M14.3,53.4l-0.2,0h0l-0.2,0h0l-0.4,0h0c11.2-0.3,16.3-5.9,18.9-14.1c1.9-6.2,3.5-11.4,4.9-15.7
			c-4.7,6.6-9.4,14.5-14.1,23.3C20.8,51.3,17.3,53,14.3,53.4"/>
		
			<linearGradient id="SVGID_11_" gradientUnits="userSpaceOnUse" x1="68.8022" y1="345.1344" x2="69.2244" y2="345.1344" gradientTransform="matrix(0 -100.1 100.1 0 -34519.9297 6940.6138)">
			<stop  offset="0" style="stop-color:#1959A4"/>
			<stop  offset="0.5" style="stop-color:#059FE4"/>
			<stop  offset="0.5" style="stop-color:#059FE4"/>
			<stop  offset="0.918" style="stop-color:#7EC3E8"/>
			<stop  offset="1" style="stop-color:#7EC3E8"/>
		</linearGradient>
		<path class="st17" d="M14.3,53.4c3-0.4,6.5-2.2,8.7-6.4c4.7-8.8,9.5-16.7,14.1-23.3c1.7-5.4,3.1-9.4,4.5-12.6
			C32.4,20,23,34.8,14.3,53.4"/>
		<path class="st18" d="M9.3,41.3c-2,3.8-4.1,7.9-6.6,12.2H7C7.5,49.3,8.3,45.2,9.3,41.3"/>
		
			<linearGradient id="SVGID_12_" gradientUnits="userSpaceOnUse" x1="68.5586" y1="345.6181" x2="68.9799" y2="345.6181" gradientTransform="matrix(-19.1379 -108.5366 108.5366 -19.1379 -36170.5195 14106.1855)">
			<stop  offset="0" style="stop-color:#165094"/>
			<stop  offset="1" style="stop-color:#0D80C8"/>
		</linearGradient>
		<path class="st19" d="M38.5,1.9L38.5,1.9l-0.2,0l-0.1,0l-0.2,0l-0.1,0l-0.4,0.1h0l-0.2,0l-0.1,0l-0.2,0l-0.1,0l-0.6,0.2l-0.1,0
			l-0.2,0.1l-0.1,0l-0.2,0.1l-0.1,0l-0.4,0.1l-0.2,0.1l-0.1,0l-0.2,0.1l-0.1,0C25.6,6.5,20.4,20,9.3,41.3c-1,3.8-1.8,7.9-2.3,12.2
			h0.6l4.1,0h1.9l0.4,0h0l0.2,0h0l0.2,0c8.7-18.6,18-33.4,27.4-42.3c1-2.3,2-4.1,3.1-5.5c-0.6-1.1-1.4-2-2.2-2.7l0,0L42.6,3
			l-0.1-0.1l-0.1-0.1l-0.1-0.1L42,2.7l-0.2-0.1l-0.1,0l-0.2-0.1l-0.1,0l-0.3-0.1h0l-0.3-0.1l-0.1,0l-0.2-0.1l-0.1,0
			c-0.2-0.1-0.4-0.1-0.6-0.1l-0.1,0l-0.3,0l-0.1,0l-0.3,0h-0.1l-0.2,0L38.5,1.9"/>
		
			<linearGradient id="SVGID_13_" gradientUnits="userSpaceOnUse" x1="70.3005" y1="342.8736" x2="70.723" y2="342.8736" gradientTransform="matrix(0 -56.721 56.721 0 -19343.5059 4012.2471)">
			<stop  offset="0" style="stop-color:#059FE4"/>
			<stop  offset="0.874" style="stop-color:#0493D4"/>
			<stop  offset="1" style="stop-color:#0493D4"/>
		</linearGradient>
		<path class="st20" d="M101.4,14.6c-2.1,6.8-3.9,12.4-5.4,17.1c5.8-8,11.6-18.2,17.1-29.8C106.8,3.9,103.4,8.4,101.4,14.6"/>
		
			<linearGradient id="SVGID_14_" gradientUnits="userSpaceOnUse" x1="64.6043" y1="347.2411" x2="65.0257" y2="347.2411" gradientTransform="matrix(-23.0627 130.7953 -130.7953 -23.0627 47023.332 -442.9331)">
			<stop  offset="0" style="stop-color:#38A5E2;stop-opacity:0.329"/>
			<stop  offset="0.962" style="stop-color:#0E86D1"/>
			<stop  offset="0.962" style="stop-color:#0E86D1"/>
			<stop  offset="1" style="stop-color:#0E86D1"/>
		</linearGradient>
		<path class="st21" d="M96.3,50.5c-0.3,0.2-0.6,0.3-0.9,0.4c11.4-5.1,24.9-25.2,31.4-50.2h-1.3C110.6,27.4,105.8,45.2,96.3,50.5"/>
		<path class="st22" d="M88.8,48.3c2.5-3,4.5-8.1,7.2-16.6c-3.2,4.4-6.4,8.1-9.6,11.2l0,0C87.2,44.9,88,46.8,88.8,48.3"/>
		<path class="st5" d="M88.8,48.3c-0.8,1-1.7,1.8-2.7,2.4c-0.2,0.1-0.4,0.2-0.7,0.4c1,0.6,2.2,0.9,3.5,1.1l0.6,0h0l0.3,0h0.9l0.1,0
			l0.2,0h0.1l0.2,0h0l0.1,0l0.2,0h0.1l0.3,0h0l0.5-0.1C91.1,51.4,89.9,50.1,88.8,48.3"/>
		<path class="st23" d="M67.9,52.2c1.1,0,2.1-0.1,3.2-0.3c1-0.2,2-0.5,3-0.8c0.8,0.4,1.7,0.7,2.6,0.9c0.7,0.1,1.5,0.2,2.2,0.2H67.9z
			 M79,52.2c2.6,0,4.7-0.3,6.5-1.2c1,0.6,2.2,0.9,3.5,1.1l0.6,0h0l0.3,0h0.3C90.1,52.2,79,52.2,79,52.2z"/>
		<path class="st24" d="M90.1,52.2h0.6l0.1,0l0.2,0h0.1l0.2,0h0l0.1,0l0.2,0l0.1,0l0.3,0h0l0.5-0.1c0.5,0.2,1,0.3,1.6,0.3L90.1,52.2
			C90.1,52.2,90.1,52.2,90.1,52.2z"/>
		<path class="st25" d="M86.5,42.9L86.5,42.9C85.3,44,84.2,45,83,45.9c-0.6,0.5-1.2,0.9-1.8,1.4c0.5,0.6,1,1.2,1.6,1.7
			c0.8,0.8,1.7,1.5,2.7,2c0.2-0.1,0.4-0.2,0.7-0.4c1-0.6,1.9-1.4,2.7-2.4C88,46.8,87.2,44.9,86.5,42.9"/>
		
			<linearGradient id="SVGID_15_" gradientUnits="userSpaceOnUse" x1="64.2205" y1="346.9811" x2="64.6418" y2="346.9811" gradientTransform="matrix(0 123.742 -123.742 0 43043.2852 -7946.124)">
			<stop  offset="0" style="stop-color:#168AD2"/>
			<stop  offset="0.5" style="stop-color:#1C85CA"/>
			<stop  offset="1" style="stop-color:#154B8B"/>
		</linearGradient>
		<path class="st26" d="M121.3,0.7h-6.6l-1,0.1l-0.5,1c-5.5,11.7-11.2,21.8-17.1,29.8c-2.7,8.5-4.8,13.6-7.2,16.6
			c1.1,1.8,2.3,3.1,3.7,3.6l0.1,0h0l0.1,0l0.2,0l0.1,0l0.2,0l0.1,0l0.2-0.1l0.1,0l0.1,0l0.1,0l0.1,0l0.3-0.1l0.1,0l0.2-0.1l0.1,0
			l0.6-0.3h0c0.3-0.1,0.6-0.3,0.9-0.4c9.5-5.3,14.3-23.1,29.2-49.8L121.3,0.7L121.3,0.7L121.3,0.7z"/>
		<path class="st27" d="M38.8,1.9L38.8,1.9l0.2,0h0.1l0.3,0l0.1,0l0.3,0l0.1,0l0.6,0.1l0.1,0l0.2,0.1l0.1,0l0.3,0.1l0,0l0.3,0.1
			l0.1,0l0.2,0.1l0.1,0L42,2.7l0.1,0.1l0.1,0.1l0.1,0.1L42.6,3c1.1,0.5,2,1.2,2.9,2.1c0.3-0.3,0.7-0.7,1-0.9c-2-1.4-4.2-2.2-6.8-2.2
			C39.4,1.9,39.2,1.9,38.8,1.9"/>
		<path class="st28" d="M45.5,5c0.6,0.5,1.1,1.1,1.6,1.7c0.5-0.3,1-0.7,1.4-1c-0.6-0.6-1.3-1.2-2-1.7C46.2,4.3,45.8,4.7,45.5,5"/>
		<g transform="matrix(5.048 0 0 -5.048 -9064.26 2270.61)">
			
				<linearGradient id="SVGID_16_" gradientUnits="userSpaceOnUse" x1="2154.0217" y1="371.4843" x2="2154.4441" y2="371.4843" gradientTransform="matrix(143.881 -59.6769 -59.6769 -143.881 -285951.2188 182445.25)">
				<stop  offset="0" style="stop-color:#95D4EC"/>
				<stop  offset="0.703" style="stop-color:#55BFE8"/>
				<stop  offset="1" style="stop-color:#55BFE8"/>
			</linearGradient>
			<path class="st29" d="M1803.3,449.4l0.2,0c0.5,0,1-0.2,1.3-0.4c0.4,0.3,0.9,0.4,1.6,0.4h-3.4L1803.3,449.4"/>
		</g>
		<g transform="matrix(5.048 0 0 -5.048 -9064.26 2270.61)">
			
				<linearGradient id="SVGID_17_" gradientUnits="userSpaceOnUse" x1="2154.2378" y1="371.3152" x2="2154.6602" y2="371.3152" gradientTransform="matrix(113.6408 51.5139 51.5139 -113.6408 -262131.5781 -68327.6094)">
				<stop  offset="0" style="stop-color:#7ACAEA"/>
				<stop  offset="1" style="stop-color:#3FB5EB"/>
			</linearGradient>
			<path class="st30" d="M1806.4,449.4c-0.7,0-1.2-0.1-1.6-0.4c0.1-0.1,0.3-0.2,0.4-0.3c0.6,0.4,1.1,0.6,1.7,0.7
				c0.2,0,0.4,0.1,0.6,0.1L1806.4,449.4L1806.4,449.4L1806.4,449.4z"/>
		</g>
		
			<linearGradient id="SVGID_18_" gradientUnits="userSpaceOnUse" x1="64.1469" y1="346.9323" x2="64.5693" y2="346.9323" gradientTransform="matrix(0 121.032 -121.032 0 42089.9961 -7760.4126)">
			<stop  offset="0" style="stop-color:#1DA5E5"/>
			<stop  offset="1" style="stop-color:#37A9E5;stop-opacity:0"/>
		</linearGradient>
		<path class="st31" d="M96.1,31.7c1.5-4.6,3.2-10.3,5.4-17.1c1.9-6.1,5.3-10.7,11.7-12.8l0.5-1c-10.4,0.6-15.3,5.9-17.7,13.8
			c-4.3,13.7-6.9,22.6-9.4,28.3C89.7,39.8,92.9,36,96.1,31.7"/>
	</g>
</g>
</svg>
