<?xml version="1.0" encoding="utf-8"?>
<!-- Generator: Adobe Illustrator 22.0.1, SVG Export Plug-In . SVG Version: 6.00 Build 0)  -->
<svg version="1.1" id="Layer_1" xmlns="http://www.w3.org/2000/svg" xmlns:xlink="http://www.w3.org/1999/xlink" x="0px" y="0px"
	 viewBox="0 0 145.6 128.2" style="enable-background:new 0 0 145.6 128.2;" xml:space="preserve">
<style type="text/css">
	.st0{fill:#24292C;}
	.st1{fill:#F89A18;}
	.st2{fill:#6082A5;}
	.st3{fill:#466E8F;}
	.st4{fill:url(#SVGID_1_);}
	.st5{opacity:0.1;enable-background:new    ;}
	.st6{fill:#F6A818;}
	.st7{fill:#F3901D;}
	.st8{opacity:0.35;fill:#FFFFFF;enable-background:new    ;}
	.st9{fill:#162331;}
	.st10{fill:#F9E8AE;}
	.st11{fill:url(#SVGID_2_);}
	.st12{fill:url(#SVGID_3_);}
	.st13{fill:url(#SVGID_4_);}
</style>
<g transform="translate(0.000000, -1.000000)">
	<g transform="translate(93.816764, 31.937622)">
		<path class="st0" d="M-71.4,89.9v-8.3c0-1.8-0.2-3-0.7-3.7c-0.4-0.6-1.2-1-2.1-1c-0.7,0-1.3,0.2-1.8,0.6c-0.5,0.4-1,0.9-1.2,1.6
			c-0.3,0.7-0.4,1.8-0.4,3.3v7.4h-4V82c0-1.4-0.1-2.4-0.3-3.1c-0.2-0.6-0.5-1.1-1-1.4c-0.4-0.3-0.9-0.4-1.5-0.4
			c-0.7,0-1.3,0.2-1.9,0.6s-1,1-1.2,1.7c-0.3,0.7-0.4,1.9-0.4,3.5v7.1h-4V73.8h4v1.8c0.7-0.8,1.4-1.3,2.3-1.6s1.7-0.5,2.8-0.5
			c1,0,1.9,0.2,2.7,0.8c0.8,0.5,1.5,1.3,2,2.2c0.6-1,1.4-1.7,2.3-2.2c0.9-0.5,2-0.8,3.1-0.8c1.1,0,2.1,0.3,3,0.8
			c0.9,0.5,1.5,1.2,1.9,2.1s0.6,2.2,0.6,4.1v9.5H-71.4L-71.4,89.9L-71.4,89.9z M-49.8,86.1c-0.8,1.3-1.8,2.4-3.1,3.1
			c-1.3,0.8-2.7,1.1-4.3,1.1c-2.3,0-4.3-0.8-5.9-2.5c-1.6-1.6-2.4-3.6-2.4-6c0-2.5,0.9-4.6,2.8-6.3c1.6-1.5,3.5-2.2,5.6-2.2
			c1.5,0,2.9,0.4,4.3,1.1s2.4,1.8,3.1,3.1s1.1,2.7,1.1,4.2C-48.7,83.3-49.1,84.7-49.8,86.1L-49.8,86.1L-49.8,86.1z M-54,78.5
			c-0.8-0.9-1.9-1.3-3.1-1.3s-2.3,0.4-3.1,1.3s-1.3,2-1.3,3.4c0,1.4,0.4,2.5,1.2,3.4c0.8,0.9,1.9,1.3,3.1,1.3c1.3,0,2.3-0.4,3.1-1.3
			c0.8-0.9,1.3-2,1.3-3.4C-52.8,80.5-53.2,79.3-54,78.5L-54,78.5L-54,78.5z M-36.4,89.9v-7.1c0-1.9-0.1-3.1-0.3-3.8
			c-0.2-0.6-0.5-1.1-0.9-1.4c-0.4-0.3-1-0.5-1.6-0.5c-0.8,0-1.5,0.3-2.1,0.8s-1,1.3-1.2,2.3c-0.1,0.5-0.2,1.7-0.2,3.4v6.4h-4V73.8h4
			v1.6c0.9-0.8,1.7-1.3,2.5-1.6c0.8-0.3,1.5-0.4,2.3-0.4c1.6,0,2.9,0.5,4,1.6c0.9,1,1.5,2.4,1.5,4.2v10.6L-36.4,89.9L-36.4,89.9
			L-36.4,89.9z M-15.4,93.6c-1.5,1.7-3.6,2.6-6.6,2.6c-1.6,0-2.9-0.2-4-0.6c-1.1-0.4-2-1-2.7-1.7c-0.8-0.8-1.4-1.7-1.7-2.8h4.6
			c0.4,0.4,0.8,0.8,1.5,1c0.6,0.2,1.4,0.3,2.2,0.3c1.1,0,1.9-0.2,2.6-0.5c0.6-0.3,1.1-0.8,1.4-1.3c0.3-0.5,0.4-1.4,0.4-2.7
			c-0.7,0.7-1.5,1.2-2.3,1.5s-1.6,0.5-2.6,0.5c-2.2,0-4-0.8-5.5-2.4c-1.5-1.5-2.2-3.5-2.2-5.8c0-2.5,0.7-4.6,2.3-6.2
			c1.4-1.4,3.1-2.1,5.1-2.1c0.9,0,1.8,0.2,2.7,0.5c0.8,0.3,1.6,0.9,2.5,1.7v-1.8h4v13.8C-13.8,90.2-14.3,92.3-15.4,93.6L-15.4,93.6
			L-15.4,93.6z M-18.9,78.4c-0.8-0.8-1.9-1.3-3.2-1.3c-1.3,0-2.3,0.5-3.1,1.4c-0.8,0.9-1.3,1.9-1.3,3.2c0,1.3,0.5,2.4,1.3,3.2
			c0.9,0.9,1.9,1.3,3.2,1.3c1.3,0,2.3-0.4,3.1-1.3c0.8-0.8,1.2-1.9,1.2-3.3C-17.6,80.3-18,79.3-18.9,78.4L-18.9,78.4L-18.9,78.4z
			 M4,86.1c-0.8,1.3-1.8,2.4-3.1,3.1c-1.3,0.8-2.7,1.1-4.3,1.1c-2.3,0-4.3-0.8-5.9-2.5c-1.6-1.6-2.4-3.6-2.4-6
			c0-2.5,0.9-4.6,2.8-6.3c1.6-1.5,3.5-2.2,5.6-2.2c1.5,0,2.9,0.4,4.3,1.1s2.4,1.8,3.1,3.1c0.8,1.3,1.1,2.7,1.1,4.2
			C5.1,83.3,4.7,84.7,4,86.1L4,86.1L4,86.1z M-0.2,78.5c-0.8-0.9-1.9-1.3-3.1-1.3c-1.3,0-2.3,0.4-3.1,1.3c-0.8,0.9-1.3,2-1.3,3.4
			c0,1.4,0.4,2.5,1.2,3.4c0.8,0.9,1.9,1.3,3.1,1.3c1.3,0,2.3-0.4,3.1-1.3c0.8-0.9,1.3-2,1.3-3.4C1.1,80.5,0.6,79.3-0.2,78.5
			L-0.2,78.5L-0.2,78.5z"/>
		<path class="st1" d="M12.5,90.3c-2.3,0-5.1-0.8-5.1-5.7V66.2h4v17.7c0,1.8,0.8,2.4,1.8,2.4h0.5v3.7C13.8,89.9,13.2,90.3,12.5,90.3
			L12.5,90.3L12.5,90.3z M27.2,89.9v-1.8c-0.8,0.8-1.6,1.4-2.4,1.7c-0.8,0.3-1.7,0.5-2.6,0.5c-2.1,0-3.9-0.8-5.4-2.4s-2.4-3.6-2.4-6
			c0-2.5,0.8-4.5,2.3-6.1c1.5-1.6,3.2-2.4,5.3-2.4c1,0,1.9,0.2,2.7,0.5c0.9,0.4,1.6,0.9,2.4,1.7v-1.8h4v16.1L27.2,89.9L27.2,89.9
			L27.2,89.9z M26.1,78.4c-0.8-0.9-1.9-1.3-3.1-1.3c-1.2,0-2.3,0.4-3.1,1.3c-0.8,0.9-1.3,2.1-1.3,3.4c0,1.4,0.5,2.5,1.3,3.4
			c0.9,0.9,1.9,1.3,3.1,1.3c1.3,0,2.3-0.4,3.1-1.3c0.8-0.9,1.3-2,1.3-3.5C27.4,80.4,26.9,79.3,26.1,78.4L26.1,78.4L26.1,78.4z
			 M48.4,87.9c-1.5,1.6-3.4,2.4-5.4,2.4c-0.9,0-1.7-0.2-2.5-0.5c-0.8-0.3-1.6-0.9-2.4-1.7v1.8h-4V67.7h4v7.9
			c0.7-0.7,1.6-1.3,2.4-1.7s1.7-0.5,2.7-0.5c2.1,0,3.9,0.8,5.3,2.4c1.5,1.6,2.2,3.6,2.2,6.1C50.7,84.3,49.9,86.2,48.4,87.9
			L48.4,87.9L48.4,87.9z M45.5,78.4c-0.8-0.9-1.9-1.3-3.1-1.3c-1.3,0-2.3,0.4-3.1,1.3c-0.8,0.9-1.3,2-1.3,3.4c0,1.4,0.4,2.6,1.3,3.5
			c0.8,0.9,1.9,1.3,3.1,1.3c1.2,0,2.3-0.4,3.1-1.3c0.9-0.9,1.3-2.1,1.3-3.4C46.7,80.5,46.3,79.3,45.5,78.4L45.5,78.4L45.5,78.4z"/>
	</g>
	<g>
		<g transform="translate(12.974659, 125.754386)">
			<path class="st2" d="M68.3-36.9v-2.5h4.3v2.5c0,1.2-0.9,2.1-2.1,2.1C69.3-34.8,68.3-35.8,68.3-36.9L68.3-36.9z"/>
			<path class="st3" d="M56.4-36.9v-2.5h4.3v2.5c0,1.2-0.9,2.1-2.1,2.1C57.4-34.8,56.4-35.8,56.4-36.9L56.4-36.9z"/>
			<path class="st2" d="M44.4-36.9v-2.5h4.3v2.5c0,1.2-0.9,2.1-2.1,2.1C45.4-34.8,44.4-35.8,44.4-36.9L44.4-36.9z"/>
		</g>
		
			<linearGradient id="SVGID_1_" gradientUnits="userSpaceOnUse" x1="2.7617" y1="805.6896" x2="3.4343" y2="805.6896" gradientTransform="matrix(54.1942 0 0 -4.2916 -96.3469 3542.8105)">
			<stop  offset="0" style="stop-color:#6C8DAC"/>
			<stop  offset="0.5" style="stop-color:#193A62"/>
			<stop  offset="1" style="stop-color:#6C8DAC"/>
		</linearGradient>
		<path class="st4" d="M89.8,83.7l-1.9,2.9H55.1l-1.8-2.9H89.8L89.8,83.7z"/>
		<path class="st5" d="M90.7,82.2l-1.9,2.9H54.3l-1.8-2.9H90.7L90.7,82.2z"/>
		<path class="st6" d="M49.8,62.8v-38c0.1-10.5,8.5-19.1,19.3-20.2c0.6-0.1,1-0.5,1.1-0.8c0.3-0.6,0.7-1.3,0.9-1.8
			c0.1-0.3,0.7-0.4,0.9,0c0.2,0.5,0.6,1.2,0.9,1.8C73,4.1,73.3,4.5,74,4.6c10.8,1.1,19.2,9.7,19.3,20.2l0,0v38H49.8L49.8,62.8z"/>
		<path class="st7" d="M82.3,24.9L82.3,24.9v32.9h0.1v0.6c0,1.7,1.3,3,3,3h3.9c1.7,0,3-1.3,3-3v-0.6l0,0V25.4
			C92.3,14.7,83.5,6.1,73.7,5.3c-1.1-0.1-1.8-2.2-1.8-2.2s-0.8,3,1.2,4.5C78.6,11.6,82.3,17.8,82.3,24.9L82.3,24.9z"/>
		<path class="st8" d="M71.5,10.3c9.2,0,16.7,7.5,16.7,16.7c0,9.2-7.5,16.7-16.7,16.7c-9.2,0-16.7-7.5-16.7-16.7
			C54.9,17.8,62.3,10.3,71.5,10.3L71.5,10.3z"/>
		<g transform="translate(10.978558, 31.937622)">
			<path class="st9" d="M73.8,18.8c-2.6,0-3.4,1-3.4,3c0,3.3,4,7.1,4,13.1c0,4.4-2.6,8-8.2,8h-2.6v-5.3h1.1c2.1,0,2.8-1.2,2.8-3.2
				c0-4.4-2.4-8.4-2.4-11.7s1.1-5,5.1-5.8c-4-0.9-5.1-3.5-5.1-6.8c0-3.3,2.4-6,2.4-10.4c0-1.9-1-3.5-3.4-3.5h-2.3V-8
				c6-3.1,11.1,2.4,11.1,6.5c0,5.9-2.5,10.5-2.5,13.8c0,1.9,0.8,2.7,3.4,2.7h1.8v3.9H73.8L73.8,18.8z M59.3-3.9h-2.1
				c-2.4,0-3.4,1.5-3.4,3.5c0,4.4,2.4,7.2,2.4,10.4c0,3.4-1.3,6-5.4,6.8c4,0.9,5.4,2.4,5.4,5.8c0,3.3-2.4,7.3-2.4,11.7
				c0,1.9,0.7,3.2,2.8,3.2h1.1v5.3h-2.6c-5.6,0-8.2-3.6-8.2-8c0-6,4-9.8,4-13.1c0-1.9-0.7-3-3.3-3h-2.1v-4h2.1
				c2.6,0,3.3-0.8,3.3-2.7c0-3.3-2.5-7.9-2.5-13.8c0-4,4.9-9.5,10.9-6.6V-3.9L59.3-3.9z"/>
		</g>
		<path class="st10" d="M65,6.3c-6.6,3.8-11,10.6-11.1,18.4l0,0v35.5v0.3c0,0.5-0.3,0.8-0.8,0.8h-1c-0.5,0-0.9-0.4-0.9-0.9v-0.2
			V25.2C51.2,16.6,56.9,9.3,65,6.3"/>
		
			<linearGradient id="SVGID_2_" gradientUnits="userSpaceOnUse" x1="2.6272" y1="796.8231" x2="3.2998" y2="796.8231" gradientTransform="matrix(68.2667 0 0 -32.6363 -130.7963 26079.1406)">
			<stop  offset="0" style="stop-color:#8EB8D6"/>
			<stop  offset="0.1533" style="stop-color:#739ABE"/>
			<stop  offset="0.4872" style="stop-color:#245180"/>
			<stop  offset="0.5" style="stop-color:#214E80"/>
			<stop  offset="0.5128" style="stop-color:#245180"/>
			<stop  offset="0.8467" style="stop-color:#739ABE"/>
			<stop  offset="1" style="stop-color:#8EB8D6"/>
		</linearGradient>
		<path class="st11" d="M92.7,65.3c-0.2,0.7-0.3,1.5-0.3,2.1c0,0,0,0,0,0.1v15.1c0,1.2-0.9,2.1-2.1,2.1H52.8c-1.2,0-2.1-0.9-2.1-2.1
			V67.5c0,0,0,0,0-0.1c-0.1-0.7-0.1-1.4-0.3-2.1c-0.5-1.5-1.8-2.5-1.8-2.5h45.9C94.5,62.8,93.3,63.8,92.7,65.3L92.7,65.3z"/>
		
			<linearGradient id="SVGID_3_" gradientUnits="userSpaceOnUse" x1="3.3152" y1="801.2908" x2="3.9879" y2="801.2908" gradientTransform="matrix(24.2526 0 0 -6.3875 -4.3932 5188.7642)">
			<stop  offset="0" style="stop-color:#598EC6"/>
			<stop  offset="1" style="stop-color:#AED0E7"/>
		</linearGradient>
		<path class="st12" d="M92.3,72.6H78.2c-1.2,0-2.1-0.9-2.1-2.1c0-1.2,0.9-2.1,2.1-2.1h14.2V72.6L92.3,72.6z"/>
		
			<linearGradient id="SVGID_4_" gradientUnits="userSpaceOnUse" x1="4.4958" y1="801.2908" x2="3.8231" y2="801.2908" gradientTransform="matrix(24.2526 0 0 -6.3875 -42.0197 5188.7642)">
			<stop  offset="0" style="stop-color:#598EC6"/>
			<stop  offset="1" style="stop-color:#AED0E7"/>
		</linearGradient>
		<path class="st13" d="M50.7,68.3h14.2c1.2,0,2.1,0.9,2.1,2.1c0,1.2-0.9,2.1-2.1,2.1H50.7V68.3L50.7,68.3z"/>
	</g>
</g>
</svg>
