<?xml version="1.0" encoding="utf-8"?>
<!-- Generator: Adobe Illustrator 22.0.1, SVG Export Plug-In . SVG Version: 6.00 Build 0)  -->
<svg version="1.1" id="Layer_1" xmlns="http://www.w3.org/2000/svg" xmlns:xlink="http://www.w3.org/1999/xlink" x="0px" y="0px"
	 viewBox="0 0 91.9 126.5" style="enable-background:new 0 0 91.9 126.5;" xml:space="preserve">
<style type="text/css">
	.st0{fill:#E4C533;}
	.st1{fill:#FAD925;}
	.st2{fill:#E3C225;}
</style>
<g>
	<g>
		<path class="st0" d="M46,23.7c14.2,0,28.3,0,42.5,0c1.7,0,2.4,0.1,2.2,2.2c-1.4,15.3-2.6,30.5-4,45.8c-1.2,13.9-2.5,27.8-3.6,41.6
			c-0.1,1.2-0.6,1.6-1.7,1.9c-11.4,3.1-22.8,6.3-34.2,9.6c-0.8,0.2-1.6,0.3-2.4,0c-11.3-3.2-22.6-6.4-34-9.5c-1.3-0.4-1.9-0.9-2-2.4
			c-1.4-17-3-34-4.5-51c-1-11.7-2.1-23.4-3-35.2c-0.3-3.6-0.7-3.1,2.8-3.1C18.1,23.7,32.1,23.7,46,23.7z M32.6,91.5
			c-0.2,0.2-0.4,0.4-0.7,0.6c-0.3,0-0.6,0-0.8-0.1c-4.5-1.2-9-2.4-13.6-3.7c-1.4-0.4-2.1-0.3-2,1.4c0.1,2.2,0.1,4.5,0,6.7
			c-0.1,1.4,0.6,1.8,1.7,2.1c7.8,2.1,15.5,4.2,23.3,6.4c1.9,0.5,2.1,0,2.1-1.8c-0.1-16.5,0-33.1,0-49.6c0-3.2,0-6.4,0-9.7
			c0-1.2-0.4-1.6-1.6-1.6c-2.2,0.1-4.5,0.1-6.7,0c-1.3-0.1-1.7,0.4-1.7,1.7c0.1,5.3,0,10.5,0,15.8C32.6,70.3,32.6,80.9,32.6,91.5z
			 M46,74.3c0,13.6,0,27.2,0,40.8c0,1.7,0.2,2.2,2.1,1.7c7.2-2.1,14.4-4,21.6-5.9c5.2-1.4,5.2-1.3,5.8-6.7c0-0.1,0-0.3,0.1-0.4
			c0.5-5.7,1.1-11.3,1.6-17c0.3-3.8,0.6-7.6,0.9-11.4c0.5-6,1.1-11.9,1.6-17.9c0.3-3.6,0.6-7.2,0.9-10.8c0.4-4.3,0.8-8.6,1.2-12.9
			c0.2-1.8-0.3-2.4-2.3-2.4c-10.4,0.1-20.9,0.1-31.3,0c-1.8,0-2.2,0.5-2.2,2.2C46,47.1,46,60.7,46,74.3z"/>
		<path class="st1" d="M46,74.3c0-13.6,0-27.2,0-40.8c0-1.7,0.5-2.3,2.2-2.2c10.4,0.1,20.9,0.1,31.3,0c1.9,0,2.5,0.6,2.3,2.4
			c-0.5,4.3-0.8,8.6-1.2,12.9c-0.3,3.6-0.6,7.2-0.9,10.8c-0.5,6-1.1,11.9-1.6,17.9c-0.3,3.8-0.6,7.6-0.9,11.4
			c-0.5,5.7-1.1,11.3-1.6,17c0,0.1,0,0.3-0.1,0.4c-0.6,5.4-0.6,5.3-5.8,6.7c-7.2,1.9-14.4,3.8-21.6,5.9c-1.9,0.5-2.1,0-2.1-1.7
			C46,101.5,46,87.9,46,74.3z M49.4,61.5c0,5.6,0,11.2,0,16.8c0,2.6,0,2.5,2.6,2.1c3.9-0.6,7.7-1.2,11.6-1.9
			c1.4-0.2,1.9,0.1,1.7,1.6c-0.4,3.1-0.8,6.2-1,9.4c-0.1,1.3-0.7,1.8-1.9,2.1c-3.7,1-7.4,2.1-11.1,3c-1.6,0.4-2,1.1-1.9,2.6
			c0.1,2.2,0.1,4.3,0,6.5c-0.1,1.5,0.4,1.7,1.8,1.3c5.4-1.6,10.7-3.3,16.2-4.4c3.9-0.8,5.7-2.2,5.8-6.5c0.3-8.4,1.4-16.7,2.2-25.1
			c0.2-1.8-0.4-1.9-2-1.7c-4,0.7-8,1.2-12,1.9c-1.7,0.3-2.2-0.2-2.1-1.9c0.1-4.3,0.1-8.5,0-12.8c0-1.7,0.4-2.3,2.2-2.3
			c4.4,0.1,8.8,0,13.2,0.1c1.5,0,2.1-0.4,2.2-1.9c0.1-2.1,0.3-4.2,0.6-6.3c0.2-1.4-0.3-1.8-1.7-1.8c-8.2,0.1-16.4,0.1-24.6,0
			c-1.6,0-1.8,0.6-1.8,1.9C49.4,50,49.4,55.7,49.4,61.5z"/>
		<path class="st2" d="M32.6,91.5c0,0.2,0,0.3,0,0.5c-0.2,0-0.4,0.1-0.6,0.1c0,0-0.1,0-0.1,0C32.1,91.9,32.4,91.7,32.6,91.5z"/>
		<path class="st0" d="M32,92.1c0.2,0,0.4-0.1,0.6-0.1C32.5,92.4,32.3,92.4,32,92.1z"/>
	</g>
	<g>
		<path d="M61.3,1.7c0,1.4,0,2.9,0,4.5c-3.9,0-7.5,0-11.3,0c0,0.7,0,1.2,0,1.9c3.2,0,6.3,0.1,9.5,0c1.5,0,1.9,0.4,1.9,1.9
			c-0.1,2.8,0,5.6,0,8.5c-5.3,0-10.5,0-15.7,0c0-1.4,0-2.8,0-4.3c3.6,0,7.3,0,11.1,0c0-0.7,0.1-1.2,0.1-2c-3.8,0-7.4,0-11.2,0
			c0-3.6,0-7,0-10.5C50.7,1.7,56,1.7,61.3,1.7z"/>
		<path d="M43,1.7c0,5.5,0,11.1,0,16.8c-4,0-7.9,0-11.8,0c0-1.4,0-2.7,0-4.3c2.3,0,4.7,0,7.3,0c0-4.3,0-8.4,0-12.4
			C40,1.7,41.5,1.7,43,1.7z"/>
	</g>
</g>
</svg>
