<?xml version="1.0" encoding="utf-8"?>
<!-- Generator: Adobe Illustrator 22.0.1, SVG Export Plug-In . SVG Version: 6.00 Build 0)  -->
<svg version="1.1" id="Layer_1" xmlns="http://www.w3.org/2000/svg" xmlns:xlink="http://www.w3.org/1999/xlink" x="0px" y="0px"
	 viewBox="0 0 135.9 105.8" style="enable-background:new 0 0 135.9 105.8;" xml:space="preserve">
<style type="text/css">
	.st0{fill:#FF0000;}
	.st1{fill:#EB1019;}
	.st2{fill:#FFFFFF;}
	.st3{fill:#BD101D;stroke:#BD101D;stroke-width:5.232330e-02;}
</style>
<g>
	<path class="st0" d="M121.9,29.6V7H13.4v22.7H4.9V76h125.4V29.6L121.9,29.6L121.9,29.6z"/>
	<path class="st1" d="M2.6,77V27.3h8.5V4.7h113.1v22.7h8.3V77H2.6z M6.1,75.2l122.4,0.1L128,31.9h-8.3V9.2h-104v22.7H7.1L6.3,73.8
		L6.1,75.2L6.1,75.2z"/>
	<path class="st2" d="M19,4.5v10.2l3.9,5.2l11.4-3.9l0-15.4L19,4.5L19,4.5z"/>
	<path class="st3" d="M21.4,56.6L47,62.4l66.8-6.2l0,20.2H21.3L21.4,56.6L21.4,56.6z M97.8,42.2l-7-2.9l-14.5-9.9l-17.3,5.3
		l-37.6-2.8v13.3L45.2,52l68.1-6.1V32.1L97.8,42.2z"/>
	<path class="st2" d="M11.1,23l-4.3,4.5v12.2l6.1,2.6v-7l2.6,2v-4.8l5.9,0l11,16.5l4,1.1l5.5,22.7l2.8,1.2l2,8.3h15.9l-7.6-31.6
		l21.6-14l11.7,9.9l2.9-1.1l1.1,2.9l21.1-1.9l-1.8-4.7L99.6,39L78.1,21.5l-23.4,8.9l-7.2-9.5l10.9-11h10.3l4.1,3.4V9.9h8.1l-2-4.6
		L55.1,1.5l-22,14.1L11.1,23z"/>
	<path d="M21.4,103.3c-1,0.5-3.1,1-5.8,1c-7.1,0-11.4-4.5-11.4-11.2c0-7.3,5.1-11.8,11.9-11.8c2.7,0,4.6,0.6,5.4,1l-0.9,3.2
		c-1.1-0.5-2.5-0.9-4.4-0.9c-4.5,0-7.8,2.8-7.8,8.2c0,4.9,2.9,8,7.8,8c1.7,0,3.4-0.3,4.4-0.8L21.4,103.3L21.4,103.3z M39,95.8
		c0,5.9-4.2,8.6-8.3,8.6c-4.6,0-8.1-3.1-8.1-8.3c0-5.3,3.5-8.5,8.3-8.5C35.8,87.5,39,90.9,39,95.8z M26.9,95.9c0,3.1,1.5,5.5,4,5.5
		c2.3,0,3.9-2.3,3.9-5.5c0-2.5-1.1-5.4-3.9-5.4C28,90.5,26.9,93.2,26.9,95.9L26.9,95.9z M56.2,99.1c0,1.9,0.1,3.5,0.1,4.8h-3.6
		l-0.2-2.4h-0.1c-0.7,1.2-2.3,2.8-5.2,2.8c-2.9,0-5.6-1.8-5.6-7v-9.5h4.1v8.8c0,2.7,0.9,4.4,3,4.4c1.6,0,2.7-1.2,3.1-2.2
		c0.1-0.4,0.2-0.8,0.2-1.3v-9.7h4.1L56.2,99.1L56.2,99.1L56.2,99.1z M71.8,103.5c-0.9,0.4-2.5,0.9-4.6,0.9c-5,0-8.3-3.2-8.3-8.2
		c0-4.8,3.3-8.6,9-8.6c1.5,0,3,0.3,3.9,0.8l-0.7,3c-0.7-0.3-1.6-0.6-3.1-0.6c-3.1,0-5,2.3-4.9,5.2c0,3.3,2.1,5.2,4.9,5.2
		c1.4,0,2.4-0.3,3.2-0.6L71.8,103.5L71.8,103.5z M74.2,80.5h4.1v9.6h0.1c0.5-0.8,1.2-1.4,2-1.9c0.8-0.5,1.8-0.7,2.8-0.7
		c2.7,0,5.6,1.8,5.6,7v9.5h-4.1v-9c0-2.3-0.9-4.1-3.1-4.1c-1.6,0-2.7,1.1-3.1,2.3c-0.1,0.3-0.2,0.8-0.2,1.2v9.6h-4.1V80.5L74.2,80.5
		z M92.7,82c1.8-0.3,4.1-0.5,6.5-0.5c4.2,0,7,0.9,9.1,2.6c2.1,1.8,3.5,4.4,3.5,8.2c0,4-1.4,6.9-3.5,8.9c-2.2,2-5.8,3-10.1,3
		c-2.4,0-4.2-0.1-5.5-0.3V82L92.7,82z M96.7,100.8c0.6,0.1,1.4,0.1,2.2,0.1c5.3,0,8.4-2.9,8.4-8.5c0-4.9-2.8-7.7-7.9-7.7
		c-1.3,0-2.2,0.1-2.8,0.2L96.7,100.8L96.7,100.8z M114.8,82c1.3-0.3,3.6-0.5,5.9-0.5c3,0,4.9,0.4,6.4,1.4c1.4,0.8,2.3,2.3,2.3,4.2
		c0,2-1.3,3.9-3.7,4.8V92c2.3,0.6,4.5,2.4,4.5,5.5c0,2-0.9,3.5-2.1,4.6c-1.6,1.4-4.2,2.1-8.3,2.1c-2.2,0-4-0.2-5-0.3L114.8,82
		L114.8,82z M118.8,90.8h2.1c2.8,0,4.4-1.3,4.4-3.2c0-2.1-1.6-3-4.2-3c-1.2,0-1.9,0.1-2.3,0.2L118.8,90.8L118.8,90.8L118.8,90.8z
		 M118.8,101c0.5,0.1,1.2,0.1,2.1,0.1c2.6,0,4.9-1,4.9-3.7c0-2.6-2.2-3.6-5.1-3.6h-2V101z"/>
</g>
</svg>
