<?xml version="1.0" encoding="utf-8"?>
<!-- Generator: Adobe Illustrator 22.0.1, SVG Export Plug-In . SVG Version: 6.00 Build 0)  -->
<svg version="1.1" id="Layer_1" xmlns="http://www.w3.org/2000/svg" xmlns:xlink="http://www.w3.org/1999/xlink" x="0px" y="0px"
	 viewBox="0 0 204.7 141.4" style="enable-background:new 0 0 204.7 141.4;" xml:space="preserve">
<style type="text/css">
	.st0{fill:#FFFFFF;}
	.st1{fill:#00786E;}
	.st2{clip-path:url(#SVGID_2_);}
	.st3{clip-path:url(#SVGID_4_);}
	.st4{fill:#3C3D42;}
	.st5{font-family:'MyriadPro-Regular';}
	.st6{font-size:23.3039px;}
</style>
<g>
	<circle class="st0" cx="98.1" cy="54.2" r="35"/>
	<g>
		<path class="st1" d="M103.2,106.6c-28.8-0.1-52.6-23.7-52.1-52.2C51.6,24,74.7,1.8,103.7,1.8c29.7,0,52.4,24.9,52,53.1
			C155.3,83.7,132.3,106.6,103.2,106.6z M103.8,30.3c-6.7,0.5-12.5,3.2-15.4,10c-1.6,3.7-3.7,6.3-7.2,8.5
			c-5.4,3.4-6.9,11.7-3.6,17.2c3.4,5.8,10.7,8.3,16.7,5.6c1.6-0.8,4.5-1.2,3.4-4c-1-2.7-3.1-2.3-5.5-1.2c-3.9,1.9-7.2,0.6-9.5-2.9
			c-2-3.1-1.9-6.4,0.6-9.1c2.9-3.2,6.5-4.1,10.4-1.9c3.6,2,6,5.3,8.5,8.5c3,3.9,5.9,8,10.6,10.2c6.7,3.3,14.7,1.1,18.3-5
			c3.8-6.5,2-14.2-4.7-18.2c-2.7-1.6-4.3-3.6-5.5-6.5C118,34.1,112.2,30.5,103.8,30.3z"/>
		<path class="st1" d="M127.5,59.5c-0.1,5.7-6.9,9.5-12.1,6.8c-2.8-1.5-4.8-3.9-6.8-6.4c-3.9-5.1-7.6-10.4-13.8-13.1
			c-2.6-1.2-2.2-3.1-0.9-5c2.5-3.8,6-6,10.5-6c4.5,0,8.1,2.1,10.5,6c1.3,2,2,4-0.9,5.5c-1.5,0.8-3.7,1.5-2.1,4c1.3,2,2.8,1.6,4.8,1
			C122.4,50.5,127.6,54.1,127.5,59.5z"/>
	</g>
	<g>
		<g id="surface1_1_">
			<path class="st1" d="M18.3,138.9h-2.6v-12.4h2.6V138.9z M18.3,124.6h-2.6v-2.5h2.6V124.6"/>
			<g>
				<defs>
					<rect id="SVGID_1_" x="20.1" y="126.4" width="13.1" height="12.7"/>
				</defs>
				<clipPath id="SVGID_2_">
					<use xlink:href="#SVGID_1_"  style="overflow:visible;"/>
				</clipPath>
				<g class="st2">
					<path class="st1" d="M33.2,126.5l-3.6,10.7c-0.6,1.7-1.7,2-2.6,2c-1.3,0-2.1-0.6-2.6-2l-3-8.9h-1.2v-1.8h3.1l3.1,10
						c0.1,0.4,0.2,0.7,0.6,0.7c0.4,0,0.5-0.3,0.6-0.7l3.2-10H33.2"/>
				</g>
			</g>
			<g>
				<defs>
					<rect id="SVGID_3_" x="33.8" y="126.4" width="11.4" height="12.7"/>
				</defs>
				<clipPath id="SVGID_4_">
					<use xlink:href="#SVGID_3_"  style="overflow:visible;"/>
				</clipPath>
				<g class="st3">
					<path class="st1" d="M39.5,137.1c2,0,3.2-1.5,3.2-3.3v-1.9c0-1.8-1.2-3.3-3.2-3.3c-2.1,0-3.2,1.5-3.2,3.3v1.9
						C36.3,135.6,37.5,137.1,39.5,137.1 M39.5,126.5c3.3,0,5.7,2.2,5.7,5.4v1.9c0,3.2-2.3,5.4-5.7,5.4c-3.3,0-5.7-2.2-5.7-5.4v-1.9
						C33.9,128.7,36.2,126.5,39.5,126.5"/>
				</g>
			</g>
			<path class="st1" d="M65.8,126.9c-1.3-0.3-3.3-0.6-4.8-0.6c-3.4,0-5.5,2.1-5.5,5.6v1.4c0,3.4,2.1,5.6,5.5,5.6c0.1,0,0.7,0,1,0
				v-2.1c-0.1,0-0.9,0-1,0c-1.8,0-3.1-1.4-3.1-3.5v-1.4c0-2.1,1.2-3.5,3.1-3.5c0.8,0,2.1,0.1,2.5,0.2l0.1,0l0,10.3h2.6v-11.6
				C66.3,127.1,66.3,127,65.8,126.9"/>
			<path class="st1" d="M71.4,138.9h-2.6v-16.7h2.6V138.9"/>
			<path class="st1" d="M6.7,122.1H2.2v16.7h2.7v-14.4h1.6c0.3,0,0.6,0,0.9,0c2.3,0,3.5,1,3.5,2.8c0,0.1,0,0.1,0,0.2
				c0,1.7-0.9,2.8-3.5,2.8c-0.2,0-0.5,0-0.7,0c0,0.6,0,1.8,0,2.2c0.3,0,0.5,0,0.8,0c3.6,0,6.2-1.4,6.2-5c0-0.1,0-0.1,0-0.2
				C13.6,123.5,10.8,122.1,6.7,122.1"/>
			<path class="st1" d="M49.8,123.8v2.7H54v2h-4.2v7.2c0,1.1,0.7,1.2,1.8,1.2H54v2h-3.3c-2.4,0-3.5-1-3.5-3.2v-11.5L49.8,123.8"/>
		</g>
		<text transform="matrix(1 0 0 1 76.4586 139.2876)" class="st4 st5 st6">Web Services</text>
	</g>
</g>
</svg>
