<?xml version="1.0" encoding="utf-8"?>
<!-- Generator: Adobe Illustrator 22.0.1, SVG Export Plug-In . SVG Version: 6.00 Build 0)  -->
<svg version="1.1" id="Layer_1" xmlns="http://www.w3.org/2000/svg" xmlns:xlink="http://www.w3.org/1999/xlink" x="0px" y="0px"
	 viewBox="0 0 189.2 130.2" style="enable-background:new 0 0 189.2 130.2;" xml:space="preserve">
<style type="text/css">
	.st0{fill:none;}
	.st1{fill:#8A4182;}
</style>
<g>
	<path class="st0" d="M70.9,57.4h38.6V68H70.9V57.4z"/>
	<g>
		<path class="st1" d="M7.8,118.1c0,2,1.3,4,3.5,4c1.4,0,2.3-0.6,3-1.8c0.6-1.1,0.6-2.8,0.6-4.1v-16.2h-3.5V95h13.1v5.1h-3.5v17
			c0,2.9-0.2,5.1-2.2,7.5c-1.8,2.1-4.7,3.3-7.5,3.3c-5.8,0-10.2-3.8-10-9.7L7.8,118.1 M45.1,115c0-4-3.3-7.2-7.3-7.2
			c-4.1,0-7.3,3.4-7.3,7.5c0,3.9,3.3,7.2,7.2,7.2C41.9,122.5,45.1,119.1,45.1,115L45.1,115z M45,124c-1.8,2.7-4.6,3.9-7.8,3.9
			c-6.9,0-12.4-5.7-12.4-12.6c0-7,5.6-12.8,12.6-12.8c3.1,0,5.8,1.4,7.5,4.1v-3.4h8.6v5.1h-3v13.8h3v5.1H45V124 M60.9,120.2
			c0.2,2.2,1.6,3.6,3.9,3.6c1.7,0,3.3-1.2,3.3-3c0-2.4-2.3-2.8-4.1-3.3c-4.2-1.1-8.8-2.4-8.8-7.7c0-4.6,3.9-7.3,8.2-7.3
			c2.2,0,4.1,0.5,5.5,2.2v-1.7h4.1v6.5h-5.3c-0.1-1.7-1.4-2.8-3.1-2.8c-1.5,0-3.1,0.9-3.1,2.5c0,2.3,2.2,2.8,4,3.2
			c4.3,1,9,2.3,9,7.8c0,4.9-4.1,7.6-8.6,7.6c-2.4,0-4.7-0.8-6.2-2.6v2h-4.2v-7L60.9,120.2 M78.9,108.2h-3.1v-5.1H84v3.6
			c1.5-2.5,3.9-4.2,7-4.2c3.3,0,6.1,2,7.5,5.1c1.3-3.1,4.6-5.1,7.9-5.1c2.6,0,5.2,1.1,7,3.1c1.9,2.2,1.9,4.6,1.9,7.4v9.1h3.1v5.1
			h-11.7v-5.1h3.1v-7.8c0-1.6,0-3-0.7-4.4c-0.9-1.3-2.4-2-3.9-2c-1.5,0-3.1,0.6-4.1,1.8c-1.1,1.4-1.1,2.8-1.1,4.6v7.8h3.1v5.1H91.2
			v-5.1h3.1v-7.4c0-1.4,0-3.3-0.7-4.5c-0.8-1.4-2.3-2.2-4-2.2c-1.5,0-2.8,0.5-3.8,1.8c-1.2,1.5-1.3,3.1-1.3,4.9v7.5h3.1v5.1H75.8
			v-5.1h3.1L78.9,108.2 M128.7,100.8h-5.5V95h5.5V100.8z M128.7,122.1h3.1v5.1H120v-5.1h3.2v-13.8h-3.1v-5.1h8.6L128.7,122.1
			 M136.6,108.2h-3.1v-5.1h8.6v3.4c1.4-2.7,4.2-4,7.1-4c2.6,0,5.2,1.1,7,3c2,2.2,2,4.3,2,7.1v9.4h3.1v5.1h-11.7v-5.1h3.1v-7.8
			c0-1.5,0-3-0.9-4.3c-1-1.3-2.6-1.9-4.2-1.9c-1.7,0-3.4,0.7-4.4,2c-1,1.4-1,3.4-1,5.1v7h3.1v5.1h-11.7v-5.1h3.1L136.6,108.2
			 M182.1,113c-0.9-3.5-4-5.7-7.6-5.7c-3.3,0-6.4,2.5-7,5.7H182.1z M186.3,120.1c-1.9,4.6-6.4,7.7-11.4,7.7c-7,0-12.7-5.5-12.7-12.6
			c0-7.1,5.4-12.9,12.6-12.9c3.3,0,6.7,1.5,9,3.9c2.4,2.5,3.4,5.6,3.4,9l-0.2,1.9h-19.5c0.7,3.3,3.8,5.8,7.2,5.8
			c2.4,0,4.5-0.9,5.8-2.9L186.3,120.1"/>
		<g>
			<polyline class="st1" points="97.1,37.2 103.8,37.2 105.5,34.9 105.5,16.8 95.4,16.8 95.4,34.9 97.1,37.2 			"/>
			<polyline class="st1" points="92.7,45.3 94.8,38.9 93.1,36.6 75.9,31 72.8,40.6 90,46.2 92.7,45.3 			"/>
			<polyline class="st1" points="99,51.9 93.6,47.9 90.9,48.8 80.2,63.5 88.4,69.4 99,54.8 99,51.9 			"/>
			<polyline class="st1" points="107.3,47.9 101.8,51.9 101.8,54.8 112.5,69.4 120.6,63.5 110,48.8 107.3,47.9 			"/>
			<polyline class="st1" points="106.1,38.9 108.2,45.3 110.9,46.2 128.1,40.6 124.9,31 107.7,36.6 106.1,38.9 			"/>
			<path class="st1" d="M100.4,1.1c-24,0-43.6,19.5-43.6,43.6c0,24,19.5,43.6,43.6,43.6c24,0,43.6-19.5,43.6-43.6
				C144,20.7,124.5,1.1,100.4,1.1L100.4,1.1z M100.4,10c19.2,0,34.7,15.6,34.7,34.7c0,19.2-15.6,34.8-34.7,34.8
				c-19.2,0-34.8-15.6-34.8-34.8C65.7,25.5,81.2,10,100.4,10"/>
			<path class="st1" d="M126.8,54.4l-13.1-4.2l0.9-2.7l13.1,4.2L126.8,54.4 M110.1,33.4l-2.3-1.6l8.1-11.1l2.3,1.6L110.1,33.4
				 M90.8,33.3l-8.1-11.1l2.3-1.6l8.1,11.1L90.8,33.3 M74,54.2l-0.9-2.7l13.1-4.2l0.9,2.7L74,54.2 M98.9,72.5h2.8V58.7h-2.8V72.5z"
				/>
		</g>
	</g>
</g>
</svg>
