<?xml version="1.0" encoding="utf-8"?>
<!-- Generator: Adobe Illustrator 22.0.1, SVG Export Plug-In . SVG Version: 6.00 Build 0)  -->
<svg version="1.1" id="Layer_1" xmlns="http://www.w3.org/2000/svg" xmlns:xlink="http://www.w3.org/1999/xlink" x="0px" y="0px"
	 viewBox="0 0 203.9 110.7" style="enable-background:new 0 0 203.9 110.7;" xml:space="preserve">
<style type="text/css">
	.st0{fill:#CDA01B;}
	.st1{fill:#FFD876;}
	.st2{fill:#010202;}
</style>
<g>
	<g transform="matrix(1.30278 0 0 1.30278 39.841362 -.517003)">
		<path class="st0" d="M22.5,37.5c0.9,1.2,1.9,2.3,3,3.3c-3.2,1-5.3,2.7-6.6,4.3c-2.1,2.5-3.1,5.8-2.9,8.6h-5.5
			C11.7,51.3,16.1,44.4,22.5,37.5L22.5,37.5z M85.9,55.2h-6.6c-15.3-8-28.7-13.6-42.9-14.8c0-2,0.4-4.2,1.1-6.7l-1.3-0.3
			c-0.7,2.6-1.1,4.9-1.1,7c-1.5-0.1-3-0.1-4.5-0.1c-1.2,0-2.3,0.1-3.5,0.3c-1.3-1.3-2.4-2.6-3.6-4c6.5-6.8,17.4-13,26.8-15.3
			C52.9,30,58.6,36,65.5,40.1c0.5-0.3,1-0.6,1.5-0.9l12,13l0.5,0c3.3-0.3,5.1,1.5,5.6,2.1C85.5,54.5,85.7,54.9,85.9,55.2L85.9,55.2z
			"/>
		<path class="st1" d="M80,11.8c0.2,12-5.9,21.5-14.4,26.4C51.1,31,48.4,12.7,50.9,2.9c0.7,3.8,1.9,6.1,4.6,7.3
			c5.9-1.7,14-1.8,19.9-0.2c2.5-1.8,3.4-4.6,4-7C80.1,5.8,80,11.8,80,11.8L80,11.8z"/>
		<g>
			<path class="st2" d="M43.5,23.2l2.2,6.6L39,25.2L43.5,23.2z M37.1,26l2.4,4.1l-5-2.5L37.1,26z M31.7,29.2l1.1,4.1L29.4,31
				L31.7,29.2z M68.3,40.2l-2.1,3.3l3.8-1.7L68.3,40.2z M71.7,44l-3.4,2.6l4.8-1.2L71.7,44z M63.3,8.4l2.5,5.6l1.6-5.6L63.3,8.4z
				 M50.4,16.5l4,2.1l-3.6,0.2L50.4,16.5z M51.4,20.9l2.5,1l-2.1,0.6L51.4,20.9z M80.1,18.1l-3.3,1.4l2.7,0.4L80.1,18.1z M78.8,22.1
				l-2.5,0.7l2,0.7L78.8,22.1z M49.1,28.2H57v1h-7.9V28.2z M49.1,25.9H57v1h-7.9V25.9z M73.3,28.2h7.9v1h-7.9V28.2z M73.3,25.9h7.9
				v1h-7.9V25.9z M70.5,20.1H57.6v-0.9h4c0.5-2.1,0.6-4.1,0-5.1c-0.2-0.4-0.6-0.6-1.1-0.6c-2.3,0-3.2,2.4-3.3,2.5l-0.8-0.3
				c0-0.1,1.2-3.1,4.1-3.1c0.8,0,1.5,0.4,1.9,1.1c0.7,1.3,0.6,3.4,0.1,5.6h7c0.9-2.8,2.9-4,6.1-4v0.9c-3.5,0-4.5,1.5-5.2,3.2h3.8
				v0.9L70.5,20.1z"/>
			<path class="st2" d="M71,24.5c-1-1.5-1.4-2.9-0.9-4.4h-0.9c-0.3,1-0.2,2.5,0.6,3.8h-9c0.6-1.2,1.1-2.5,1.4-3.8h-0.9
				c-0.4,1.5-1,2.9-1.6,4l-0.2,0.4l5,3.1l-2.8,1.9l0.5,0.7l3.1-2.1l3.4,2.2l0.5-0.7l-3.1-1.9C67.8,26.6,69.4,25.5,71,24.5L71,24.5z
				 M65.4,27.1l-3.7-2.3h7.3L65.4,27.1z M81.5,10.8c0-1.5-0.5-8-1.4-9.8c-2.4,0.9-6.7,3.8-7.7,6.8C67.6,7.2,62.7,7.2,57.9,8
				c-0.7-3.2-4.6-5.7-7.6-7.1c-1.2,2.1-1.8,6.9-1.6,10.3h0c0.5,14.4,7.6,23.3,16.8,28.8C74.9,34.6,81.7,24,81.5,10.8L81.5,10.8z
				 M73.6,8C73.6,8,73.7,8,73.6,8C73.6,8,73.6,8,73.6,8z M73,7.9c0.1,0,0.2,0,0.2,0C73.2,7.9,73.1,7.9,73,7.9z M80,11.8
				c0.2,12-5.9,21.5-14.4,26.4C51.1,31,48.4,12.7,50.9,2.8c0.7,3.8,1.9,6.1,4.6,7.3c5.9-1.7,14-1.8,19.9-0.2c2.5-1.8,3.4-4.6,4-7
				C80.1,5.7,80,11.8,80,11.8L80,11.8z"/>
			<path class="st2" d="M86.2,53.2c-1.5-1.7-4.4-2.5-6.8-2.4c-1.7-2.1-11.8-12.6-11.8-12.6l-0.7,0.9l12.1,13l0.5,0
				c3.3-0.2,5.1,1.5,5.6,2.1c0.3,0.3,0.5,0.7,0.7,1.1h-6.6c-15.3-8-28.7-13.6-42.9-14.8c0-2,0.4-4.2,1.1-6.7l-1.3-0.3
				c-0.7,2.6-1.1,4.9-1.1,7c-1.5-0.1-3-0.1-4.5-0.1c-1.2,0-2.3,0.1-3.5,0.3c-1.3-1.3-2.5-2.6-3.6-4c6.6-6.9,17.5-13.1,27-15.4
				l-0.3-1.3C40,22.2,28.8,28.9,22.6,35.4c-2.9-3.9-4-7.1-4.4-9.5c-0.4-3.1,0.3-5.9,2.1-8.1c2.8-3.5,6.9-3.8,11-3.1
				c-0.1,0.7,0,1.3,0.2,1.7c1.1,1.6,7,2.2,10.5,0.6c-2.6-3.6-7.8-5.4-9.3-4.7c-0.5,0.2-0.8,0.7-1.1,1.2c-1.4-0.2-2.9-0.4-3.9-0.4
				c-3.6,0-6.4,1.3-8.5,3.9c-2,2.6-2.9,5.7-2.4,9.2c0.5,3.2,2.1,6.7,4.8,10.3l-1.3,1.4C13.8,45.1,9,53,9,54.3V55h8.7l-0.1-0.8
				C17.1,51.6,18,48.4,20,46c1.3-1.5,3.3-3.2,6.6-4.1c2.9,2.9,6.6,5.9,10.8,8.8h6.4V50c0-0.7-0.4-1.4-1.1-1.9c-1-0.7-2.6-0.7-4-0.2
				c-1.4-1.5-2.1-3.6-2.3-6.1c14,1.2,27.4,6.9,42.5,14.8h8.3l0.1-0.5C87.5,55.3,87.1,54.2,86.2,53.2L86.2,53.2z M19,45.1
				c-2,2.5-3.1,5.8-2.9,8.6h-5.5c1.1-2.4,5.5-9.2,12-16.2c0.9,1.1,1.9,2.2,3,3.3C22.9,41.5,20.7,43,19,45.1L19,45.1z"/>
		</g>
	</g>
	<path d="M7.3,96.5l-2.2,6.6H2.3l7.2-21.1h3.3l7.2,21.1H17l-2.2-6.6H7.3z M14.2,94.4l-2.1-6.1c-0.5-1.3-0.7-2.6-1.1-3.9H11l-1.1,3.8
		l-2.1,6.1L14.2,94.4L14.2,94.4z M22.8,93l-0.1-4.9h2.5l0.1,2.6h0.1c1.1-1.8,2.9-2.9,5.4-2.9c3.6,0,6.4,3.1,6.4,7.7
		c0,5.5-3.3,8.1-6.9,8.1c-2,0-3.8-0.9-4.7-2.4h-0.1v8.2h-2.7L22.8,93z M25.6,97c0,0.4,0.1,0.7,0.1,1.1c0.5,2,2.2,3.2,4.1,3.2
		c2.9,0,4.6-2.4,4.6-5.9c0-3-1.6-5.6-4.5-5.6c-1.9,0-3.6,1.3-4.2,3.4c-0.1,0.4-0.2,0.7-0.2,1.1L25.6,97L25.6,97z M49,103.2l-0.2-2
		h-0.1c-0.8,1.2-2.5,2.2-4.7,2.2c-3,0-4.7-2.2-4.7-4.3c0-3.6,3.3-5.7,9.1-5.6v-0.3c0-1.2-0.4-3.5-3.5-3.5c-1.4,0-2.9,0.4-3.9,1.1
		L40.4,89c1.2-0.8,3-1.3,5-1.3c4.7,0,5.7,3.2,5.7,6.2v5.7c0,1.3,0.1,2.6,0.2,3.6L49,103.2z M48.6,95.5c-3-0.1-6.4,0.5-6.4,3.4
		c0,1.8,1.2,2.6,2.6,2.6c2,0,3.2-1.2,3.6-2.5c0.1-0.3,0.2-0.6,0.2-0.9L48.6,95.5z M66.6,102.6c-0.7,0.4-2.3,0.9-4.3,0.9
		c-4.6,0-7.6-3.1-7.6-7.7c0-4.7,3.2-8,8.1-8c1.6,0,3,0.4,3.8,0.7L66,90.6c-0.6-0.4-1.7-0.7-3.2-0.7c-3.5,0-5.3,2.6-5.3,5.7
		c0,3.5,2.2,5.7,5.3,5.7c1.6,0,2.6-0.4,3.4-0.7L66.6,102.6z M69.8,81h2.8v9.4h0.1c0.5-0.8,1.2-1.5,2-2c0.9-0.5,1.8-0.8,2.8-0.8
		c2.1,0,5.3,1.2,5.3,6.5v9h-2.8v-8.6c0-2.5-0.9-4.5-3.5-4.5c-1.8,0-3.2,1.2-3.7,2.8c-0.2,0.4-0.2,0.7-0.2,1.3v9.1h-2.8L69.8,81z
		 M88.6,96.1c0.1,3.8,2.5,5.3,5.2,5.3c1.4,0,2.9-0.2,4.2-0.8l0.5,2c-1,0.4-2.6,0.9-5,0.9c-4.7,0-7.4-3-7.4-7.6
		c0-4.6,2.7-8.1,7.1-8.1c4.9,0,6.3,4.3,6.3,7.2c0,0.6-0.1,1-0.1,1.3H88.6V96.1z M96.7,94.1c0.1-1.8-0.7-4.5-3.8-4.5
		c-2.8,0-4,2.6-4.2,4.5H96.7z M113.7,84.8h-6.4v-2.3h15.6v2.3h-6.4v18.8h-2.8L113.7,84.8z M136.7,95.9c0,5.6-3.9,8-7.6,8
		c-4.1,0-7.3-3-7.3-7.8c0-5,3.3-8,7.5-8C133.7,88.1,136.6,91.3,136.7,95.9L136.7,95.9z M124.6,96.1c0,3.3,2,5.8,4.6,5.8
		s4.6-2.5,4.6-5.9c0-2.6-1.3-5.8-4.5-5.8C126,90.2,124.6,93.2,124.6,96.1L124.6,96.1z M140.1,92.6l-0.1-4.1h2.4l0.1,2.5h0.1
		c0.8-1.5,2.2-2.8,4.8-2.8c1.9,0,3.7,1.2,4.3,3h0.1c0.5-0.8,1.1-1.5,1.7-2c0.9-0.7,2-1.1,3.3-1.1c2,0,5,1.3,5,6.6v8.9h-2.7V95
		c0-2.9-1.1-4.7-3.3-4.7c-1.6,0-2.8,1.2-3.3,2.5c-0.1,0.4-0.2,0.9-0.2,1.3v9.4h-2.7v-9.1c0-2.4-1.1-4.2-3.2-4.2
		c-1.7,0-3,1.3-3.4,2.8c-0.2,0.4-0.2,0.9-0.2,1.3v9.1h-2.6L140.1,92.6z M177,103.1c-0.7,0.4-2.3,0.9-4.3,0.9c-4.6,0-7.6-3.1-7.6-7.7
		c0-4.7,3.2-8,8.1-8c1.6,0,3,0.4,3.8,0.7l-0.6,2.1c-0.6-0.4-1.7-0.7-3.2-0.7c-3.5,0-5.3,2.6-5.3,5.7c0,3.5,2.2,5.7,5.3,5.7
		c1.6,0,2.6-0.4,3.4-0.7L177,103.1z M188.6,103.6l-0.2-2h-0.1c-0.8,1.2-2.5,2.2-4.7,2.2c-3,0-4.7-2.2-4.7-4.3c0-3.6,3.3-5.7,9.1-5.6
		v-0.3c0-1.2-0.4-3.5-3.5-3.5c-1.4,0-2.9,0.4-3.9,1.1l-0.6-1.8c1.2-0.8,3-1.3,5-1.3c4.7,0,5.7,3.2,5.7,6.2v5.7
		c0,1.3,0.1,2.6,0.2,3.6L188.6,103.6z M188.2,95.9c-3-0.1-6.4,0.5-6.4,3.4c0,1.8,1.2,2.6,2.6,2.6c2,0,3.2-1.2,3.6-2.5
		c0.1-0.3,0.2-0.6,0.2-0.9L188.2,95.9z M198.5,84.1v4.3h3.9v2.1h-3.9v8.1c0,1.9,0.5,2.9,2.1,2.9c0.7,0,1.2-0.1,1.6-0.2l0.1,2.1
		c-0.5,0.2-1.3,0.4-2.5,0.4c-1.3,0-2.3-0.4-3-1.2c-0.7-0.8-1.1-2.2-1.1-3.9v-8.2h-2.3v-2.1h2.3v-3.6L198.5,84.1z"/>
</g>
</svg>
