<?xml version="1.0" encoding="utf-8"?>
<!-- Generator: Adobe Illustrator 22.0.1, SVG Export Plug-In . SVG Version: 6.00 Build 0)  -->
<svg version="1.1" id="Layer_1" xmlns="http://www.w3.org/2000/svg" xmlns:xlink="http://www.w3.org/1999/xlink" x="0px" y="0px"
	 viewBox="0 0 87.5 164.5" style="enable-background:new 0 0 87.5 164.5;" xml:space="preserve">
<style type="text/css">
	.st0{fill:#E56F00;}
	.st1{fill:#53809F;}
</style>
<g>
	<path class="st0" d="M82.6,128.5H82v-0.3h1.6v0.3h-0.6v1.7h-0.4V128.5z M85.9,128.6L85.9,128.6l-0.6,1.6H85l-0.6-1.6h0v1.6H84v-2
		h0.6l0.5,1.4l0.5-1.4h0.6v2h-0.4L85.9,128.6z"/>
	<path class="st1" d="M28.8,87.4c0,0-4.2,2.4,3,3.3c8.7,1,13.1,0.8,22.7-1c0,0,2.5,1.6,6,2.9C39.1,101.8,12,92.1,28.8,87.4
		 M26.2,75.4c0,0-4.7,3.5,2.5,4.2c9.3,1,16.6,1,29.2-1.4c0,0,1.8,1.8,4.5,2.7C36.5,88.5,7.7,81.5,26.2,75.4"/>
	<path class="st0" d="M48.3,55c5.3,6.1-1.4,11.5-1.4,11.5s13.4-6.9,7.2-15.6C48.4,42.9,44,38.9,67.9,25.1
		C67.9,25.1,30.4,34.4,48.3,55"/>
	<path class="st1" d="M76.6,96.2c0,0,3.1,2.6-3.4,4.5c-12.4,3.7-51.5,4.9-62.3,0.1c-3.9-1.7,3.4-4.1,5.7-4.6
		c2.4-0.5,3.8-0.4,3.8-0.4c-4.3-3.1-28.1,6-12.1,8.6C52,111.6,87.9,101.3,76.6,96.2 M30.8,63c0,0-19.9,4.7-7,6.4
		c5.4,0.7,16.2,0.6,26.3-0.3c8.2-0.7,16.5-2.2,16.5-2.2s-2.9,1.2-5,2.7c-20.2,5.3-59.2,2.8-48-2.6C23.1,62.4,30.8,63,30.8,63
		 M66.5,82.9c20.5-10.7,11-20.9,4.4-19.5c-1.6,0.3-2.3,0.6-2.3,0.6s0.6-0.9,1.8-1.4c13.1-4.6,23.2,13.6-4.2,20.8
		C66.1,83.4,66.4,83.2,66.5,82.9"/>
	<path class="st0" d="M54.1,2.7c0,0,11.4,11.4-10.8,28.9c-17.8,14-4.1,22,0,31.2c-10.4-9.4-18-17.6-12.9-25.3
		C38,26.2,58.7,20.8,54.1,2.7"/>
	<path class="st1" d="M32.9,111.8c19.7,1.3,50-0.7,50.7-10c0,0-1.4,3.5-16.3,6.3c-16.8,3.2-37.6,2.8-49.9,0.8
		C17.4,108.9,19.9,111,32.9,111.8"/>
	<path class="st0" d="M29.6,147.4c-1.9,1.6-3.8,2.5-5.6,2.5c-2.5,0-3.9-1.5-3.9-3.9c0-2.6,1.5-4.5,7.3-4.5h2.2L29.6,147.4
		 M34.8,153.2v-17.9c0-4.6-2.6-7.6-8.9-7.6c-3.7,0-6.9,0.9-9.5,2.1l0.8,3.2c2.1-0.8,4.7-1.5,7.3-1.5c3.6,0,5.2,1.5,5.2,4.5v2.3h-1.8
		c-8.8,0-12.8,3.4-12.8,8.6c0,4.4,2.6,6.9,7.5,6.9c3.2,0,5.5-1.3,7.7-3.2l0.4,2.7L34.8,153.2L34.8,153.2z M51.9,153.2h-6.4
		l-7.7-25.1h5.6l4.8,15.4l1.1,4.6c2.4-6.7,4.1-13.5,5-20h5.4C58.2,136.4,55.6,145.5,51.9,153.2 M76.4,147.4
		c-1.9,1.6-3.8,2.5-5.6,2.5c-2.5,0-3.9-1.5-3.9-3.9c0-2.6,1.5-4.5,7.3-4.5h2.2V147.4 M81.6,153.2v-17.9c0-4.6-2.6-7.6-8.9-7.6
		c-3.7,0-6.9,0.9-9.5,2.1l0.8,3.2c2.1-0.8,4.7-1.5,7.3-1.5c3.6,0,5.2,1.5,5.2,4.5v2.3h-1.8c-8.8,0-12.8,3.4-12.8,8.6
		c0,4.4,2.6,6.9,7.5,6.9c3.2,0,5.5-1.3,7.8-3.2l0.4,2.7L81.6,153.2L81.6,153.2z M9.4,157.5c-1.5,2.1-3.8,3.8-6.4,4.8l-2.5-3
		c2-1,3.7-2.6,4.4-4.2c0.7-1.4,1-3.1,1-7.3v-28.6h5.5v28.2C11.3,153,10.9,155.3,9.4,157.5"/>
</g>
</svg>
