<?xml version="1.0" encoding="utf-8"?>
<!-- Generator: Adobe Illustrator 22.0.1, SVG Export Plug-In . SVG Version: 6.00 Build 0)  -->
<svg version="1.1" id="Layer_1" xmlns="http://www.w3.org/2000/svg" xmlns:xlink="http://www.w3.org/1999/xlink" x="0px" y="0px"
	 viewBox="0 0 109.4 123.1" style="enable-background:new 0 0 109.4 123.1;" xml:space="preserve">
<style type="text/css">
	.st0{fill:#5C8BBA;}
	.st1{fill:#1A4674;}
	.st2{fill:#1B598C;}
	.st3{fill:#FFFFFF;}
</style>
<g>
	<path class="st0" d="M108,36.8c0-2-0.4-3.8-1.3-5.3c-0.9-1.5-2.1-2.8-3.8-3.7C88.7,19.6,74.5,11.5,60.4,3.3
		C56.5,1.1,52.8,1.2,49,3.4C43.4,6.7,15.2,22.9,6.8,27.8c-3.5,2-5.1,5.1-5.1,9.1c0,16.4,0,32.8,0,49.3c0,2,0.4,3.7,1.2,5.2
		c0.9,1.5,2.2,2.8,3.9,3.9c8.4,4.9,36.6,21,42.3,24.4c3.8,2.2,7.5,2.3,11.3,0.1c14.2-8.2,28.3-16.3,42.5-24.5c1.8-1,3.1-2.3,3.9-3.9
		c0.8-1.5,1.2-3.2,1.2-5.2C108,86.1,108,53.2,108,36.8"/>
	<path class="st1" d="M55,61.3l-52.1,30c0.9,1.5,2.2,2.8,3.9,3.9c8.4,4.9,36.6,21,42.3,24.4c3.8,2.2,7.5,2.3,11.3,0.1
		c14.2-8.2,28.3-16.3,42.5-24.5c1.8-1,3.1-2.3,3.9-3.9L55,61.3"/>
	<path class="st1" d="M39.5,70.2c3,5.3,8.7,8.9,15.3,8.9c6.6,0,12.3-3.6,15.3-9L55,61.3L39.5,70.2"/>
	<path class="st2" d="M108,36.8c0-2-0.4-3.8-1.3-5.3L55,61.3l51.8,30c0.8-1.5,1.2-3.2,1.2-5.2C108,86.1,108,53.2,108,36.8"/>
	<path class="st3" d="M105.1,63.4h-4v4h-4v-4h-4v-4h4v-4h4v4h4V63.4 M90.4,63.4h-4v4h-4v-4h-4v-4h4v-4h4v4h4V63.4"/>
	<path class="st3" d="M70.1,70.1c-3,5.3-8.7,9-15.3,9c-6.5,0-12.2-3.6-15.3-8.9c-1.5-2.7-2.3-5.7-2.3-8.7c0-9.7,7.9-17.6,17.6-17.6
		c6.5,0,12.2,3.5,15.2,8.8l15.4-8.9c-6.1-10.5-17.5-17.6-30.6-17.6c-19.5,0-35.3,15.8-35.3,35.3c0,6.4,1.7,12.4,4.7,17.6
		c6.1,10.6,17.5,17.7,30.6,17.7c13.1,0,24.6-7.2,30.7-17.8L70.1,70.1"/>
</g>
</svg>
