<?xml version="1.0" encoding="utf-8"?>
<!-- Generator: Adobe Illustrator 22.0.1, SVG Export Plug-In . SVG Version: 6.00 Build 0)  -->
<svg version="1.1" id="Layer_1" xmlns="http://www.w3.org/2000/svg" xmlns:xlink="http://www.w3.org/1999/xlink" x="0px" y="0px"
	 viewBox="0 0 92.4 127.7" style="enable-background:new 0 0 92.4 127.7;" xml:space="preserve">
<style type="text/css">
	.st0{fill:#FB962C;}
	.st1{fill:#F8502E;}
	.st2{fill:#FFFFFF;}
	.st3{fill:#DCEAEF;}
</style>
<g>
	<g>
		<path class="st0" d="M1.6,26.1l8.6,89.8l36.3,9.8l35.8-9.8l8.6-89.8H1.6z"/>
		<path class="st1" d="M46.5,26.1v99.6l35.8-9.8l8.6-89.8H46.5z"/>
		<path class="st2" d="M73.1,57.1l-38.1,0l0.6,7h37.3l-3,39l-23.4,6.8L21.4,102V86.2H37v4.7l9.5,2.9l9-2.9l0.7-11.7H21.6l-3.9-37.2
			h55.3V57.1z"/>
		<g>
			<path class="st3" d="M46.5,42.1h26.5v15H46.5V42.1z"/>
			<path class="st3" d="M56.1,79.2l-0.7,11.7l-9,2.9v16l23.4-6.8l3-39H46.5v15.2H56.1z"/>
		</g>
	</g>
	<g>
		<path class="st2" d="M63.4,12.2c0.1,0,0.2,0.1,0.3,0.1c0,3.3,0,6.5,0,9.8c2.3,0,4.6,0,6.9,0c0-7,0-13.9,0-20.9c-2.1,0-4.2,0-6.2,0
			c-0.8,0-1.2,0.2-1.6,0.9c-1.3,2.2-2.6,4.3-3.9,6.5c-1.4-2.3-2.7-4.4-4.1-6.6c-0.2-0.3-0.5-0.7-0.8-0.7c-2.3-0.1-4.6,0-6.9,0
			c0,7,0,13.9,0,20.9c2.3,0,4.5,0,6.8,0c0-3.3,0-6.6,0-9.8c0.1,0,0.2,0,0.2-0.1c1.5,2.3,3,4.7,4.6,7.1
			C60.4,16.8,61.9,14.5,63.4,12.2z M8.1,1.2c-2.4,0-4.6,0-6.9,0c0,7,0,13.9,0,20.8c2.3,0,4.6,0,7,0c0-2.3,0-4.6,0-6.8
			c2.2,0,4.2,0,6.4,0c0,2.3,0,4.6,0,6.8c2.4,0,4.6,0,6.9,0c0-7,0-13.9,0-20.8c-2.3,0-4.6,0-7,0c0,2.3,0,4.5,0,6.8
			c-2.2,0-4.2,0-6.4,0C8.1,5.8,8.1,3.5,8.1,1.2z M37.8,8.1c2.1,0,4.1,0,6,0c0-2.4,0-4.6,0-6.9c-6.4,0-12.8,0-19.1,0
			c0,2.3,0,4.6,0,6.9c2.1,0,4,0,6.1,0c0,4.7,0,9.3,0,13.8c2.4,0,4.6,0,7,0C37.8,17.4,37.8,12.9,37.8,8.1z M74.2,1.2
			c0,7,0,13.9,0,20.8c5.6,0,11.1,0,16.7,0c0-2.3,0-4.5,0-6.9c-3.3,0-6.5,0-9.8,0c0-4.8,0-9.3,0-14C78.7,1.2,76.5,1.2,74.2,1.2z"/>
		<path d="M63.4,12.2c-1.5,2.3-3,4.6-4.6,7.2c-1.6-2.5-3.1-4.8-4.6-7.1c-0.1,0-0.2,0-0.2,0.1c0,3.3,0,6.5,0,9.8c-2.3,0-4.5,0-6.8,0
			c0-6.9,0-13.8,0-20.9c2.3,0,4.6,0,6.9,0c0.3,0,0.6,0.4,0.8,0.7c1.3,2.1,2.7,4.3,4.1,6.6c1.4-2.2,2.7-4.3,3.9-6.5
			c0.4-0.7,0.8-0.9,1.6-0.9c2.1,0.1,4.1,0,6.2,0c0,7,0,13.9,0,20.9c-2.3,0-4.6,0-6.9,0c0-3.3,0-6.6,0-9.8
			C63.6,12.2,63.5,12.2,63.4,12.2z"/>
		<path d="M8.1,1.2c0,2.3,0,4.5,0,6.8c2.2,0,4.2,0,6.4,0c0-2.3,0-4.5,0-6.8c2.4,0,4.6,0,7,0c0,6.9,0,13.8,0,20.8c-2.3,0-4.5,0-6.9,0
			c0-2.3,0-4.5,0-6.8c-2.2,0-4.2,0-6.4,0c0,2.3,0,4.5,0,6.8c-2.4,0-4.6,0-7,0c0-6.9,0-13.9,0-20.8C3.5,1.2,5.7,1.2,8.1,1.2z"/>
		<path d="M37.8,8.1c0,4.7,0,9.3,0,13.9c-2.3,0-4.6,0-7,0c0-4.5,0-9.1,0-13.8c-2.1,0-4.1,0-6.1,0c0-2.4,0-4.6,0-6.9
			c6.3,0,12.7,0,19.1,0c0,2.2,0,4.5,0,6.9C41.9,8.1,39.9,8.1,37.8,8.1z"/>
		<path d="M74.2,1.2c2.3,0,4.6,0,6.9,0c0,4.6,0,9.2,0,14c3.3,0,6.5,0,9.8,0c0,2.4,0,4.6,0,6.9c-5.6,0-11.1,0-16.7,0
			C74.2,15.1,74.2,8.2,74.2,1.2z"/>
	</g>
</g>
</svg>
