<?xml version="1.0" encoding="utf-8"?>
<!-- Generator: Adobe Illustrator 22.0.1, SVG Export Plug-In . SVG Version: 6.00 Build 0)  -->
<svg version="1.1" id="Layer_1" xmlns="http://www.w3.org/2000/svg" xmlns:xlink="http://www.w3.org/1999/xlink" x="0px" y="0px"
	 viewBox="0 0 153.9 103.8" style="enable-background:new 0 0 153.9 103.8;" xml:space="preserve">
<style type="text/css">
	.st0{fill:#5D87A1;}
	.st1{fill:#F8981D;}
</style>
<g>
	<path class="st0" d="M38.1,93h-5.7c-0.2-9.6-0.8-18.7-1.7-27.2h-0.1L22,93h-4.3L9,65.8h0C8.3,73.9,7.9,83,7.8,93H2.6
		c0.3-12.1,1.2-23.5,2.5-34.1h7.1l8.2,25.1h0.1l8.3-25.1h6.8C37,71.3,37.9,82.7,38.1,93 M62.9,67.8c-2.3,12.6-5.4,21.8-9.2,27.5
		c-3,4.4-6.2,6.6-9.8,6.6c-0.9,0-2.1-0.3-3.5-0.8v-3c0.7,0.1,1.5,0.2,2.4,0.2c1.7,0,3-0.5,4-1.4c1.2-1.1,1.8-2.4,1.8-3.7
		c0-0.9-0.5-2.9-1.4-5.8L41,67.8h5.6l4.5,14.6c1,3.3,1.4,5.6,1.3,6.9c2.5-6.6,4.2-13.7,5.2-21.5L62.9,67.8
		C62.9,67.8,62.9,67.8,62.9,67.8z"/>
	<path class="st1" d="M138.9,93h-16.2V58.8h5.5v29.9h10.8V93z M118.4,93.8l-6.3-3.1c0.6-0.5,1.1-1,1.6-1.5c2.7-3.1,4-7.8,4-13.9
		c0-11.3-4.4-16.9-13.3-16.9c-4.3,0-7.7,1.4-10.2,4.3c-2.7,3.1-4,7.7-4,13.8c0,6,1.2,10.4,3.5,13.2c2.2,2.5,5.4,3.8,9.8,3.8
		c1.6,0,3.1-0.2,4.5-0.6l8.2,4.8L118.4,93.8z M98.1,86.1c-1.4-2.2-2.1-5.8-2.1-10.7c0-8.6,2.6-12.9,7.8-12.9c2.7,0,4.7,1,6,3.1
		c1.4,2.2,2.1,5.8,2.1,10.6c0,8.7-2.6,13-7.8,13C101.4,89.2,99.4,88.2,98.1,86.1 M87.9,83.5c0,2.9-1.1,5.3-3.2,7.1
		c-2.1,1.9-5,2.8-8.5,2.8c-3.3,0-6.6-1.1-9.7-3.2l1.5-2.9c2.7,1.3,5.1,2,7.3,2c2.1,0,3.7-0.5,4.8-1.4c1.2-0.9,1.9-2.2,1.9-3.8
		c0-2-1.4-3.8-4-5.2c-2.4-1.3-7.2-4.1-7.2-4.1c-2.6-1.9-3.9-3.9-3.9-7.3c0-2.8,1-5,2.9-6.7c1.9-1.7,4.4-2.6,7.5-2.6
		c3.2,0,6,0.8,8.6,2.5l-1.3,2.9c-2.2-0.9-4.4-1.4-6.6-1.4c-1.7,0-3.1,0.4-4,1.3c-0.9,0.8-1.5,1.9-1.5,3.2c0,2,1.4,3.8,4.1,5.3
		c2.4,1.3,7.3,4.1,7.3,4.1C86.6,78.2,87.9,80.2,87.9,83.5"/>
	<path class="st0" d="M145.8,47.4c-3.3-0.1-5.9,0.2-8,1.2c-0.6,0.2-1.6,0.2-1.7,1c0.3,0.3,0.4,0.9,0.7,1.3c0.5,0.8,1.4,1.9,2.1,2.5
		c0.9,0.7,1.7,1.3,2.6,1.9c1.6,1,3.4,1.6,5,2.6c0.9,0.6,1.8,1.3,2.7,1.9c0.4,0.3,0.7,0.9,1.3,1.1v-0.1c-0.3-0.4-0.4-0.9-0.7-1.3
		l-1.2-1.2c-1.2-1.6-2.7-3-4.3-4.2c-1.3-0.9-4.2-2.1-4.7-3.7l-0.1-0.1c0.9-0.1,2-0.4,2.8-0.7c1.4-0.4,2.7-0.3,4.1-0.7
		c0.7-0.2,1.3-0.4,2-0.6v-0.4c-0.7-0.7-1.3-1.7-2.1-2.4c-2.1-1.8-4.4-3.6-6.8-5.1c-1.3-0.8-2.9-1.4-4.3-2.1
		c-0.5-0.2-1.3-0.4-1.6-0.8c-0.7-0.9-1.2-2.1-1.7-3.2c-1.2-2.3-2.3-4.8-3.4-7.2c-0.7-1.6-1.2-3.2-2.1-4.7c-4.2-7-8.9-11.3-16-15.4
		c-1.5-0.9-3.3-1.2-5.3-1.7l-3.1-0.2c-0.7-0.3-1.3-1.1-1.9-1.4C98,2.5,91.9-0.7,90.2,3.5c-1.1,2.7,1.6,5.3,2.6,6.7
		c0.7,0.9,1.6,2,2.1,3.1c0.3,0.7,0.4,1.4,0.7,2.2c0.7,1.8,1.3,3.8,2.1,5.5c0.5,0.9,0.9,1.8,1.5,2.6c0.3,0.5,0.9,0.7,1,1.4
		c-0.6,0.8-0.6,2.1-1,3.1c-1.5,4.7-0.9,10.4,1.2,13.8c0.7,1,2.2,3.3,4.3,2.4c1.9-0.7,1.4-3.1,2-5.2c0.1-0.5,0-0.8,0.3-1.2v0.1
		c0.6,1.2,1.2,2.3,1.7,3.4c1.3,2,3.5,4.1,5.4,5.5c1,0.7,1.8,2,3,2.5v-0.1h-0.1c-0.3-0.4-0.6-0.5-0.9-0.8c-0.7-0.7-1.6-1.6-2.1-2.5
		c-1.7-2.3-3.3-4.9-4.6-7.5c-0.7-1.3-1.2-2.7-1.8-4c-0.2-0.5-0.2-1.2-0.7-1.5c-0.6,0.9-1.5,1.7-2,2.8c-0.8,1.8-0.9,4-1.2,6.2
		l-0.2,0.1c-1.3-0.3-1.8-1.7-2.3-2.8c-1.2-2.9-1.4-7.6-0.4-11c0.3-0.9,1.5-3.6,1-4.4c-0.2-0.8-1.1-1.2-1.5-1.9
		c-0.5-0.8-1.1-1.8-1.5-2.6c-1-2.3-1.5-4.9-2.6-7.2c-0.5-1.1-1.4-2.2-2.1-3.2c-0.8-1.1-1.6-1.9-2.3-3.2c-0.2-0.5-0.5-1.2-0.2-1.7
		c0.1-0.3,0.2-0.5,0.6-0.5c0.5-0.5,2.1,0.1,2.6,0.4c1.5,0.6,2.8,1.2,4.1,2.1c0.6,0.4,1.2,1.2,1.9,1.4h0.9c1.3,0.3,2.8,0.1,4,0.5
		c2.2,0.7,4.2,1.7,5.9,2.8c5.4,3.4,9.9,8.3,12.9,14.1c0.5,0.9,0.7,1.8,1.2,2.8c0.9,2,1.9,4.1,2.8,6.1c0.9,1.9,1.7,3.9,2.9,5.5
		c0.6,0.9,3.1,1.3,4.2,1.8c0.8,0.4,2.1,0.7,2.8,1.2c1.4,0.9,2.8,1.9,4.1,2.8C143.6,45.6,145.6,46.6,145.8,47.4 M103.7,11.6
		c-0.6,0-1.1,0.1-1.7,0.2v0.1h0.1c0.3,0.7,0.9,1.1,1.3,1.7c0.3,0.7,0.6,1.3,0.9,2l0.1-0.1c0.6-0.4,0.9-1.1,0.9-2.1
		c-0.3-0.3-0.3-0.6-0.5-0.9C104.6,12.1,104,11.9,103.7,11.6"/>
	<path class="st1" d="M149.7,93h0.9v-4.2h-1.3l-1,2.9l-1.1-2.9h-1.2V93h0.8v-3.2h0l1.2,3.2h0.6l1.2-3.2L149.7,93L149.7,93z
		 M142.8,93h0.9v-3.5h1.2v-0.7h-3.3v0.7h1.2L142.8,93L142.8,93z"/>
</g>
</svg>
