<?xml version="1.0" encoding="utf-8"?>
<!-- Generator: Adobe Illustrator 22.0.1, SVG Export Plug-In . SVG Version: 6.00 Build 0)  -->
<svg version="1.1" id="Layer_1" xmlns="http://www.w3.org/2000/svg" xmlns:xlink="http://www.w3.org/1999/xlink" x="0px" y="0px"
	 viewBox="0 0 111.4 118.3" style="enable-background:new 0 0 111.4 118.3;" xml:space="preserve">
<style type="text/css">
	.st0{fill:#B3B3B3;}
	.st1{fill:#A6120D;}
	.st2{fill:#DD1B16;}
	.st3{fill:#F2F2F2;}
</style>
<g>
	<path class="st0" d="M55.4,1.4L0.8,20.6l8.6,71.6l46,25.3l46.3-25.6l8.6-71.5L55.4,1.4z"/>
	<path class="st1" d="M104.9,24.4L55.3,7.5v103.9l41.6-23L104.9,24.4L104.9,24.4z"/>
	<path class="st2" d="M6.9,24.7l7.4,64l41,22.7V7.5L6.9,24.7L6.9,24.7z"/>
	<path class="st3" d="M68.9,62.8l-13.7,6.4H40.9l-6.8,16.9l-12.6,0.2l33.8-75.1L68.9,62.8L68.9,62.8z M67.6,59.6L55.4,35.3
		L45.3,59.2h10L67.6,59.6L67.6,59.6z"/>
	<path class="st0" d="M55.3,11.3l0.1,24.1l11.4,23.9H55.3l0,10l15.9,0l7.4,17.2l12,0.2L55.3,11.3L55.3,11.3z"/>
</g>
</svg>
