<?xml version="1.0" encoding="utf-8"?>
<!-- Generator: Adobe Illustrator 22.0.1, SVG Export Plug-In . SVG Version: 6.00 Build 0)  -->
<svg version="1.1" id="Layer_1" xmlns="http://www.w3.org/2000/svg" xmlns:xlink="http://www.w3.org/1999/xlink" x="0px" y="0px"
	 viewBox="0 0 159.1 105.2" style="enable-background:new 0 0 159.1 105.2;" xml:space="preserve">
<style type="text/css">
	.st0{fill:#699B63;}
	.st1{fill:#333333;}
	.st2{fill:url(#XMLID_3_);}
	.st3{clip-path:url(#SVGID_2_);}
	.st4{fill:none;}
	.st5{fill:url(#SVGID_3_);}
	.st6{clip-path:url(#SVGID_5_);}
	.st7{fill:url(#SVGID_6_);}
	.st8{fill:url(#SVGID_7_);}
	.st9{fill:url(#SVGID_8_);}
	.st10{fill:url(#SVGID_9_);}
	.st11{fill:url(#SVGID_10_);}
</style>
<g>
	<g>
		<path class="st0" d="M76.7,64.6c-0.8,0-1.7-0.2-2.4-0.6l-7.7-4.5c-1.1-0.6-0.6-0.9-0.2-1c1.5-0.5,1.8-0.7,3.5-1.6
			c0.2-0.1,0.4-0.1,0.6,0l5.9,3.5c0.2,0.1,0.5,0.1,0.7,0l23-13.3c0.2-0.1,0.4-0.4,0.4-0.6V20c0-0.3-0.1-0.5-0.4-0.6l-23-13.3
			c-0.2-0.1-0.5-0.1-0.7,0l-23,13.3C53.2,19.5,53,19.7,53,20v26.6c0,0.3,0.1,0.5,0.4,0.6l6.3,3.6c3.4,1.7,5.5-0.3,5.5-2.3V22.2
			c0-0.4,0.3-0.7,0.7-0.7h2.9c0.4,0,0.7,0.3,0.7,0.7v26.2c0,4.6-2.5,7.2-6.8,7.2c-1.3,0-2.4,0-5.3-1.4l-6-3.5
			c-1.5-0.9-2.4-2.5-2.4-4.2V20c0-1.7,0.9-3.3,2.4-4.2l23-13.3c1.5-0.8,3.4-0.8,4.8,0l23,13.3c1.5,0.9,2.4,2.5,2.4,4.2v26.6
			c0,1.7-0.9,3.3-2.4,4.2L79.2,64C78.4,64.4,77.6,64.6,76.7,64.6z"/>
		<path class="st0" d="M83.8,46.3c-10.1,0-12.2-4.6-12.2-8.5c0-0.4,0.3-0.7,0.7-0.7h3c0.3,0,0.6,0.2,0.7,0.6c0.4,3,1.8,4.6,7.9,4.6
			c4.8,0,6.9-1.1,6.9-3.7c0-1.5-0.6-2.6-8.1-3.3c-6.3-0.6-10.2-2-10.2-7.1c0-4.6,3.9-7.4,10.5-7.4c7.4,0,11,2.6,11.5,8
			c0,0.2,0,0.4-0.2,0.5c-0.1,0.1-0.3,0.2-0.5,0.2h-3c-0.3,0-0.6-0.2-0.6-0.5c-0.7-3.2-2.5-4.2-7.2-4.2c-5.3,0-5.9,1.8-5.9,3.2
			c0,1.7,0.7,2.2,7.9,3.1c7.1,0.9,10.4,2.3,10.4,7.2C95.3,43.5,91.1,46.3,83.8,46.3z"/>
	</g>
	<g>
		<path class="st0" d="M117,18.5c0,2.4-2,4.4-4.4,4.4c-2.4,0-4.4-2-4.4-4.4c0-2.5,2.1-4.4,4.4-4.4C115,14.1,117,16,117,18.5z
			 M108.9,18.5c0,2.1,1.7,3.7,3.7,3.7c2.1,0,3.7-1.7,3.7-3.7c0-2.1-1.7-3.7-3.7-3.7C110.6,14.8,108.9,16.4,108.9,18.5z M110.9,16
			h1.7c0.6,0,1.7,0,1.7,1.3c0,0.9-0.6,1.1-0.9,1.2c0.7,0,0.7,0.5,0.8,1.1c0,0.4,0.1,1.1,0.3,1.3h-1.1c0-0.2-0.2-1.5-0.2-1.6
			c-0.1-0.3-0.2-0.4-0.5-0.4h-0.9v2h-1L110.9,16L110.9,16z M111.9,18.2h0.8c0.6,0,0.8-0.4,0.8-0.7c0-0.7-0.5-0.7-0.7-0.7h-0.8
			L111.9,18.2L111.9,18.2z"/>
	</g>
	<path class="st1" d="M35.8,76.8c0-0.6-0.3-1.2-0.9-1.6L20,66.7c-0.3-0.1-0.5-0.2-0.8-0.2c0,0-0.1,0-0.2,0c-0.3,0-0.6,0.1-0.8,0.2
		L3.4,75.2c-0.6,0.3-0.9,0.9-0.9,1.6l0,23c0,0.3,0.2,0.6,0.4,0.8c0.3,0.2,0.6,0.2,0.9,0l8.8-5.1c0.6-0.3,0.9-0.9,0.9-1.6V83.2
		c0-0.6,0.3-1.2,0.9-1.6l3.8-2.2c0.3-0.2,0.6-0.2,0.9-0.2c0.3,0,0.6,0.1,0.9,0.2l3.8,2.2c0.6,0.3,0.9,0.9,0.9,1.6V94
		c0,0.6,0.3,1.2,0.9,1.6l8.8,5.1c0.3,0.2,0.6,0.2,0.9,0c0.3-0.2,0.4-0.5,0.4-0.8L35.8,76.8z"/>
	<path class="st1" d="M107.3,45.1c-0.3-0.2-0.6-0.2-0.9,0c-0.3,0.2-0.4,0.5-0.4,0.8v22.8c0,0.2-0.1,0.4-0.3,0.5
		c-0.2,0.1-0.4,0.1-0.6,0l-3.7-2.1c-0.6-0.3-1.2-0.3-1.8,0l-14.9,8.6c-0.6,0.3-0.9,0.9-0.9,1.6v17.2c0,0.6,0.3,1.2,0.9,1.6l14.9,8.6
		c0.6,0.3,1.2,0.3,1.8,0l14.9-8.6c0.6-0.3,0.9-0.9,0.9-1.6V51.6c0-0.7-0.4-1.3-0.9-1.6L107.3,45.1z M105.9,88.8
		c0,0.2-0.1,0.3-0.2,0.4l-5.1,2.9c-0.1,0.1-0.3,0.1-0.4,0L95,89.2c-0.1-0.1-0.2-0.2-0.2-0.4v-5.9c0-0.2,0.1-0.3,0.2-0.4l5.1-2.9
		c0.1-0.1,0.3-0.1,0.4,0l5.1,2.9c0.1,0.1,0.2,0.2,0.2,0.4L105.9,88.8L105.9,88.8z"/>
	<g>
		<path class="st1" d="M156.7,82.7c0.6-0.3,0.9-0.9,0.9-1.6V77c0-0.6-0.3-1.2-0.9-1.6L142,66.9c-0.6-0.3-1.2-0.3-1.8,0l-14.9,8.6
			c-0.6,0.3-0.9,0.9-0.9,1.6v17.2c0,0.6,0.3,1.2,0.9,1.6l14.8,8.4c0.5,0.3,1.2,0.3,1.8,0l8.9-5c0.3-0.2,0.5-0.5,0.5-0.8
			c0-0.3-0.2-0.6-0.5-0.8L135.9,89c-0.3-0.2-0.5-0.5-0.5-0.8v-5.4c0-0.3,0.2-0.6,0.4-0.8l4.7-2.7c0.3-0.2,0.6-0.2,0.9,0l4.7,2.7
			c0.3,0.2,0.4,0.5,0.4,0.8v4.2c0,0.3,0.2,0.6,0.4,0.8c0.3,0.2,0.6,0.2,0.9,0L156.7,82.7z"/>
		<path class="st0" d="M140.9,81.9c0.1-0.1,0.2-0.1,0.3,0l2.9,1.6c0.1,0.1,0.2,0.2,0.2,0.3v3.3c0,0.1-0.1,0.2-0.2,0.3l-2.9,1.6
			c-0.1,0.1-0.2,0.1-0.3,0l-2.8-1.6c-0.1-0.1-0.2-0.2-0.2-0.3v-3.3c0-0.1,0.1-0.2,0.2-0.3L140.9,81.9z"/>
	</g>
	<g>
		<g>
			
				<linearGradient id="XMLID_3_" gradientUnits="userSpaceOnUse" x1="65.7612" y1="577.2148" x2="52.4109" y2="604.4496" gradientTransform="matrix(1 0 0 1 0 -503.89)">
				<stop  offset="0" style="stop-color:#41833F"/>
				<stop  offset="0.3288" style="stop-color:#41873D"/>
				<stop  offset="0.6352" style="stop-color:#419237"/>
				<stop  offset="0.9319" style="stop-color:#3FA52D"/>
				<stop  offset="1" style="stop-color:#3FAA2A"/>
			</linearGradient>
			<path id="XMLID_1_" class="st2" d="M60.6,67c-0.6-0.3-1.2-0.3-1.8,0l-14.8,8.5c-0.6,0.3-0.9,0.9-0.9,1.5v17.1
				c0,0.6,0.3,1.2,0.9,1.5l14.8,8.5c0.6,0.3,1.2,0.3,1.8,0l14.8-8.5c0.6-0.3,0.9-0.9,0.9-1.5V77c0-0.6-0.3-1.2-0.9-1.5L60.6,67z"/>
		</g>
		<g>
			<g>
				<defs>
					<path id="SVGID_1_" d="M60.6,67c-0.6-0.3-1.2-0.3-1.8,0l-14.8,8.5c-0.6,0.3-0.9,0.9-0.9,1.5v17.1c0,0.6,0.3,1.2,0.9,1.5
						l14.8,8.5c0.6,0.3,1.2,0.3,1.8,0l14.8-8.5c0.6-0.3,0.9-0.9,0.9-1.5V77c0-0.6-0.3-1.2-0.9-1.5L60.6,67z"/>
				</defs>
				<clipPath id="SVGID_2_">
					<use xlink:href="#SVGID_1_"  style="overflow:visible;"/>
				</clipPath>
				<g class="st3">
					<path class="st4" d="M58.8,67L44,75.5c-0.6,0.3-1,0.9-1,1.5v17.1c0,0.4,0.2,0.8,0.5,1.1l16.6-28.5C59.7,66.7,59.2,66.7,58.8,67
						z"/>
					<path class="st4" d="M60.2,104.4c0.1,0,0.3-0.1,0.4-0.2l14.8-8.5c0.6-0.3,0.9-0.9,0.9-1.5V77c0-0.5-0.2-0.9-0.5-1.2L60.2,104.4
						z"/>
					
						<linearGradient id="SVGID_3_" gradientUnits="userSpaceOnUse" x1="57.5035" y1="591.4678" x2="94.9637" y2="563.7902" gradientTransform="matrix(1 0 0 1 0 -503.89)">
						<stop  offset="0.1376" style="stop-color:#41833F"/>
						<stop  offset="0.4032" style="stop-color:#549C44"/>
						<stop  offset="0.7136" style="stop-color:#66B448"/>
						<stop  offset="0.9081" style="stop-color:#6CBC4A"/>
					</linearGradient>
					<path class="st5" d="M75.5,75.5L60.6,67c-0.1-0.1-0.3-0.1-0.5-0.2L43.5,95.3c0.1,0.2,0.3,0.3,0.5,0.4l14.8,8.5
						c0.4,0.2,0.9,0.3,1.4,0.2l15.6-28.6C75.7,75.7,75.6,75.6,75.5,75.5z"/>
				</g>
			</g>
		</g>
		<g>
			<g>
				<defs>
					<path id="SVGID_4_" d="M60.6,67c-0.6-0.3-1.2-0.3-1.8,0l-14.8,8.5c-0.6,0.3-0.9,0.9-0.9,1.5v17.1c0,0.6,0.3,1.2,0.9,1.5
						l14.8,8.5c0.6,0.3,1.2,0.3,1.8,0l14.8-8.5c0.6-0.3,0.9-0.9,0.9-1.5V77c0-0.6-0.3-1.2-0.9-1.5L60.6,67z"/>
				</defs>
				<clipPath id="SVGID_5_">
					<use xlink:href="#SVGID_4_"  style="overflow:visible;"/>
				</clipPath>
				<g class="st6">
					<path class="st4" d="M76.4,94.1V77c0-0.6-0.4-1.2-0.9-1.5L60.6,67c-0.2-0.1-0.4-0.2-0.5-0.2l16.2,27.8
						C76.4,94.4,76.4,94.3,76.4,94.1z"/>
					<path class="st4" d="M44,75.5c-0.6,0.3-1,0.9-1,1.5v17.1c0,0.6,0.4,1.2,1,1.5l14.8,8.5c0.3,0.2,0.8,0.3,1.1,0.2L44,75.5
						L44,75.5z"/>
					
						<linearGradient id="SVGID_6_" gradientUnits="userSpaceOnUse" x1="42.6695" y1="567.7872" x2="76.8362" y2="567.7872" gradientTransform="matrix(1 0 0 1 0 -503.89)">
						<stop  offset="9.190000e-02" style="stop-color:#6CBC4A"/>
						<stop  offset="0.2864" style="stop-color:#66B448"/>
						<stop  offset="0.5968" style="stop-color:#549C44"/>
						<stop  offset="0.8624" style="stop-color:#41833F"/>
					</linearGradient>
					<polygon class="st7" points="58.4,63.8 58.2,64 58.4,64 					"/>
					
						<linearGradient id="SVGID_7_" gradientUnits="userSpaceOnUse" x1="42.6695" y1="589.4684" x2="76.8362" y2="589.4684" gradientTransform="matrix(1 0 0 1 0 -503.89)">
						<stop  offset="9.190000e-02" style="stop-color:#6CBC4A"/>
						<stop  offset="0.2864" style="stop-color:#66B448"/>
						<stop  offset="0.5968" style="stop-color:#549C44"/>
						<stop  offset="0.8624" style="stop-color:#41833F"/>
					</linearGradient>
					<path class="st8" d="M75.5,95.7c0.4-0.2,0.8-0.7,0.9-1.1L60.1,66.8c-0.4-0.1-0.9,0-1.3,0.2l-14.7,8.5l15.9,29
						c0.2,0,0.4-0.1,0.7-0.2L75.5,95.7z"/>
					
						<linearGradient id="SVGID_8_" gradientUnits="userSpaceOnUse" x1="42.6695" y1="599.2222" x2="76.8362" y2="599.2222" gradientTransform="matrix(1 0 0 1 0 -503.89)">
						<stop  offset="9.190000e-02" style="stop-color:#6CBC4A"/>
						<stop  offset="0.2864" style="stop-color:#66B448"/>
						<stop  offset="0.5968" style="stop-color:#549C44"/>
						<stop  offset="0.8624" style="stop-color:#41833F"/>
					</linearGradient>
					<polygon class="st9" points="76.8,95.4 76.7,95.2 76.7,95.4 					"/>
					
						<linearGradient id="SVGID_9_" gradientUnits="userSpaceOnUse" x1="42.6695" y1="603.6306" x2="76.8362" y2="603.6306" gradientTransform="matrix(1 0 0 1 0 -503.89)">
						<stop  offset="9.190000e-02" style="stop-color:#6CBC4A"/>
						<stop  offset="0.2864" style="stop-color:#66B448"/>
						<stop  offset="0.5968" style="stop-color:#549C44"/>
						<stop  offset="0.8624" style="stop-color:#41833F"/>
					</linearGradient>
					<path class="st10" d="M75.5,95.7l-14.8,8.5c-0.2,0.1-0.4,0.2-0.7,0.2l0.3,0.5l16.4-9.5v-0.2l-0.4-0.7
						C76.2,95,75.9,95.4,75.5,95.7z"/>
					
						<linearGradient id="SVGID_10_" gradientUnits="userSpaceOnUse" x1="81.8139" y1="576.4073" x2="60.742" y2="619.394" gradientTransform="matrix(1 0 0 1 0 -503.89)">
						<stop  offset="0" style="stop-color:#41833F"/>
						<stop  offset="0.3288" style="stop-color:#41873D"/>
						<stop  offset="0.6352" style="stop-color:#419237"/>
						<stop  offset="0.9319" style="stop-color:#3FA52D"/>
						<stop  offset="1" style="stop-color:#3FAA2A"/>
					</linearGradient>
					<path class="st11" d="M75.5,95.7l-14.8,8.5c-0.2,0.1-0.4,0.2-0.7,0.2l0.3,0.5l16.4-9.5v-0.2l-0.4-0.7
						C76.2,95,75.9,95.4,75.5,95.7z"/>
				</g>
			</g>
		</g>
	</g>
</g>
</svg>
