<?xml version="1.0" encoding="utf-8"?>
<!-- Generator: Adobe Illustrator 22.0.1, SVG Export Plug-In . SVG Version: 6.00 Build 0)  -->
<svg version="1.1" id="Layer_1" xmlns="http://www.w3.org/2000/svg" xmlns:xlink="http://www.w3.org/1999/xlink" x="0px" y="0px"
	 viewBox="0 0 99.9 143.8" style="enable-background:new 0 0 99.9 143.8;" xml:space="preserve">
<style type="text/css">
	.st0{fill:#569A83;}
	.st1{fill:#C1272D;}
</style>
<g>
	<path class="st0" d="M21.1,100.2c0.7,0,1,0.3,1,1v32.6c0,1.2-0.2,2.4-0.7,3.4c-0.5,1.1-1.1,2-1.9,2.8c-0.8,0.8-1.7,1.4-2.8,1.9
		c-1.1,0.5-2.2,0.7-3.4,0.7h-2.7c-1.2,0-2.4-0.2-3.4-0.7c-1.1-0.5-2-1.1-2.8-1.9c-0.8-0.8-1.4-1.7-1.9-2.8c-0.5-1.1-0.7-2.2-0.7-3.4
		v-7.5c0-0.7,0.3-1.1,0.9-1.3l6.3-1.7c0.6-0.2,0.9,0,0.9,0.7v9.3c0,0.5,0.2,0.9,0.5,1.2c0.3,0.3,0.7,0.5,1.2,0.5h0.6
		c0.5,0,0.9-0.2,1.2-0.5c0.3-0.3,0.5-0.7,0.5-1.2v-32.2c0-0.7,0.3-1,1-1C14.8,100.2,21.1,100.2,21.1,100.2L21.1,100.2z M48.2,141.1
		c0.1,0.7-0.2,1-0.8,1H41c-0.6,0-0.9-0.3-1-1l-0.6-6.8H35l-0.6,6.8c-0.1,0.7-0.5,1-1,1h-6.3c-0.7,0-0.9-0.3-0.8-1l5.2-39.9
		c0.1-0.7,0.5-1,1.1-1h9.2c0.7,0,1,0.3,1.1,1L48.2,141.1L48.2,141.1z M38.8,126.4L37.5,111h-0.6l-1.3,15.4H38.8z M64.2,100.2
		c1.2,0,2.3,0.2,3.4,0.7c1.1,0.5,2,1.1,2.8,1.9c0.8,0.8,1.4,1.7,1.9,2.8c0.5,1.1,0.7,2.2,0.7,3.4v24.3c0,1.2-0.2,2.4-0.7,3.4
		c-0.5,1.1-1.1,2-1.9,2.8c-0.8,0.8-1.7,1.4-2.8,1.9c-1.1,0.5-2.2,0.7-3.4,0.7H53.7c-0.7,0-1-0.3-1-1v-39.9c0-0.7,0.3-1,1-1
		L64.2,100.2L64.2,100.2z M64.8,109.3c0-0.5-0.2-0.9-0.5-1.2c-0.3-0.3-0.7-0.5-1.2-0.5h-2.2v26.9h2.2c0.5,0,0.9-0.2,1.2-0.5
		c0.3-0.3,0.5-0.7,0.5-1.2V109.3L64.8,109.3z M95.7,134.8v6.2c0,0.7-0.3,1-1,1H79.6c-0.7,0-1-0.3-1-1v-39.9c0-0.7,0.3-1,1-1h15.1
		c0.7,0,1,0.3,1,1v6.2c0,0.7-0.3,1-1,1h-8v8h6.9c0.7,0,1,0.3,1,1v6.2c0,0.7-0.3,1-1,1h-6.9v9.4h8C95.3,133.9,95.7,134.2,95.7,134.8
		L95.7,134.8z"/>
	<path class="st1" d="M72.6,53.2c0.4,0.4,0.5,1.1,0,1.5c-1.3,0.8-2.9,0.7-4.4,0.6c-2.5-0.3-5.5-0.4-6.8-2.8c0,0,0,0-0.1-0.1
		c-1.7-0.9,1.1-1.5,1.9-1.7c1.8-0.2,3.7,0.2,5.4,0.6C70.1,51.6,71.4,52,72.6,53.2L72.6,53.2z M95.5,90.6c-1.2,0.8-0.7,2.2-1.5,3.2
		c-0.8,0.9-2.8,0.9-3.9,0.9c-4.5,0-8.9-0.3-13.4,0c-1.1,0.1-2.2,0.2-3.2,0.5c-0.3,0.1-0.8,0.3-1.2,0.1c-0.9-0.5-1.7-2-2.9-1.5
		c-1,0.4-1.7,1.8-2.9,1c-2.2-1.6-4-0.2-6.2,0.3c-2.4,0.5-4.6-0.8-6.9-0.2c-1.7,0.5-3.4,1-5.1,0.4c-1.8-0.6-2.2-2-0.7-3.3
		c2.4-2,5.5-2.3,8.5-2.1c4.6,0.4,9.2,0,13.7-0.2c0.2,0,0.2,0.1,0.2,0.2c2,0.8,3.2-0.8,4.4-2.2c0.2-0.2,0.4-0.1,0.5,0
		c1.7,2.4,3.7-0.3,5.7-0.1c0.6,0,1.1,0.2,1.4,0.7c0.2,0.2,0.2,0.5,0.2,0.8c0.1,1.3,1.7,1,1.7-0.3c0-0.2,0.2-0.4,0.4-0.3
		c1.7,0.7,3.8,1.5,5.1-0.2c1.1-1.5,1.3-3.5,1.4-5.3c0.2-4.8-0.1-9.6-0.4-14.3c-0.3-4.6-0.8-9.3-0.2-13.9c0.6-4.6,0.5-9,0.4-13.6
		c0-2.4-0.2-4.8,0-7.2c0.1-2.2,0.5-4.6,0.2-6.8c-0.2-2-1.4-3.7-1.7-5.6c-0.2-1.8,0-3.6,0.4-5.3c0.2-1.1,0.8-2.4,0.7-3.5
		c0-0.9-0.1-1.9,0-2.9c0-0.5-0.1-1.2,0.3-1.6C91.2,8,91.4,7,90.1,6.9c-3.1-0.4-6.3-2.4-9.2-0.4c0,0.7,0.1,1.4-0.1,2.1l0.4,0.6
		c0.7,0.3,1.5,0.4,2.3,0.5c0.9,0,2-0.2,2.9-0.2c0.8,0.1,1.5,0.8,1.2,1.7c-0.2,0.7-0.8,1.2-1.1,1.8c-0.6,1-0.5,2.4-0.5,3.5
		c0,2.9,0,5.7,0.1,8.5c0.1,2.4,0.3,4.8,0.5,7.1c0,0,0.2,0.1,0.2,0.2c0.1,2.7,1,5.3,1,8c0,0-0.7,3.3-0.7,3.3c0,3.5-0.3,9.9-0.3,9.9
		c0,5.9-1.1,11.7,0,17.6c0.4,2.4-0.5,4.6-0.6,7c-0.1,2.6,0.2,5.1-0.2,7.7c0,0.2,0,0.3-0.2,0.4c-5.4,1-10.8,1.2-16.3,0.9
		c-1.4-0.1-3-0.2-4.3,0.3c-0.5,0.2-1.2,0.6-1.8,0.5c-0.8-0.1-1.2-0.7-1.9-0.8c-0.9-0.2-1.8-0.4-2.8-0.5c-2.4-0.3-4.8-0.5-7,0.5
		c-1.3,0.6-2.6,0.3-3.9-0.2c-1.5-0.6-2.6-1.4-4.3-0.6c-0.7,0.3-1.3,0.7-2,0.8c-0.6,0.2-1.2,0-1.7-0.2c-1.3-0.5-2.2-0.6-3.6-0.4
		c0.2,0.2,0,0.6-0.2,0.6c-8-0.4-16,0.5-24,0.6c-0.4,0.1-0.7,0.5-0.9,0.5h-0.2c-0.2,0-0.2-0.7-0.2-0.8c-1.1-1.2-0.8-5.1-0.7-6.2
		c0.3-7.4-0.6-14.9-0.8-22.3C9,55.2,9,51.5,9.6,47.8c0.7-4.1,0.7-8.1,0.6-12.3C10,27.4,10.8,19.2,10.6,11c0-0.2,0.2-0.2,0.2-0.2
		l0.1,0c2.2-0.2,4.6-0.8,6.8-0.2c0,0,0.1,0,0.1,0.1l0.3,0h2.4c0.1,0,0.2,0,0.2,0.1c4.3,0,8.6-0.3,13-0.5c1.5,0,3.1,0,4.6-0.5
		c0.7-0.2,1.7-0.6,2.4-0.6c2,0.2,4,0.7,5.9,1.2c1.4,0.3,2.3-2.1,3.5-1.3c1.8,1.2,4,0.7,6.1,0.8c1.1,0,2.2-0.2,3.3-0.2
		c0.6,0,1.1,0.2,1.7,0.3c0.6-0.1,1,0,1.7,0.2l10.1-0.3c2,0,4.2,0.2,6.1-0.6c0.5-0.2,0.8-0.5,0.9-0.8c-0.1-0.2-0.2-0.3-0.2-0.5
		c-0.2-0.3-0.3-0.6-0.5-0.8c-2.2-0.7-4.6-0.5-6.9-0.6c-3.1-0.2-6.1,0.3-9.2,0.5c-2.9,0.2-5.9,0.4-8.7,0.2c-1.7-0.2-4.9-0.9-6.3,0.3
		c-0.2,0.1-0.3,0.1-0.4,0c-2.8-2.2-6.4,1.1-9.5,0.2c-1.9-0.6-3.7-0.9-5.7-0.7c-1.9,0.2-3.8,0.5-5.8,0.5c-4.3,0-8.5,0.2-12.8,0.1
		c-0.9,0-1.8,0-2.7-0.2C10.4,7.4,9.4,7,8.7,7.3C7.5,7.8,7.2,8.1,7.4,8.5c0.3,0.2-0.8,1.7-0.8,2.5l-0.1,2c0,2.9-0.2,5.6-0.9,8.4
		c-0.3,1.5-1.1,3.6-0.5,5.1c0.3,1,1.1,1.7,1.5,2.5c0.7,1.6,0.8,3.6,0.7,5.3L6.8,51.2c-0.2,5.6-0.6,11.3-0.3,16.9
		c0.2,5.2,1,10.6,0.3,15.8c-0.2,1.7-2.3,4.8-0.3,6c1.1,0.7,2.5,0.8,3.8,0.9c3.2,0.2,6.4-0.2,9.6-0.5c1.2-0.2,2.4-0.4,3.5-0.4
		c0.9,0,1.7,0.1,2.6,0.4c0.7,0.3,1.9,0.8,2.8,0.8c0,0,1.4,0,1.5-0.4c1.2-0.5,2.2-0.9,3.7-0.6c1.5,0.3,2.8,0.5,4.3,0.2
		c0.8-0.2,2-0.2,2.8,0l0.3,0.2c0.3-0.2-0.2,0.4-0.5,0.5c-1.8,0.7-1.2,3-1.4,4.5c0,0.2-0.2,0.2-0.3,0.2c-0.7,0-1.7,0-2.1-0.7
		c-0.8-1.5-2.8-2.6-2.8,0.6c0,0.2-0.2,0.3-0.3,0.3c-0.2,0-0.3-0.1-0.3-0.3c0-0.2-2.1-1.3-2.3-1.4c-1-0.6-2.2-1.2-3.4-0.8
		c-0.7,0.2-1.4,0.7-2.1,1c-1.3,1.5-2.6,3.2-4.4,2.2c-0.4-0.2-1.9-1.5-2.2-1.3c-0.4,0.5-0.9,0.9-1.5,1.2c-1.7,0.7-3.5,0.6-5.3,0.5
		c-0.1,0-0.3-0.1-0.3-0.2c-0.1-0.7-0.5-2.1-1.5-1.3c-0.2,0.2-0.4,0.4-0.7,0.6c-0.3,0.2-0.6,0.6-1,0.7c-1.2,0.5-4.8-0.2-5.3-1
		c-0.4-0.6-0.5-1.3-0.7-2c-0.3-1.7-0.1-3.6-0.2-5.4C2.7,84,2.4,79.6,2.1,75.2c-0.2-2.2-0.4-4.6-0.2-6.8c0.1-1.5,0.2-3.5,0.9-4.8
		c0.6-1.1,0.2-1.9-0.6-2.7c-0.2-0.2-0.3-0.7-0.3-0.9c-0.2-1.7,0.2-3.4,0.2-5c0.1-1.2,0.3-2.4,0.3-3.7c0-0.9-0.2-1.8-0.3-2.8
		c0-0.5-0.1-0.9,0.2-1.4c0.6-0.8,0.5-1.2,0.2-2.1c-0.6-1.7,0-3.8,0.1-5.6c0.2-2.1,0.2-4.2,0-6.4c-0.2-2.4-0.7-4.6-0.6-7
		c0.2-2.2,0.3-4.1,0.4-6.2C2.6,15.9,2.6,12,2.5,8.1V9c0,0-0.3-4.9,1.7-6.1c3.1-1.7,7-1.5,10.4-1.6c4.4-0.2,8.9,0.2,13.4,0.2
		c2.6,0,5.1,0,7.7-0.6c1.8-0.4,3.5-0.6,5.3-0.5c2.2,0.2,4.3,0.7,6.5,0.9c2.2,0.2,4.3,0.1,6.4,0c4.7-0.3,9.4-0.2,14.1,0l7.3,0.3
		c1.1,0,2.4,0.3,3.5,0L80.8,1c1.5-0.4,2.6,0,4.1,0.3l5.5,1.3c0.6-0.2,1.2-0.2,1.7,0.3c1,0.9,0,2.1,0.8,3.2c0.9,1.3,1.7,2.1,1.9,3.7
		c0.2,1.7,0.3,3.6-0.3,5.3c-0.4,1.1-0.9,2.4-0.4,3.6c0.3,0.7,0.8,1.5,1,2.2c0.4,1.7,0.4,3.4,0.3,5.1c-0.1,2-0.2,4-0.4,5.9
		c-0.2,1.3-0.7,2.5-0.7,3.7c0,1,0.3,1.9,0.5,2.9c0.7,3.2-2.2,5.3-2.7,8.2c-0.3,1.6,1.5,0.9,2.4,1.8c0.5,0.6,0.2,1.7,0.2,2.3
		c-0.2,1.7,0.3,3.4,0.2,5.1c-0.1,2.2-0.7,3.9-0.2,6.1c0.3,1.2,0.5,2.4,0.2,3.7c-0.3,1.2-1.7,4.3,0.2,4.8c0.1,0,0.2,0.1,0.2,0.2
		c0,0.6-0.1,0.9-0.3,1.5c-0.8,1.9,0.5,1.5,0.7,2.7c0.2,1.1-0.4,1.5-0.6,2.6c-0.3,1.7,0.6,3,0.6,4.6c0,1.5-0.9,2.4-0.6,3.8
		c0.1,0,0.2,0.1,0.2,0.2c0.2,0.7,0.2,1.6,0,2.4c-0.4,1.1-0.8,1.4,0.4,2C95.7,90.2,95.7,90.5,95.5,90.6L95.5,90.6z M75,38.5
		c-0.7-4.6-1.2-9.4-2.7-13.8c-0.7-1.8-1-3.9-3.1-4.2c-2.8-0.5-1.9,1.9-1.5,4.1c0.6,3.5,0.8,7,1.7,10.4c0.6,2.4,1.8,5.1-1.4,3.3
		c-5.3-3.2-7.1-10.1-9.2-15.3c-0.9-2.4-3.7-8-5.6-9.4C52.3,13,47.8,12,47,12.6c-1.8,1.3,3.8,10.1,4.6,11.7c1.7,3.5,3.6,7,5.8,10.2
		c1.6,2.2,4.1,4.3,0.6,5.7c-3.7,1.4-5.5-0.7-8-2.6c-2-1.5-4.6-1.7-7.1-2c-6.9-0.8-13.5,0-19,4.6c-2.7,2.2-4.4,5.3-5.8,8.4
		c-0.4,0.8-2.7,7.7-2.4,7.8c-1.4-0.2-0.6-3.5-2.4-1.6c-1.6,1.7,0.5,6.6,1.2,8.2c1.6,3.8,3.3,7.5,4.6,11.4c1.3,3.9,1.5,3.8,5.1,4.2
		c4.6,0.4,9.1-1,13.6-1.5c0,0-8-5,7.8,0.5c3.5,1.2,7.3,0.9,11,1c2.6-0.6,2.7-5.1,4.1-7.3c0.5-0.8,3.1-4.8,3.9-5.1
		c1.1-0.4,2.7,0.7,3.9,0.9c6.6,1,8.6-4.4,7.6-9.7c-0.9-4.6-0.4-9.8,0.3-13.4C76.6,42.6,75.2,39.7,75,38.5L75,38.5z M45.5,94.9
		c-0.7-0.7-1.8-0.8-2.5-1.5c-0.4-0.4-0.5-0.8-0.4-1.3c0,0,0,0,0,0c-0.5-0.9,0.7-1.7,1.5-1.4c0.4,0.2,1.1,0.5,1.1,1
		c0,0.7-0.4,1.1-0.5,1.7c0.5,0.3,0.9,0.9,1.2,1.3C46,94.9,45.7,95.1,45.5,94.9z"/>
</g>
</svg>
