<?xml version="1.0" encoding="utf-8"?>
<!-- Generator: Adobe Illustrator 22.0.1, SVG Export Plug-In . SVG Version: 6.00 Build 0)  -->
<svg version="1.1" id="Layer_1" xmlns="http://www.w3.org/2000/svg" xmlns:xlink="http://www.w3.org/1999/xlink" x="0px" y="0px"
	 viewBox="0 0 57.5 57.2" style="enable-background:new 0 0 57.5 57.2;" xml:space="preserve">
<style type="text/css">
	.st0{fill:#F0B24E;}
	.st1{display:none;}
	.st2{display:inline;fill:#FFFFFF;}
	.st3{fill:#FFFFFF;}
</style>
<g>
	<circle class="st0" cx="28.8" cy="28.4" r="28"/>
	<g class="st1">
		<path class="st2" d="M32.3,19.1c-1.6,6.2-3.2,12.9-4.9,19.6c-0.2,0.8-0.7,1.6-1.7,1.3c-1-0.3-1-1.2-0.8-2c0.6-2.6,1.2-5.2,1.8-7.9
			c1-4,2-7.9,3-11.9c0.2-0.8,0.6-1.6,1.6-1.5C32.3,17,32.4,17.8,32.3,19.1z"/>
		<path class="st2" d="M36.8,20.3c0.3,0.2,0.8,0.4,1.1,0.7c2,1.9,4,3.9,5.9,5.9c1,1,1.1,2.1,0,3.1c-2,2-3.9,3.9-6,5.9
			c-0.6,0.6-1.5,1.3-2.3,0.3c-0.8-0.9-0.1-1.7,0.5-2.3c1.4-1.4,2.8-2.9,4.2-4.2c0.9-0.9,0.9-1.6,0-2.5c-1.6-1.5-3.1-3.1-4.6-4.7
			c-0.4-0.4-0.7-1-0.4-1.6C35.6,20.4,36,20.2,36.8,20.3z"/>
		<path class="st2" d="M20.8,36.6c-0.3-0.2-0.8-0.4-1.1-0.7c-2-1.9-4-3.9-5.9-5.9c-1-1-1.1-2.1,0-3.1c2-2,3.9-3.9,6-5.9
			c0.6-0.6,1.5-1.3,2.3-0.3c0.8,0.9,0.1,1.7-0.5,2.3c-1.4,1.4-2.8,2.9-4.2,4.2c-0.9,0.9-0.9,1.6,0,2.5c1.6,1.5,3.1,3.1,4.6,4.7
			c0.4,0.4,0.7,1,0.4,1.6C21.9,36.5,21.5,36.7,20.8,36.6z"/>
	</g>
	<g>
		<g>
			<g>
				<path class="st3" d="M31.1,13.4c-6.8,0-12.4,5.5-12.4,12.4c0,2.8,0.9,5.3,2.5,7.4L14,40.4l3,3l7.3-7.3c1.9,1.3,4.3,2,6.8,2
					c6.8,0,12.4-5.5,12.4-12.4S38,13.4,31.1,13.4z M31.1,34.9c-5,0-9.1-4.1-9.1-9.1s4.1-9.1,9.1-9.1s9.1,4.1,9.1,9.1
					S36.2,34.9,31.1,34.9z"/>
			</g>
		</g>
		<g>
			<g>
				<rect x="26.9" y="24.3" class="st3" width="2.1" height="5.5"/>
			</g>
		</g>
		<g>
			<g>
				<rect x="30.1" y="21.2" class="st3" width="2.1" height="8.6"/>
			</g>
		</g>
		<g>
			<g>
				<rect x="33.3" y="22.8" class="st3" width="2.1" height="7"/>
			</g>
		</g>
	</g>
</g>
</svg>
