<?xml version="1.0" encoding="utf-8"?>
<!-- Generator: Adobe Illustrator 22.0.1, SVG Export Plug-In . SVG Version: 6.00 Build 0)  -->
<svg version="1.1" id="Layer_1" xmlns="http://www.w3.org/2000/svg" xmlns:xlink="http://www.w3.org/1999/xlink" x="0px" y="0px"
	 viewBox="0 0 57.5 57.2" style="enable-background:new 0 0 57.5 57.2;" xml:space="preserve">
<style type="text/css">
	.st0{fill:#9ACC72;}
	.st1{display:none;}
	.st2{display:inline;fill:#FFFFFF;}
	.st3{fill:#FFFFFF;}
</style>
<g>
	<circle class="st0" cx="28.8" cy="28.6" r="28"/>
	<g class="st1">
		<path class="st2" d="M32.3,19.3c-1.6,6.2-3.2,12.9-4.9,19.6c-0.2,0.8-0.7,1.6-1.7,1.3c-1-0.3-1-1.2-0.8-2c0.6-2.6,1.2-5.2,1.8-7.9
			c1-4,2-7.9,3-11.9c0.2-0.8,0.6-1.6,1.6-1.5C32.3,17.2,32.4,18,32.3,19.3z"/>
		<path class="st2" d="M36.8,20.5c0.3,0.2,0.8,0.4,1.1,0.7c2,1.9,4,3.9,5.9,5.9c1,1,1.1,2.1,0,3.1c-2,2-3.9,3.9-6,5.9
			c-0.6,0.6-1.5,1.3-2.3,0.3c-0.8-0.9-0.1-1.7,0.5-2.3c1.4-1.4,2.8-2.9,4.2-4.2c0.9-0.9,0.9-1.6,0-2.5c-1.6-1.5-3.1-3.1-4.6-4.7
			c-0.4-0.4-0.7-1-0.4-1.6C35.6,20.6,36,20.4,36.8,20.5z"/>
		<path class="st2" d="M20.8,36.8c-0.3-0.2-0.8-0.4-1.1-0.7c-2-1.9-4-3.9-5.9-5.9c-1-1-1.1-2.1,0-3.1c2-2,3.9-3.9,6-5.9
			c0.6-0.6,1.5-1.3,2.3-0.3c0.8,0.9,0.1,1.7-0.5,2.3c-1.4,1.4-2.8,2.9-4.2,4.2c-0.9,0.9-0.9,1.6,0,2.5c1.6,1.5,3.1,3.1,4.6,4.7
			c0.4,0.4,0.7,1,0.4,1.6C21.9,36.7,21.5,36.9,20.8,36.8z"/>
	</g>
	<g>
		<g>
			<g>
				<path class="st3" d="M43.6,13.8h-3.7c-0.5,0-0.9,0.4-0.9,0.9v0.9h-7.6c-0.4-1.1-1.4-1.9-2.6-1.9c-1.2,0-2.2,0.8-2.6,1.9h-7.6
					v-0.9c0-0.5-0.4-0.9-0.9-0.9h-3.7c-0.5,0-0.9,0.4-0.9,0.9v3.7c0,0.5,0.4,0.9,0.9,0.9h3.7c0.5,0,0.9-0.4,0.9-0.9v-0.9h3.8
					C19,19.6,17,23.2,16.8,27c-1.1,0.4-1.9,1.4-1.9,2.6c0,1.5,1.2,2.8,2.8,2.8c1.5,0,2.8-1.2,2.8-2.8c0-1.2-0.8-2.2-1.8-2.6
					c0.3-4.4,3.5-8.1,7.7-9.2c0.5,0.9,1.4,1.5,2.5,1.5s2-0.6,2.5-1.5c4.2,1.1,7.3,4.8,7.7,9.2c-1.1,0.4-1.8,1.4-1.8,2.6
					c0,1.5,1.2,2.8,2.8,2.8c1.5,0,2.8-1.2,2.8-2.8c0-1.2-0.8-2.3-1.9-2.6c-0.2-3.8-2.3-7.4-5.6-9.5H39v0.9c0,0.5,0.4,0.9,0.9,0.9
					h3.7c0.5,0,0.9-0.4,0.9-0.9v-3.7C44.6,14.2,44.1,13.8,43.6,13.8z M16.7,17.5h-1.9v-1.9h1.9V17.5z M17.7,30.5
					c-0.5,0-0.9-0.4-0.9-0.9s0.4-0.9,0.9-0.9s0.9,0.4,0.9,0.9S18.2,30.5,17.7,30.5z M28.8,17.5c-0.5,0-0.9-0.4-0.9-0.9
					s0.4-0.9,0.9-0.9s0.9,0.4,0.9,0.9S29.3,17.5,28.8,17.5z M39.9,28.7c0.5,0,0.9,0.4,0.9,0.9s-0.4,0.9-0.9,0.9
					c-0.5,0-0.9-0.4-0.9-0.9S39.4,28.7,39.9,28.7z M42.7,17.5h-1.9v-1.9h1.9V17.5z"/>
			</g>
		</g>
		<g>
			<g>
				<path class="st3" d="M36.9,32.8l-7.4-11.1c0,0,0,0,0,0c0,0,0,0,0,0c0,0,0,0,0-0.1c-0.4-0.5-1.1-0.5-1.5,0.1c0,0,0,0,0,0
					c0,0,0,0,0,0l-7.4,11.1c-0.2,0.4-0.2,0.9,0.1,1.2c1.8,1.8,3,4.3,3.3,6.8c-0.1,0.1-0.3,0.2-0.4,0.4c-0.9,0.9-1.3,2.1-1.3,3.3
					c0,0.5,0.4,0.9,0.9,0.9h11.1c0.5,0,0.9-0.4,0.9-0.9c0-1.2-0.5-2.4-1.3-3.3c-0.1-0.1-0.3-0.3-0.4-0.4c0.3-2.6,1.5-5,3.3-6.8
					C37.1,33.7,37.2,33.2,36.9,32.8z M28.8,32.4c0.5,0,0.9,0.4,0.9,0.9c0,0.5-0.4,0.9-0.9,0.9s-0.9-0.4-0.9-0.9
					C27.8,32.8,28.3,32.4,28.8,32.4z M24.3,43.6c0.4-1.1,1.4-1.9,2.6-1.9h3.7c1.2,0,2.2,0.8,2.6,1.9H24.3z M31.7,39.9
					c-0.4-0.1-0.7-0.1-1.1-0.1h-3.7c-0.4,0-0.8,0-1.1,0.1c-0.4-2.5-1.6-4.8-3.2-6.7l5.3-7.9v5.4c-1.1,0.4-1.9,1.4-1.9,2.6
					c0,1.5,1.2,2.8,2.8,2.8s2.8-1.2,2.8-2.8c0-1.2-0.8-2.2-1.9-2.6v-5.4l5.3,7.9C33.3,35.1,32.2,37.4,31.7,39.9z"/>
			</g>
		</g>
	</g>
</g>
</svg>
