<?xml version="1.0" encoding="utf-8"?>
<!-- Generator: Adobe Illustrator 22.0.1, SVG Export Plug-In . SVG Version: 6.00 Build 0)  -->
<svg version="1.1" id="Layer_1" xmlns="http://www.w3.org/2000/svg" xmlns:xlink="http://www.w3.org/1999/xlink" x="0px" y="0px"
	 viewBox="0 0 57.5 57.2" style="enable-background:new 0 0 57.5 57.2;" xml:space="preserve">
<style type="text/css">
	.st0{fill:#8268D7;}
	.st1{fill:#FFFFFF;}
</style>
<g>
	<circle class="st0" cx="28.8" cy="28.6" r="28"/>
	<g>
		<path class="st1" d="M32.3,19.3c-1.6,6.2-3.2,12.9-4.9,19.6c-0.2,0.8-0.7,1.6-1.7,1.3c-1-0.3-1-1.2-0.8-2c0.6-2.6,1.2-5.2,1.8-7.9
			c1-4,2-7.9,3-11.9c0.2-0.8,0.6-1.6,1.6-1.5C32.3,17.2,32.4,18,32.3,19.3z"/>
		<path class="st1" d="M36.8,20.5c0.3,0.2,0.8,0.4,1.1,0.7c2,1.9,4,3.9,5.9,5.9c1,1,1.1,2.1,0,3.1c-2,2-3.9,3.9-6,5.9
			c-0.6,0.6-1.5,1.3-2.3,0.3c-0.8-0.9-0.1-1.7,0.5-2.3c1.4-1.4,2.8-2.9,4.2-4.2c0.9-0.9,0.9-1.6,0-2.5c-1.6-1.5-3.1-3.1-4.6-4.7
			c-0.4-0.4-0.7-1-0.4-1.6C35.6,20.6,36,20.4,36.8,20.5z"/>
		<path class="st1" d="M20.8,36.8c-0.3-0.2-0.8-0.4-1.1-0.7c-2-1.9-4-3.9-5.9-5.9c-1-1-1.1-2.1,0-3.1c2-2,3.9-3.9,6-5.9
			c0.6-0.6,1.5-1.3,2.3-0.3c0.8,0.9,0.1,1.7-0.5,2.3c-1.4,1.4-2.8,2.9-4.2,4.2c-0.9,0.9-0.9,1.6,0,2.5c1.6,1.5,3.1,3.1,4.6,4.7
			c0.4,0.4,0.7,1,0.4,1.6C21.9,36.7,21.5,36.9,20.8,36.8z"/>
	</g>
</g>
</svg>
