<?xml version="1.0" encoding="utf-8"?>
<!-- Generator: Adobe Illustrator 22.0.1, SVG Export Plug-In . SVG Version: 6.00 Build 0)  -->
<svg version="1.1" id="Layer_1" xmlns="http://www.w3.org/2000/svg" xmlns:xlink="http://www.w3.org/1999/xlink" x="0px" y="0px"
	 viewBox="0 0 57.5 57.2" style="enable-background:new 0 0 57.5 57.2;" xml:space="preserve">
<style type="text/css">
	.st0{fill:#E06D6F;}
	.st1{fill:#FFFFFF;stroke:#FFFFFF;stroke-miterlimit:10;}
	.st2{fill:#FFFFFF;}
</style>
<g>
	<circle class="st0" cx="28.5" cy="28.6" r="28"/>
	<g>
		<path class="st1" d="M42.1,38V19.2H35V15H22v4.2h-7.1V38h11.2v2.6h-4v1.6H35v-1.6h-4V38H42.1z M23.6,16.6h9.8v13.5h-9.8V16.6z
			 M29.3,40.6h-1.6V38h1.6V40.6z M16.5,36.4v-1.6h0v-1.6h0V20.8H22v10.9h13V20.8h5.5v11.7h0v3.4h0v0.6H16.5z"/>
		<path class="st2" d="M25.4,18.2h6.3v1.6h-6.3V18.2z"/>
		<path class="st2" d="M25.4,21.4h6.3V23h-6.3V21.4z"/>
		<path class="st2" d="M28,26.2l-0.6-0.6l-1.1,1.1l1.7,1.7l2.7-2.7l-1.1-1.1L28,26.2z"/>
	</g>
</g>
</svg>
